<svg width="800" height="800" viewBox="0 0 800 800" fill="none" xmlns="http://www.w3.org/2000/svg">
<circle cx="400" cy="400" r="400" fill="white"/>
<g clip-path="url(#clip0)">
<path d="M600.005 177H528.005C528.005 159.327 513.678 145 496.005 145C478.332 145 464.005 159.327 464.005 177H392.005C369.925 177.026 352.031 194.92 352.005 217V272.336H368.005V217C368.005 203.745 378.75 193 392.005 193H436.461L430.461 209H392.005C387.587 209 384.005 212.582 384.005 217V272.336H400.005V225H424.461L416.509 246.184C414.954 250.319 417.045 254.933 421.181 256.488C422.084 256.828 423.04 257.001 424.005 257H568.005C572.423 257.004 576.009 253.426 576.013 249.008C576.014 248.044 575.841 247.087 575.501 246.184L567.549 225H592.005V465H536.005C531.587 465 528.005 468.582 528.005 473V529H424.005V545H600.005C604.423 545 608.005 541.418 608.005 537V217C608.005 212.582 604.423 209 600.005 209H561.549L555.549 193H600.005C613.26 193 624.005 203.745 624.005 217V537C624.005 550.255 613.26 561 600.005 561H424.005V577H600.005C622.085 576.974 639.979 559.08 640.005 537V217C639.978 194.92 622.085 177.026 600.005 177ZM544.005 481H580.693L544.005 517.688V481ZM592.005 529H555.317L592.005 492.312V529ZM556.461 241H435.549L453.549 193H472.005C476.423 193 480.005 189.418 480.005 185V177C480.005 168.163 487.168 161 496.005 161C504.842 161 512.005 168.163 512.005 177V185C512.005 189.418 515.587 193 520.005 193H538.461L556.461 241Z" fill="black"/>
<path d="M373.565 289.04C363.516 289.045 353.572 291.087 344.333 295.04C318.57 306.024 289.441 306.024 263.677 295.04C225.901 278.873 182.172 296.392 166.005 334.168C162.051 343.407 160.01 353.351 160.005 363.4C160.047 394.633 167.32 425.431 181.253 453.384L192.205 475.304L205.805 597.624C207.68 614.517 222.895 626.692 239.788 624.817C253.66 623.277 264.759 612.595 266.829 598.792L284.357 481.92C285.97 471.069 296.075 463.58 306.926 465.193C315.575 466.479 322.367 473.27 323.653 481.92L341.181 598.792C343.701 615.601 359.371 627.185 376.18 624.665C389.983 622.596 400.665 611.496 402.205 597.624L415.805 475.304L426.757 453.384C440.69 425.431 447.963 394.633 448.005 363.4C447.983 322.31 414.655 289.018 373.565 289.04ZM412.445 446.224L400.845 469.424C400.426 470.27 400.155 471.182 400.045 472.12L386.301 595.856C385.413 603.964 378.12 609.816 370.012 608.927C363.339 608.196 357.999 603.056 357.013 596.416L339.485 479.544C336.534 459.949 318.257 446.456 298.662 449.407C283.092 451.752 270.869 463.974 268.525 479.544L250.997 596.416C249.799 604.484 242.288 610.053 234.22 608.855C227.58 607.869 222.44 602.529 221.709 595.856L207.957 472.12C207.846 471.182 207.576 470.27 207.157 469.424L195.557 446.224C182.734 420.495 176.041 392.147 176.005 363.4C176.011 331.147 202.162 305.005 234.415 305.01C242.31 305.011 250.122 306.614 257.381 309.72C287.166 322.424 320.844 322.424 350.629 309.72C380.281 297.031 414.606 310.782 427.295 340.434C430.401 347.692 432.003 355.505 432.005 363.4C431.966 392.148 425.271 420.496 412.445 446.224Z" fill="black"/>
<path d="M219.565 322.344C202.329 333.806 191.982 353.141 192.005 373.84V385H208.005V373.84C207.988 358.491 215.663 344.154 228.445 335.656L219.565 322.344Z" fill="black"/>
<path d="M568.005 337H464.005V353H568.005V337Z" fill="black"/>
<path d="M568.005 385H464.005V401H568.005V385Z" fill="black"/>
<path d="M568.005 433H464.005V449H568.005V433Z" fill="black"/>
<path d="M568.005 289H440.005V305H568.005V289Z" fill="black"/>
<path d="M512.005 481H464.005V497H512.005V481Z" fill="black"/>
</g>
<defs>
<clipPath id="clip0">
<rect width="480.009" height="480.009" fill="white" transform="translate(160 145)"/>
</clipPath>
</defs>
</svg>
