<svg width="800" height="800" viewBox="0 0 800 800" fill="none" xmlns="http://www.w3.org/2000/svg">
<path d="M191.357 527.804C188.109 525.666 183.749 526.576 181.62 529.838C169.439 548.489 163 570.118 163 592.388V617.759C163 621.659 166.149 624.82 170.033 624.82C173.918 624.82 177.067 621.659 177.067 617.759V592.388C177.067 572.877 182.709 553.925 193.383 537.581C195.513 534.32 194.606 529.942 191.357 527.804Z" fill="black"/>
<path d="M275.764 563.582H217.831C211.253 563.582 205.9 568.956 205.9 575.56V597.249C205.9 603.853 211.253 609.227 217.831 609.227H275.764C282.343 609.227 287.696 603.853 287.696 597.249V575.56C287.696 568.956 282.343 563.582 275.764 563.582ZM273.629 595.105H219.966V577.705H273.629V595.105Z" fill="black"/>
<path d="M375.871 227.177C360.249 227.177 347.539 239.937 347.539 255.62C347.539 271.304 360.249 284.063 375.871 284.063C391.494 284.063 404.204 271.304 404.204 255.62C404.204 239.937 391.494 227.177 375.871 227.177V227.177ZM375.871 269.942C368.005 269.942 361.605 263.517 361.605 255.62C361.605 247.724 368.005 241.299 375.871 241.299C383.737 241.299 390.137 247.724 390.137 255.62C390.137 263.517 383.737 269.942 375.871 269.942Z" fill="black"/>
<path d="M585.888 402.107C582.579 400.063 578.247 401.097 576.211 404.418C574.174 407.739 575.205 412.088 578.512 414.132C610.085 433.648 628.934 467.487 628.934 504.652C628.934 563.226 581.467 610.878 523.121 610.878C464.775 610.878 417.309 563.225 417.309 504.652C417.309 446.079 464.775 398.426 523.121 398.426C533.165 398.426 543.111 399.841 552.684 402.632C556.412 403.717 560.316 401.565 561.399 397.82C562.482 394.075 560.337 390.158 556.607 389.071C545.759 385.908 534.492 384.304 523.121 384.304C468.611 384.304 422.487 421.02 407.985 471.111L392.274 464.675V435.21C415.425 416.807 429.698 388.443 429.698 357.726V354.146C446.581 353.091 459.996 338.975 459.996 321.766C459.996 316.948 458.938 312.377 457.054 308.261L457.058 276.103C464.346 274.255 469.762 267.638 469.762 259.756V251.486C469.762 242.528 462.77 235.2 453.981 234.661L454.008 233.082L453.099 216.349C451.944 195.077 438.763 176.104 419.376 167.617L418.361 166.621C406.472 154.955 390.162 149.181 373.616 150.782L366.129 151.506L361.562 149.543C347.477 143.486 331.32 143.486 317.237 149.543L312.67 151.506L305.183 150.782C288.637 149.181 272.328 154.955 260.44 166.621L259.425 167.617C240.039 176.103 226.857 195.076 225.703 216.349L224.772 233.468L224.682 235.287C217.682 237.327 212.547 243.81 212.547 251.486V259.756C212.547 266.391 216.389 272.127 221.949 274.882V307.811C219.934 312.041 218.803 316.773 218.803 321.766C218.803 338.976 232.218 353.092 249.101 354.146V358.008C249.101 389.166 263.818 417.966 287.604 436.35V464.675L233.718 486.748C222.444 491.365 212.023 497.751 202.744 505.73C199.794 508.266 199.451 512.724 201.978 515.686C203.369 517.316 205.34 518.153 207.323 518.153C208.943 518.153 210.569 517.595 211.895 516.455C220.026 509.464 229.157 503.867 239.032 499.822L278.839 483.517L333.408 620.56C334.477 623.242 337.063 625 339.939 625C342.815 625 345.403 623.241 346.47 620.56L401.038 483.517L404.836 485.073C403.793 491.447 403.241 497.986 403.241 504.652C403.241 571.013 457.019 625 523.12 625C589.222 625 643 571.012 643 504.652C643.001 462.547 621.65 424.213 585.888 402.107V402.107ZM429.698 289.385V276.633H442.991L442.988 293.196C438.987 291.026 434.481 289.683 429.698 289.385ZM375.872 298.185C352.492 298.185 333.472 279.091 333.472 255.62C333.472 232.15 352.492 213.056 375.872 213.056C399.251 213.056 418.271 232.15 418.271 255.62C418.271 279.091 399.251 298.185 375.872 298.185ZM429.698 339.974V303.556C438.814 304.572 445.93 312.347 445.93 321.766C445.93 331.184 438.814 338.958 429.698 339.974V339.974ZM455.695 251.485V259.755C455.695 261.275 454.463 262.51 452.951 262.51H431.905C432.179 260.25 432.338 257.953 432.338 255.62C432.338 253.286 432.18 250.99 431.905 248.729H452.951C454.464 248.73 455.695 249.966 455.695 251.485ZM239.747 217.117C240.633 200.802 250.95 186.29 266.031 180.146C266.878 179.8 267.65 179.294 268.302 178.652L270.272 176.72C279.189 167.97 291.417 163.64 303.835 164.839L313.111 165.736C314.283 165.85 315.47 165.665 316.554 165.198L322.774 162.524C333.34 157.981 345.458 157.981 356.024 162.524L362.244 165.198C363.328 165.665 364.514 165.85 365.687 165.736L374.963 164.839C387.377 163.639 399.61 167.97 408.526 176.719L410.496 178.652C411.149 179.293 411.921 179.8 412.768 180.146C427.848 186.29 438.166 200.802 439.051 217.117L439.979 234.202C439.98 234.231 439.973 234.378 439.958 234.609H428.299C419.965 213.728 399.613 198.934 375.871 198.934C352.129 198.934 331.777 213.728 323.444 234.609H284.834C280.95 234.609 277.801 237.771 277.801 241.67C277.801 245.57 280.95 248.731 284.834 248.731H319.837C319.563 250.991 319.405 253.288 319.405 255.621C319.405 257.955 319.562 260.251 319.837 262.512H229.358C227.845 262.512 226.614 261.276 226.614 259.757V251.487C226.614 249.967 227.846 248.732 229.358 248.732H254.861C258.745 248.732 261.894 245.571 261.894 241.671C261.894 237.772 258.745 234.61 254.861 234.61H238.799L238.819 234.203L239.747 217.117ZM249.102 289.385C244.399 289.678 239.966 290.984 236.016 293.09V276.632H249.102V289.385ZM232.87 321.765C232.87 312.346 239.986 304.571 249.102 303.555V339.974C239.986 338.958 232.87 331.184 232.87 321.765V321.765ZM263.169 358.007V276.632H323.444C331.778 297.513 352.129 312.307 375.871 312.307C391.364 312.307 405.418 306.007 415.63 295.829V357.726C415.63 393.492 393.071 425.554 359.495 437.514L358.803 437.76C345.952 442.337 331.809 442.308 318.977 437.678C285.596 425.634 263.169 393.617 263.169 358.007V358.007ZM314.22 450.967C322.209 453.85 330.605 455.29 339.005 455.29C347.304 455.29 355.604 453.883 363.507 451.068L364.199 450.821C369.076 449.084 373.754 446.983 378.206 444.555V467.748L349.803 492.254C343.991 497.268 335.257 497.233 329.484 492.175L301.67 467.799V445.395C305.686 447.52 309.867 449.397 314.22 450.967V450.967ZM339.939 598.917L291.864 478.182L292.046 478.108L320.235 502.813C325.768 507.664 332.729 510.09 339.693 510.09C346.577 510.09 353.465 507.715 358.972 502.964L387.798 478.094L388.014 478.182L339.939 598.917Z" fill="black"/>
<path d="M528.823 443.669C525.815 445.861 521.775 445.861 518.768 443.669C501.046 430.747 476.682 431.265 459.521 444.929C438.873 461.371 434.843 491.01 450.346 512.408L471.278 541.296L474.51 572.048C475.531 581.748 483.626 589.063 493.342 589.063C502.448 589.063 510.274 582.542 511.953 573.557L517.68 542.898C518.232 539.948 520.803 537.805 523.794 537.805C526.786 537.805 529.357 539.947 529.909 542.898L535.636 573.557C537.315 582.542 545.142 589.063 554.248 589.063C563.962 589.063 572.058 581.748 573.078 572.048L576.311 541.296L597.243 512.407C612.745 491.01 608.715 461.371 588.068 444.929C570.909 431.266 546.546 430.746 528.823 443.669V443.669ZM579.326 455.993C594.047 467.715 596.92 488.846 585.868 504.1L563.827 534.519C563.101 535.522 562.65 536.699 562.52 537.932L559.088 570.566C558.827 573.06 556.745 574.941 554.248 574.941C551.906 574.941 549.894 573.265 549.461 570.954L543.734 540.296C541.936 530.67 533.551 523.683 523.794 523.683C514.039 523.683 505.654 530.669 503.855 540.295L498.128 570.954C497.696 573.265 495.684 574.941 493.342 574.941C490.844 574.941 488.762 573.06 488.5 570.566L485.07 537.932C484.939 536.699 484.489 535.522 483.762 534.519L461.721 504.1C450.668 488.846 453.541 467.715 468.263 455.993C480.496 446.251 497.867 445.882 510.501 455.094C518.452 460.891 529.136 460.891 537.088 455.094C549.725 445.882 567.091 446.252 579.326 455.993Z" fill="black"/>
<path d="M509.81 474.142L509.791 474.13C506.501 472.064 502.158 473.068 500.099 476.376C498.041 479.683 499.042 484.039 502.337 486.106C502.36 486.122 502.403 486.148 502.429 486.163C508.816 490.061 516.298 492.009 523.78 492.009C531.272 492.009 538.764 490.056 545.155 486.149C548.473 484.121 549.525 479.776 547.505 476.446C545.484 473.114 541.155 472.06 537.839 474.088C529.437 479.224 518.143 479.225 509.81 474.142V474.142Z" fill="black"/>
<circle cx="400" cy="400" r="400" fill="white"/>
</svg>
