<svg width="112" height="112" viewBox="0 0 800 800" fill="none" xmlns="http://www.w3.org/2000/svg">
<circle cx="400" cy="400" r="400" fill="white"/>
<g clip-path="url(#clip0)">
<path d="M652.918 362.933L567.39 251.83C564.225 247.721 558.451 246.707 554.073 249.491L498.852 284.61H426.833C425.901 284.61 424.974 284.808 424.077 285.07L368.237 301.144L310.296 285.296L253.996 249.491C249.692 246.754 244.023 247.682 240.822 251.651L146.222 368.828C142.823 373.038 143.384 379.186 147.485 382.714L197.068 425.385L241.551 485.33C228.542 499.19 228.795 521.049 242.331 534.589C248.331 540.585 255.961 543.973 263.808 544.761C263.536 546.538 263.395 548.343 263.395 550.176C263.395 559.634 267.079 568.527 273.766 575.213C280.456 581.903 289.348 585.587 298.806 585.587C298.935 585.587 299.06 585.579 299.185 585.575C299.181 585.817 299.169 586.055 299.169 586.297C299.169 595.755 302.853 604.647 309.539 611.337C316.229 618.024 325.122 621.708 334.58 621.708C336.448 621.708 338.296 621.556 340.108 621.275C340.876 629.15 344.272 636.815 350.292 642.834C357.192 649.739 366.26 653.189 375.329 653.189C384.397 653.189 393.465 649.739 400.369 642.834L405.785 637.419L408.057 639.252C414.903 645.883 423.792 649.197 432.681 649.197C441.749 649.197 450.818 645.747 457.718 638.842C464.763 631.797 468.213 622.499 468.069 613.248C477.316 613.388 486.619 609.942 493.663 602.901C500.7 595.86 504.151 586.569 504.014 577.322C513.648 577.474 522.786 573.774 529.605 566.956C536.65 559.911 540.1 550.612 539.956 541.361C549.211 541.501 558.505 538.055 565.55 531.01C577.573 518.987 579.121 500.402 570.205 486.683L602.684 418.66L651.515 376.64C655.55 373.167 656.166 367.147 652.918 362.933V362.933ZM250.791 271.202L291.274 296.945L203.208 404.235L167.918 373.861L250.791 271.202ZM256.502 498.679L268.721 486.461C269.091 486.09 269.481 485.739 269.879 485.412C272.269 483.463 275.161 482.301 278.226 482.024C278.311 482.016 278.401 482.016 278.487 482.012C278.923 481.977 279.36 481.954 279.801 481.958C283.988 482.016 287.879 483.728 290.764 486.773C296.424 492.757 296.12 502.535 290.085 508.57L278.237 520.418C272.245 526.41 262.495 526.41 256.502 520.418C250.51 514.422 250.51 504.671 256.502 498.679ZM287.937 561.041C285.033 558.141 283.434 554.281 283.434 550.176C283.434 546.071 285.033 542.211 287.937 539.306L311.629 515.615C316.167 511.077 323.301 509.833 329.103 512.597C335.083 515.447 338.448 521.938 337.57 528.468C337.103 531.954 335.481 535.236 332.993 537.728L309.676 561.041C306.771 563.946 302.912 565.544 298.806 565.544C294.701 565.544 290.842 563.946 287.937 561.041ZM323.711 597.162C320.806 594.261 319.208 590.402 319.208 586.297C319.208 582.191 320.806 578.332 323.711 575.427L347.399 551.735C352.253 546.885 360.038 545.841 365.98 549.299C371.407 552.457 374.249 558.655 373.317 564.831C372.806 568.226 371.192 571.419 368.763 573.848L345.45 597.162C342.545 600.066 338.685 601.665 334.58 601.665C330.475 601.665 326.615 600.066 323.711 597.162ZM364.459 628.663C358.467 622.671 358.467 612.92 364.459 606.928L376.677 594.71C377.048 594.339 377.434 593.992 377.831 593.665C377.843 593.657 377.851 593.649 377.859 593.642C379.847 592.028 382.182 590.948 384.674 590.476C384.732 590.468 384.791 590.46 384.849 590.452C385.278 590.375 385.714 590.312 386.151 590.273C386.327 590.258 386.502 590.258 386.681 590.246C387.04 590.226 387.395 590.203 387.757 590.207C391.941 590.265 395.835 591.973 398.72 595.022C399.075 595.396 399.406 595.786 399.711 596.187C404.319 602.211 403.699 611.158 397.98 616.881L386.194 628.667C380.202 634.659 370.451 634.655 364.459 628.663V628.663ZM551.379 516.839C545.386 522.835 535.636 522.831 529.644 516.839C529.425 516.62 529.195 516.418 528.962 516.227L464.533 451.12C460.638 447.186 454.295 447.155 450.361 451.049C446.428 454.94 446.397 461.283 450.287 465.217L515.414 531.022C515.422 531.03 515.429 531.038 515.437 531.045C521.429 537.037 521.429 546.792 515.437 552.784C512.533 555.688 508.673 557.287 504.568 557.287C500.459 557.287 496.599 555.688 493.699 552.784L450.131 508.765C446.241 504.831 439.898 504.8 435.964 508.691C432.03 512.585 431.999 518.928 435.89 522.862L478.79 566.207C479.008 566.48 479.242 566.741 479.492 566.991C485.484 572.983 485.484 582.737 479.492 588.729C473.496 594.721 463.741 594.718 457.749 588.725L433.972 564.698C430.077 560.764 423.734 560.729 419.8 564.624C415.866 568.515 415.835 574.858 419.726 578.792L442.841 602.144C443.059 602.417 443.293 602.682 443.547 602.932C449.539 608.924 449.539 618.679 443.547 624.671C437.554 630.667 427.804 630.663 421.812 624.671C421.122 623.981 420.311 623.45 419.539 622.858C418.884 622.359 418.712 622.012 419.04 621.217C419.371 620.409 419.866 619.68 420.198 618.87C420.564 617.965 420.861 617.033 421.149 616.098C422.685 611.146 423.137 605.821 422.447 600.682C421.122 590.823 415.699 581.926 407.48 576.297C403.04 573.26 397.902 571.267 392.576 570.519C395.157 559.135 392.058 546.792 383.995 538.273C377.36 531.264 368.397 527.33 358.756 527.197C358.405 527.193 358.054 527.193 357.699 527.197C357.913 517.997 354.568 508.854 348.225 502.153C341.586 495.143 332.623 491.209 322.986 491.077C320.12 491.038 317.227 491.342 314.436 491.985C313.243 483.685 309.06 476.005 302.725 470.511C296.428 465.061 288.51 462.036 280.077 461.919C271.2 461.79 262.479 465.065 255.887 471.018L217.154 418.827L309.816 305.939L339.348 314.017L300.779 382.075C296.116 390.305 294.939 399.857 297.461 408.972C299.984 418.091 305.902 425.677 314.132 430.34C314.647 430.632 315.165 430.909 315.691 431.174C315.73 431.194 315.769 431.213 315.812 431.233C317.196 431.923 318.619 432.515 320.062 433.014C326.779 435.342 334.034 435.595 341.032 433.662C350.147 431.139 357.734 425.217 362.397 416.991L387.461 372.761L432.213 375.935L551.383 495.1C557.371 501.096 557.371 510.847 551.379 516.839V516.839ZM555.531 470.909L443.738 359.12C443.527 358.906 443.305 358.703 443.075 358.512C441.465 357.171 439.469 356.36 437.363 356.212L382.568 352.325C378.779 352.063 375.013 354.079 373.141 357.381L344.962 407.112C342.939 410.683 339.644 413.252 335.687 414.348C331.734 415.443 327.586 414.929 324.011 412.905C320.44 410.882 317.871 407.588 316.775 403.631C315.68 399.673 316.19 395.525 318.218 391.954L355.835 325.565L371.079 321.179C371.18 321.147 371.278 321.108 371.379 321.077L428.272 304.648H497.012L582.829 413.74L555.531 470.909ZM595.955 398.013L516.595 297.073L557.098 271.315L631.254 367.638L595.955 398.013Z" fill="black"/>
<path d="M453.578 265.795C456.143 265.795 458.708 264.816 460.665 262.859L529.11 194.415C533.024 190.501 533.024 184.158 529.11 180.244C525.195 176.329 518.852 176.329 514.938 180.244L446.494 248.688C442.58 252.602 442.58 258.945 446.494 262.859C448.451 264.816 451.016 265.795 453.578 265.795Z" fill="black"/>
<path d="M338.335 262.859C340.292 264.816 342.857 265.795 345.422 265.795C347.984 265.795 350.549 264.816 352.506 262.859C356.42 258.945 356.42 252.602 352.506 248.688L284.062 180.244C280.148 176.329 273.805 176.329 269.89 180.244C265.976 184.158 265.976 190.501 269.89 194.415L338.335 262.859Z" fill="black"/>
<path d="M399.5 265.795C405.032 265.795 409.52 261.307 409.52 255.775V199.132C409.52 193.6 405.032 189.113 399.5 189.113C393.968 189.113 389.481 193.6 389.481 199.132V255.775C389.481 261.307 393.968 265.795 399.5 265.795Z" fill="black"/>
<path d="M390.252 162.817C391.843 166.672 395.808 169.203 399.991 168.984C404.124 168.77 407.753 165.978 409.032 162.045C410.315 158.08 408.919 153.561 405.597 151.035C402.21 148.454 397.484 148.31 393.941 150.653C389.987 153.265 388.455 158.466 390.252 162.817Z" fill="black"/>
</g>
<defs>
<clipPath id="clip0">
<rect width="511" height="511" fill="white" transform="translate(144 145)"/>
</clipPath>
</defs>
</svg>
