<svg width="112" height="112" viewBox="0 0 800 800" fill="none" xmlns="http://www.w3.org/2000/svg">
<circle cx="400" cy="400" r="400" fill="white"/>
<path d="M266 318.68V316H250V318.68C250 323.264 250.12 327.848 250.352 332.408L266.336 331.592C266.12 327.296 266 323 266 318.68Z" fill="black"/>
<path d="M267.608 347.088L251.712 348.904C256.288 389.2 270.336 428.584 292.328 462.784L305.784 454.128C285.112 421.976 271.92 384.96 267.608 347.088Z" fill="black"/>
<path d="M448.888 237.696C435.032 247.056 418.816 252 402 252C385.184 252 368.976 247.056 355.12 237.704L346.168 250.968C362.68 262.112 381.984 268 402 268C422.016 268 441.32 262.112 457.84 250.96L448.888 237.696Z" fill="black"/>
<path d="M226 468H210C210 498.872 184.872 524 154 524V540C184.872 540 210 565.128 210 596H226C226 565.128 251.128 540 282 540V524C251.128 524 226 498.872 226 468ZM218 563.16C211.12 549.8 200.2 538.88 186.84 532C200.2 525.12 211.12 514.2 218 500.84C224.88 514.2 235.8 525.12 249.16 532C235.8 538.88 224.88 549.8 218 563.16Z" fill="black"/>
<path d="M594 260H578.68C563.528 222.312 526.44 196 484.416 196C464.576 196 445.92 201.368 430.464 211.512C413.352 222.776 390.656 222.776 373.536 211.512C358.088 201.368 339.432 196 319.584 196C263.568 196 218 241.568 218 297.584V318.68C218 376.04 234.4 431.848 265.416 480.096C282.104 506.056 294.36 534.4 301.848 564.336L310.552 599.168C313.608 611.44 324.576 620 337.216 620C350.936 620 362.376 610.152 364.4 596.584L382.344 476.92C383.824 467.12 392.088 460 402 460C411.912 460 420.176 467.12 421.648 476.92L439.592 596.584C441.624 610.152 453.064 620 466.784 620C479.424 620 490.392 611.44 493.448 599.168L502.16 564.336C509.648 534.392 521.912 506.048 538.6 480.096C556.832 451.728 570.168 420.048 577.968 387.168C577.96 387.448 578 387.72 578 388H594C594 357.128 619.128 332 650 332V316C619.128 316 594 290.872 594 260ZM525.136 471.44C507.496 498.88 494.552 528.832 486.64 560.464L477.92 595.296C476.648 600.424 472.064 604 466.784 604C461.048 604 456.272 599.88 455.424 594.208L437.48 474.544C434.824 456.84 419.896 444 402 444C384.104 444 369.176 456.84 366.52 474.544L348.576 594.208C347.736 599.88 342.952 604 337.216 604C331.936 604 327.352 600.424 326.064 595.296L317.352 560.464C309.448 528.824 296.496 498.872 278.856 471.44C249.512 425.784 234 372.96 234 318.68V297.584C234 250.392 272.392 212 319.584 212C336.296 212 351.912 216.456 364.744 224.888C375.952 232.256 388.496 236 402 236C415.504 236 428.048 232.256 439.248 224.888C452.088 216.456 467.704 212 484.416 212C526.624 212 563.04 243.448 569.04 284.512L569.376 289.72C559.456 305.472 541.952 316 522 316V332C540.784 332 557.4 341.328 567.56 355.56C562.16 396.584 547.504 436.64 525.136 471.44ZM586 355.16C579.12 341.8 568.2 330.88 554.84 324C568.2 317.12 579.12 306.2 586 292.84C592.88 306.2 603.8 317.12 617.16 324C603.8 330.88 592.88 341.8 586 355.16Z" fill="black"/>
</svg>
