<svg width="800" height="800" viewBox="0 0 800 800" fill="none" xmlns="http://www.w3.org/2000/svg">
<circle cx="400" cy="400" r="400" fill="white"/>
<path d="M218.357 542.804C215.109 540.666 210.749 541.576 208.62 544.838C196.439 563.489 190 585.118 190 607.388V632.759C190 636.659 193.149 639.82 197.033 639.82C200.918 639.82 204.067 636.659 204.067 632.759V607.388C204.067 587.877 209.709 568.925 220.383 552.581C222.513 549.32 221.606 544.942 218.357 542.804Z" fill="black"/>
<path d="M302.764 578.582H244.831C238.253 578.582 232.9 583.956 232.9 590.56V612.249C232.9 618.853 238.253 624.227 244.831 624.227H302.764C309.343 624.227 314.696 618.853 314.696 612.249V590.56C314.696 583.956 309.343 578.582 302.764 578.582ZM300.629 610.105H246.966V592.705H300.629V610.105Z" fill="black"/>
<path d="M402.871 242.177C387.249 242.177 374.539 254.937 374.539 270.62C374.539 286.304 387.249 299.063 402.871 299.063C418.494 299.063 431.204 286.304 431.204 270.62C431.204 254.937 418.494 242.177 402.871 242.177V242.177ZM402.871 284.942C395.005 284.942 388.605 278.517 388.605 270.62C388.605 262.724 395.005 256.299 402.871 256.299C410.737 256.299 417.137 262.724 417.137 270.62C417.137 278.517 410.737 284.942 402.871 284.942Z" fill="black"/>
<path d="M612.888 417.107C609.579 415.063 605.247 416.097 603.211 419.418C601.174 422.739 602.205 427.088 605.512 429.132C637.085 448.648 655.934 482.487 655.934 519.652C655.934 578.226 608.467 625.878 550.121 625.878C491.775 625.878 444.309 578.225 444.309 519.652C444.309 461.079 491.775 413.426 550.121 413.426C560.165 413.426 570.111 414.841 579.684 417.632C583.412 418.717 587.316 416.565 588.399 412.82C589.482 409.075 587.337 405.158 583.607 404.071C572.759 400.908 561.492 399.304 550.121 399.304C495.611 399.304 449.487 436.02 434.985 486.111L419.274 479.675V450.21C442.425 431.807 456.698 403.443 456.698 372.726V369.146C473.581 368.091 486.996 353.975 486.996 336.766C486.996 331.948 485.938 327.377 484.054 323.261L484.058 291.103C491.346 289.255 496.762 282.638 496.762 274.756V266.486C496.762 257.528 489.77 250.2 480.981 249.661L481.008 248.082L480.099 231.349C478.944 210.077 465.763 191.104 446.376 182.617L445.361 181.621C433.472 169.955 417.162 164.181 400.616 165.782L393.129 166.506L388.562 164.543C374.477 158.486 358.32 158.486 344.237 164.543L339.67 166.506L332.183 165.782C315.637 164.181 299.328 169.955 287.44 181.621L286.425 182.617C267.039 191.103 253.857 210.076 252.703 231.349L251.772 248.468L251.682 250.287C244.682 252.327 239.547 258.81 239.547 266.486V274.756C239.547 281.391 243.389 287.127 248.949 289.882V322.811C246.934 327.041 245.803 331.773 245.803 336.766C245.803 353.976 259.218 368.092 276.101 369.146V373.008C276.101 404.166 290.818 432.966 314.604 451.35V479.675L260.718 501.748C249.444 506.365 239.023 512.751 229.744 520.73C226.794 523.266 226.451 527.724 228.978 530.686C230.369 532.316 232.34 533.153 234.323 533.153C235.943 533.153 237.569 532.595 238.895 531.455C247.026 524.464 256.157 518.867 266.032 514.822L305.839 498.517L360.408 635.56C361.477 638.242 364.063 640 366.939 640C369.815 640 372.403 638.241 373.47 635.56L428.038 498.517L431.836 500.073C430.793 506.447 430.241 512.986 430.241 519.652C430.241 586.013 484.019 640 550.12 640C616.222 640 670 586.012 670 519.652C670.001 477.547 648.65 439.213 612.888 417.107V417.107ZM456.698 304.385V291.633H469.991L469.988 308.196C465.987 306.026 461.481 304.683 456.698 304.385ZM402.872 313.185C379.492 313.185 360.472 294.091 360.472 270.62C360.472 247.15 379.492 228.056 402.872 228.056C426.251 228.056 445.271 247.15 445.271 270.62C445.271 294.091 426.251 313.185 402.872 313.185ZM456.698 354.974V318.556C465.814 319.572 472.93 327.347 472.93 336.766C472.93 346.184 465.814 353.958 456.698 354.974V354.974ZM482.695 266.485V274.755C482.695 276.275 481.463 277.51 479.951 277.51H458.905C459.179 275.25 459.338 272.953 459.338 270.62C459.338 268.286 459.18 265.99 458.905 263.729H479.951C481.464 263.73 482.695 264.966 482.695 266.485ZM266.747 232.117C267.633 215.802 277.95 201.29 293.031 195.146C293.878 194.8 294.65 194.294 295.302 193.652L297.272 191.72C306.189 182.97 318.417 178.64 330.835 179.839L340.111 180.736C341.283 180.85 342.47 180.665 343.554 180.198L349.774 177.524C360.34 172.981 372.458 172.981 383.024 177.524L389.244 180.198C390.328 180.665 391.514 180.85 392.687 180.736L401.963 179.839C414.377 178.639 426.61 182.97 435.526 191.719L437.496 193.652C438.149 194.293 438.921 194.8 439.768 195.146C454.848 201.29 465.166 215.802 466.051 232.117L466.979 249.202C466.98 249.231 466.973 249.378 466.958 249.609H455.299C446.965 228.728 426.613 213.934 402.871 213.934C379.129 213.934 358.777 228.728 350.444 249.609H311.834C307.95 249.609 304.801 252.771 304.801 256.67C304.801 260.57 307.95 263.731 311.834 263.731H346.837C346.563 265.991 346.405 268.288 346.405 270.621C346.405 272.955 346.562 275.251 346.837 277.512H256.358C254.845 277.512 253.614 276.276 253.614 274.757V266.487C253.614 264.967 254.846 263.732 256.358 263.732H281.861C285.745 263.732 288.894 260.571 288.894 256.671C288.894 252.772 285.745 249.61 281.861 249.61H265.799L265.819 249.203L266.747 232.117ZM276.102 304.385C271.399 304.678 266.966 305.984 263.016 308.09V291.632H276.102V304.385ZM259.87 336.765C259.87 327.346 266.986 319.571 276.102 318.555V354.974C266.986 353.958 259.87 346.184 259.87 336.765V336.765ZM290.169 373.007V291.632H350.444C358.778 312.513 379.129 327.307 402.871 327.307C418.364 327.307 432.418 321.007 442.63 310.829V372.726C442.63 408.492 420.071 440.554 386.495 452.514L385.803 452.76C372.952 457.337 358.809 457.308 345.977 452.678C312.596 440.634 290.169 408.617 290.169 373.007V373.007ZM341.22 465.967C349.209 468.85 357.605 470.29 366.005 470.29C374.304 470.29 382.604 468.883 390.507 466.068L391.199 465.821C396.076 464.084 400.754 461.983 405.206 459.555V482.748L376.803 507.254C370.991 512.268 362.257 512.233 356.484 507.175L328.67 482.799V460.395C332.686 462.52 336.867 464.397 341.22 465.967V465.967ZM366.939 613.917L318.864 493.182L319.046 493.108L347.235 517.813C352.768 522.664 359.729 525.09 366.693 525.09C373.577 525.09 380.465 522.715 385.972 517.964L414.798 493.094L415.014 493.182L366.939 613.917Z" fill="black"/>
<path d="M555.823 458.669C552.815 460.861 548.775 460.861 545.768 458.669C528.046 445.747 503.682 446.265 486.521 459.93C465.873 476.371 461.843 506.011 477.346 527.408L498.278 556.296L501.51 587.048C502.531 596.748 510.626 604.063 520.342 604.063C529.448 604.063 537.274 597.542 538.953 588.558L544.68 557.898C545.232 554.948 547.803 552.805 550.794 552.805C553.786 552.805 556.357 554.947 556.909 557.898L562.636 588.558C564.315 597.542 572.142 604.063 581.248 604.063C590.962 604.063 599.058 596.748 600.078 587.048L603.311 556.296L624.243 527.407C639.745 506.011 635.715 476.371 615.068 459.93C597.909 446.266 573.546 445.746 555.823 458.669V458.669ZM606.326 470.993C621.047 482.715 623.92 503.846 612.868 519.1L590.827 549.519C590.101 550.522 589.65 551.699 589.52 552.932L586.088 585.567C585.827 588.06 583.745 589.941 581.248 589.941C578.906 589.941 576.894 588.265 576.461 585.954L570.734 555.296C568.936 545.67 560.551 538.683 550.794 538.683C541.039 538.683 532.654 545.669 530.855 555.295L525.128 585.954C524.696 588.265 522.684 589.941 520.342 589.941C517.844 589.941 515.762 588.06 515.5 585.567L512.07 552.932C511.939 551.699 511.489 550.522 510.762 549.519L488.721 519.1C477.668 503.846 480.541 482.715 495.263 470.993C507.496 461.251 524.867 460.882 537.501 470.094C545.452 475.891 556.136 475.891 564.088 470.094C576.725 460.882 594.091 461.252 606.326 470.993Z" fill="black"/>
<path d="M536.81 489.142L536.791 489.13C533.501 487.064 529.158 488.068 527.099 491.376C525.041 494.683 526.042 499.039 529.337 501.106C529.36 501.122 529.403 501.148 529.429 501.163C535.816 505.061 543.298 507.009 550.78 507.009C558.272 507.009 565.764 505.056 572.155 501.149C575.473 499.121 576.525 494.776 574.505 491.446C572.484 488.115 568.155 487.06 564.839 489.088C556.437 494.224 545.143 494.225 536.81 489.142V489.142Z" fill="black"/>
</svg>
