<svg height="512" viewBox="0 0 512 512" width="512" xmlns="http://www.w3.org/2000/svg"><g id="FILLED_OUTLINE" data-name="FILLED OUTLINE"><path d="m96 416 8 32 32 8-32 8-8 32-8-32-32-8 32-8z" fill="#fab542"/><path d="m280 112-16-32-32-16 32-16 16-32 16 32 32 16-32 16z" fill="#fcc16b"/><path d="m440 56-16 32-32 16 32 16 16 32 16-32 32-16-32-16z" fill="#fab542"/><path d="m256.00011 192h-.00022a545.65491 545.65491 0 0 0 -214.944 44.11892l-.43324.18567a14.22686 14.22686 0 0 0 -8.62265 13.07655 14.22688 14.22688 0 0 0 5.06283 10.88229l91.86362 77.35883a197.27746 197.27746 0 0 0 127.07348 46.37774h.00014a197.27746 197.27746 0 0 0 127.07348-46.37773l91.86362-77.35883a14.22688 14.22688 0 0 0 5.06283-10.88229 14.22686 14.22686 0 0 0 -8.62262-13.07655l-.43324-.18567a545.65491 545.65491 0 0 0 -214.94403-44.11893z" fill="#d67676"/><path d="m96 304h264 64v24l-72 40h-192l-64-40z" fill="#f4f4f4"/><path d="m464 240-23.93715 9.57486a313.53607 313.53607 0 0 1 -116.44439 22.42514h-135.23692a313.53607 313.53607 0 0 1 -116.44439-22.42514l-23.93715-9.57486v-16l104-32h208l104 32z" fill="#f4f4f4"/><g fill="#dfdfdf"><path d="m200 272a8 8 0 0 1 -8-8v-56.05078h16v56.05078a8 8 0 0 1 -8 8z"/><path d="m256 272a8 8 0 0 1 -8-8v-56.05078h16v56.05078a8 8 0 0 1 -8 8z"/><path d="m152 272a8 8 0 0 1 -8-8v-56h16v56a8 8 0 0 1 -8 8z"/><path d="m112 264a8 8 0 0 1 -8-8v-48h16v48a8 8 0 0 1 -8 8z"/><path d="m312 272a8 8 0 0 1 -8-8v-56.05078h16v56.05078a8 8 0 0 1 -8 8z"/><path d="m360 272a8 8 0 0 1 -8-8v-56h16v56a8 8 0 0 1 -8 8z"/><path d="m400 264a8 8 0 0 1 -8-8v-48h16v48a8 8 0 0 1 -8 8z"/><path d="m312 360h-16v-48a8 8 0 0 1 8-8 8 8 0 0 1 8 8z"/><path d="m264 360h-16v-48a8 8 0 0 1 8-8 8 8 0 0 1 8 8z"/><path d="m360 360h-16v-48a8 8 0 0 1 8-8 8 8 0 0 1 8 8z"/><path d="m216 360h-16v-48a8 8 0 0 1 8-8 8 8 0 0 1 8 8z"/><path d="m168 360h-16v-48a8 8 0 0 1 8-8 8 8 0 0 1 8 8z"/></g><path d="m285.79381 170.40643.27471-.12486a120 120 0 0 1 112.23036 6.85015l85.71534 52.3816a8.3289 8.3289 0 0 1 3.98578 7.10688 8.32887 8.32887 0 0 1 -10.81317 7.9498l-47.26808-14.77127a479.99986 479.99986 0 0 0 -143.172-21.84961h-61.49351a479.99986 479.99986 0 0 0 -143.172 21.84961l-47.26807 14.77127a8.32887 8.32887 0 0 1 -10.81317-7.94979 8.3289 8.3289 0 0 1 3.98578-7.10688l85.71534-52.3816a120 120 0 0 1 112.23036-6.85015l.27471.12486a72 72 0 0 0 59.58762-.00001z" fill="#fda5a3"/><path d="m301.29878 352.98-11.99927 1.846a218.9934 218.9934 0 0 1 -66.599 0l-11.99927-1.846a218.99331 218.99331 0 0 1 -104.79606-46.483l-71.2483-57.88921a6.53559 6.53559 0 0 0 -10.65688 5.07236 6.53563 6.53563 0 0 0 1.40592 4.04974l58.70989 74.36585a218.99334 218.99334 0 0 0 156.28145 82.73886h.00011a218.9925 218.9925 0 0 0 31.20526 0h.00011a218.99338 218.99338 0 0 0 156.28146-82.73884l58.70988-74.36585a6.53563 6.53563 0 0 0 1.40592-4.04974 6.53559 6.53559 0 0 0 -10.65688-5.07236l-71.24828 57.88919a218.99331 218.99331 0 0 1 -104.79606 46.483z" fill="#fda5a3"/><path d="m448 52.75v-12.75h-16v12.75c0 23.71-18.74121 43-41.77734 43h-6.22266v16h6.22266c23.03613 0 41.77734 19.29 41.77734 43v12.75h16v-12.75c0-23.71 18.74121-43 41.77734-43h6.22266v-16h-6.22266c-23.03613 0-41.77734-19.29-41.77734-43zm-8 72.07031a58.85332 58.85332 0 0 0 -20.751-21.07031 58.85332 58.85332 0 0 0 20.751-21.07031 58.85332 58.85332 0 0 0 20.751 21.07031 58.85332 58.85332 0 0 0 -20.751 21.07031z"/><path d="m272 112h16a40.04584 40.04584 0 0 1 40-40v-16a40.04584 40.04584 0 0 1 -40-40h-16a40.04584 40.04584 0 0 1 -40 40v16a40.04584 40.04584 0 0 1 40 40zm8-67.17969a56.45716 56.45716 0 0 0 19.17969 19.17969 56.45716 56.45716 0 0 0 -19.17969 19.17969 56.45716 56.45716 0 0 0 -19.17969-19.17969 56.45716 56.45716 0 0 0 19.17969-19.17969z"/><path d="m88 416v2a30.03406 30.03406 0 0 1 -30 30h-2v16h2a30.03406 30.03406 0 0 1 30 30v2h16v-2a30.03406 30.03406 0 0 1 30-30h2v-16h-2a30.03406 30.03406 0 0 1 -30-30v-2zm20.10254 40a46.3998 46.3998 0 0 0 -12.10254 12.10254 46.3998 46.3998 0 0 0 -12.10254-12.10254 46.3998 46.3998 0 0 0 12.10254-12.10254 46.3998 46.3998 0 0 0 12.10254 12.10254z"/><path d="m488.18652 222.6875-85.71582-52.38184a127.8594 127.8594 0 0 0 -119.7187-7.30466l-.26855.12207a63.97391 63.97391 0 0 1 -52.96094.00293l-.28027-.12793a127.87133 127.87133 0 0 0 -119.71289 7.30761l-85.7149 52.38182a16.42646 16.42646 0 0 0 -7.81445 13.93262 16.214 16.214 0 0 0 2.55933 8.79956 14.56988 14.56988 0 0 0 .56762 17.26684l58.71 74.36621a227.48768 227.48768 0 0 0 161.99121 85.76172c5.36524.38282 10.76856.57422 16.17188.57422s10.80664-.1914 16.17285-.57422a227.48748 227.48748 0 0 0 161.99024-85.76172l58.708-74.36425a14.56855 14.56855 0 0 0 .56934-17.2688 16.2122 16.2122 0 0 0 2.55953-8.79956 16.42774 16.42774 0 0 0 -7.81348-13.93262zm-361.34326 89.3125h25.15674v14.40381a211.21154 211.21154 0 0 1 -25.15674-14.40381zm41.15674 0h32v30.87939a211.0727 211.0727 0 0 1 -32-9.52392zm48 0h32v37.22314a211.14951 211.14951 0 0 1 -24.084-2.30419l-7.916-1.21778zm48 0h32v33.70117l-7.917 1.21778a211.11708 211.11708 0 0 1 -24.083 2.30419zm48 0h32v21.35547a211.0727 211.0727 0 0 1 -32 9.52392zm48 0h25.15674a211.21154 211.21154 0 0 1 -25.15674 14.40381zm46.32715-16h-300.65454l-57.94776-47.08325.57642-.18018 20.66553 8.26636a320.12807 320.12807 0 0 0 119.41504 22.99707h135.23632a320.12807 320.12807 0 0 0 119.415-22.99707l20.66553-8.26636.57666.18018zm21.20508-58.56543 11.98144 3.74414-2.42187.96875a307.29356 307.29356 0 0 1 -29.0918 9.96924v-20.31128q9.813 2.60999 19.53223 5.62915zm-35.53223 18.81643q-11.90625 2.73778-24 4.52124v-37.772q12.05566 2.10755 24 4.83936zm-40 6.43359q-14.09911 1.30626-28.38184 1.31541h-3.61816v-46.86377q16.06421 1.13232 32 3.35815zm-48 1.31541h-40v-48.05078h22.74707q8.63745 0 17.25293.32007zm-56 0h-40v-47.73071q8.61512-.31422 17.25293-.32007h22.74707zm-56 0h-3.61816q-14.27637 0-28.38184-1.31543v-42.19019q15.92944-2.22325 32-3.35815zm-48-3.22778q-12.09118-1.77063-24-4.52124v-28.41138q11.94141-2.733 24-4.83936zm-40-8.65552a307.29356 307.29356 0 0 1 -29.0918-9.96924l-2.42212-.96875 11.98072-3.74414q9.7141-3.03552 19.5332-5.62939zm-71.84277-15.77686 85.71582-52.38184a111.87838 111.87838 0 0 1 104.74218-6.39649l.28028.12793a79.98906 79.98906 0 0 0 66.209 0l.27442-.125a111.87782 111.87782 0 0 1 104.74807 6.39356l85.7168 52.38183a.33108.33108 0 0 1 .15625.28028.286.286 0 0 1 -.13379.26562.28051.28051 0 0 1 -.293.04883l-47.26855-14.77148a487.47017 487.47017 0 0 0 -145.55762-22.21387h-61.49416a487.48122 487.48122 0 0 0 -145.55859 22.21388l-47.26661 14.77148a.32879.32879 0 0 1 -.42773-.31445.32978.32978 0 0 1 .15723-.28028zm389.44726 90.79883a210.99148 210.99148 0 0 1 -331.209 0l-50.501-63.96777 60.96582 49.53515a227.21219 227.21219 0 0 0 108.625 48.18165l11.998 1.8457a226.70687 226.70687 0 0 0 69.03222 0l11.999-1.8457h.001a227.213 227.213 0 0 0 108.624-48.18165l60.96582-49.53613z"/></g></svg>