<svg width="800" height="800" viewBox="0 0 800 800" fill="none" xmlns="http://www.w3.org/2000/svg">
<circle cx="400" cy="400" r="400" fill="white"/>
<path d="M576 214.75V202H560V214.75C560 238.46 541.259 257.75 518.223 257.75H512V273.75H518.223C541.259 273.75 560 293.04 560 316.75V329.5H576V316.75C576 293.04 594.741 273.75 617.777 273.75H624V257.75H617.777C594.741 257.75 576 238.46 576 214.75ZM568 286.82C562.989 278.145 555.847 270.893 547.249 265.75C555.847 260.607 562.989 253.355 568 244.68C573.011 253.355 580.153 260.607 588.751 265.75C580.153 270.893 573.011 278.145 568 286.82Z" fill="black"/>
<path d="M400 274H416C416.012 263.395 420.23 253.228 427.729 245.729C435.228 238.23 445.395 234.012 456 234V218C445.395 217.988 435.228 213.77 427.729 206.271C420.23 198.772 416.012 188.605 416 178H400C399.988 188.605 395.77 198.772 388.271 206.271C380.772 213.77 370.605 217.988 360 218V234C370.605 234.012 380.772 238.23 388.271 245.729C395.77 253.228 399.988 263.395 400 274V274ZM408 206.82C412.74 214.677 419.323 221.26 427.18 226C419.323 230.74 412.74 237.323 408 245.18C403.26 237.323 396.677 230.74 388.82 226C396.677 221.26 403.26 214.677 408 206.82V206.82Z" fill="black"/>
<path d="M216 578V580C215.991 587.954 212.827 595.579 207.203 601.203C201.579 606.827 193.954 609.991 186 610H184V626H186C193.954 626.009 201.579 629.173 207.203 634.797C212.827 640.421 215.991 648.046 216 656V658H232V656C232.009 648.046 235.173 640.421 240.797 634.797C246.421 629.173 254.046 626.009 262 626H264V610H262C254.046 609.991 246.421 606.827 240.797 601.203C235.173 595.579 232.009 587.954 232 580V578H216ZM236.103 618C231.353 621.249 227.249 625.353 224 630.103C220.751 625.353 216.647 621.249 211.897 618C216.647 614.751 220.751 610.647 224 605.897C227.249 610.647 231.353 614.751 236.103 618V618Z" fill="black"/>
<path d="M616.187 384.687L530.471 332.306C512.634 321.391 492.393 315.018 471.521 313.744C450.649 312.471 429.783 316.336 410.752 325.001L410.484 325.123C402.168 328.905 393.139 330.862 384.003 330.862C374.868 330.863 365.839 328.907 357.523 325.126L357.242 324.998C338.212 316.336 317.347 312.472 296.476 313.746C275.605 315.02 255.365 321.393 237.529 332.306L151.815 384.687C149.434 386.153 147.467 388.202 146.1 390.64C144.732 393.078 144.01 395.825 144 398.62C143.989 401.738 144.878 404.794 146.559 407.42C144.8 409.982 143.906 413.04 144.008 416.146C144.11 419.253 145.203 422.245 147.127 424.687L205.837 499.053C225.414 523.801 249.925 544.206 277.813 558.971C305.701 573.735 336.355 582.536 367.828 584.814C373.193 585.197 378.597 585.389 384 585.389C389.403 585.389 394.807 585.197 400.173 584.814C431.646 582.536 462.3 573.735 490.188 558.97C518.076 544.206 542.587 523.801 562.163 499.053L620.871 424.688C622.796 422.247 623.89 419.255 623.992 416.148C624.095 413.041 623.201 409.982 621.441 407.42C623.122 404.794 624.011 401.738 624 398.62C623.991 395.825 623.268 393.078 621.901 390.64C620.534 388.202 618.567 386.153 616.187 384.687ZM254.843 474H280V488.404C271.295 484.184 262.889 479.372 254.843 474V474ZM296 474H328V504.879C317.099 502.555 306.399 499.37 296 495.355V474ZM344 474H376V511.223C367.935 510.916 359.893 510.147 351.916 508.919L344 507.701V474ZM392 474H424V507.701L416.083 508.919C408.106 510.147 400.065 510.916 392 511.223V474ZM440 474H472V495.355C461.602 499.37 450.901 502.555 440 504.879V474ZM488 474H513.157C505.111 479.372 496.706 484.184 488 488.404V474ZM534.327 458H233.673L175.725 410.917L176.301 410.737L196.967 419.003C234.937 434.228 275.473 442.035 316.382 442H451.618C492.527 442.035 533.063 434.228 571.033 419.003L591.699 410.737L592.275 410.917L534.327 458ZM555.532 399.435L567.514 403.179L565.092 404.147C555.567 407.954 545.858 411.281 536 414.117V393.805C542.542 395.545 549.053 397.422 555.532 399.435ZM520 418.251C512.063 420.076 504.063 421.583 496 422.772V385C504.037 386.405 512.037 388.018 520 389.84V418.251ZM480 424.685C470.601 425.555 461.14 425.994 451.618 426H448V379.136C458.71 379.891 469.376 381.01 480 382.494V424.685ZM432 426H392V377.949H414.747C420.505 377.949 426.256 378.056 432 378.269V426ZM376 426H336V378.269C341.744 378.06 347.494 377.953 353.253 377.949H376V426ZM320 426H316.382C306.864 426 297.404 425.562 288 424.685V382.494C298.62 381.012 309.286 379.893 320 379.136V426ZM272 422.772C263.939 421.592 255.939 420.085 248 418.251V389.84C255.961 388.018 263.961 386.404 272 385V422.772ZM232 414.117C222.143 411.281 212.433 407.954 202.908 404.147L200.486 403.179L212.467 399.435C218.943 397.411 225.454 395.534 232 393.805V414.117ZM160.157 398.34L245.873 345.958C261.478 336.409 279.187 330.833 297.448 329.718C315.709 328.602 333.964 331.982 350.615 339.561L350.896 339.689C361.292 344.416 372.58 346.861 384 346.861C395.42 346.861 406.708 344.416 417.105 339.689L417.379 339.564C434.031 331.984 452.287 328.603 470.549 329.718C488.811 330.832 506.521 336.409 522.127 345.958L607.844 398.34C607.892 398.369 607.931 398.411 607.958 398.46C607.986 398.509 608 398.564 608 398.62C608.004 398.672 607.994 398.725 607.97 398.772C607.947 398.819 607.911 398.858 607.866 398.886C607.827 398.92 607.779 398.943 607.727 398.952C607.675 398.961 607.622 398.955 607.573 398.935L560.305 384.163C513.19 369.431 464.111 361.941 414.747 361.949H353.253C303.889 361.941 254.809 369.431 207.694 384.163L160.428 398.935C160.378 398.95 160.326 398.954 160.275 398.945C160.224 398.937 160.176 398.917 160.134 398.886C160.092 398.855 160.059 398.815 160.035 398.769C160.012 398.723 160 398.672 160 398.62C160 398.564 160.015 398.509 160.042 398.46C160.07 398.41 160.109 398.369 160.157 398.34V398.34ZM549.605 489.139C529.855 514.155 504.695 534.372 476.013 548.271C447.331 562.171 415.873 569.392 384 569.392C352.128 569.392 320.669 562.171 291.987 548.271C263.305 534.372 238.145 514.155 218.396 489.139L167.895 425.171L228.86 474.706C260.153 500.118 297.644 516.748 337.485 522.888L349.483 524.733C372.359 528.257 395.64 528.257 418.516 524.733L430.515 522.888H430.516C470.357 516.747 507.847 500.118 539.14 474.706L600.105 425.17L549.605 489.139Z" fill="black"/>
</svg>
