<svg height="512pt" viewBox="-64 0 512 512" width="512pt" xmlns="http://www.w3.org/2000/svg"><path d="m279.4375 190.984375c0 25.875 21.050781 46.925781 46.925781 46.925781s46.925781-21.050781 46.925781-46.925781-21.050781-46.921875-46.925781-46.921875-46.925781 21.046875-46.925781 46.921875zm46.925781-31.921875c17.605469 0 31.921875 14.320312 31.921875 31.921875s-14.316406 31.925781-31.921875 31.925781c-17.601562 0-31.921875-14.324218-31.921875-31.925781s14.320313-31.921875 31.921875-31.921875zm0 0"/><path d="m11.65625 190.984375c0 25.875 21.050781 46.925781 46.925781 46.925781s46.921875-21.050781 46.921875-46.925781-21.046875-46.921875-46.921875-46.921875-46.925781 21.046875-46.925781 46.921875zm78.847656 0c0 17.601563-14.320312 31.925781-31.921875 31.925781-17.605469 0-31.925781-14.324218-31.925781-31.925781s14.320312-31.921875 31.925781-31.921875c17.601563 0 31.921875 14.320312 31.921875 31.921875zm0 0"/><path d="m264.136719 43.238281h-82.929688c-4.144531 0-7.5 3.355469-7.5 7.5 0 4.140625 3.355469 7.5 7.5 7.5h82.929688c4.140625 0 7.5-3.359375 7.5-7.5 0-4.144531-3.359375-7.5-7.5-7.5zm0 0"/><path d="m264.136719 75.75h-82.929688c-4.144531 0-7.5 3.355469-7.5 7.5s3.355469 7.5 7.5 7.5h82.929688c4.140625 0 7.5-3.355469 7.5-7.5s-3.359375-7.5-7.5-7.5zm0 0"/><path d="m107.53125 356.902344h77.441406v110.589844h-8.234375c-10.597656 0-19.21875 8.621093-19.21875 19.214843v6.074219c0 10.597656 8.621094 19.21875 19.21875 19.21875h31.46875c10.597657 0 19.21875-8.621094 19.21875-19.21875v-6.074219c0-10.59375-8.621093-19.214843-19.21875-19.214843h-8.234375v-110.589844h77.441406c8.179688 0 14.832032-6.652344 14.832032-14.828125v-20.507813h13.53125c4.535156 0 8.988281-1.230468 12.886718-3.550781l15.941407-9.507813v49.785157h-60.632813c-13.878906 0-25.171875 11.292969-25.171875 25.171875v103.363281c0 13.878906 11.292969 25.171875 25.171875 25.171875s25.167969-11.292969 25.167969-25.171875v-78.195313h60.636719c13.878906 0 25.167968-11.289062 25.167968-25.167968 0-14.347656 0-115.996094 0-119.265625 0-19.480469-21.304687-31.613281-38.058593-21.621094l-48.046875 28.644531h-44.746094c-13.878906 0-25.171875 11.292969-25.171875 25.171875 0 3.617188.773437 7.058594 2.15625 10.167969h-21.101563c-4.144531 0-7.503906 3.359375-7.503906 7.5 0 4.144531 3.359375 7.503906 7.503906 7.503906h67.269532v20.335938h-169.546875v-20.335938h67.273437c4.140625 0 7.5-3.359375 7.5-7.503906 0-4.140625-3.359375-7.5-7.5-7.5h-21.105468c1.382812-3.109375 2.15625-6.550781 2.15625-10.167969 0-13.878906-11.292969-25.171875-25.171876-25.171875h-44.746093l-48.046875-28.640625c-7.757813-4.628906-17.460938-4.734375-25.320313-.269531-7.855469 4.464844-12.738281 12.851562-12.738281 21.886719v119.265625c0 13.878906 11.292969 25.167968 25.171875 25.167968h60.632813v78.195313c0 13.878906 11.292968 25.171875 25.171874 25.171875 13.878907 0 25.167969-11.292969 25.167969-25.171875v-103.363281c0-13.878906-11.289062-25.171875-25.167969-25.171875h-60.636718v-49.785157l15.941406 9.507813c3.898438 2.320313 8.355469 3.550781 12.890625 3.550781h13.527344v20.507813c0 8.175781 6.65625 14.828125 14.832031 14.828125zm262.414062 26.5625c0 5.605468-4.5625 10.167968-10.167968 10.167968h-68.136719c-4.144531 0-7.5 3.359376-7.5 7.5v85.695313c0 5.609375-4.5625 10.171875-10.171875 10.171875-5.605469 0-10.167969-4.5625-10.167969-10.171875v-103.363281c0-5.605469 4.5625-10.167969 10.167969-10.167969h95.976562zm-115.851562-76.902344c-5.609375 0-10.171875-4.5625-10.171875-10.167969 0-5.609375 4.5625-10.171875 10.171875-10.171875h46.8125c1.355469 0 2.679688-.363281 3.84375-1.054687l49.820312-29.703125c6.757813-4.03125 15.375.855468 15.375 8.734375v94.09375h-20.339843v-62.988281c0-5.808594-6.34375-9.417969-11.339844-6.441407l-27.28125 16.265625c-1.578125.9375-3.378906 1.4375-5.210937 1.4375-14.816407-.003906-18.09375-.003906-51.679688-.003906zm-45.886719 175.929688c2.285157 0 4.21875 1.929687 4.21875 4.214843v6.074219c0 2.285156-1.933593 4.21875-4.21875 4.21875h-31.46875c-2.289062 0-4.21875-1.933594-4.21875-4.21875v-6.074219c0-2.285156 1.929688-4.214843 4.21875-4.214843zm-97.230469-109.195313c5.605469 0 10.167969 4.5625 10.167969 10.167969v103.363281c0 5.609375-4.5625 10.171875-10.167969 10.171875-5.609374 0-10.171874-4.5625-10.171874-10.171875v-85.695313c0-4.140624-3.355469-7.5-7.5-7.5h-68.136719c-5.605469 0-10.167969-4.5625-10.167969-10.167968v-10.167969zm-31.804687-66.734375c-1.835937 0-3.636719-.496094-5.207031-1.433594l-27.285156-16.265625c-4.992188-2.976562-11.339844.628907-11.339844 6.441407v62.988281h-20.339844v-94.09375c0-7.871094 8.609375-12.773438 15.375-8.734375l49.820312 29.699218c1.164063.691407 2.488282 1.058594 3.84375 1.058594h46.8125c5.609376 0 10.171876 4.5625 10.171876 10.171875 0 5.605469-4.5625 10.167969-10.171876 10.167969-33.554687 0-36.847656 0-51.679687 0zm0 0"/><path d="m290.136719 0h-132.328125c-11.601563 0-21.035156 9.4375-21.035156 21.035156v5.871094h-26.988282c-11.601562 0-21.035156 9.4375-21.035156 21.039062v92.296876c0 11.601562 9.4375 21.039062 21.035156 21.039062h3.855469v24.117188c0 9.921874 12.46875 14.386718 18.761719 6.6875l24.621094-30.117188c.355468-.4375.882812-.691406 1.445312-.691406h83.644531c6.449219 0 12.222657-2.921875 16.082031-7.503906l9.324219 11.40625c6.292969 7.703124 18.761719 3.238281 18.761719-6.691407v-24.117187h3.855469c11.597656 0 21.035156-9.4375 21.035156-21.035156v-28.480469c0-4.140625-3.355469-7.5-7.5-7.5s-7.5 3.359375-7.5 7.5v28.480469c0 3.328124-2.707031 6.035156-6.035156 6.035156h-7.347657c-6.347656 0-11.511718 5.164062-11.511718 11.511718v15.191407c-3.1875-3.902344-13.472656-16.476563-16.761719-20.507813-.003906 0-.003906 0-.003906 0-3.214844-3.9375-7.976563-6.195312-13.0625-6.195312h-83.640625c-3.328125 0-6.039063-2.707032-6.039063-6.035156 0-11.242188 0-81.273438 0-92.296876 0-3.328124 2.707031-6.039062 6.035157-6.039062h132.328124c3.328126 0 6.039063 2.710938 6.039063 6.039062v28.816407c0 4.144531 3.355469 7.5 7.5 7.5 4.140625 0 7.5-3.355469 7.5-7.5v-28.820313c0-11.597656-9.4375-21.035156-21.035156-21.035156zm-132.328125 134.371094h83.644531c.5625 0 1.089844.25 1.449219.6875l5.144531 6.296875c-.523437 2.800781-2.984375 4.925781-5.933594 4.925781h-83.644531c-5.082031 0-9.84375 2.257812-13.0625 6.191406l-16.765625 20.511719v-15.191406c0-6.347657-5.164063-11.511719-11.511719-11.511719h-7.347656c-3.328125 0-6.035156-2.707031-6.035156-6.035156v-92.300782c0-3.328124 2.707031-6.035156 6.035156-6.035156h26.988281v71.425782c.003907 11.597656 9.4375 21.035156 21.039063 21.035156zm0 0"/></svg>