<svg width="112" height="112" viewBox="0 0 800 800" fill="none" xmlns="http://www.w3.org/2000/svg">
<circle cx="400" cy="400" r="400" fill="white"/>
<g clip-path="url(#clip0)">
<path d="M428.874 387.826C432.814 387.826 436.008 384.631 436.008 380.691V352.895C436.008 348.955 432.814 345.76 428.874 345.76C424.933 345.76 421.739 348.955 421.739 352.895V380.691C421.739 384.631 424.933 387.826 428.874 387.826Z" fill="black"/>
<path d="M527.403 387.826C531.343 387.826 534.537 384.631 534.537 380.691V352.895C534.537 348.955 531.343 345.76 527.403 345.76C523.462 345.76 520.268 348.955 520.268 352.895V380.691C520.268 384.631 523.462 387.826 527.403 387.826Z" fill="black"/>
<path d="M596.573 416.568C620.588 416.158 640.001 396.507 640.001 372.397C640.001 351.911 625.982 334.642 607.034 329.664C613.998 322.172 618.095 312.189 618.095 301.626V298.63C618.095 287.563 613.601 277.039 605.846 269.372C627.913 230.738 622.484 180.553 589.544 147.612C586.757 144.826 582.24 144.826 579.454 147.612L535.217 191.848C528.507 183.375 518.235 178.256 507.027 178.256C498.113 178.256 489.638 181.554 483.117 187.348C468.276 172.496 448.239 164.12 426.988 164.12C418.555 164.12 410.339 165.415 402.467 167.976C397.325 154.668 384.403 145.2 369.304 145.2H231.597C227.656 145.2 224.462 148.394 224.462 152.334C224.462 156.275 227.656 159.469 231.597 159.469H369.302C381.033 159.469 390.577 169.013 390.577 180.745V398.681C390.577 400.815 389.046 401.672 388.387 401.941C387.73 402.21 386.036 402.67 384.541 401.146L339.582 355.307C338.24 353.939 336.405 353.167 334.489 353.167H195.545C183.813 353.166 174.269 343.622 174.269 331.891V180.744C174.269 169.012 183.813 159.468 195.545 159.468H203.057C206.997 159.468 210.191 156.274 210.191 152.333C210.191 148.393 206.997 145.199 203.057 145.199H195.545C175.945 145.199 160 161.144 160 180.744V331.891C160 351.49 175.945 367.435 195.545 367.435H313.632C313.448 369.078 313.347 370.733 313.347 372.4C313.347 396.765 333.169 416.587 357.534 416.587C358.254 416.587 358.973 416.566 359.69 416.531C364.167 442.369 376.916 465.407 395.106 482.803C371.385 505.454 357.924 536.692 357.924 569.732V576.978L316.807 536.224C316.084 535.508 315.244 534.982 314.351 534.638V524.865C314.351 513.925 305.451 505.025 294.51 505.025C283.569 505.025 274.669 513.926 274.669 524.865V534.156H244.127C230.28 534.156 219.015 545.421 219.015 559.268C219.015 571.042 227.373 581.371 238.888 583.827L265.602 589.526L298.262 622.404C299.601 623.752 301.423 624.51 303.324 624.51L591.224 624.799C595.165 624.799 598.359 621.605 598.359 617.665V569.73C598.359 565.79 595.165 562.596 591.224 562.596C587.284 562.596 584.09 565.79 584.09 569.73V610.53H523.137L539.916 593.753C542.06 591.609 542.614 588.345 541.299 585.613L534.138 570.739H550.676C554.037 570.739 556.942 568.394 557.651 565.109L568.565 514.495C574.439 524.093 578.768 534.584 581.336 545.62C582.103 548.914 585.035 551.139 588.278 551.139C588.814 551.139 589.357 551.079 589.901 550.952C593.739 550.059 596.126 546.224 595.233 542.386C590.16 520.582 579.064 500.638 563.146 484.711C562.513 484.078 561.867 483.449 561.211 482.823C579.47 465.328 592.111 442.211 596.573 416.568ZM625.731 372.397C625.731 388.096 613.576 401 598.185 402.215C598.292 400.137 598.354 398.048 598.354 395.948V371.452C601.241 371.628 604.533 372.704 606.12 376.355C607.289 379.043 609.912 380.647 612.667 380.647C613.616 380.647 614.582 380.456 615.508 380.053C619.121 378.482 620.778 374.279 619.206 370.666C614.815 360.567 605.939 357.461 598.355 357.194V342.6C613.666 343.896 625.731 356.76 625.731 372.397ZM603.826 298.629V301.625C603.826 307.594 601.819 313.275 598.334 317.867C598.24 307.072 596.727 296.43 593.812 286.158C595.149 284.648 596.435 283.107 597.666 281.537C601.591 286.3 603.826 292.329 603.826 298.629ZM477.608 202.527C479.028 204.278 481.18 205.253 483.445 205.16C485.698 205.067 487.773 203.914 489.043 202.052C493.112 196.086 499.835 192.524 507.025 192.524C515.9 192.524 523.803 197.845 527.159 206.08C528.061 208.293 530.012 209.908 532.354 210.381C534.696 210.854 537.121 210.122 538.81 208.432L584.292 162.951C613.256 197.062 611.642 248.427 579.452 280.617C551.781 308.289 508.756 314.037 474.824 294.597C472.316 293.161 469.189 293.379 466.905 295.15C455.375 304.091 441.571 308.817 426.986 308.817C419.333 308.817 411.909 307.502 404.846 304.941V182.263C411.909 179.703 419.333 178.389 426.986 178.389C446.711 178.388 465.163 187.186 477.608 202.527ZM357.533 402.317C341.037 402.317 327.615 388.897 327.615 372.4C327.615 370.727 327.753 369.068 328.026 367.435H331.492L357.919 394.381V395.949C357.919 398.081 357.977 400.199 358.087 402.304C357.903 402.307 357.718 402.317 357.533 402.317ZM373.103 409.862L374.353 411.137C377.777 414.628 382.353 416.482 387.031 416.481C389.298 416.481 391.589 416.045 393.783 415.149C400.503 412.404 404.845 405.939 404.845 398.68V319.938C411.99 322.014 419.397 323.087 426.985 323.087C443.187 323.087 458.596 318.304 471.839 309.21C507.61 327.562 550.98 322.779 581.912 297.573C583.347 304.561 584.084 311.708 584.084 318.935V395.95C584.084 446.672 547.992 490.422 498.26 499.977C491.669 501.249 484.897 501.893 478.131 501.893C424.431 501.892 379.938 461.727 373.103 409.862ZM478.134 550.996L466.87 536.608L478.137 524.343L489.401 536.605L478.134 550.996ZM450.078 533.793L437.988 509.259C447.128 512.507 456.773 514.678 466.772 515.62L450.078 533.793ZM457.085 547.257L469.073 562.57L466.118 566.345L456.842 547.522L457.085 547.257ZM478.134 574.145L483.149 580.553L478.134 590.729L473.119 580.553L478.134 574.145ZM490.15 566.345L487.194 562.57L499.184 547.254L499.427 547.519L490.15 566.345ZM506.194 533.793L489.503 515.625C493.356 515.261 497.183 514.716 500.958 513.987C506.911 512.844 512.689 511.264 518.267 509.293L506.194 533.793ZM417.324 499.608L471.734 610.023C471.822 610.201 471.93 610.364 472.031 610.532H453.311L430.023 587.244L439.913 566.702C440.978 564.491 440.831 561.889 439.526 559.811C438.221 557.734 435.939 556.472 433.485 556.472H411.353L399.018 499.27C401.237 496.781 403.578 494.381 406.046 492.089C409.653 494.8 413.42 497.309 417.324 499.608ZM372.193 569.732C372.193 549.968 377.658 530.933 387.705 514.498L398.619 565.11C399.328 568.395 402.233 570.74 405.594 570.74H422.133L414.972 585.614C413.656 588.346 414.211 591.609 416.355 593.754L433.133 610.531H391.779L372.194 591.119V569.732H372.193ZM288.937 524.866C288.937 521.794 291.436 519.295 294.509 519.295C297.582 519.295 300.081 521.795 300.081 524.866V534.157H288.936V524.866H288.937ZM233.283 559.27C233.283 553.291 238.147 548.427 244.126 548.427H281.802H294.29L266.911 575.217L241.863 569.874C236.892 568.813 233.283 564.354 233.283 559.27ZM279.293 583.065L311.752 551.306L371.215 610.244H306.291L279.293 583.065ZM553.054 494.802C554.501 496.251 555.893 497.746 557.25 499.268L544.915 556.471H522.782C520.328 556.471 518.047 557.732 516.742 559.81C515.436 561.888 515.29 564.49 516.354 566.701L526.245 587.243L502.957 610.531H484.237C484.337 610.363 484.446 610.2 484.533 610.022L538.903 499.696C542.845 497.383 546.637 494.856 550.265 492.129C551.22 493.014 552.155 493.903 553.054 494.802Z" fill="black"/>
<path d="M478.138 451.531C492.838 451.531 504.797 439.571 504.797 424.871C504.797 411.6 495.828 404.872 478.138 404.872C460.448 404.872 451.479 411.601 451.479 424.871C451.479 439.571 463.438 451.531 478.138 451.531ZM478.138 419.141C490.528 419.141 490.528 422.055 490.528 424.871C490.528 431.703 484.97 437.262 478.138 437.262C471.306 437.262 465.749 431.703 465.749 424.871C465.749 422.055 465.749 419.141 478.138 419.141Z" fill="black"/>
<path d="M358.043 193.25H206.803C202.863 193.25 199.669 196.444 199.669 200.384C199.669 204.324 202.863 207.519 206.803 207.519H358.043C361.983 207.519 365.177 204.324 365.177 200.384C365.177 196.444 361.983 193.25 358.043 193.25Z" fill="black"/>
<path d="M358.043 228.917H206.803C202.863 228.917 199.669 232.111 199.669 236.051C199.669 239.991 202.863 243.186 206.803 243.186H358.043C361.983 243.186 365.177 239.991 365.177 236.051C365.177 232.111 361.983 228.917 358.043 228.917Z" fill="black"/>
<path d="M358.043 264.584H336.169C332.229 264.584 329.035 267.778 329.035 271.718C329.035 275.658 332.229 278.853 336.169 278.853H358.043C361.983 278.853 365.177 275.658 365.177 271.718C365.177 267.778 361.983 264.584 358.043 264.584Z" fill="black"/>
<path d="M206.803 278.853H307.63C311.57 278.853 314.764 275.658 314.764 271.718C314.764 267.778 311.57 264.584 307.63 264.584H206.803C202.863 264.584 199.669 267.778 199.669 271.718C199.669 275.658 202.863 278.853 206.803 278.853Z" fill="black"/>
<path d="M206.803 314.52H358.043C361.983 314.52 365.177 311.325 365.177 307.385C365.177 303.445 361.983 300.251 358.043 300.251H206.803C202.863 300.251 199.669 303.445 199.669 307.385C199.669 311.325 202.863 314.52 206.803 314.52Z" fill="black"/>
</g>
<defs>
<clipPath id="clip0">
<rect width="480" height="480" fill="white" transform="translate(160 145)"/>
</clipPath>
</defs>
</svg>
