<?xml version="1.0" encoding="iso-8859-1"?>
<!-- Generator: Adobe Illustrator 19.0.0, SVG Export Plug-In . SVG Version: 6.00 Build 0)  -->
<svg xmlns="http://www.w3.org/2000/svg" xmlns:xlink="http://www.w3.org/1999/xlink" version="1.1" id="Layer_1" x="0px" y="0px" viewBox="0 0 504.587 504.587" style="enable-background:new 0 0 504.587 504.587;" xml:space="preserve" width="512" height="512">
<g>
	<path d="M282.646,255.264c4.142,0,7.5-3.358,7.5-7.5v-29.22c0-4.142-3.358-7.5-7.5-7.5s-7.5,3.358-7.5,7.5v29.22   C275.146,251.906,278.504,255.264,282.646,255.264z"/>
	<path d="M386.222,255.264c4.142,0,7.5-3.358,7.5-7.5v-29.22c0-4.142-3.358-7.5-7.5-7.5s-7.5,3.358-7.5,7.5v29.22   C378.722,251.906,382.08,255.264,386.222,255.264z"/>
	<path d="M458.936,285.478c25.245-0.431,45.652-21.088,45.652-46.433c0-21.535-14.737-39.689-34.656-44.922   c7.321-7.876,11.628-18.37,11.628-29.474v-3.15c0-11.634-4.724-22.697-12.876-30.756c23.197-40.613,17.49-93.369-17.138-127.997   c-2.929-2.929-7.678-2.929-10.606,0l-46.503,46.502c-7.054-8.907-17.852-14.289-29.634-14.289c-9.371,0-18.28,3.467-25.135,9.558   c-15.601-15.613-36.665-24.418-59.004-24.418c-8.865,0-17.502,1.362-25.777,4.054c-5.405-13.99-18.989-23.943-34.862-23.943H75.264   c-4.142,0-7.5,3.358-7.5,7.5s3.358,7.5,7.5,7.5h144.759c12.332,0,22.365,10.033,22.365,22.366v229.099   c0,2.244-1.61,3.145-2.302,3.427c-0.691,0.283-2.472,0.767-4.043-0.835l-47.262-48.188c-1.411-1.438-3.34-2.249-5.354-2.249H37.366   C25.033,218.829,15,208.796,15,196.464V37.575c0-12.333,10.033-22.366,22.366-22.366h7.896c4.142,0,7.5-3.358,7.5-7.5   s-3.358-7.5-7.5-7.5h-7.896C16.762,0.209,0,16.971,0,37.575v158.889c0,20.603,16.762,37.365,37.366,37.365h124.136   c-0.194,1.727-0.3,3.467-0.3,5.219c0,25.613,20.837,46.45,46.45,46.45c0.757,0,1.513-0.022,2.267-0.058   c4.706,27.161,18.108,51.379,37.23,69.666c-24.936,23.811-39.087,56.65-39.087,91.382v7.617l-43.223-42.841   c-0.76-0.753-1.643-1.306-2.582-1.668v-10.273c0-11.501-9.356-20.857-20.857-20.857s-20.857,9.357-20.857,20.857v9.767H88.436   c-14.556,0-26.398,11.842-26.398,26.398c0,12.377,8.786,23.235,20.891,25.817l28.082,5.991l34.333,34.562   c1.408,1.417,3.323,2.214,5.321,2.214l302.648,0.304c4.142,0,7.5-3.358,7.5-7.5v-50.39c0-4.142-3.358-7.5-7.5-7.5   s-7.5,3.358-7.5,7.5v42.89h-64.075l17.638-17.637c2.254-2.253,2.837-5.685,1.454-8.557l-7.528-15.635h17.386   c3.533,0,6.587-2.466,7.332-5.919l11.473-53.206c6.175,10.089,10.726,21.118,13.425,32.719c0.806,3.463,3.889,5.802,7.298,5.802   c0.563,0,1.134-0.064,1.706-0.197c4.034-0.939,6.544-4.97,5.605-9.005c-5.333-22.921-16.997-43.886-33.731-60.629   c-0.665-0.665-1.344-1.327-2.034-1.985C440.957,336.736,454.245,312.435,458.936,285.478z M489.587,239.045   c0,16.503-12.777,30.068-28.957,31.345c0.113-2.184,0.178-4.38,0.178-6.588v-25.75c3.035,0.185,6.495,1.316,8.164,5.154   c1.228,2.825,3.986,4.511,6.882,4.511c0.998,0,2.013-0.2,2.986-0.624c3.799-1.651,5.54-6.07,3.888-9.868   c-4.616-10.616-13.947-13.881-21.919-14.162v-15.341C476.904,209.084,489.587,222.607,489.587,239.045z M466.56,161.498v3.15   c0,6.274-2.11,12.246-5.773,17.074c-0.099-11.348-1.69-22.535-4.754-33.333c1.406-1.588,2.757-3.208,4.051-4.858   C464.211,148.538,466.56,154.876,466.56,161.498z M333.877,60.474c1.493,1.84,3.755,2.865,6.136,2.768   c2.368-0.098,4.549-1.31,5.885-3.268c4.277-6.271,11.344-10.016,18.903-10.016c9.329,0,17.637,5.594,21.165,14.251   c0.948,2.326,2.999,4.024,5.461,4.521c2.462,0.497,5.011-0.272,6.787-2.049l47.811-47.811   c30.448,35.859,28.751,89.855-5.087,123.694c-29.089,29.089-74.318,35.132-109.988,14.696c-2.636-1.51-5.923-1.281-8.324,0.581   c-12.121,9.399-26.632,14.367-41.964,14.367c-8.045,0-15.849-1.382-23.274-4.074V39.172c7.425-2.691,15.229-4.073,23.274-4.073   C301.397,35.098,320.794,44.347,333.877,60.474z M207.651,270.498c-17.341,0-31.45-14.108-31.45-31.45   c0-1.759,0.145-3.503,0.432-5.219h3.643l27.781,28.326v1.648c0,2.241,0.061,4.468,0.177,6.681   C208.04,270.487,207.846,270.498,207.651,270.498z M224.019,278.429l1.314,1.34c3.599,3.67,8.41,5.619,13.327,5.618   c2.383,0,4.792-0.458,7.098-1.4c7.064-2.886,11.629-9.682,11.629-17.313v-82.775c7.511,2.182,15.297,3.31,23.274,3.31   c17.032,0,33.23-5.028,47.151-14.588c37.604,19.292,83.195,14.264,115.712-12.233c1.508,7.346,2.283,14.859,2.283,22.456v80.96   c0,53.321-37.941,99.312-90.22,109.356c-6.929,1.337-14.048,2.014-21.16,2.014C277.976,375.173,231.204,332.951,224.019,278.429z    M334.43,426.792l-11.841-15.125l11.844-12.893l11.841,12.89L334.43,426.792z M304.937,408.708l-12.71-25.791   c9.609,3.415,19.748,5.697,30.259,6.687L304.937,408.708z M312.303,422.862l12.602,16.097l-3.107,3.969l-9.751-19.788   L312.303,422.862z M334.43,451.127l5.272,6.736l-5.272,10.698l-5.272-10.698L334.43,451.127z M347.061,442.928l-3.107-3.969   l12.604-16.1l0.255,0.278L347.061,442.928z M363.927,408.708l-17.546-19.099c4.05-0.382,8.074-0.955,12.042-1.721   c6.258-1.202,12.332-2.863,18.196-4.935L363.927,408.708z M270.505,372.772l57.197,116.071c0.092,0.187,0.206,0.358,0.312,0.535   h-19.679l-24.481-24.481l10.397-21.594c1.119-2.324,0.965-5.06-0.407-7.244c-1.372-2.184-3.771-3.51-6.35-3.51h-23.266   l-12.967-60.132c2.333-2.617,4.794-5.14,7.388-7.549C262.441,367.718,266.401,370.355,270.505,372.772z M223.062,446.488   c0-20.776,5.745-40.786,16.307-58.063l11.473,53.204c0.745,3.454,3.799,5.919,7.332,5.919h17.386l-7.528,15.635   c-1.383,2.872-0.8,6.303,1.454,8.557l17.638,17.637h-43.473l-20.588-20.406V446.488z M135.542,399.324   c0-3.23,2.627-5.857,5.857-5.857s5.857,2.628,5.857,5.857v9.767h-11.715V399.324z M77.037,435.49   c0-6.285,5.113-11.398,11.398-11.398h39.606h13.128l-28.782,28.162l-26.331-5.617C80.831,445.522,77.037,440.834,77.037,435.49z    M125.404,460.504l34.121-33.386l62.509,61.957h-68.25L125.404,460.504z M413.187,367.72c1.522,1.523,2.985,3.095,4.411,4.695   l-12.967,60.133h-23.266c-2.58,0-4.978,1.325-6.35,3.51c-1.373,2.184-1.526,4.92-0.407,7.244l10.397,21.594l-24.481,24.481h-19.679   c0.106-0.177,0.22-0.348,0.312-0.535l57.155-115.978c4.143-2.431,8.13-5.087,11.944-7.954   C411.259,365.84,412.242,366.775,413.187,367.72z"/>
	<path d="M334.434,322.232c15.453,0,28.025-12.572,28.025-28.025c0-13.951-9.429-21.024-28.025-21.024   c-18.596,0-28.024,7.074-28.024,21.024C306.41,309.66,318.981,322.232,334.434,322.232z M334.434,288.183   c13.025,0,13.025,3.063,13.025,6.024c0,7.182-5.843,13.025-13.025,13.025c-7.182,0-13.024-5.843-13.024-13.025   C321.41,291.246,321.41,288.183,334.434,288.183z"/>
	<path d="M208.187,50.721H49.201c-4.142,0-7.5,3.358-7.5,7.5s3.358,7.5,7.5,7.5h158.986c4.142,0,7.5-3.358,7.5-7.5   S212.329,50.721,208.187,50.721z"/>
	<path d="M208.187,88.215H49.201c-4.142,0-7.5,3.358-7.5,7.5s3.358,7.5,7.5,7.5h158.986c4.142,0,7.5-3.358,7.5-7.5   S212.329,88.215,208.187,88.215z"/>
	<path d="M208.187,125.709h-22.994c-4.142,0-7.5,3.358-7.5,7.5s3.358,7.5,7.5,7.5h22.994c4.142,0,7.5-3.358,7.5-7.5   S212.329,125.709,208.187,125.709z"/>
	<path d="M49.201,140.709h105.991c4.142,0,7.5-3.358,7.5-7.5s-3.358-7.5-7.5-7.5H49.201c-4.142,0-7.5,3.358-7.5,7.5   S45.059,140.709,49.201,140.709z"/>
	<path d="M49.201,178.203h158.986c4.142,0,7.5-3.358,7.5-7.5s-3.358-7.5-7.5-7.5H49.201c-4.142,0-7.5,3.358-7.5,7.5   S45.059,178.203,49.201,178.203z"/>
</g>















</svg>
