<svg width="112" height="112" viewBox="0 0 800 800" fill="none" xmlns="http://www.w3.org/2000/svg">
<circle cx="400" cy="400" r="400" fill="white"/>
<path d="M403.625 437.71C402.481 437.711 401.363 437.363 400.422 436.712C399.48 436.061 398.76 435.139 398.356 434.068C397.953 432.997 397.886 431.829 398.164 430.718C398.442 429.608 399.052 428.609 399.913 427.855L406.055 422.47C408.842 420.03 412.426 418.694 416.131 418.713C419.835 418.732 423.405 420.106 426.166 422.575L432.125 427.893C433.197 428.897 433.834 430.282 433.898 431.75C433.963 433.218 433.45 434.653 432.47 435.748C431.49 436.843 430.121 437.511 428.655 437.609C427.189 437.707 425.742 437.228 424.625 436.274L418.689 430.953C417.977 430.315 417.056 429.961 416.101 429.956C415.145 429.951 414.221 430.296 413.503 430.926L407.36 436.311C406.329 437.22 405 437.718 403.625 437.71V437.71Z" fill="black"/>
<path d="M416 473.391C414.508 473.391 413.077 472.799 412.023 471.744C410.968 470.689 410.375 469.258 410.375 467.766V443.706C410.375 442.214 410.968 440.784 412.023 439.729C413.077 438.674 414.508 438.081 416 438.081C417.492 438.081 418.923 438.674 419.977 439.729C421.032 440.784 421.625 442.214 421.625 443.706V467.766C421.625 469.258 421.032 470.689 419.977 471.744C418.923 472.799 417.492 473.391 416 473.391Z" fill="black"/>
<path d="M631.962 181.934C599.337 147.46 498.56 173.039 442.711 197.26C434.277 200.902 425.187 202.781 416 202.781C406.813 202.781 397.723 200.902 389.289 197.26C333.44 173.039 232.67 147.46 200.037 181.934C175.779 207.572 174.189 253.581 195.991 291.944C195.312 310.03 197.787 329.886 200.116 335.444C204.822 346.776 230.96 352.296 247.047 352.296C248.622 352.296 250.107 352.244 251.461 352.139C254.584 351.962 257.661 351.312 260.589 350.211C269.964 359.984 295.355 364.116 312.339 364.116C314.649 364.116 316.801 364.037 318.74 363.891C323.267 363.683 327.726 362.706 331.925 361C335.193 365.438 340.048 368.442 345.477 369.385C358.376 371.701 371.459 372.84 384.564 372.786C390.376 372.786 396.099 372.565 401.506 372.119C406.826 371.795 411.904 369.781 416 366.37C420.093 369.785 425.17 371.804 430.49 372.134C435.901 372.58 441.62 372.797 447.436 372.797C460.541 372.852 473.624 371.715 486.522 369.4C491.954 368.453 496.81 365.443 500.075 361C504.276 362.706 508.738 363.684 513.267 363.891C515.206 364.037 517.359 364.116 519.669 364.116C536.66 364.116 562.044 359.991 571.419 350.211C574.346 351.312 577.424 351.962 580.546 352.139C581.9 352.244 583.381 352.296 584.96 352.296C601.047 352.296 627.185 346.776 631.891 335.444C634.205 329.871 636.68 310.015 636.016 291.944C657.811 253.581 656.221 207.572 631.962 181.934V181.934ZM227.337 338.684C215.847 335.98 211.017 332.429 210.481 331.135C207.215 323.26 204.642 281.339 211.231 270.04C215.679 262.439 224.577 263.222 228.2 263.912C234.665 265.401 240.597 268.636 245.35 273.265C250.102 277.894 253.493 283.739 255.151 290.162C255.594 292.067 255.699 294.034 255.462 295.975C253.879 310.596 254.076 325.355 256.051 339.929C252.376 341.312 241.175 341.946 227.349 338.691L227.337 338.684ZM293.667 351.344C276.256 348.52 268.917 343.649 268.096 341.736C264.312 332.946 264.631 285.366 272.596 270.246C275.596 264.572 284.75 262.277 295.407 264.539C309.852 267.602 324.939 278.68 327.114 296.661C327.237 297.805 327.249 298.958 327.147 300.104C326.118 316.056 326.184 332.06 327.346 348.002C327.414 348.91 327.582 349.761 327.721 350.627C324.185 352.551 311.319 354.212 293.679 351.351L293.667 351.344ZM408.417 358.037C406.235 359.932 403.432 360.956 400.542 360.914C382.841 362.291 365.037 361.428 347.551 358.345C344.963 357.863 342.632 356.472 340.978 354.424C339.324 352.376 338.456 349.805 338.529 347.174C337.887 338.549 336.121 308.519 340.257 284.549C341.004 278.691 343.9 273.32 348.383 269.478C352.866 265.636 358.618 263.596 364.52 263.755C373.889 263.658 383.022 266.688 390.474 272.367C397.927 278.045 403.272 286.047 405.665 295.105C411.961 321.91 411.226 351.955 408.444 358.045L408.417 358.037ZM493.407 347.162C493.48 349.794 492.612 352.364 490.958 354.412C489.303 356.459 486.973 357.849 484.385 358.33C466.899 361.416 449.093 362.279 431.39 360.899C428.5 360.94 425.696 359.915 423.515 358.019C420.736 351.932 420.001 321.887 426.26 295.101C428.61 286.211 433.803 278.334 441.048 272.671C448.293 267.008 457.191 263.87 466.385 263.736H467.386C473.289 263.577 479.04 265.617 483.523 269.459C488.006 273.302 490.902 278.673 491.649 284.53C495.841 308.526 494.075 338.549 493.434 347.185L493.407 347.162ZM563.862 341.717C563.041 343.634 555.706 348.505 538.295 351.329C520.67 354.194 507.793 352.525 504.256 350.609C505.462 333.779 505.652 316.892 504.822 300.04C504.728 298.916 504.74 297.786 504.86 296.665C507.024 278.665 522.11 267.584 536.57 264.516C547.242 262.266 556.404 264.55 559.381 270.224C567.357 285.374 567.676 332.954 563.889 341.74L563.862 341.717ZM621.5 331.142C620.964 332.436 616.134 335.987 604.625 338.691C590.787 341.954 579.594 341.316 575.896 339.951C577.871 325.378 578.069 310.619 576.485 295.997C576.248 294.057 576.353 292.089 576.796 290.185C578.455 283.761 581.845 277.917 586.598 273.288C591.35 268.659 597.282 265.424 603.747 263.935C607.362 263.249 616.269 262.457 620.716 270.059C627.346 281.346 624.774 323.279 621.5 331.142V331.142Z" fill="black"/>
<path d="M635.289 517C632.516 512.322 628.54 508.473 623.775 505.854C619.01 503.234 613.63 501.94 608.195 502.105C601.786 502.298 595.477 503.751 589.63 506.382C583.782 509.013 578.51 512.77 574.115 517.439C568.914 507.985 558.013 502.566 544.115 502.566C531.673 502.677 519.582 506.705 509.559 514.079C506.855 516.101 504.429 518.47 502.344 521.125C498.493 515.153 493.16 510.282 486.863 506.987C480.567 503.693 473.524 502.088 466.423 502.33C456.252 502.535 446.299 505.304 437.484 510.381C428.67 515.458 421.28 522.679 416 531.374C410.718 522.681 403.327 515.463 394.512 510.388C385.697 505.313 375.743 502.545 365.574 502.341C358.475 502.099 351.435 503.703 345.142 506.995C338.849 510.287 333.517 515.156 329.668 521.125C327.577 518.465 325.148 516.09 322.441 514.06C312.416 506.685 300.323 502.655 287.878 502.544C274.003 502.544 263.098 507.959 257.878 517.42C253.484 512.75 248.213 508.991 242.366 506.36C236.519 503.728 230.211 502.275 223.801 502.083C218.363 501.919 212.98 503.217 208.214 505.841C203.447 508.464 199.471 512.318 196.7 517C186.174 534.925 190.678 582.895 194.896 593.065C201.826 609.678 235.475 613.413 246.718 613.413C250.905 613.479 255.084 613.026 259.16 612.066C275.57 625.045 311.585 625.221 312.013 625.221C318.154 625.392 324.289 624.691 330.234 623.14C334.137 626.901 339.065 629.425 344.398 630.396C357.609 632.764 371.007 633.933 384.429 633.888C390.526 633.888 396.429 633.651 401.971 633.19C406.899 632.796 411.684 631.344 416 628.934C420.315 631.344 425.098 632.797 430.025 633.194C435.579 633.655 441.481 633.891 447.579 633.891C460.98 633.937 474.358 632.772 487.55 630.411C492.917 629.44 497.876 626.899 501.8 623.11C502.935 623.448 504.135 623.746 505.4 624.006C510.195 624.886 515.064 625.301 519.939 625.248C531.41 625.248 559.036 622.66 572.743 612.044C576.85 613.024 581.064 613.485 585.286 613.416C596.536 613.416 630.178 609.666 637.1 593.088C641.323 582.899 645.826 534.929 635.289 517V517ZM626.713 588.771C621.8 600.546 572.375 607.521 569.863 597.059C569.645 597.873 569.382 598.674 569.075 599.459C564.388 610.259 525.838 616.596 507.65 612.996C502.513 611.946 498.988 610.146 498.313 607.446V607.259C497.613 610.326 496.016 613.116 493.725 615.273C491.435 617.43 488.554 618.857 485.45 619.371C467.47 622.536 449.163 623.418 430.963 621.996C426.95 621.659 420.35 620.046 418.438 615.846C417.125 612.996 414.875 612.996 413.563 615.846C411.65 620.046 405.05 621.659 401.038 621.996C382.837 623.418 364.53 622.536 346.55 619.371C343.446 618.857 340.565 617.43 338.275 615.273C335.984 613.116 334.387 610.326 333.688 607.259V607.446C330.5 619.784 268.925 613.296 262.925 599.459C262.618 598.674 262.355 597.873 262.138 597.059C259.625 607.521 210.2 600.546 205.288 588.771C201.725 580.184 198.463 536.234 206.413 522.696C217.138 504.359 249.913 514.484 259.4 540.284C259.518 540.643 259.753 540.951 260.068 541.16C260.382 541.369 260.758 541.466 261.135 541.436C261.511 541.406 261.866 541.25 262.144 540.993C262.421 540.737 262.604 540.394 262.663 540.021C263.484 534.174 265.152 528.477 267.613 523.109C274.1 510.771 298.963 510.659 315.725 523.109C323.488 528.884 327.425 539.121 330.763 548.909C330.871 549.251 331.097 549.544 331.399 549.738C331.702 549.931 332.062 550.013 332.418 549.968C332.775 549.924 333.104 549.756 333.35 549.494C333.595 549.232 333.741 548.892 333.763 548.534C334.025 544.859 334.363 541.296 334.738 539.084C341.713 498.771 401.863 509.384 411.163 549.321C411.95 552.621 412.625 556.034 413.225 559.446C413.334 560.104 413.672 560.702 414.18 561.133C414.689 561.564 415.334 561.801 416 561.801C416.667 561.801 417.312 561.564 417.82 561.133C418.328 560.702 418.667 560.104 418.775 559.446C419.375 556.034 420.05 552.621 420.838 549.321C430.138 509.384 490.288 498.771 497.263 539.084C497.45 540.134 497.6 541.521 497.788 543.059V543.471C497.975 545.046 498.125 546.771 498.238 548.534C498.259 548.892 498.405 549.232 498.65 549.494C498.896 549.756 499.225 549.924 499.582 549.968C499.938 550.013 500.299 549.931 500.601 549.738C500.904 549.544 501.129 549.251 501.238 548.909C502.1 546.434 502.963 543.921 503.938 541.484C506.286 534.343 510.554 527.986 516.275 523.109C533.038 510.659 557.9 510.771 564.388 523.109C566.849 528.477 568.516 534.174 569.338 540.021C569.397 540.394 569.579 540.737 569.857 540.993C570.134 541.25 570.489 541.406 570.866 541.436C571.242 541.466 571.618 541.369 571.932 541.16C572.247 540.951 572.482 540.643 572.6 540.284C582.088 514.484 614.863 504.359 625.588 522.696C633.538 536.219 630.275 580.169 626.713 588.756V588.771Z" fill="black"/>
</svg>
