<?xml version="1.0"?>
<svg xmlns="http://www.w3.org/2000/svg" viewBox="0 0 512 512" width="512" height="512"><g id="OUTLINE"><path d="M448,52.75V40H432V52.75c0,23.71-18.74121,43-41.77734,43H384v16h6.22266c23.03613,0,41.77734,19.29,41.77734,43V167.5h16V154.75c0-23.71,18.74121-43,41.77734-43H496v-16h-6.22266C466.74121,95.75,448,76.46,448,52.75Zm-8,72.07031A58.85332,58.85332,0,0,0,419.249,103.75,58.85332,58.85332,0,0,0,440,82.67969,58.85332,58.85332,0,0,0,460.751,103.75,58.85332,58.85332,0,0,0,440,124.82031Z"/><path d="M272,112h16a40.04584,40.04584,0,0,1,40-40V56a40.04584,40.04584,0,0,1-40-40H272a40.04584,40.04584,0,0,1-40,40V72A40.04584,40.04584,0,0,1,272,112Zm8-67.17969A56.45716,56.45716,0,0,0,299.17969,64,56.45716,56.45716,0,0,0,280,83.17969,56.45716,56.45716,0,0,0,260.82031,64,56.45716,56.45716,0,0,0,280,44.82031Z"/><path d="M88,416v2a30.03406,30.03406,0,0,1-30,30H56v16h2a30.03406,30.03406,0,0,1,30,30v2h16v-2a30.03406,30.03406,0,0,1,30-30h2V448h-2a30.03406,30.03406,0,0,1-30-30v-2Zm20.10254,40A46.3998,46.3998,0,0,0,96,468.10254,46.3998,46.3998,0,0,0,83.89746,456,46.3998,46.3998,0,0,0,96,443.89746,46.3998,46.3998,0,0,0,108.10254,456Z"/><path d="M488.18652,222.6875,402.4707,170.30566A127.8594,127.8594,0,0,0,282.752,163.001l-.26855.12207a63.97391,63.97391,0,0,1-52.96094.00293l-.28027-.12793a127.87133,127.87133,0,0,0-119.71289,7.30761L23.81445,222.6875A16.42646,16.42646,0,0,0,16,236.62012a16.214,16.214,0,0,0,2.55933,8.79956,14.56988,14.56988,0,0,0,.56762,17.26684l58.71,74.36621a227.48768,227.48768,0,0,0,161.99121,85.76172c5.36524.38282,10.76856.57422,16.17188.57422s10.80664-.1914,16.17285-.57422a227.48748,227.48748,0,0,0,161.99024-85.76172l58.708-74.36425a14.56855,14.56855,0,0,0,.56934-17.2688A16.2122,16.2122,0,0,0,496,236.62012,16.42774,16.42774,0,0,0,488.18652,222.6875ZM126.84326,312H152v14.40381A211.21154,211.21154,0,0,1,126.84326,312ZM168,312h32v30.87939a211.0727,211.0727,0,0,1-32-9.52392Zm48,0h32v37.22314a211.14951,211.14951,0,0,1-24.084-2.30419L216,345.70117Zm48,0h32v33.70117l-7.917,1.21778A211.11708,211.11708,0,0,1,264,349.22314Zm48,0h32v21.35547a211.0727,211.0727,0,0,1-32,9.52392Zm48,0h25.15674A211.21154,211.21154,0,0,1,360,326.40381Zm46.32715-16H105.67261L47.72485,248.91675l.57642-.18018,20.66553,8.26636A320.12807,320.12807,0,0,0,188.38184,280H323.61816a320.12807,320.12807,0,0,0,119.415-22.99707l20.66553-8.26636.57666.18018Zm21.20508-58.56543,11.98144,3.74414-2.42187.96875A307.29356,307.29356,0,0,1,408,252.1167V231.80542Q417.813,234.41541,427.53223,237.43457ZM392,256.251q-11.90625,2.73778-24,4.52124v-37.772q12.05566,2.10755,24,4.83936Zm-40,6.43359Q337.90089,263.99085,323.61816,264H320V217.13623q16.06421,1.13232,32,3.35815ZM304,264H264V215.94922h22.74707q8.63745,0,17.25293.32007Zm-56,0H208V216.26929q8.61512-.31422,17.25293-.32007H248Zm-56,0h-3.61816Q174.10547,264,160,262.68457V220.49438q15.92944-2.22325,32-3.35815Zm-48-3.22778q-12.09118-1.77063-24-4.52124V227.8396q11.94141-2.733,24-4.83936Zm-40-8.65552a307.29356,307.29356,0,0,1-29.0918-9.96924l-2.42212-.96875,11.98072-3.74414q9.7141-3.03552,19.5332-5.62939ZM32.15723,236.33984,117.87305,183.958a111.87838,111.87838,0,0,1,104.74218-6.39649l.28028.12793a79.98906,79.98906,0,0,0,66.209,0l.27442-.125A111.87782,111.87782,0,0,1,394.127,183.958l85.7168,52.38183a.33108.33108,0,0,1,.15625.28028.286.286,0,0,1-.13379.26562.28051.28051,0,0,1-.293.04883l-47.26855-14.77148a487.47017,487.47017,0,0,0-145.55762-22.21387H225.25293A487.48122,487.48122,0,0,0,79.69434,222.16309L32.42773,236.93457A.32879.32879,0,0,1,32,236.62012.32978.32978,0,0,1,32.15723,236.33984Zm389.44726,90.79883a210.99148,210.99148,0,0,1-331.209,0l-50.501-63.96777,60.96582,49.53515a227.21219,227.21219,0,0,0,108.625,48.18165l11.998,1.8457a226.70687,226.70687,0,0,0,69.03222,0l11.999-1.8457h.001a227.213,227.213,0,0,0,108.624-48.18165l60.96582-49.53613Z"/></g></svg>
