<svg width="368" height="381" fill="none" xmlns="http://www.w3.org/2000/svg"><path d="M366 190.5C366 294.606 284.517 379 184 379S2 294.606 2 190.5 83.483 2 184 2s182 84.394 182 188.5z" fill="#fff" stroke="#C8B268" stroke-width="3" stroke-miterlimit="10"/><path d="M91.486 144.735l-7.153-50.632s-1.364-5.036 2.557-4.34c3.922.692 56.938 8.337 56.938 8.337s4.806.52 4.536 4.516c-.274 3.995-1.636 36.825-22.604 42.904-8.526 2.431-16.538-4.691-16.879-8.513-.34-3.82 33.925-9.205 45.688 23.451 10.399 32.829 11.251 47.94 11.251 47.94s.853 2.606-2.046 2.432c-2.898-.174-14.66-8.337 1.535-13.2l9.545-.347s8.355-.174 8.355 6.078c0 6.253-4.603 7.469-7.16 7.295-2.557-.172-1.535-3.187-1.535-3.187s2.898-73.588 1.875-76.367c.171-3.648 1.365-4.864 4.433-4.69 3.58.174 38.016 3.822 38.868 4.516.852.695 4.603.348 3.24 4.864-1.365 4.517-10.57 29.876-36.996 17.892-4.089-2.086 5.458-6.08 7.331-6.254 2.388-.521 13.64-3.127 26.936 2.78 13.297 5.904 10.911 5.21 10.911 5.21s3.068 1.217 3.921-4.516c.852-5.732 4.944-33.003 4.603-35.955-.342-2.954 1.364-3.648-4.943-5.906-6.308-2.258-105.865-40.995-120.868-49.852-3.409-1.39-7.16-2.432-7.16.868s1.471 33.047 1.471 33.047M92.065 148.83l-.579-4.096" stroke="#C7B169" stroke-width="2.667" stroke-miterlimit="10" stroke-linecap="round" stroke-linejoin="round"/><path d="M92.857 210.353l-2.492 113.578s-.74 3.441-2.112 1.194c-1.028-1.686 1.194-22.754 24.208-27.793 23.015-5.036 46.37-5.861 58.474 8.861 13.466 16.153 9.034 17.543 7.672 16.499-1.366-1.04-31.198-34.305-34.267-38.385-1.888-2.513-7.841-20.671 11.423-19.108-5.456-4.517-28.128-9.033-46.542-30.225-18.41-21.191-34.434-64.268-34.434-64.268s-1.194-1.911 1.193-2.258c2.387-.348 39.379-6.949 50.46-5.559 10.399 1.912 21.82 27.618 9.547 43.425-4.603 5.733-28.811 9.033-30.856 2.78-1.686-5.152-8.052-33.212-10.306-43.213m-2.855-16.05c2.702-5.754 7.927-11.429 17.883-14.031m-20.484 30.478s-1.221-8.303 2.601-16.445" stroke="#C7B169" stroke-width="2.667" stroke-miterlimit="10" stroke-linecap="round" stroke-linejoin="round"/><path d="M153.884 263.967c2.421 1.329 3.863 1.793 6.408 2.089 6.393.748 12.188-6.336 12.188-12.891 0-6.558-5.163-12.394-11.597-12.394" stroke="#C7B169" stroke-width="2.667" stroke-miterlimit="10" stroke-linecap="round" stroke-linejoin="round"/><path d="M143.68 225.269s8.054-6.382 8.374-6.773c.32-.39 1.279-1.434 3.07 0 1.789 1.431 6.584 6.186 13.678.391 1.792-1.124 2.303-.978 2.878-.391.576.585 9.718 8.011 9.718 8.011s2.3 1.172.831 4.298c-1.471 3.128-20.969 20.845-39.892 0-2.621-2.997 1.343-5.536 1.343-5.536zm-1.822 2.638l40.435.228" stroke="#C7B169" stroke-width="2.667" stroke-miterlimit="10" stroke-linecap="round" stroke-linejoin="round"/><path d="M227.996 211.349v-14.08l-.129.874-4.769 13.206h-.974l-4.813-13.206-.115-.874v14.08h-1.847V190.81h.959l6.231 16.843.057.759.058-.759 6.216-16.843h.974v20.539h-1.848zm6.546 0V190.81h1.847v20.539h-1.847zm6.259 0V190.81h1.847v18.777h7.864v1.762h-9.711zm22.358 0v-9.382h-7.864v9.382h-1.847V190.81h1.847v9.395h7.864v-9.395h1.847v20.539h-1.847zm6.56 0V190.81h11.558v1.761h-9.711v7.634h7.864v1.762h-7.864v7.62h9.711v1.762h-11.558zm22.802-4.784h-6.503l-1.346 4.784h-1.92l6.016-20.539h.974l6.044 20.539h-1.905l-1.36-4.784zm-6.002-1.762h5.515l-2.707-9.467-.058-.759-.057.759-2.693 9.467zm23.161 1.79a4.85 4.85 0 01-.401 1.963 4.976 4.976 0 01-1.075 1.604 5.178 5.178 0 01-1.604 1.088 4.991 4.991 0 01-1.962.387h-1.461a5.101 5.101 0 01-1.977-.387 5.19 5.19 0 01-1.604-1.088 5.178 5.178 0 01-1.088-1.604 4.996 4.996 0 01-.387-1.963V190.81h1.848v15.783c0 .459.086.888.257 1.29.172.391.406.74.702 1.045.306.296.654.53 1.046.702.401.172.831.258 1.289.258h1.289c.458 0 .883-.086 1.275-.258a3.301 3.301 0 001.045-.702 3.53 3.53 0 00.702-1.045c.172-.402.258-.831.258-1.29V190.81h1.848v15.783zm-82.773 28.822a4.83 4.83 0 01-.401 1.962 4.957 4.957 0 01-1.074 1.604 5.123 5.123 0 01-1.618 1.089 4.996 4.996 0 01-1.963.387h-4.655v7.892h-1.847V227.81h6.502c.697 0 1.352.133 1.963.401.62.257 1.16.616 1.618 1.074.459.458.817.998 1.074 1.618.268.611.401 1.266.401 1.963v2.549zm-1.847-2.549c0-.459-.086-.884-.258-1.275a3.2 3.2 0 00-.716-1.046 3.2 3.2 0 00-1.046-.716 3.13 3.13 0 00-1.274-.258h-4.57v9.124h4.57a3.13 3.13 0 001.274-.258c.401-.172.75-.406 1.046-.702.305-.296.544-.639.716-1.031.172-.401.258-.831.258-1.289v-2.549zm15.039 15.483l-5.572-8.766h-2.535v8.766h-1.848V227.81h6.517c.697 0 1.351.133 1.963.401a4.984 4.984 0 011.604 1.074c.458.458.816.998 1.074 1.618a4.85 4.85 0 01.401 1.963v1.661c0 .697-.134 1.356-.401 1.977a5 5 0 01-1.074 1.604 5.19 5.19 0 01-1.604 1.088 5 5 0 01-1.963.387l5.572 8.766h-2.134zm-.244-15.483c0-.459-.086-.884-.257-1.275a3.306 3.306 0 00-.702-1.046 3.2 3.2 0 00-1.046-.716 3.131 3.131 0 00-1.275-.258h-4.583v8.25h4.583c.459 0 .884-.086 1.275-.258.401-.171.75-.405 1.046-.701.296-.306.53-.654.702-1.046.171-.401.257-.831.257-1.289v-1.661zm5.916 15.483V227.81h1.847v20.539h-1.847zm6.56 0V227.81h11.558v1.761h-9.711v7.634h7.864v1.762h-7.864v7.62h9.711v1.762h-11.558zm26.354-4.756a4.85 4.85 0 01-.401 1.963 4.99 4.99 0 01-1.074 1.604 5.195 5.195 0 01-1.605 1.088 4.991 4.991 0 01-1.962.387h-1.461a5.093 5.093 0 01-1.976-.387 5.183 5.183 0 01-1.605-1.088 5.178 5.178 0 01-1.088-1.604 4.996 4.996 0 01-.387-1.963V227.81h1.848v15.783c0 .459.086.888.258 1.29.172.391.405.74.701 1.045.306.296.655.53 1.046.702.401.172.831.258 1.289.258h1.289c.459 0 .883-.086 1.275-.258a3.301 3.301 0 001.045-.702 3.53 3.53 0 00.702-1.045c.172-.402.258-.831.258-1.29V227.81h1.848v15.783zm14.065 4.756l-5.572-8.766h-2.535v8.766h-1.848V227.81h6.517c.697 0 1.352.133 1.963.401a4.984 4.984 0 011.604 1.074c.458.458.816.998 1.074 1.618a4.85 4.85 0 01.401 1.963v1.661c0 .697-.134 1.356-.401 1.977a5 5 0 01-1.074 1.604 5.19 5.19 0 01-1.604 1.088 4.996 4.996 0 01-1.963.387l5.572 8.766h-2.134zm-.244-15.483c0-.459-.086-.884-.257-1.275a3.306 3.306 0 00-.702-1.046 3.2 3.2 0 00-1.046-.716 3.131 3.131 0 00-1.275-.258h-4.583v8.25h4.583c.459 0 .884-.086 1.275-.258.401-.171.75-.405 1.046-.701.296-.306.53-.654.702-1.046.171-.401.257-.831.257-1.289v-1.661zm-64.51 52.483v-14.08l-.129.874-4.769 13.206h-.974l-4.813-13.206-.115-.874v14.08h-1.847V264.81h.959l6.231 16.843.057.759.058-.759 6.216-16.843h.974v20.539h-1.848zm14.251-4.784h-6.502l-1.347 4.784h-1.919l6.016-20.539h.974l6.044 20.539h-1.905l-1.361-4.784zm-6.001-1.762h5.514l-2.707-9.467-.057-.759-.057.759-2.693 9.467zm23.16 6.546h-.587l-1.074-1.647a5.154 5.154 0 01-1.633 1.417 4.434 4.434 0 01-2.134.516h-1.074a5.098 5.098 0 01-1.977-.387 5.178 5.178 0 01-1.604-1.088 5.181 5.181 0 01-1.089-1.604 4.996 4.996 0 01-.386-1.963v-11.028c0-.697.128-1.351.386-1.962a5.186 5.186 0 011.089-1.605 4.99 4.99 0 011.604-1.074 4.949 4.949 0 011.977-.401h1.46c.698 0 1.352.134 1.963.401a4.99 4.99 0 011.604 1.074c.458.459.816.993 1.074 1.605.267.611.401 1.265.401 1.962v.831l-1.848.286v-1.117c0-.459-.085-.883-.257-1.275a3.306 3.306 0 00-.702-1.046 3.303 3.303 0 00-1.046-.701 3.13 3.13 0 00-1.274-.258h-1.29c-.458 0-.888.086-1.289.258-.391.172-.74.405-1.045.701-.296.296-.53.645-.702 1.046a3.135 3.135 0 00-.258 1.275v11.028c0 .459.086.888.258 1.29.172.391.406.74.702 1.045.305.296.654.53 1.045.702.401.172.831.258 1.289.258h1.29a3.13 3.13 0 001.274-.258c.401-.172.75-.406 1.046-.702a3.53 3.53 0 00.702-1.045 3.24 3.24 0 00.257-1.29v-4.282h-3.279v-1.762h5.127v10.8zm12.117-4.784h-6.502l-1.347 4.784h-1.919l6.016-20.539h.974l6.044 20.539h-1.905l-1.361-4.784zm-6.001-1.762h5.514l-2.707-9.467-.057-.759-.057.759-2.693 9.467zm11.602 6.546V264.81h1.847v18.777h7.864v1.762h-9.711zm12.346 0V264.81h1.848v18.777h7.863v1.762h-9.711zm23.905-4.756a4.85 4.85 0 01-.401 1.963 4.99 4.99 0 01-1.074 1.604 5.183 5.183 0 01-1.605 1.088 4.991 4.991 0 01-1.962.387h-1.461a5.093 5.093 0 01-1.976-.387 5.164 5.164 0 01-2.693-2.692 4.996 4.996 0 01-.387-1.963v-11.028c0-.697.129-1.351.387-1.962a5.168 5.168 0 011.089-1.605 4.99 4.99 0 011.604-1.074 4.944 4.944 0 011.976-.401h1.461c.697 0 1.351.134 1.962.401a4.994 4.994 0 011.605 1.074c.458.459.816.993 1.074 1.605.267.611.401 1.265.401 1.962v11.028zm-1.848-11.028c0-.459-.086-.883-.258-1.275a3.287 3.287 0 00-.701-1.046 3.303 3.303 0 00-1.046-.701 3.131 3.131 0 00-1.275-.258h-1.289c-.458 0-.888.086-1.289.258-.391.172-.74.405-1.045.701-.296.296-.53.645-.702 1.046a3.135 3.135 0 00-.258 1.275v11.028c0 .459.086.888.258 1.29.172.391.406.74.702 1.045.305.296.654.53 1.045.702.401.172.831.258 1.289.258h1.289c.459 0 .884-.086 1.275-.258.401-.172.75-.406 1.046-.702.296-.305.53-.654.701-1.045.172-.402.258-.831.258-1.29v-11.028z" fill="#C8B369"/></svg>