<svg width="464" height="451" fill="none" xmlns="http://www.w3.org/2000/svg"><g class="lines"><path d="M414 188.667c0 103.093-80.588 186.666-180 186.666S54 291.76 54 188.667C54 85.573 134.588 2 234 2s180 83.573 180 186.667z" stroke="#C8B268" stroke-width="3" stroke-miterlimit="10"/><path d="M143.486 142.085l-7.153-49.692s-1.364-4.943 2.557-4.26c3.922.68 56.938 8.182 56.938 8.182s4.806.511 4.536 4.432c-.274 3.922-1.636 36.142-22.604 42.108-8.526 2.386-16.538-4.604-16.879-8.354-.34-3.75 33.925-9.035 45.688 23.014 10.399 32.22 11.251 47.051 11.251 47.051s.853 2.557-2.046 2.387c-2.898-.171-14.66-8.183 1.535-12.955l9.545-.341s8.355-.171 8.355 5.965c0 6.137-4.603 7.331-7.16 7.16-2.557-.169-1.535-3.128-1.535-3.128s2.898-72.221 1.875-74.949c.171-3.58 1.365-4.774 4.433-4.603 3.58.171 38.016 3.751 38.868 4.432.852.683 4.603.341 3.24 4.773-1.365 4.434-10.57 29.322-36.996 17.56-4.089-2.046 5.458-5.966 7.331-6.137 2.388-.512 13.64-3.069 26.936 2.728 13.297 5.795 10.911 5.113 10.911 5.113s3.068 1.195 3.921-4.432c.852-5.625 4.944-32.39 4.603-35.288-.342-2.898 1.364-3.58-4.943-5.796-6.308-2.216-105.865-40.233-120.868-48.926-3.409-1.364-7.16-2.387-7.16.852 0 3.238 1.471 32.433 1.471 32.433m-16.071 54.69l-.579-4.02" stroke="#C7B169" stroke-width="2.667" stroke-miterlimit="10" stroke-linecap="round" stroke-linejoin="round"/><path d="M144.857 206.484l-2.492 111.47s-.74 3.377-2.112 1.172c-1.028-1.655 1.194-22.332 24.208-27.278 23.015-4.942 46.37-5.752 58.474 8.696 13.466 15.854 9.034 17.218 7.672 16.194-1.366-1.022-31.198-33.668-34.267-37.672-1.888-2.467-7.841-20.288 11.423-18.754-5.456-4.433-28.128-8.865-46.542-29.664-18.41-20.797-34.434-63.074-34.434-63.074s-1.194-1.876 1.193-2.216c2.387-.342 39.379-6.82 50.46-5.456 10.399 1.876 21.82 27.105 9.547 42.618-4.603 5.627-28.811 8.866-30.856 2.728-1.686-5.056-8.052-32.594-10.306-42.41m-2.854-15.751c2.701-5.648 7.926-11.218 17.882-13.771m-20.484 29.912s-1.221-8.149 2.602-16.14" stroke="#C7B169" stroke-width="2.667" stroke-miterlimit="10" stroke-linecap="round" stroke-linejoin="round"/><path d="M205.884 259.103c2.421 1.304 3.863 1.76 6.408 2.05 6.393.734 12.188-6.218 12.188-12.652 0-6.436-5.163-12.164-11.597-12.164" stroke="#C7B169" stroke-width="2.667" stroke-miterlimit="10" stroke-linecap="round" stroke-linejoin="round"/><path d="M195.68 221.124s8.054-6.264 8.374-6.648c.32-.383 1.279-1.407 3.07 0 1.789 1.405 6.584 6.072 13.678.384 1.792-1.103 2.303-.96 2.878-.384.576.574 9.718 7.862 9.718 7.862s2.3 1.151.831 4.219c-1.471 3.069-20.969 20.457-39.892 0-2.621-2.941 1.343-5.433 1.343-5.433zm-1.822 2.588l40.435.224" stroke="#C7B169" stroke-width="2.667" stroke-miterlimit="10" stroke-linecap="round" stroke-linejoin="round"/><path d="M279.996 208v-14.079l-.129.873L275.098 208h-.974l-4.813-13.206-.114-.873V208h-1.848v-20.539h.96l6.23 16.844.057.759.058-.759 6.216-16.844h.974V208h-1.848zm6.546 0v-20.539h1.847V208h-1.847zm6.259 0v-20.539h1.847v18.777h7.864V208h-9.711zm22.358 0v-9.382h-7.863V208h-1.848v-20.539h1.848v9.396h7.863v-9.396h1.848V208h-1.848zm6.56 0v-20.539h11.558v1.762h-9.711v7.634h7.864v1.761h-7.864v7.62h9.711V208h-11.558zm22.802-4.784h-6.503L336.672 208h-1.919l6.015-20.539h.974L347.786 208h-1.904l-1.361-4.784zm-6.001-1.762h5.514l-2.707-9.467-.057-.759-.058.759-2.692 9.467zm23.16 1.791c0 .697-.134 1.351-.401 1.962a4.976 4.976 0 01-1.075 1.604 5.181 5.181 0 01-1.604 1.089 4.99 4.99 0 01-1.962.386h-1.461a5.092 5.092 0 01-1.976-.386 5.186 5.186 0 01-1.605-1.089 5.178 5.178 0 01-1.088-1.604 4.991 4.991 0 01-.387-1.962v-15.784h1.848v15.784c0 .458.086.888.258 1.289.171.391.405.74.701 1.045.306.296.654.53 1.046.702.401.172.831.258 1.289.258h1.289c.458 0 .883-.086 1.275-.258a3.301 3.301 0 001.045-.702 3.53 3.53 0 00.702-1.045c.172-.401.258-.831.258-1.289v-15.784h1.848v15.784zm-82.772 28.821a4.85 4.85 0 01-.401 1.963 4.987 4.987 0 01-1.075 1.604 5.137 5.137 0 01-1.618 1.088 4.991 4.991 0 01-1.962.387h-4.655V245h-1.848v-20.539h6.503c.697 0 1.351.134 1.962.401.62.258 1.16.616 1.618 1.074.459.459.817.998 1.075 1.619.267.611.401 1.265.401 1.962v2.549zm-1.848-2.549c0-.458-.086-.883-.258-1.275a3.195 3.195 0 00-.716-1.045 3.187 3.187 0 00-1.046-.717 3.146 3.146 0 00-1.274-.257h-4.569v9.123h4.569c.458 0 .883-.086 1.274-.257.401-.172.75-.406 1.046-.702.305-.296.544-.64.716-1.032.172-.401.258-.83.258-1.289v-2.549zM292.099 245l-5.572-8.766h-2.535V245h-1.847v-20.539h6.516c.698 0 1.352.134 1.963.401a4.99 4.99 0 011.604 1.074c.458.459.816.998 1.074 1.619.267.611.401 1.265.401 1.962v1.661c0 .697-.134 1.356-.401 1.977a4.99 4.99 0 01-1.074 1.604 5.198 5.198 0 01-1.604 1.089 5.01 5.01 0 01-1.963.386l5.572 8.766h-2.134zm-.244-15.483c0-.458-.085-.883-.257-1.275a3.301 3.301 0 00-.702-1.045 3.187 3.187 0 00-1.046-.717 3.146 3.146 0 00-1.274-.257h-4.584v8.25h4.584a3.13 3.13 0 001.274-.258c.401-.172.75-.406 1.046-.702.296-.306.53-.654.702-1.046.172-.401.257-.83.257-1.289v-1.661zM297.771 245v-20.539h1.847V245h-1.847zm6.56 0v-20.539h11.558v1.762h-9.711v7.634h7.864v1.761h-7.864v7.62h9.711V245h-11.558zm26.354-4.755c0 .697-.134 1.351-.401 1.962a4.99 4.99 0 01-1.074 1.604 5.186 5.186 0 01-1.605 1.089 4.99 4.99 0 01-1.962.386h-1.461a5.092 5.092 0 01-1.976-.386 5.164 5.164 0 01-2.693-2.693 4.991 4.991 0 01-.387-1.962v-15.784h1.848v15.784c0 .458.086.888.258 1.289.172.391.406.74.702 1.045.305.296.654.53 1.045.702.401.172.831.258 1.289.258h1.289c.459 0 .884-.086 1.275-.258.401-.172.75-.406 1.046-.702.296-.305.53-.654.701-1.045.172-.401.258-.831.258-1.289v-15.784h1.848v15.784zM344.75 245l-5.572-8.766h-2.535V245h-1.847v-20.539h6.516c.698 0 1.352.134 1.963.401a4.99 4.99 0 011.604 1.074c.458.459.816.998 1.074 1.619.267.611.401 1.265.401 1.962v1.661c0 .697-.134 1.356-.401 1.977a4.99 4.99 0 01-1.074 1.604 5.198 5.198 0 01-1.604 1.089 5.01 5.01 0 01-1.963.386l5.572 8.766h-2.134zm-.243-15.483c0-.458-.086-.883-.258-1.275a3.301 3.301 0 00-.702-1.045 3.187 3.187 0 00-1.046-.717 3.146 3.146 0 00-1.274-.257h-4.584v8.25h4.584a3.13 3.13 0 001.274-.258c.401-.172.75-.406 1.046-.702.296-.306.53-.654.702-1.046.172-.401.258-.83.258-1.289v-1.661zM279.996 282v-14.079l-.129.873L275.098 282h-.974l-4.813-13.206-.114-.873V282h-1.848v-20.539h.96l6.23 16.844.057.759.058-.759 6.216-16.844h.974V282h-1.848zm14.251-4.784h-6.502L286.398 282h-1.919l6.016-20.539h.974L297.513 282h-1.905l-1.361-4.784zm-6.001-1.762h5.514l-2.707-9.467-.057-.759-.057.759-2.693 9.467zm23.16 6.546h-.587l-1.074-1.647a5.158 5.158 0 01-1.633 1.418c-.64.344-1.351.515-2.134.515h-1.074a5.1 5.1 0 01-1.977-.386 5.181 5.181 0 01-1.604-1.089 5.198 5.198 0 01-1.089-1.604 5.009 5.009 0 01-.386-1.962v-11.029c0-.697.129-1.351.386-1.962a5.198 5.198 0 011.089-1.604 4.957 4.957 0 011.604-1.074 4.936 4.936 0 011.977-.402h1.461a4.83 4.83 0 011.962.402 4.957 4.957 0 012.678 2.678 4.83 4.83 0 01.401 1.962v.831l-1.847.286v-1.117c0-.458-.086-.883-.258-1.275a3.301 3.301 0 00-.702-1.045 3.306 3.306 0 00-1.046-.702 3.13 3.13 0 00-1.274-.258h-1.289c-.459 0-.888.086-1.289.258-.392.172-.74.406-1.046.702-.296.296-.53.644-.702 1.045a3.138 3.138 0 00-.258 1.275v11.029c0 .458.086.888.258 1.289.172.391.406.74.702 1.045.306.296.654.53 1.046.702.401.172.83.258 1.289.258h1.289a3.13 3.13 0 001.274-.258c.401-.172.75-.406 1.046-.702a3.53 3.53 0 00.702-1.045c.172-.401.258-.831.258-1.289v-4.283h-3.28v-1.761h5.127V282zm12.117-4.784h-6.502L315.674 282h-1.919l6.016-20.539h.974L326.789 282h-1.905l-1.361-4.784zm-6.001-1.762h5.514l-2.707-9.467-.057-.759-.057.759-2.693 9.467zM329.124 282v-20.539h1.847v18.777h7.864V282h-9.711zm12.346 0v-20.539h1.848v18.777h7.863V282h-9.711zm23.905-4.755c0 .697-.134 1.351-.401 1.962a4.99 4.99 0 01-1.074 1.604 5.193 5.193 0 01-1.604 1.089 5 5 0 01-1.963.386h-1.461a5.092 5.092 0 01-1.976-.386 5.164 5.164 0 01-2.693-2.693 4.991 4.991 0 01-.387-1.962v-11.029c0-.697.129-1.351.387-1.962a5.164 5.164 0 011.089-1.604 4.957 4.957 0 011.604-1.074 4.928 4.928 0 011.976-.402h1.461c.697 0 1.351.134 1.963.402a4.968 4.968 0 012.678 2.678c.267.611.401 1.265.401 1.962v11.029zm-1.848-11.029c0-.458-.086-.883-.257-1.275a3.301 3.301 0 00-.702-1.045 3.306 3.306 0 00-1.046-.702 3.131 3.131 0 00-1.275-.258h-1.289c-.458 0-.888.086-1.289.258a3.53 3.53 0 00-1.045.702c-.296.296-.53.644-.702 1.045a3.138 3.138 0 00-.258 1.275v11.029c0 .458.086.888.258 1.289.172.391.406.74.702 1.045.305.296.654.53 1.045.702.401.172.831.258 1.289.258h1.289c.459 0 .884-.086 1.275-.258.401-.172.75-.406 1.046-.702a3.53 3.53 0 00.702-1.045c.171-.401.257-.831.257-1.289v-11.029zM13.607 438.245a4.84 4.84 0 01-.401 1.962 4.982 4.982 0 01-1.074 1.604 5.183 5.183 0 01-1.605 1.089 4.992 4.992 0 01-1.962.386h-1.46a5.097 5.097 0 01-1.977-.386 5.184 5.184 0 01-1.605-1.089 5.18 5.18 0 01-1.088-1.604 4.994 4.994 0 01-.387-1.962v-11.029c0-.697.13-1.351.387-1.962a5.18 5.18 0 011.088-1.604 4.96 4.96 0 011.605-1.074 4.933 4.933 0 011.976-.402h1.461a4.83 4.83 0 011.962.402 4.96 4.96 0 012.679 2.678 4.84 4.84 0 01.4 1.962v.831l-1.847.286v-1.117a3.14 3.14 0 00-.258-1.275 3.3 3.3 0 00-.701-1.045 3.304 3.304 0 00-1.046-.702 3.134 3.134 0 00-1.275-.258H7.19c-.458 0-.888.086-1.289.258-.391.172-.74.406-1.046.702-.296.296-.53.644-.701 1.045a3.14 3.14 0 00-.258 1.275v11.029c0 .458.086.888.258 1.289.172.391.405.74.701 1.045.306.296.655.53 1.046.702.401.172.83.258 1.29.258h1.288c.459 0 .883-.086 1.275-.258.4-.172.75-.406 1.046-.702.295-.305.53-.654.701-1.045.172-.401.258-.831.258-1.289v-1.117l1.848.3v.817zm11.83-.029h-6.502L17.589 443h-1.92l6.016-20.539h.974L28.703 443h-1.905l-1.36-4.784zm-6-1.762h5.514l-2.707-9.467-.058-.759-.057.759-2.693 9.467zm23.46 1.504c0 .697-.133 1.351-.4 1.963a4.993 4.993 0 01-1.075 1.604 4.993 4.993 0 01-3.58 1.475h-6.503v-20.539h6.502c.697 0 1.351.134 1.962.401.621.258 1.16.616 1.619 1.074.458.459.816.998 1.074 1.619a4.84 4.84 0 01.401 1.962v.2c0 .487-.067.955-.2 1.404a4.75 4.75 0 01-.545 1.232c-.238.382-.52.73-.845 1.045a4.877 4.877 0 01-1.088.774c.4.21.764.473 1.088.788.325.305.607.654.845 1.045.24.382.42.798.545 1.246.133.44.2.903.2 1.39v1.317zm-1.847-1.618c0-.458-.086-.883-.258-1.275a3.185 3.185 0 00-.717-1.045 3.303 3.303 0 00-1.045-.702 3.133 3.133 0 00-1.275-.258h-4.569v8.178h4.57a3.13 3.13 0 001.274-.258c.401-.171.75-.405 1.045-.701.306-.296.545-.64.717-1.032.172-.401.258-.83.258-1.289v-1.618zm0-8.823c0-.458-.086-.883-.258-1.275a3.185 3.185 0 00-.717-1.045 3.184 3.184 0 00-1.045-.717 3.15 3.15 0 00-1.275-.257h-4.569v7.075h4.57a3.13 3.13 0 001.274-.258 3.3 3.3 0 001.045-.701 3.41 3.41 0 00.717-1.046 3.24 3.24 0 00.258-1.289v-.487zM46.434 443v-20.539h1.848V443h-1.848zm17.144 0l-8.565-14.953-.172-.888V443h-1.847v-20.539h.96l8.565 14.967.186.874v-15.841h1.847V443h-.974zm5.687 0v-20.539h11.558v1.762h-9.71v7.634h7.863v1.761h-7.864v7.62h9.711V443H69.266zm20.08-18.777V443H87.5v-18.777h-4.9v-1.762h11.645v1.762h-4.899zm26.168 13.735c0 .697-.133 1.351-.401 1.963a5 5 0 01-1.074 1.604 5.137 5.137 0 01-1.618 1.088 5 5 0 01-1.963.387h-6.502v-20.539h6.502c.697 0 1.351.134 1.963.401.62.258 1.16.616 1.618 1.074.458.459.816.998 1.074 1.619a4.83 4.83 0 01.401 1.962v10.441zm-1.847-10.441c0-.458-.086-.883-.258-1.275a3.195 3.195 0 00-.716-1.045 3.187 3.187 0 00-1.046-.717 3.147 3.147 0 00-1.275-.257h-4.569v17.015h4.569c.459 0 .884-.086 1.275-.258.401-.171.75-.405 1.046-.701.305-.296.544-.64.716-1.032.172-.401.258-.83.258-1.289v-10.441zm6.688 1.26h-.744v-6.316h2.205l-1.461 6.316zm16.543 9.468a4.83 4.83 0 01-.401 1.962 4.957 4.957 0 01-1.074 1.604 5.181 5.181 0 01-1.604 1.089 4.99 4.99 0 01-1.962.386h-1.461a5.1 5.1 0 01-1.977-.386 5.181 5.181 0 01-1.604-1.089 5.178 5.178 0 01-1.088-1.604 4.991 4.991 0 01-.387-1.962v-11.029c0-.697.129-1.351.387-1.962a5.178 5.178 0 011.088-1.604 4.957 4.957 0 011.604-1.074 4.936 4.936 0 011.977-.402h1.461a4.83 4.83 0 011.962.402 4.957 4.957 0 012.678 2.678 4.83 4.83 0 01.401 1.962v11.029zm-1.847-11.029c0-.458-.086-.883-.258-1.275a3.301 3.301 0 00-.702-1.045 3.301 3.301 0 00-1.045-.702 3.138 3.138 0 00-1.275-.258h-1.289c-.459 0-.888.086-1.289.258-.392.172-.74.406-1.046.702-.296.296-.53.644-.702 1.045a3.138 3.138 0 00-.258 1.275v11.029c0 .458.086.888.258 1.289.172.391.406.74.702 1.045.306.296.654.53 1.046.702.401.172.83.258 1.289.258h1.289c.458 0 .883-.086 1.275-.258a3.301 3.301 0 001.045-.702 3.53 3.53 0 00.702-1.045c.172-.401.258-.831.258-1.289v-11.029zM150.964 443l-5.572-8.766h-2.535V443h-1.848v-20.539h6.517c.697 0 1.351.134 1.962.401a4.945 4.945 0 012.679 2.693c.267.611.401 1.265.401 1.962v1.661c0 .697-.134 1.356-.401 1.977a4.976 4.976 0 01-1.075 1.604 5.198 5.198 0 01-1.604 1.089 5.009 5.009 0 01-1.962.386l5.572 8.766h-2.134zm-.244-15.483c0-.458-.086-.883-.258-1.275a3.301 3.301 0 00-.702-1.045 3.183 3.183 0 00-1.045-.717 3.154 3.154 0 00-1.275-.257h-4.583v8.25h4.583c.458 0 .883-.086 1.275-.258a3.301 3.301 0 001.045-.702c.296-.306.53-.654.702-1.046.172-.401.258-.83.258-1.289v-1.661zm10.9-3.294V443h-1.848v-18.777h-4.898v-1.762h11.644v1.762h-4.898zM179.18 443v-9.382h-7.864V443h-1.847v-20.539h1.847v9.396h7.864v-9.396h1.847V443h-1.847zm17.817-4.755a4.83 4.83 0 01-.401 1.962 4.973 4.973 0 01-1.074 1.604 5.181 5.181 0 01-1.604 1.089 4.99 4.99 0 01-1.962.386h-1.461a5.1 5.1 0 01-1.977-.386 5.181 5.181 0 01-1.604-1.089 5.178 5.178 0 01-1.088-1.604 4.991 4.991 0 01-.387-1.962v-11.029c0-.697.129-1.351.387-1.962a5.178 5.178 0 011.088-1.604 4.957 4.957 0 011.604-1.074 4.936 4.936 0 011.977-.402h1.461a4.83 4.83 0 011.962.402 4.957 4.957 0 012.678 2.678 4.83 4.83 0 01.401 1.962v11.029zm-1.847-11.029c0-.458-.086-.883-.258-1.275a3.301 3.301 0 00-.702-1.045 3.301 3.301 0 00-1.045-.702 3.138 3.138 0 00-1.275-.258h-1.289c-.459 0-.888.086-1.289.258-.392.172-.74.406-1.046.702-.296.296-.53.644-.702 1.045a3.138 3.138 0 00-.258 1.275v11.029c0 .458.086.888.258 1.289.172.391.406.74.702 1.045.306.296.654.53 1.046.702.401.172.83.258 1.289.258h1.289c.458 0 .883-.086 1.275-.258a3.301 3.301 0 001.045-.702 3.53 3.53 0 00.702-1.045c.172-.401.258-.831.258-1.289v-11.029zm17.817 10.742c0 .697-.133 1.351-.401 1.963a4.968 4.968 0 01-1.074 1.604 5.137 5.137 0 01-1.618 1.088 4.993 4.993 0 01-1.963.387h-6.502v-20.539h6.502c.698 0 1.352.134 1.963.401.62.258 1.16.616 1.618 1.074.459.459.817.998 1.074 1.619a4.83 4.83 0 01.401 1.962v10.441zm-1.847-10.441c0-.458-.086-.883-.258-1.275a3.195 3.195 0 00-.716-1.045 3.187 3.187 0 00-1.046-.717 3.146 3.146 0 00-1.274-.257h-4.569v17.015h4.569a3.13 3.13 0 001.274-.258c.401-.171.75-.405 1.046-.701.305-.296.544-.64.716-1.032.172-.401.258-.83.258-1.289v-10.441zm17.502 10.728a4.83 4.83 0 01-.401 1.962 4.973 4.973 0 01-1.074 1.604 5.181 5.181 0 01-1.604 1.089 4.99 4.99 0 01-1.962.386h-1.461a5.1 5.1 0 01-1.977-.386 5.181 5.181 0 01-1.604-1.089 5.178 5.178 0 01-1.088-1.604 4.991 4.991 0 01-.387-1.962v-11.029c0-.697.129-1.351.387-1.962a5.178 5.178 0 011.088-1.604 4.957 4.957 0 011.604-1.074 4.936 4.936 0 011.977-.402h1.461a4.83 4.83 0 011.962.402 4.957 4.957 0 012.678 2.678 4.83 4.83 0 01.401 1.962v11.029zm-1.847-11.029c0-.458-.086-.883-.258-1.275a3.301 3.301 0 00-.702-1.045 3.301 3.301 0 00-1.045-.702 3.138 3.138 0 00-1.275-.258h-1.289c-.459 0-.888.086-1.289.258-.392.172-.74.406-1.046.702-.296.296-.53.644-.702 1.045a3.138 3.138 0 00-.258 1.275v11.029c0 .458.086.888.258 1.289.172.391.406.74.702 1.045.306.296.654.53 1.046.702.401.172.83.258 1.289.258h1.289c.458 0 .883-.086 1.275-.258a3.301 3.301 0 001.045-.702 3.53 3.53 0 00.702-1.045c.172-.401.258-.831.258-1.289v-11.029zM243.618 443l-8.565-14.953-.171-.888V443h-1.848v-20.539h.959l8.566 14.967.186.874v-15.841h1.847V443h-.974zm10.671-18.777V443h-1.848v-18.777h-4.898v-1.762h11.644v1.762h-4.898zM262.138 443v-20.539h1.848V443h-1.848zm6.56 0v-20.539h11.558v1.762h-9.71v7.634h7.863v1.761h-7.863v7.62h9.71V443h-11.558zm33.415-5.042c0 .697-.133 1.351-.401 1.963a5 5 0 01-1.074 1.604 5.137 5.137 0 01-1.618 1.088 5 5 0 01-1.963.387h-6.502v-20.539h6.502c.697 0 1.351.134 1.963.401.62.258 1.16.616 1.618 1.074.458.459.816.998 1.074 1.619a4.83 4.83 0 01.401 1.962v10.441zm-1.847-10.441c0-.458-.086-.883-.258-1.275a3.195 3.195 0 00-.716-1.045 3.187 3.187 0 00-1.046-.717 3.147 3.147 0 00-1.275-.257h-4.569v17.015h4.569c.459 0 .884-.086 1.275-.258.401-.171.75-.405 1.046-.701.305-.296.544-.64.716-1.032.172-.401.258-.83.258-1.289v-10.441zM306.51 443v-20.539h11.559v1.762h-9.711v7.634h7.863v1.761h-7.863v7.62h9.711V443H306.51zm34.504 0v-14.079l-.129.873L336.116 443h-.974l-4.813-13.206-.114-.873V443h-1.848v-20.539h.96l6.23 16.844.058.759.057-.759 6.216-16.844h.974V443h-1.848zm17.804-4.755c0 .697-.134 1.351-.401 1.962a4.976 4.976 0 01-1.075 1.604 5.181 5.181 0 01-1.604 1.089 4.99 4.99 0 01-1.962.386h-1.461a5.092 5.092 0 01-1.976-.386 5.186 5.186 0 01-1.605-1.089 5.178 5.178 0 01-1.088-1.604 4.991 4.991 0 01-.387-1.962v-11.029c0-.697.129-1.351.387-1.962a5.178 5.178 0 011.088-1.604 4.962 4.962 0 011.605-1.074 4.928 4.928 0 011.976-.402h1.461a4.83 4.83 0 011.962.402 4.976 4.976 0 012.679 2.678c.267.611.401 1.265.401 1.962v11.029zm-1.848-11.029c0-.458-.086-.883-.258-1.275a3.301 3.301 0 00-.702-1.045 3.301 3.301 0 00-1.045-.702 3.138 3.138 0 00-1.275-.258h-1.289c-.458 0-.888.086-1.289.258-.392.172-.74.406-1.046.702-.296.296-.53.644-.701 1.045a3.138 3.138 0 00-.258 1.275v11.029c0 .458.086.888.258 1.289.171.391.405.74.701 1.045.306.296.654.53 1.046.702.401.172.831.258 1.289.258h1.289c.458 0 .883-.086 1.275-.258a3.301 3.301 0 001.045-.702 3.53 3.53 0 00.702-1.045c.172-.401.258-.831.258-1.289v-11.029zM373.814 443l-8.565-14.953-.172-.888V443h-1.848v-20.539h.96l8.565 14.967.186.874v-15.841h1.848V443h-.974zm10.67-18.777V443h-1.847v-18.777h-4.899v-1.762h11.645v1.762h-4.899zm14.667 13.993h-6.503L391.302 443h-1.919l6.015-20.539h.974L402.417 443h-1.905l-1.361-4.784zm-6.001-1.762h5.514l-2.707-9.467-.057-.759-.058.759-2.692 9.467zm23.16 1.791c0 .697-.134 1.351-.401 1.962a4.99 4.99 0 01-1.074 1.604 5.186 5.186 0 01-1.605 1.089 4.99 4.99 0 01-1.962.386h-1.461a5.092 5.092 0 01-1.976-.386 5.164 5.164 0 01-2.693-2.693 4.991 4.991 0 01-.387-1.962v-15.784h1.848v15.784c0 .458.086.888.258 1.289.172.391.406.74.702 1.045.305.296.654.53 1.045.702.401.172.831.258 1.289.258h1.289c.459 0 .884-.086 1.275-.258.401-.172.75-.406 1.046-.702.296-.305.53-.654.701-1.045.172-.401.258-.831.258-1.289v-15.784h1.848v15.784zm15.97-.287c0 .697-.134 1.351-.401 1.963a5 5 0 01-1.074 1.604 5.142 5.142 0 01-1.619 1.088 4.991 4.991 0 01-1.962.387h-6.503v-20.539h6.503c.697 0 1.351.134 1.962.401.621.258 1.16.616 1.619 1.074.458.459.816.998 1.074 1.619.267.611.401 1.265.401 1.962v.2c0 .487-.067.955-.201 1.404-.124.439-.305.85-.544 1.232-.239.382-.52.73-.845 1.045a4.883 4.883 0 01-1.088.774c.401.21.763.473 1.088.788a5 5 0 01.845 1.045 4.7 4.7 0 01.544 1.246c.134.44.201.903.201 1.39v1.317zm-1.848-1.618c0-.458-.086-.883-.258-1.275a3.165 3.165 0 00-.716-1.045 3.301 3.301 0 00-1.045-.702 3.138 3.138 0 00-1.275-.258h-4.569v8.178h4.569c.458 0 .883-.086 1.275-.258a3.282 3.282 0 001.045-.701c.306-.296.545-.64.716-1.032.172-.401.258-.83.258-1.289v-1.618zm0-8.823c0-.458-.086-.883-.258-1.275a3.165 3.165 0 00-.716-1.045 3.183 3.183 0 00-1.045-.717 3.154 3.154 0 00-1.275-.257h-4.569v7.075h4.569c.458 0 .883-.086 1.275-.258a3.299 3.299 0 001.045-.701 3.39 3.39 0 00.716-1.046c.172-.401.258-.831.258-1.289v-.487zm13.091 10.699h-6.502L435.674 443h-1.919l6.016-20.539h.974L446.789 443h-1.905l-1.361-4.784zm-6.001-1.762h5.514l-2.707-9.467-.057-.759-.057.759-2.693 9.467zM460.009 443l-8.565-14.953-.172-.888V443h-1.848v-20.539h.96l8.565 14.967.186.874v-15.841h1.848V443h-.974z" fill="#C8B369"/></g></svg>