<svg width="170" height="273" viewBox="0 0 170 273" fill="none" xmlns="http://www.w3.org/2000/svg">
<path d="M18.998 88.8695L11.8447 38.2374C11.8447 38.2374 10.4807 33.2012 14.402 33.8968C18.3234 34.5896 71.3394 42.2342 71.3394 42.2342C71.3394 42.2342 76.146 42.7546 75.8754 46.7501C75.602 50.7456 74.2394 83.5752 53.2714 89.6547C44.746 92.0852 36.734 84.9636 36.3927 81.142C36.0527 77.3217 70.318 71.9364 82.0807 104.592C92.4794 137.422 93.3314 152.533 93.3314 152.533C93.3314 152.533 94.1847 155.139 91.286 154.965C88.3874 154.791 76.626 146.627 92.8207 141.765L102.366 141.417C102.366 141.417 110.721 141.243 110.721 147.495C110.721 153.749 106.118 154.965 103.561 154.791C101.003 154.618 102.026 151.604 102.026 151.604C102.026 151.604 104.923 78.0159 103.901 75.2363C104.071 71.5886 105.266 70.3727 108.334 70.5466C111.914 70.7205 146.35 74.3682 147.202 75.0624C148.054 75.758 151.805 75.4102 150.442 79.9261C149.077 84.4433 139.871 109.802 113.446 97.8183C109.357 95.7329 118.903 91.7387 120.777 91.5648C123.165 91.0432 134.417 88.4374 147.713 94.3445C161.01 100.249 158.623 99.5545 158.623 99.5545C158.623 99.5545 161.691 100.772 162.545 95.0387C163.397 89.3069 167.489 62.0352 167.147 59.0831C166.806 56.1296 168.511 55.4354 162.205 53.1774C155.897 50.9195 56.3394 12.1829 41.3367 3.32513C37.9274 1.93533 34.1767 0.893315 34.1767 4.19325C34.1767 7.49319 35.6474 37.2402 35.6474 37.2402" stroke="#C7B169" stroke-width="4" stroke-miterlimit="10" stroke-linecap="round" stroke-linejoin="round"/>
<path d="M19.5766 92.965L18.9979 88.8689" stroke="#C7B169" stroke-width="4" stroke-miterlimit="10" stroke-linecap="round" stroke-linejoin="round"/>
<path d="M20.369 154.488L17.877 268.066C17.877 268.066 17.137 271.507 15.765 269.26C14.737 267.574 16.9583 246.505 39.973 241.467C62.9877 236.43 86.3423 235.606 98.4463 250.327C111.913 266.48 107.481 267.87 106.118 266.827C104.753 265.786 74.921 232.522 71.8517 228.442C69.9637 225.929 64.0103 207.77 83.2743 209.334C77.8183 204.817 55.1463 200.301 36.733 179.109C18.3223 157.918 2.29833 114.841 2.29833 114.841C2.29833 114.841 1.105 112.929 3.49167 112.583C5.87833 112.235 42.8703 105.634 53.9517 107.024C64.3503 108.935 75.7717 134.642 63.4983 150.449C58.8957 156.182 34.6877 159.482 32.6423 153.228C30.957 148.077 24.5903 120.017 22.337 110.015" stroke="#C7B169" stroke-width="4" stroke-miterlimit="10" stroke-linecap="round" stroke-linejoin="round"/>
<path d="M19.4822 93.9659C22.1835 88.2111 27.4088 82.5364 37.3648 79.9348" stroke="#C7B169" stroke-width="4" stroke-miterlimit="10" stroke-linecap="round" stroke-linejoin="round"/>
<path d="M16.8807 110.413C16.8807 110.413 15.6594 102.109 19.482 93.9672" stroke="#C7B169" stroke-width="4" stroke-miterlimit="10" stroke-linecap="round" stroke-linejoin="round"/>
<path d="M81.3956 208.101C83.817 209.43 85.2583 209.895 87.8036 210.191C94.197 210.938 99.9916 203.855 99.9916 197.299C99.9916 190.742 94.829 184.905 88.3943 184.905" stroke="#C7B169" stroke-width="4" stroke-miterlimit="10" stroke-linecap="round" stroke-linejoin="round"/>
<path d="M71.1915 169.404C71.1915 169.404 79.2462 163.021 79.5662 162.63C79.8862 162.24 80.8449 161.197 82.6355 162.63C84.4249 164.062 89.2195 168.817 96.3142 163.021C98.1062 161.898 98.6169 162.043 99.1915 162.63C99.7675 163.216 108.91 170.641 108.91 170.641C108.91 170.641 111.21 171.814 109.741 174.94C108.27 178.067 88.7715 195.784 69.8489 174.94C67.2275 171.943 71.1915 169.404 71.1915 169.404Z" stroke="#C7B169" stroke-width="4" stroke-miterlimit="10" stroke-linecap="round" stroke-linejoin="round"/>
<path d="M69.3698 172.042L109.804 172.27" stroke="#C7B169" stroke-width="4" stroke-miterlimit="10" stroke-linecap="round" stroke-linejoin="round"/>
</svg>
