<svg width="376" height="389" viewBox="0 0 376 389" fill="none" xmlns="http://www.w3.org/2000/svg">
<g id="g10" filter="url(#filter0_d)">
<g id="g12">
<g id="g14">
<g id="g20">
<path id="path22" d="M370 190.5C370 294.606 288.517 379 188 379C87.4834 379 6 294.606 6 190.5C6 86.3942 87.4834 2.00002 188 2.00002C288.517 2.00002 370 86.3942 370 190.5Z" fill="white" stroke="#C8B268" stroke-width="3" stroke-miterlimit="10"/>
</g>
</g>
</g>
<g id="g24">
<g id="g26">
<g id="g32">
<path id="path34" d="M95.4863 144.735L88.333 94.1028C88.333 94.1028 86.969 89.0666 90.8903 89.7622C94.8116 90.4551 147.828 98.0997 147.828 98.0997C147.828 98.0997 152.634 98.62 152.364 102.616C152.09 106.611 150.728 139.441 129.76 145.52C121.234 147.951 113.222 140.829 112.881 137.007C112.541 133.187 146.806 127.802 158.569 160.458C168.968 193.287 169.82 208.398 169.82 208.398C169.82 208.398 170.673 211.004 167.774 210.83C164.876 210.656 153.114 202.493 169.309 197.63L178.854 197.283C178.854 197.283 187.209 197.109 187.209 203.361C187.209 209.614 182.606 210.83 180.049 210.656C177.492 210.484 178.514 207.469 178.514 207.469C178.514 207.469 181.412 133.881 180.389 131.102C180.56 127.454 181.754 126.238 184.822 126.412C188.402 126.586 222.838 130.234 223.69 130.928C224.542 131.623 228.293 131.276 226.93 135.792C225.565 140.309 216.36 165.668 189.934 153.684C185.845 151.598 195.392 147.604 197.265 147.43C199.653 146.909 210.905 144.303 224.201 150.21C237.498 156.114 235.112 155.42 235.112 155.42C235.112 155.42 238.18 156.637 239.033 150.904C239.885 145.172 243.977 117.901 243.636 114.949C243.294 111.995 245 111.301 238.693 109.043C232.385 106.785 132.828 68.0484 117.825 59.1906C114.416 57.8008 110.665 56.7588 110.665 60.0587C110.665 63.3586 112.136 93.1056 112.136 93.1056" stroke="#C7B169" stroke-width="2.66667" stroke-miterlimit="10" stroke-linecap="round" stroke-linejoin="round"/>
</g>
<g id="g36">
<path id="path38" d="M96.0649 148.83L95.4862 144.734" stroke="#C7B169" stroke-width="2.66667" stroke-miterlimit="10" stroke-linecap="round" stroke-linejoin="round"/>
</g>
<g id="g40">
<path id="path42" d="M96.8573 210.353L94.3653 323.931C94.3653 323.931 93.6253 327.372 92.2533 325.125C91.2253 323.439 93.4466 302.371 116.461 297.332C139.476 292.296 162.831 291.471 174.935 306.193C188.401 322.346 183.969 323.736 182.607 322.692C181.241 321.652 151.409 288.387 148.34 284.307C146.452 281.794 140.499 263.636 159.763 265.199C154.307 260.682 131.635 256.166 113.221 234.974C94.8106 213.783 78.7866 170.706 78.7866 170.706C78.7866 170.706 77.5933 168.795 79.9799 168.448C82.3666 168.1 119.359 161.499 130.44 162.889C140.839 164.801 152.26 190.507 139.987 206.314C135.384 212.047 111.176 215.347 109.131 209.094C107.445 203.942 101.079 175.882 98.8253 165.881" stroke="#C7B169" stroke-width="2.66667" stroke-miterlimit="10" stroke-linecap="round" stroke-linejoin="round"/>
</g>
<g id="g44">
<path id="path46" d="M95.9705 149.831C98.6718 144.077 103.897 138.402 113.853 135.8" stroke="#C7B169" stroke-width="2.66667" stroke-miterlimit="10" stroke-linecap="round" stroke-linejoin="round"/>
</g>
<g id="g48">
<path id="path50" d="M93.369 166.278C93.369 166.278 92.1477 157.975 95.9703 149.833" stroke="#C7B169" stroke-width="2.66667" stroke-miterlimit="10" stroke-linecap="round" stroke-linejoin="round"/>
</g>
<g id="g52">
<path id="path54" d="M157.884 263.967C160.305 265.296 161.747 265.76 164.292 266.056C170.685 266.804 176.48 259.72 176.48 253.165C176.48 246.607 171.317 240.771 164.883 240.771" stroke="#C7B169" stroke-width="2.66667" stroke-miterlimit="10" stroke-linecap="round" stroke-linejoin="round"/>
</g>
<g id="g56">
<path id="path58" d="M147.68 225.269C147.68 225.269 155.734 218.887 156.054 218.496C156.374 218.106 157.333 217.062 159.124 218.496C160.913 219.927 165.708 224.682 172.802 218.887C174.594 217.763 175.105 217.909 175.68 218.496C176.256 219.081 185.398 226.507 185.398 226.507C185.398 226.507 187.698 227.679 186.229 230.805C184.758 233.933 165.26 251.65 146.337 230.805C143.716 227.808 147.68 225.269 147.68 225.269Z" stroke="#C7B169" stroke-width="2.66667" stroke-miterlimit="10" stroke-linecap="round" stroke-linejoin="round"/>
</g>
<g id="g60">
<path id="path62" d="M145.858 227.907L186.293 228.135" stroke="#C7B169" stroke-width="2.66667" stroke-miterlimit="10" stroke-linecap="round" stroke-linejoin="round"/>
</g>
</g>
</g>
<path id="MILHEAU PRIEUR MAGALLO" d="M231.996 211.349V197.269L231.867 198.143L227.098 211.349H226.124L221.311 198.143L221.196 197.269V211.349H219.349V190.81H220.308L226.539 207.653L226.596 208.412L226.654 207.653L232.87 190.81H233.844V211.349H231.996ZM238.542 211.349V190.81H240.389V211.349H238.542ZM244.801 211.349V190.81H246.648V209.587H254.512V211.349H244.801ZM267.159 211.349V201.967H259.295V211.349H257.448V190.81H259.295V200.205H267.159V190.81H269.006V211.349H267.159ZM273.719 211.349V190.81H285.277V192.571H275.566V200.205H283.43V201.967H275.566V209.587H285.277V211.349H273.719ZM296.521 206.565H290.018L288.672 211.349H286.752L292.768 190.81H293.742L299.786 211.349H297.881L296.521 206.565ZM290.519 204.803H296.034L293.327 195.336L293.269 194.577L293.212 195.336L290.519 204.803ZM313.68 206.593C313.68 207.29 313.546 207.945 313.279 208.556C313.021 209.167 312.663 209.702 312.204 210.16C311.746 210.618 311.211 210.981 310.6 211.248C309.989 211.506 309.335 211.635 308.638 211.635H307.177C306.48 211.635 305.821 211.506 305.2 211.248C304.589 210.981 304.055 210.618 303.596 210.16C303.138 209.702 302.775 209.167 302.508 208.556C302.25 207.945 302.121 207.29 302.121 206.593V190.81H303.969V206.593C303.969 207.052 304.055 207.481 304.226 207.883C304.398 208.274 304.632 208.623 304.928 208.928C305.234 209.224 305.582 209.458 305.974 209.63C306.375 209.802 306.805 209.888 307.263 209.888H308.552C309.01 209.888 309.435 209.802 309.827 209.63C310.228 209.458 310.576 209.224 310.872 208.928C311.168 208.623 311.402 208.274 311.574 207.883C311.746 207.481 311.832 207.052 311.832 206.593V190.81H313.68V206.593ZM230.907 235.415C230.907 236.112 230.774 236.766 230.506 237.377C230.249 237.988 229.891 238.523 229.432 238.981C228.974 239.44 228.434 239.803 227.814 240.07C227.203 240.328 226.548 240.457 225.851 240.457H221.196V248.349H219.349V227.81H225.851C226.548 227.81 227.203 227.943 227.814 228.211C228.434 228.468 228.974 228.827 229.432 229.285C229.891 229.743 230.249 230.283 230.506 230.903C230.774 231.514 230.907 232.169 230.907 232.866V235.415ZM229.06 232.866C229.06 232.407 228.974 231.982 228.802 231.591C228.63 231.19 228.391 230.841 228.086 230.545C227.79 230.24 227.441 230.001 227.04 229.829C226.649 229.657 226.224 229.571 225.766 229.571H221.196V238.695H225.766C226.224 238.695 226.649 238.609 227.04 238.437C227.441 238.265 227.79 238.031 228.086 237.735C228.391 237.439 228.63 237.096 228.802 236.704C228.974 236.303 229.06 235.873 229.06 235.415V232.866ZM244.099 248.349L238.527 239.583H235.992V248.349H234.144V227.81H240.661C241.358 227.81 242.012 227.943 242.624 228.211C243.235 228.468 243.769 228.827 244.228 229.285C244.686 229.743 245.044 230.283 245.302 230.903C245.569 231.514 245.703 232.169 245.703 232.866V234.527C245.703 235.224 245.569 235.883 245.302 236.504C245.044 237.115 244.686 237.649 244.228 238.108C243.769 238.566 243.235 238.929 242.624 239.196C242.012 239.454 241.358 239.583 240.661 239.583L246.233 248.349H244.099ZM243.855 232.866C243.855 232.407 243.769 231.982 243.598 231.591C243.426 231.19 243.192 230.841 242.896 230.545C242.6 230.24 242.251 230.001 241.85 229.829C241.459 229.657 241.034 229.571 240.575 229.571H235.992V237.821H240.575C241.034 237.821 241.459 237.735 241.85 237.563C242.251 237.392 242.6 237.158 242.896 236.862C243.192 236.556 243.426 236.208 243.598 235.816C243.769 235.415 243.855 234.985 243.855 234.527V232.866ZM249.771 248.349V227.81H251.618V248.349H249.771ZM256.331 248.349V227.81H267.889V229.571H258.178V237.205H266.042V238.967H258.178V246.587H267.889V248.349H256.331ZM282.685 243.593C282.685 244.29 282.551 244.945 282.284 245.556C282.026 246.167 281.668 246.702 281.21 247.16C280.751 247.618 280.216 247.981 279.605 248.248C278.994 248.506 278.34 248.635 277.643 248.635H276.182C275.485 248.635 274.826 248.506 274.206 248.248C273.594 247.981 273.06 247.618 272.601 247.16C272.143 246.702 271.78 246.167 271.513 245.556C271.255 244.945 271.126 244.29 271.126 243.593V227.81H272.974V243.593C272.974 244.052 273.06 244.481 273.232 244.883C273.404 245.274 273.637 245.623 273.933 245.928C274.239 246.224 274.588 246.458 274.979 246.63C275.38 246.802 275.81 246.888 276.268 246.888H277.557C278.016 246.888 278.44 246.802 278.832 246.63C279.233 246.458 279.581 246.224 279.877 245.928C280.173 245.623 280.407 245.274 280.579 244.883C280.751 244.481 280.837 244.052 280.837 243.593V227.81H282.685V243.593ZM296.75 248.349L291.178 239.583H288.643V248.349H286.795V227.81H293.312C294.009 227.81 294.664 227.943 295.275 228.211C295.886 228.468 296.42 228.827 296.879 229.285C297.337 229.743 297.695 230.283 297.953 230.903C298.22 231.514 298.354 232.169 298.354 232.866V234.527C298.354 235.224 298.22 235.883 297.953 236.504C297.695 237.115 297.337 237.649 296.879 238.108C296.42 238.566 295.886 238.929 295.275 239.196C294.664 239.454 294.009 239.583 293.312 239.583L298.884 248.349H296.75ZM296.506 232.866C296.506 232.407 296.42 231.982 296.249 231.591C296.077 231.19 295.843 230.841 295.547 230.545C295.251 230.24 294.902 230.001 294.501 229.829C294.11 229.657 293.685 229.571 293.226 229.571H288.643V237.821H293.226C293.685 237.821 294.11 237.735 294.501 237.563C294.902 237.392 295.251 237.158 295.547 236.862C295.843 236.556 296.077 236.208 296.249 235.816C296.42 235.415 296.506 234.985 296.506 234.527V232.866ZM231.996 285.349V271.269L231.867 272.143L227.098 285.349H226.124L221.311 272.143L221.196 271.269V285.349H219.349V264.81H220.308L226.539 281.653L226.596 282.412L226.654 281.653L232.87 264.81H233.844V285.349H231.996ZM246.247 280.565H239.745L238.398 285.349H236.479L242.495 264.81H243.469L249.513 285.349H247.608L246.247 280.565ZM240.246 278.803H245.76L243.053 269.336L242.996 268.577L242.939 269.336L240.246 278.803ZM263.406 285.349H262.819L261.745 283.702C261.296 284.294 260.752 284.766 260.112 285.119C259.472 285.463 258.761 285.635 257.978 285.635H256.904C256.206 285.635 255.548 285.506 254.927 285.248C254.316 284.981 253.781 284.618 253.323 284.16C252.864 283.702 252.502 283.167 252.234 282.556C251.976 281.945 251.848 281.29 251.848 280.593V269.565C251.848 268.868 251.976 268.214 252.234 267.603C252.502 266.991 252.864 266.457 253.323 265.998C253.781 265.54 254.316 265.182 254.927 264.924C255.548 264.657 256.206 264.523 256.904 264.523H258.364C259.062 264.523 259.716 264.657 260.327 264.924C260.938 265.182 261.473 265.54 261.931 265.998C262.389 266.457 262.747 266.991 263.005 267.603C263.272 268.214 263.406 268.868 263.406 269.565V270.396L261.558 270.682V269.565C261.558 269.106 261.473 268.682 261.301 268.29C261.129 267.889 260.895 267.54 260.599 267.244C260.303 266.948 259.954 266.715 259.553 266.543C259.162 266.371 258.737 266.285 258.279 266.285H256.989C256.531 266.285 256.101 266.371 255.7 266.543C255.309 266.715 254.96 266.948 254.655 267.244C254.359 267.54 254.125 267.889 253.953 268.29C253.781 268.682 253.695 269.106 253.695 269.565V280.593C253.695 281.052 253.781 281.481 253.953 281.883C254.125 282.274 254.359 282.623 254.655 282.928C254.96 283.224 255.309 283.458 255.7 283.63C256.101 283.802 256.531 283.888 256.989 283.888H258.279C258.737 283.888 259.162 283.802 259.553 283.63C259.954 283.458 260.303 283.224 260.599 282.928C260.895 282.623 261.129 282.274 261.301 281.883C261.473 281.481 261.558 281.052 261.558 280.593V276.311H258.279V274.549H263.406V285.349ZM275.523 280.565H269.021L267.674 285.349H265.755L271.771 264.81H272.745L278.789 285.349H276.884L275.523 280.565ZM269.522 278.803H275.036L272.329 269.336L272.272 268.577L272.215 269.336L269.522 278.803ZM281.124 285.349V264.81H282.971V283.587H290.835V285.349H281.124ZM293.47 285.349V264.81H295.318V283.587H303.181V285.349H293.47ZM317.375 280.593C317.375 281.29 317.241 281.945 316.974 282.556C316.716 283.167 316.358 283.702 315.9 284.16C315.441 284.618 314.907 284.981 314.295 285.248C313.684 285.506 313.03 285.635 312.333 285.635H310.872C310.175 285.635 309.516 285.506 308.896 285.248C308.285 284.981 307.75 284.618 307.292 284.16C306.833 283.702 306.47 283.167 306.203 282.556C305.945 281.945 305.816 281.29 305.816 280.593V269.565C305.816 268.868 305.945 268.214 306.203 267.603C306.47 266.991 306.833 266.457 307.292 265.998C307.75 265.54 308.285 265.182 308.896 264.924C309.516 264.657 310.175 264.523 310.872 264.523H312.333C313.03 264.523 313.684 264.657 314.295 264.924C314.907 265.182 315.441 265.54 315.9 265.998C316.358 266.457 316.716 266.991 316.974 267.603C317.241 268.214 317.375 268.868 317.375 269.565V280.593ZM315.527 269.565C315.527 269.106 315.441 268.682 315.269 268.29C315.098 267.889 314.864 267.54 314.568 267.244C314.272 266.948 313.923 266.715 313.522 266.543C313.131 266.371 312.706 266.285 312.247 266.285H310.958C310.5 266.285 310.07 266.371 309.669 266.543C309.278 266.715 308.929 266.948 308.624 267.244C308.328 267.54 308.094 267.889 307.922 268.29C307.75 268.682 307.664 269.106 307.664 269.565V280.593C307.664 281.052 307.75 281.481 307.922 281.883C308.094 282.274 308.328 282.623 308.624 282.928C308.929 283.224 309.278 283.458 309.669 283.63C310.07 283.802 310.5 283.888 310.958 283.888H312.247C312.706 283.888 313.131 283.802 313.522 283.63C313.923 283.458 314.272 283.224 314.568 282.928C314.864 282.623 315.098 282.274 315.269 281.883C315.441 281.481 315.527 281.052 315.527 280.593V269.565Z" fill="#C8B369"/>
</g>
<defs>
<filter id="filter0_d" x="0.5" y="0.500015" width="375" height="388" filterUnits="userSpaceOnUse" color-interpolation-filters="sRGB">
<feFlood flood-opacity="0" result="BackgroundImageFix"/>
<feColorMatrix in="SourceAlpha" type="matrix" values="0 0 0 0 0 0 0 0 0 0 0 0 0 0 0 0 0 0 127 0"/>
<feOffset dy="4"/>
<feGaussianBlur stdDeviation="2"/>
<feColorMatrix type="matrix" values="0 0 0 0 0 0 0 0 0 0 0 0 0 0 0 0 0 0 0.25 0"/>
<feBlend mode="normal" in2="BackgroundImageFix" result="effect1_dropShadow"/>
<feBlend mode="normal" in="SourceGraphic" in2="effect1_dropShadow" result="shape"/>
</filter>
</defs>
</svg>
