<svg width="376" height="389" fill="none" xmlns="http://www.w3.org/2000/svg"><path d="M370 194.5C370 298.606 288.517 383 188 383S6 298.606 6 194.5 87.483 6 188 6s182 84.394 182 188.5z" fill="#173444" stroke="#C8B268" stroke-width="12" stroke-miterlimit="10"/><path d="M95.486 148.735l-7.153-50.632s-1.364-5.036 2.557-4.34c3.922.692 56.938 8.337 56.938 8.337s4.806.52 4.536 4.516c-.274 3.995-1.636 36.825-22.604 42.904-8.526 2.431-16.538-4.691-16.879-8.513-.34-3.82 33.925-9.205 45.688 23.451 10.399 32.829 11.251 47.94 11.251 47.94s.853 2.606-2.046 2.432c-2.898-.174-14.66-8.337 1.535-13.2l9.545-.347s8.355-.174 8.355 6.078c0 6.253-4.603 7.469-7.16 7.295-2.557-.172-1.535-3.187-1.535-3.187s2.898-73.588 1.875-76.367c.171-3.648 1.365-4.864 4.433-4.69 3.58.174 38.016 3.822 38.868 4.516.852.696 4.603.348 3.24 4.864-1.365 4.517-10.57 29.876-36.996 17.892-4.089-2.086 5.458-6.08 7.331-6.254 2.388-.521 13.64-3.127 26.936 2.78 13.297 5.904 10.911 5.21 10.911 5.21s3.068 1.217 3.921-4.516c.852-5.732 4.944-33.003 4.603-35.955-.342-2.954 1.364-3.648-4.943-5.906-6.308-2.258-105.865-40.995-120.868-49.852-3.409-1.39-7.16-2.432-7.16.868s1.471 33.047 1.471 33.047M96.065 152.83l-.579-4.096" stroke="#C7B169" stroke-width="4" stroke-miterlimit="10" stroke-linecap="round" stroke-linejoin="round"/><path d="M96.857 214.353l-2.492 113.578s-.74 3.441-2.112 1.194c-1.028-1.686 1.194-22.754 24.208-27.793 23.015-5.036 46.37-5.861 58.474 8.861 13.466 16.153 9.034 17.543 7.672 16.499-1.366-1.04-31.198-34.305-34.267-38.385-1.888-2.513-7.841-20.671 11.423-19.108-5.456-4.517-28.128-9.033-46.542-30.225-18.41-21.191-34.434-64.268-34.434-64.268s-1.194-1.911 1.193-2.258c2.387-.348 39.379-6.949 50.46-5.559 10.399 1.912 21.82 27.618 9.547 43.425-4.603 5.733-28.811 9.033-30.856 2.78-1.686-5.152-8.052-33.212-10.306-43.213m-2.855-16.05c2.702-5.754 7.927-11.429 17.883-14.031m-20.484 30.478s-1.221-8.303 2.601-16.445" stroke="#C7B169" stroke-width="4" stroke-miterlimit="10" stroke-linecap="round" stroke-linejoin="round"/><path d="M157.884 267.967c2.421 1.329 3.863 1.793 6.408 2.089 6.393.748 12.188-6.336 12.188-12.891 0-6.558-5.163-12.394-11.597-12.394" stroke="#C7B169" stroke-width="4" stroke-miterlimit="10" stroke-linecap="round" stroke-linejoin="round"/><path d="M147.68 229.269s8.054-6.382 8.374-6.773c.32-.39 1.279-1.434 3.07 0 1.789 1.431 6.584 6.186 13.678.391 1.792-1.124 2.303-.978 2.878-.391.576.585 9.718 8.011 9.718 8.011s2.3 1.172.831 4.298c-1.471 3.128-20.969 20.845-39.892 0-2.621-2.997 1.343-5.536 1.343-5.536zm-1.822 2.638l40.435.228" stroke="#C7B169" stroke-width="4" stroke-miterlimit="10" stroke-linecap="round" stroke-linejoin="round"/><g fill="#C8B369"><path d="M231.826 214.349v-13.92l-.128.864-4.715 13.056h-.963l-4.758-13.056-.113-.864v13.92h-1.827v-20.306h.949l6.16 16.652.056.751.057-.751 6.145-16.652h.963v20.306h-1.826zm14.089-4.73h-6.429l-1.331 4.73h-1.897l5.947-20.306h.963l5.975 20.306h-1.883l-1.345-4.73zm-5.933-1.742h5.451l-2.676-9.359-.056-.751-.057.751-2.662 9.359zm22.897 6.472h-.581l-1.062-1.629a5.087 5.087 0 01-1.614 1.402c-.633.34-1.336.51-2.11.51h-1.062a5.06 5.06 0 01-1.954-.382 5.11 5.11 0 01-2.662-2.663 4.933 4.933 0 01-.382-1.94v-10.903c0-.689.127-1.336.382-1.94a5.122 5.122 0 011.076-1.586 4.933 4.933 0 011.586-1.062 4.893 4.893 0 011.954-.396h1.444c.69 0 1.336.132 1.94.396a4.922 4.922 0 012.648 2.648c.265.604.397 1.251.397 1.94v.821l-1.827.284v-1.105c0-.453-.085-.873-.255-1.26a3.259 3.259 0 00-.694-1.034 3.27 3.27 0 00-1.033-.694 3.1 3.1 0 00-1.261-.255h-1.274c-.453 0-.878.085-1.274.255-.387.17-.732.402-1.034.694a3.259 3.259 0 00-.694 1.034c-.17.387-.255.807-.255 1.26v10.903c0 .454.085.878.255 1.275.17.387.401.731.694 1.034.302.292.647.523 1.034.693.396.17.821.255 1.274.255h1.274a3.1 3.1 0 001.261-.255c.396-.17.741-.401 1.033-.693.293-.303.524-.647.694-1.034.17-.397.255-.821.255-1.275v-4.233h-3.243v-1.742h5.07v10.677zm11.979-4.73h-6.428l-1.331 4.73h-1.898l5.947-20.306h.963l5.976 20.306h-1.884l-1.345-4.73zm-5.933-1.742h5.452l-2.676-9.359-.057-.751-.057.751-2.662 9.359zm11.47 6.472v-20.306h1.827v18.564h7.773v1.742h-9.6zm12.206 0v-20.306h1.827v18.564h7.774v1.742h-9.601zm23.633-4.702c0 .69-.132 1.336-.396 1.94a4.922 4.922 0 01-1.062 1.586 5.142 5.142 0 01-1.586 1.077 4.955 4.955 0 01-1.94.382h-1.444c-.69 0-1.341-.128-1.955-.382a5.113 5.113 0 01-2.662-2.663 4.933 4.933 0 01-.382-1.94v-10.903c0-.689.127-1.336.382-1.94a5.124 5.124 0 011.077-1.586 4.928 4.928 0 011.585-1.062 4.894 4.894 0 011.955-.396h1.444c.689 0 1.336.132 1.94.396a4.933 4.933 0 012.648 2.648c.264.604.396 1.251.396 1.94v10.903zm-1.826-10.903c0-.453-.085-.873-.255-1.26a3.259 3.259 0 00-.694-1.034 3.275 3.275 0 00-1.034-.694 3.098 3.098 0 00-1.26-.255h-1.274c-.454 0-.878.085-1.275.255-.387.17-.732.402-1.034.694a3.256 3.256 0 00-.693 1.034c-.17.387-.255.807-.255 1.26v10.903c0 .454.085.878.255 1.275.169.387.401.731.693 1.034.302.292.647.523 1.034.693.397.17.821.255 1.275.255h1.274c.453 0 .873-.085 1.26-.255.397-.17.741-.401 1.034-.693.293-.303.524-.647.694-1.034.17-.397.255-.821.255-1.275v-10.903zm-82.582 52.605v-13.92l-.128.864-4.715 13.056h-.963l-4.758-13.056-.113-.864v13.92h-1.827v-20.306h.949l6.16 16.652.056.751.057-.751 6.145-16.652h.963v20.306h-1.826zm6.471 0v-20.306h1.826v20.306h-1.826zm6.188 0v-20.306h1.826v18.564h7.774v1.742h-9.6zm22.104 0v-9.275h-7.774v9.275h-1.827v-20.306h1.827v9.289h7.774v-9.289h1.826v20.306h-1.826zm6.485 0v-20.306h11.427v1.742h-9.6v7.547h7.774v1.742h-7.774v7.533h9.6v1.742h-11.427zm22.543-4.73h-6.429l-1.331 4.73h-1.897l5.947-20.306h.963l5.976 20.306h-1.884l-1.345-4.73zm-5.933-1.742h5.452l-2.677-9.359-.056-.751-.057.751-2.662 9.359zm22.897 1.77c0 .69-.132 1.336-.397 1.94a4.89 4.89 0 01-1.062 1.586 5.13 5.13 0 01-1.586 1.077 4.95 4.95 0 01-1.939.382h-1.445a5.06 5.06 0 01-1.954-.382 5.11 5.11 0 01-2.662-2.663 4.933 4.933 0 01-.382-1.94v-15.604h1.826v15.604c0 .454.085.878.255 1.275.17.387.401.731.694 1.034.302.292.647.523 1.034.693.396.17.821.255 1.274.255h1.275c.453 0 .873-.085 1.26-.255.396-.17.741-.401 1.034-.693.292-.303.523-.647.693-1.034.17-.397.255-.821.255-1.275v-15.604h1.827v15.604zm-81.832 28.915c0 .689-.132 1.336-.396 1.94a4.933 4.933 0 01-1.062 1.586 5.08 5.08 0 01-1.6 1.076 4.937 4.937 0 01-1.94.382h-4.602v7.803h-1.827v-20.306h6.429c.689 0 1.336.132 1.94.396a4.897 4.897 0 011.6 1.062c.453.454.807.987 1.062 1.601.264.604.396 1.25.396 1.94v2.52zm-1.826-2.52a3.1 3.1 0 00-.255-1.261 3.15 3.15 0 00-.708-1.033 3.123 3.123 0 00-1.034-.708 3.098 3.098 0 00-1.26-.255h-4.517v9.02h4.517c.453 0 .873-.085 1.26-.255.397-.17.741-.401 1.034-.694.302-.293.538-.633.708-1.02.17-.396.255-.821.255-1.274v-2.52zm14.868 15.307l-5.508-8.666h-2.507v8.666h-1.826v-20.306h6.442c.69 0 1.336.132 1.94.396a4.922 4.922 0 011.586 1.062c.453.454.807.987 1.062 1.601.265.604.397 1.25.397 1.94v1.642c0 .689-.132 1.341-.397 1.954a4.933 4.933 0 01-1.062 1.586 5.11 5.11 0 01-1.586 1.076 4.934 4.934 0 01-1.94.383l5.509 8.666h-2.11zm-.241-15.307a3.1 3.1 0 00-.255-1.261 3.254 3.254 0 00-.694-1.033 3.12 3.12 0 00-1.033-.708 3.1 3.1 0 00-1.261-.255h-4.531v8.156h4.531a3.1 3.1 0 001.261-.255c.396-.17.741-.401 1.033-.694.293-.302.524-.646.694-1.034.17-.396.255-.821.255-1.274v-1.642zm5.848 15.307v-20.306h1.827v20.306h-1.827zm6.486 0v-20.306h11.427v1.742h-9.601v7.547h7.774v1.742h-7.774v7.533h9.601v1.742h-11.427zm26.054-4.702c0 .69-.132 1.336-.396 1.94a4.922 4.922 0 01-1.062 1.586 5.142 5.142 0 01-1.586 1.077 4.955 4.955 0 01-1.94.382h-1.444a5.057 5.057 0 01-1.954-.382 5.113 5.113 0 01-2.663-2.663 4.951 4.951 0 01-.382-1.94v-15.604h1.827v15.604c0 .454.085.878.255 1.275.17.387.401.731.693 1.034.303.292.647.523 1.034.693.397.17.821.255 1.275.255h1.274c.453 0 .873-.085 1.26-.255.397-.17.741-.401 1.034-.693.293-.303.524-.647.694-1.034.17-.397.255-.821.255-1.275v-15.604h1.826v15.604zm13.906 4.702l-5.509-8.666h-2.506v8.666h-1.827v-20.306h6.443c.689 0 1.336.132 1.94.396a4.933 4.933 0 011.586 1.062c.453.454.807.987 1.062 1.601.264.604.397 1.25.397 1.94v1.642a4.89 4.89 0 01-.397 1.954 4.933 4.933 0 01-1.062 1.586 5.122 5.122 0 01-1.586 1.076 4.938 4.938 0 01-1.94.383l5.508 8.666h-2.109zm-.241-15.307a3.1 3.1 0 00-.255-1.261 3.254 3.254 0 00-.694-1.033 3.113 3.113 0 00-1.034-.708 3.098 3.098 0 00-1.26-.255h-4.531v8.156h4.531c.453 0 .873-.085 1.26-.255.397-.17.742-.401 1.034-.694.293-.302.524-.646.694-1.034.17-.396.255-.821.255-1.274v-1.642z"/><path d="M231.826 214.349h-.6v.6h.6v-.6zm0-13.92h.6l-1.194-.087.594.087zm-.128.864l.564.204.021-.057.009-.059-.594-.088zm-4.715 13.056v.6h.421l.143-.397-.564-.203zm-.963 0l-.564.205.144.395h.42v-.6zm-4.758-13.056l-.595.078.009.065.022.062.564-.205zm-.113-.864l.595-.078-1.195.078h.6zm0 13.92v.6h.6v-.6h-.6zm-1.827 0h-.6v.6h.6v-.6zm0-20.306v-.6h-.6v.6h.6zm.949 0l.563-.208-.145-.392h-.418v.6zm6.16 16.652l.598-.045-.006-.084-.03-.079-.562.208zm.056.751l-.598.045h1.196l-.598-.045zm.057-.751l-.563-.207-.029.078-.006.084.598.045zm6.145-16.652v-.6h-.418l-.145.392.563.208zm.963 0h.6v-.6h-.6v.6zm0 20.306v.6h.6v-.6h-.6zm-1.226 0v-13.92h-1.2v13.92h1.2zm-1.194-14.007l-.127.863 1.187.176.127-.864-1.187-.175zm-.098.747l-4.716 13.056 1.129.407 4.715-13.055-1.128-.408zm-4.151 12.66h-.963v1.2h.963v-1.2zm-.399.394l-4.758-13.055-1.128.41 4.758 13.056 1.128-.411zm-4.727-12.928l-.113-.864-1.19.156.113.864 1.19-.156zm-1.308-.786v13.92h1.2v-13.92h-1.2zm.6 13.32h-1.827v1.2h1.827v-1.2zm-1.227.6v-20.306h-1.2v20.306h1.2zm-.6-19.706h.949v-1.2h-.949v1.2zm.386-.392l6.16 16.652 1.125-.416-6.159-16.652-1.126.416zm6.124 16.489l.057.751 1.196-.09-.056-.751-1.197.09zm1.253.751l.057-.751-1.196-.09-.057.751 1.196.09zm.022-.588l6.145-16.652-1.126-.416-6.145 16.653 1.126.415zm5.582-16.26h.963v-1.2h-.963v1.2zm.363-.6v20.306h1.2v-20.306h-1.2zm.6 19.706h-1.826v1.2h1.826v-1.2zm12.263-4.13l.577-.164-.124-.436h-.453v.6zm-6.429 0v-.6h-.454l-.123.438.577.162zm-1.331 4.73v.6h.455l.123-.438-.578-.162zm-1.897 0l-.576-.169-.225.769h.801v-.6zm5.947-20.306v-.6h-.45l-.126.431.576.169zm.963 0l.575-.169-.126-.431h-.449v.6zm5.975 20.306v.6h.802l-.226-.77-.576.17zm-1.883 0l-.577.164.124.436h.453v-.6zm-7.278-6.472l-.577-.164-.218.764h.795v-.6zm5.451 0v.6h.796l-.219-.765-.577.165zm-2.676-9.359l-.598.045.005.061.016.059.577-.165zm-.056-.751l.598-.045h-1.197l.599.045zm-.057.751l.577.164.017-.059.004-.06-.598-.045zm3.271 10.501h-6.429v1.2h6.429v-1.2zm-7.006.438l-1.331 4.729 1.155.325 1.331-4.729-1.155-.325zm-.754 4.292h-1.897v1.2h1.897v-1.2zm-1.321.768l5.947-20.305-1.152-.338-5.947 20.306 1.152.337zm5.371-19.874h.963v-1.2h-.963v1.2zm.387-.431l5.976 20.306 1.151-.339-5.976-20.305-1.151.338zm6.551 19.537h-1.883v1.2h1.883v-1.2zm-1.306.435l-1.345-4.729-1.154.328 1.345 4.73 1.154-.329zm-7.855-5.707h5.451v-1.2h-5.451v1.2zm6.028-.765l-2.676-9.359-1.154.33 2.677 9.359 1.153-.33zm-2.654-9.24l-.057-.75-1.197.09.057.751 1.197-.091zm-1.254-.75l-.056.75 1.196.091.057-.751-1.197-.09zm-.035.631l-2.662 9.36 1.154.329 2.662-9.36-1.154-.329zm20.812 15.996v.6h.6v-.6h-.6zm-.581 0l-.502.327.177.273h.325v-.6zm-1.062-1.629l.503-.328-.466-.714-.515.68.478.362zm-1.614 1.402l.284.529.006-.004-.29-.525zm-5.126.128l-.241.549.011.005.23-.554zm-2.662-2.663l-.553.234.003.007.55-.241zm0-14.783l-.55-.24-.003.007.553.233zm2.662-2.648l.233.553.004-.002-.237-.551zm5.338 0l-.24.55.007.003.233-.553zm2.648 2.648l-.553.233.004.008.549-.241zm.397 2.761l.092.593.508-.078v-.515h-.6zm-1.827.284h-.6v.7l.692-.107-.092-.593zm-.255-2.365l-.551.236.002.005.549-.241zm-1.727-1.728l-.242.55.005.002.237-.552zm-3.809 0l-.237-.551-.005.002.242.549zm-1.034.694l-.418-.431-.006.007.424.424zm-.694 1.034l.549.241.003-.005-.552-.236zm0 13.438l-.551.236.002.005.549-.241zm.694 1.034l-.431.417.007.007.006.007.418-.431zm1.034.693l-.242.55.005.002.237-.552zm3.809 0l-.237-.551-.004.002.241.549zm1.033-.693l.425.424.006-.007-.431-.417zm.694-1.034l.55.241.002-.005-.552-.236zm.255-5.508h.6v-.6h-.6v.6zm-3.243 0h-.6v.6h.6v-.6zm0-1.742v-.6h-.6v.6h.6zm5.07 0h.6v-.6h-.6v.6zm0 10.077h-.581v1.2h.581v-1.2zm-.078.272l-1.062-1.629-1.005.656 1.062 1.628 1.005-.655zm-2.043-1.663a4.508 4.508 0 01-1.426 1.239l.58 1.05a5.688 5.688 0 001.802-1.564l-.956-.725zm-1.42 1.236a3.789 3.789 0 01-1.826.438v1.2c.865 0 1.667-.191 2.394-.581l-.568-1.057zm-1.826.438h-1.062v1.2h1.062v-1.2zm-1.062 0a4.435 4.435 0 01-1.724-.337l-.46 1.109a5.647 5.647 0 002.184.428v-1.2zm-1.714-.332a4.527 4.527 0 01-1.402-.951l-.848.849a5.724 5.724 0 001.769 1.201l.481-1.099zm-1.402-.951a4.53 4.53 0 01-.95-1.402l-1.1.481a5.731 5.731 0 001.202 1.77l.848-.849zm-.947-1.395a4.339 4.339 0 01-.335-1.707h-1.2c0 .766.141 1.492.429 2.174l1.106-.467zm-.335-1.707v-10.903h-1.2v10.903h1.2zm0-10.903c0-.613.113-1.18.335-1.707l-1.106-.466a5.532 5.532 0 00-.429 2.173h1.2zm.332-1.699a4.518 4.518 0 01.95-1.402l-.848-.849a5.731 5.731 0 00-1.202 1.77l1.1.481zm.95-1.402a4.328 4.328 0 011.395-.934l-.466-1.106a5.54 5.54 0 00-1.777 1.191l.848.849zm1.399-.936a4.29 4.29 0 011.717-.347v-1.2c-.768 0-1.5.148-2.191.445l.474 1.102zm1.717-.347h1.444v-1.2h-1.444v1.2zm1.444 0a4.18 4.18 0 011.7.346l.481-1.099a5.388 5.388 0 00-2.181-.447v1.2zm1.707.349c.535.226.998.536 1.395.934l.849-.849a5.562 5.562 0 00-1.777-1.191l-.467 1.106zm1.395.934c.397.397.708.86.933 1.394l1.106-.466a5.521 5.521 0 00-1.19-1.777l-.849.849zm.937 1.402c.229.525.346 1.089.346 1.699h1.2c0-.768-.148-1.497-.447-2.18l-1.099.481zm.346 1.699v.821h1.2v-.821h-1.2zm.508.229l-1.827.283.184 1.186 1.827-.284-.184-1.185zm-1.135.876v-1.105h-1.2v1.105h1.2zm0-1.105c0-.53-.1-1.033-.305-1.501l-1.099.482c.134.306.204.643.204 1.019h1.2zm-.303-1.496a3.865 3.865 0 00-.821-1.222l-.849.848c.237.237.426.517.567.846l1.103-.472zm-.821-1.222a3.865 3.865 0 00-1.222-.821l-.473 1.103c.33.141.61.33.846.566l.849-.848zm-1.217-.819a3.696 3.696 0 00-1.502-.306v1.2c.377 0 .714.071 1.02.205l.482-1.099zm-1.502-.306h-1.274v1.2h1.274v-1.2zm-1.274 0c-.53 0-1.036.1-1.511.304l.473 1.103a2.606 2.606 0 011.038-.207v-1.2zm-1.516.306c-.452.198-.856.47-1.21.812l.835.862c.251-.243.536-.434.858-.575l-.483-1.099zm-1.216.819a3.848 3.848 0 00-.821 1.222l1.103.472c.141-.329.33-.609.566-.846l-.848-.848zm-.819 1.217a3.691 3.691 0 00-.306 1.501h1.2c0-.376.07-.713.204-1.019l-1.098-.482zm-.306 1.501v10.903h1.2v-10.903h-1.2zm0 10.903c0 .531.1 1.036.304 1.511l1.103-.472a2.594 2.594 0 01-.207-1.039h-1.2zm.306 1.516c.198.452.469.856.812 1.21l.862-.835a2.89 2.89 0 01-.576-.857l-1.098.482zm.825 1.224c.354.342.758.613 1.21.812l.483-1.099a2.904 2.904 0 01-.858-.575l-.835.862zm1.215.814c.475.203.981.303 1.511.303v-1.2c-.376 0-.72-.07-1.038-.206l-.473 1.103zm1.511.303h1.274v-1.2h-1.274v1.2zm1.274 0c.531 0 1.033-.1 1.502-.305l-.482-1.099a2.507 2.507 0 01-1.02.204v1.2zm1.497-.303a3.865 3.865 0 001.222-.821l-.849-.849a2.642 2.642 0 01-.846.567l.473 1.103zm1.228-.828a4.1 4.1 0 00.813-1.21l-1.099-.482a2.89 2.89 0 01-.576.857l.862.835zm.815-1.215c.203-.475.303-.98.303-1.511h-1.2c0 .377-.07.72-.206 1.039l1.103.472zm.303-1.511v-4.233h-1.2v4.233h1.2zm-.6-4.833h-3.243v1.2h3.243v-1.2zm-2.643.6v-1.742h-1.2v1.742h1.2zm-.6-1.142h5.07v-1.2h-5.07v1.2zm4.47-.6v10.677h1.2v-10.677h-1.2zm12.579 5.947l.577-.164-.124-.436h-.453v.6zm-6.428 0v-.6h-.455l-.123.438.578.162zm-1.331 4.73v.6h.454l.123-.438-.577-.162zm-1.898 0l-.576-.169-.225.769h.801v-.6zm5.947-20.306v-.6h-.449l-.126.431.575.169zm.963 0l.576-.169-.127-.431h-.449v.6zm5.976 20.306v.6h.802l-.227-.77-.575.17zm-1.884 0l-.577.164.124.436h.453v-.6zm-7.278-6.472l-.577-.164-.217.764h.794v-.6zm5.452 0v.6h.795l-.218-.765-.577.165zm-2.676-9.359l-.599.045.005.061.017.059.577-.165zm-.057-.751l.598-.045h-1.196l.598.045zm-.057.751l.577.164.017-.059.005-.06-.599-.045zm3.271 10.501h-6.428v1.2h6.428v-1.2zm-7.006.438l-1.331 4.729 1.155.325 1.331-4.729-1.155-.325zm-.753 4.292h-1.898v1.2h1.898v-1.2zm-1.322.768l5.947-20.305-1.151-.338-5.948 20.306 1.152.337zm5.371-19.874h.963v-1.2h-.963v1.2zm.388-.431l5.975 20.306 1.151-.339-5.975-20.305-1.151.338zm6.551 19.537h-1.884v1.2h1.884v-1.2zm-1.306.435l-1.346-4.729-1.154.328 1.345 4.73 1.155-.329zm-7.856-5.707h5.452v-1.2h-5.452v1.2zm6.029-.765l-2.677-9.359-1.153.33 2.676 9.359 1.154-.33zm-2.655-9.24l-.057-.75-1.196.09.056.751 1.197-.091zm-1.253-.75l-.057.75 1.197.091.056-.751-1.196-.09zm-.036.631l-2.662 9.36 1.154.329 2.662-9.36-1.154-.329zm9.385 15.996h-.6v.6h.6v-.6zm0-20.306v-.6h-.6v.6h.6zm1.827 0h.6v-.6h-.6v.6zm0 18.564h-.6v.6h.6v-.6zm7.773 0h.6v-.6h-.6v.6zm0 1.742v.6h.6v-.6h-.6zm-9 0v-20.306h-1.2v20.306h1.2zm-.6-19.706h1.827v-1.2h-1.827v1.2zm1.227-.6v18.564h1.2v-18.564h-1.2zm.6 19.164h7.773v-1.2h-7.773v1.2zm7.173-.6v1.742h1.2v-1.742h-1.2zm.6 1.142h-9.6v1.2h9.6v-1.2zm2.606.6h-.6v.6h.6v-.6zm0-20.306v-.6h-.6v.6h.6zm1.827 0h.6v-.6h-.6v.6zm0 18.564h-.6v.6h.6v-.6zm7.774 0h.6v-.6h-.6v.6zm0 1.742v.6h.6v-.6h-.6zm-9.001 0v-20.306h-1.2v20.306h1.2zm-.6-19.706h1.827v-1.2h-1.827v1.2zm1.227-.6v18.564h1.2v-18.564h-1.2zm.6 19.164h7.774v-1.2h-7.774v1.2zm7.174-.6v1.742h1.2v-1.742h-1.2zm.6 1.142h-9.601v1.2h9.601v-1.2zm13.636-2.162l-.55-.24-.003.007.553.233zm-2.648 2.663l.233.552.007-.003-.24-.549zm-5.339 0l-.24.549.01.005.23-.554zm-2.662-2.663l-.553.234.004.007.549-.241zm0-14.783l-.549-.24-.003.007.552.233zm2.662-2.648l.234.553.004-.002-.238-.551zm5.339 0l-.241.55.008.003.233-.553zm2.648 2.648l-.553.233.003.008.55-.241zm-1.685.68l-.552.236.002.005.55-.241zm-1.728-1.728l-.241.55.005.002.236-.552zm-3.809 0l-.236-.551-.005.002.241.549zm-1.034.694l-.417-.431-.007.007.424.424zm-.693 1.034l.549.241.002-.005-.551-.236zm0 13.438l-.552.236.002.005.55-.241zm.693 1.034l-.431.417.007.007.007.007.417-.431zm1.034.693l-.241.55.005.002.236-.552zm3.809 0l-.236-.551-.005.002.241.549zm1.034-.693l.424.424.007-.007-.431-.417zm.694-1.034l.549.241.002-.005-.551-.236zm1.481-1.275a4.18 4.18 0 01-.346 1.7l1.099.481a5.388 5.388 0 00.447-2.181h-1.2zm-.349 1.707a4.317 4.317 0 01-.934 1.395l.849.849a5.562 5.562 0 001.191-1.777l-1.106-.467zm-.934 1.395a4.504 4.504 0 01-1.402.951l.481 1.099a5.728 5.728 0 001.77-1.201l-.849-.849zm-1.394.948a4.346 4.346 0 01-1.707.335v1.2c.765 0 1.491-.142 2.173-.43l-.466-1.105zm-1.707.335h-1.444v1.2h1.444v-1.2zm-1.444 0a4.431 4.431 0 01-1.724-.337l-.461 1.109c.69.286 1.419.428 2.185.428v-1.2zm-1.714-.332a4.504 4.504 0 01-1.402-.951l-.849.849a5.728 5.728 0 001.77 1.201l.481-1.099zm-1.402-.951a4.515 4.515 0 01-.951-1.402l-1.099.481a5.728 5.728 0 001.201 1.77l.849-.849zm-.948-1.395a4.339 4.339 0 01-.335-1.707h-1.2c0 .766.142 1.492.43 2.174l1.105-.467zm-.335-1.707v-10.903h-1.2v10.903h1.2zm0-10.903c0-.613.113-1.18.335-1.707l-1.105-.466a5.533 5.533 0 00-.43 2.173h1.2zm.332-1.699a4.504 4.504 0 01.951-1.402l-.849-.849a5.728 5.728 0 00-1.201 1.77l1.099.481zm.951-1.402c.397-.398.86-.708 1.395-.934l-.467-1.106a5.54 5.54 0 00-1.777 1.191l.849.849zm1.399-.936a4.284 4.284 0 011.717-.347v-1.2c-.769 0-1.501.148-2.192.445l.475 1.102zm1.717-.347h1.444v-1.2h-1.444v1.2zm1.444 0c.61 0 1.174.116 1.699.346l.481-1.099a5.383 5.383 0 00-2.18-.447v1.2zm1.707.349c.534.226.997.536 1.394.934l.849-.849a5.54 5.54 0 00-1.777-1.191l-.466 1.106zm1.394.934c.398.397.708.86.934 1.394l1.106-.466a5.54 5.54 0 00-1.191-1.777l-.849.849zm.937 1.402a4.18 4.18 0 01.346 1.699h1.2c0-.768-.148-1.497-.447-2.18l-1.099.481zm.346 1.699v10.903h1.2v-10.903h-1.2zm-.626 0c0-.53-.1-1.033-.306-1.501l-1.099.482c.135.306.205.643.205 1.019h1.2zm-.304-1.496a3.848 3.848 0 00-.821-1.222l-.848.848c.236.237.425.517.566.846l1.103-.472zm-.821-1.222a3.872 3.872 0 00-1.221-.821l-.473 1.103c.329.141.609.33.846.566l.848-.848zm-1.217-.819a3.691 3.691 0 00-1.501-.306v1.2c.376 0 .713.071 1.019.205l.482-1.099zm-1.501-.306h-1.274v1.2h1.274v-1.2zm-1.274 0c-.531 0-1.036.1-1.511.304l.472 1.103a2.608 2.608 0 011.039-.207v-1.2zm-1.516.306c-.452.198-.856.47-1.21.812l.835.862c.25-.243.535-.434.857-.575l-.482-1.099zm-1.217.819a3.865 3.865 0 00-.821 1.222l1.103.472c.141-.329.33-.609.567-.846l-.849-.848zm-.819 1.217a3.707 3.707 0 00-.305 1.501h1.2c0-.376.07-.713.204-1.019l-1.099-.482zm-.305 1.501v10.903h1.2v-10.903h-1.2zm0 10.903c0 .531.1 1.036.303 1.511l1.103-.472a2.61 2.61 0 01-.206-1.039h-1.2zm.305 1.516c.199.452.47.856.812 1.21l.862-.835a2.887 2.887 0 01-.575-.857l-1.099.482zm.826 1.224c.354.342.758.613 1.21.812l.482-1.099a2.887 2.887 0 01-.857-.575l-.835.862zm1.215.814c.475.203.98.303 1.511.303v-1.2c-.377 0-.721-.07-1.039-.206l-.472 1.103zm1.511.303h1.274v-1.2h-1.274v1.2zm1.274 0c.53 0 1.033-.1 1.501-.305l-.482-1.099a2.505 2.505 0 01-1.019.204v1.2zm1.497-.303a3.872 3.872 0 001.221-.821l-.848-.849a2.664 2.664 0 01-.846.567l.473 1.103zm1.228-.828c.342-.354.614-.758.812-1.21l-1.099-.482a2.868 2.868 0 01-.575.857l.862.835zm.814-1.215c.204-.475.304-.98.304-1.511h-1.2c0 .377-.07.72-.207 1.039l1.103.472zm.304-1.511v-10.903h-1.2v10.903h1.2zm-83.182 41.702h-.6v.6h.6v-.6zm0-13.92h.6l-1.194-.087.594.087zm-.128.864l.564.204.021-.057.009-.059-.594-.088zm-4.715 13.056v.6h.421l.143-.397-.564-.203zm-.963 0l-.564.205.144.395h.42v-.6zm-4.758-13.056l-.595.078.009.065.022.062.564-.205zm-.113-.864l.595-.078-1.195.078h.6zm0 13.92v.6h.6v-.6h-.6zm-1.827 0h-.6v.6h.6v-.6zm0-20.306v-.6h-.6v.6h.6zm.949 0l.563-.208-.145-.392h-.418v.6zm6.16 16.652l.598-.045-.006-.084-.03-.079-.562.208zm.056.751l-.598.045h1.196l-.598-.045zm.057-.751l-.563-.207-.029.078-.006.084.598.045zm6.145-16.652v-.6h-.418l-.145.392.563.208zm.963 0h.6v-.6h-.6v.6zm0 20.306v.6h.6v-.6h-.6zm-1.226 0v-13.92h-1.2v13.92h1.2zm-1.194-14.007l-.127.863 1.187.176.127-.864-1.187-.175zm-.098.747l-4.716 13.056 1.129.407 4.715-13.055-1.128-.408zm-4.151 12.66h-.963v1.2h.963v-1.2zm-.399.394l-4.758-13.055-1.128.41 4.758 13.056 1.128-.411zm-4.727-12.928l-.113-.864-1.19.156.113.864 1.19-.156zm-1.308-.786v13.92h1.2v-13.92h-1.2zm.6 13.32h-1.827v1.2h1.827v-1.2zm-1.227.6v-20.306h-1.2v20.306h1.2zm-.6-19.706h.949v-1.2h-.949v1.2zm.386-.392l6.16 16.652 1.125-.416-6.159-16.652-1.126.416zm6.124 16.489l.057.751 1.196-.09-.056-.751-1.197.09zm1.253.751l.057-.751-1.196-.09-.057.751 1.196.09zm.022-.588l6.145-16.652-1.126-.416-6.145 16.653 1.126.415zm5.582-16.26h.963v-1.2h-.963v1.2zm.363-.6v20.306h1.2v-20.306h-1.2zm.6 19.706h-1.826v1.2h1.826v-1.2zm4.645.6h-.6v.6h.6v-.6zm0-20.306v-.6h-.6v.6h.6zm1.826 0h.6v-.6h-.6v.6zm0 20.306v.6h.6v-.6h-.6zm-1.226 0v-20.306h-1.2v20.306h1.2zm-.6-19.706h1.826v-1.2h-1.826v1.2zm1.226-.6v20.306h1.2v-20.306h-1.2zm.6 19.706h-1.826v1.2h1.826v-1.2zm4.362.6h-.6v.6h.6v-.6zm0-20.306v-.6h-.6v.6h.6zm1.826 0h.6v-.6h-.6v.6zm0 18.564h-.6v.6h.6v-.6zm7.774 0h.6v-.6h-.6v.6zm0 1.742v.6h.6v-.6h-.6zm-9 0v-20.306h-1.2v20.306h1.2zm-.6-19.706h1.826v-1.2h-1.826v1.2zm1.226-.6v18.564h1.2v-18.564h-1.2zm.6 19.164h7.774v-1.2h-7.774v1.2zm7.174-.6v1.742h1.2v-1.742h-1.2zm.6 1.142h-9.6v1.2h9.6v-1.2zm12.504.6h-.6v.6h.6v-.6zm0-9.275h.6v-.6h-.6v.6zm-7.774 0v-.6h-.6v.6h.6zm0 9.275v.6h.6v-.6h-.6zm-1.827 0h-.6v.6h.6v-.6zm0-20.306v-.6h-.6v.6h.6zm1.827 0h.6v-.6h-.6v.6zm0 9.289h-.6v.6h.6v-.6zm7.774 0v.6h.6v-.6h-.6zm0-9.289v-.6h-.6v.6h.6zm1.826 0h.6v-.6h-.6v.6zm0 20.306v.6h.6v-.6h-.6zm-1.226 0v-9.275h-1.2v9.275h1.2zm-.6-9.875h-7.774v1.2h7.774v-1.2zm-8.374.6v9.275h1.2v-9.275h-1.2zm.6 8.675h-1.827v1.2h1.827v-1.2zm-1.227.6v-20.306h-1.2v20.306h1.2zm-.6-19.706h1.827v-1.2h-1.827v1.2zm1.227-.6v9.289h1.2v-9.289h-1.2zm.6 9.889h7.774v-1.2h-7.774v1.2zm8.374-.6v-9.289h-1.2v9.289h1.2zm-.6-8.689h1.826v-1.2h-1.826v1.2zm1.226-.6v20.306h1.2v-20.306h-1.2zm.6 19.706h-1.826v1.2h1.826v-1.2zm4.659.6h-.6v.6h.6v-.6zm0-20.306v-.6h-.6v.6h.6zm11.427 0h.6v-.6h-.6v.6zm0 1.742v.6h.6v-.6h-.6zm-9.6 0v-.6h-.6v.6h.6zm0 7.547h-.6v.6h.6v-.6zm7.774 0h.6v-.6h-.6v.6zm0 1.742v.6h.6v-.6h-.6zm-7.774 0v-.6h-.6v.6h.6zm0 7.533h-.6v.6h.6v-.6zm9.6 0h.6v-.6h-.6v.6zm0 1.742v.6h.6v-.6h-.6zm-10.827 0v-20.306h-1.2v20.306h1.2zm-.6-19.706h11.427v-1.2h-11.427v1.2zm10.827-.6v1.742h1.2v-1.742h-1.2zm.6 1.142h-9.6v1.2h9.6v-1.2zm-10.2.6v7.547h1.2v-7.547h-1.2zm.6 8.147h7.774v-1.2h-7.774v1.2zm7.174-.6v1.742h1.2v-1.742h-1.2zm.6 1.142h-7.774v1.2h7.774v-1.2zm-8.374.6v7.533h1.2v-7.533h-1.2zm.6 8.133h9.6v-1.2h-9.6v1.2zm9-.6v1.742h1.2v-1.742h-1.2zm.6 1.142h-11.427v1.2h11.427v-1.2zm11.116-4.13l.577-.164-.124-.436h-.453v.6zm-6.429 0v-.6h-.454l-.123.438.577.162zm-1.331 4.73v.6h.455l.123-.438-.578-.162zm-1.897 0l-.576-.169-.225.769h.801v-.6zm5.947-20.306v-.6h-.449l-.127.431.576.169zm.963 0l.576-.169-.127-.431h-.449v.6zm5.976 20.306v.6h.802l-.227-.77-.575.17zm-1.884 0l-.577.164.124.436h.453v-.6zm-7.278-6.472l-.577-.164-.217.764h.794v-.6zm5.452 0v.6h.795l-.218-.765-.577.165zm-2.677-9.359l-.598.045.005.061.016.059.577-.165zm-.056-.751l.598-.045h-1.197l.599.045zm-.057.751l.577.164.017-.059.004-.06-.598-.045zm3.271 10.501h-6.429v1.2h6.429v-1.2zm-7.006.438l-1.331 4.729 1.155.325 1.331-4.729-1.155-.325zm-.754 4.292h-1.897v1.2h1.897v-1.2zm-1.321.768l5.947-20.305-1.152-.338-5.947 20.306 1.152.337zm5.371-19.874h.963v-1.2h-.963v1.2zm.387-.431l5.976 20.306 1.151-.339-5.975-20.305-1.152.338zm6.552 19.537h-1.884v1.2h1.884v-1.2zm-1.307.435l-1.345-4.729-1.154.328 1.345 4.73 1.154-.329zm-7.855-5.707h5.452v-1.2h-5.452v1.2zm6.029-.765l-2.677-9.359-1.154.33 2.677 9.359 1.154-.33zm-2.655-9.24l-.057-.75-1.197.09.057.751 1.197-.091zm-1.254-.75l-.056.75 1.196.091.057-.751-1.197-.09zm-.035.631l-2.662 9.36 1.154.329 2.662-9.36-1.154-.329zm20.415 13.234l-.549-.24-.003.007.552.233zm-2.648 2.663l.234.552.007-.003-.241-.549zm-5.338 0l-.24.549.01.005.23-.554zm-2.662-2.663l-.553.234.003.007.55-.241zm-.382-17.544v-.6h-.6v.6h.6zm1.826 0h.6v-.6h-.6v.6zm.255 16.879l-.551.236.002.005.549-.241zm.694 1.034l-.431.417.007.007.007.007.417-.431zm1.034.693l-.241.55.004.002.237-.552zm3.809 0l-.237-.551-.004.002.241.549zm1.034-.693l.424.424.006-.007-.43-.417zm.693-1.034l.55.241.002-.005-.552-.236zm.255-16.879v-.6h-.6v.6h.6zm1.827 0h.6v-.6h-.6v.6zm-.6 15.604c0 .611-.117 1.175-.346 1.7l1.099.481a5.388 5.388 0 00.447-2.181h-1.2zm-.349 1.707a4.333 4.333 0 01-.934 1.395l.849.849a5.543 5.543 0 001.19-1.777l-1.105-.467zm-.934 1.395a4.515 4.515 0 01-1.402.951l.481 1.099a5.728 5.728 0 001.77-1.201l-.849-.849zm-1.395.948a4.337 4.337 0 01-1.706.335v1.2c.765 0 1.491-.142 2.173-.43l-.467-1.105zm-1.706.335h-1.445v1.2h1.445v-1.2zm-1.445 0a4.435 4.435 0 01-1.724-.337l-.46 1.109a5.647 5.647 0 002.184.428v-1.2zm-1.713-.332a4.52 4.52 0 01-1.403-.951l-.848.849a5.716 5.716 0 001.77 1.201l.481-1.099zm-1.403-.951a4.53 4.53 0 01-.95-1.402l-1.1.481a5.731 5.731 0 001.202 1.77l.848-.849zm-.947-1.395a4.339 4.339 0 01-.335-1.707h-1.2c0 .766.142 1.492.429 2.174l1.106-.467zm-.335-1.707v-15.604h-1.2v15.604h1.2zm-.6-15.004h1.826v-1.2h-1.826v1.2zm1.226-.6v15.604h1.2v-15.604h-1.2zm0 15.604c0 .531.1 1.036.304 1.511l1.103-.472a2.594 2.594 0 01-.207-1.039h-1.2zm.306 1.516c.198.452.47.856.812 1.21l.862-.835a2.868 2.868 0 01-.575-.857l-1.099.482zm.826 1.224c.353.342.758.613 1.21.812l.482-1.099a2.887 2.887 0 01-.857-.575l-.835.862zm1.214.814c.475.203.981.303 1.511.303v-1.2c-.376 0-.72-.07-1.038-.206l-.473 1.103zm1.511.303h1.275v-1.2h-1.275v1.2zm1.275 0c.53 0 1.033-.1 1.501-.305l-.482-1.099a2.505 2.505 0 01-1.019.204v1.2zm1.496-.303a3.865 3.865 0 001.222-.821l-.849-.849a2.642 2.642 0 01-.846.567l.473 1.103zm1.228-.828a4.1 4.1 0 00.813-1.21l-1.099-.482a2.887 2.887 0 01-.575.857l.861.835zm.815-1.215c.203-.475.303-.98.303-1.511h-1.2c0 .377-.07.72-.206 1.039l1.103.472zm.303-1.511v-15.604h-1.2v15.604h1.2zm-.6-15.004h1.827v-1.2h-1.827v1.2zm1.227-.6v15.604h1.2v-15.604h-1.2zm-81.628 46.459l-.55-.241-.003.008.553.233zm-2.662 2.662l.233.553.004-.002-.237-.551zm-6.542.382v-.6h-.6v.6h.6zm0 7.803v.6h.6v-.6h-.6zm-1.827 0h-.6v.6h.6v-.6zm0-20.306v-.6h-.6v.6h.6zm8.369.396l-.241.55.011.005.23-.555zm2.662 2.663l-.554.23.004.01.55-.24zm-1.685.679l-.552.237.002.004.55-.241zm-.708-1.033l-.431.417.007.007.006.007.418-.431zm-1.034-.708l-.241.549.005.002.236-.551zm-5.777-.255v-.6h-.6v.6h.6zm0 9.02h-.6v.6h.6v-.6zm5.777-.255l-.236-.552-.005.002.241.55zm1.034-.694l-.418-.431-.006.007.424.424zm.708-1.02l.549.242.002-.005-.551-.237zm1.481-1.274c0 .61-.116 1.175-.346 1.699l1.1.481a5.382 5.382 0 00.446-2.18h-1.2zm-.349 1.707a4.325 4.325 0 01-.933 1.395l.848.848a5.54 5.54 0 001.191-1.777l-1.106-.466zm-.933 1.395a4.5 4.5 0 01-1.414.949l.475 1.102a5.671 5.671 0 001.787-1.203l-.848-.848zm-1.409.947a4.346 4.346 0 01-1.707.335v1.2a5.55 5.55 0 002.173-.429l-.466-1.106zm-1.707.335h-4.602v1.2h4.602v-1.2zm-5.202.6v7.803h1.2v-7.803h-1.2zm.6 7.203h-1.827v1.2h1.827v-1.2zm-1.227.6v-20.306h-1.2v20.306h1.2zm-.6-19.706h6.429v-1.2h-6.429v1.2zm6.429 0c.61 0 1.174.116 1.699.346l.481-1.099a5.383 5.383 0 00-2.18-.447v1.2zm1.71.351a4.28 4.28 0 011.406.932l.848-.849a5.493 5.493 0 00-1.794-1.192l-.46 1.109zm1.406.932c.395.395.706.862.932 1.406l1.108-.461a5.493 5.493 0 00-1.192-1.794l-.848.849zm.936 1.416a4.18 4.18 0 01.346 1.7h1.2c0-.769-.147-1.498-.446-2.181l-1.1.481zm.346 1.7v2.52h1.2v-2.52h-1.2zm-.626 0c0-.531-.1-1.034-.306-1.502l-1.099.482c.135.306.205.643.205 1.02h1.2zm-.304-1.497a3.73 3.73 0 00-.842-1.228l-.835.862c.244.235.435.513.574.839l1.103-.473zm-.828-1.215a3.745 3.745 0 00-1.229-.842l-.472 1.103c.325.139.603.331.839.574l.862-.835zm-1.224-.84a3.707 3.707 0 00-1.501-.305v1.2c.376 0 .713.07 1.019.204l.482-1.099zm-1.501-.305h-4.517v1.2h4.517v-1.2zm-5.117.6v9.02h1.2v-9.02h-1.2zm.6 9.62h4.517v-1.2h-4.517v1.2zm4.517 0c.53 0 1.033-.1 1.501-.306l-.482-1.099a2.49 2.49 0 01-1.019.205v1.2zm1.496-.304a3.848 3.848 0 001.222-.821l-.848-.848a2.678 2.678 0 01-.846.566l.472 1.103zm1.215-.814c.359-.347.639-.752.84-1.209l-1.099-.483a2.58 2.58 0 01-.576.83l.835.862zm.842-1.214c.204-.475.304-.981.304-1.511h-1.2c0 .376-.07.72-.207 1.038l1.103.473zm.304-1.511v-2.52h-1.2v2.52h1.2zm14.268 12.787l-.506.321.176.279h.33v-.6zm-5.508-8.666l.506-.322-.177-.278h-.329v.6zm-2.507 0v-.6h-.6v.6h.6zm0 8.666v.6h.6v-.6h-.6zm-1.826 0h-.6v.6h.6v-.6zm0-20.306v-.6h-.6v.6h.6zm8.382.396l-.24.55.007.003.233-.553zm2.648 2.663l-.554.23.005.01.549-.24zm0 5.536l-.551-.237-.001.004.552.233zm-2.648 2.662l.234.553.007-.003-.241-.55zm-1.94.383v-.6H239.3l.586.921.506-.321zm5.509 8.666v.6h1.092l-.586-.922-.506.322zm-2.606-16.568l-.551.237.002.004.549-.241zm-.694-1.033l-.431.417.007.007.424-.424zm-1.033-.708l-.241.549.004.002.237-.551zm-5.792-.255v-.6h-.6v.6h.6zm0 8.156h-.6v.6h.6v-.6zm5.792-.255l-.237-.551-.004.002.241.549zm1.033-.694l.425.425.006-.007-.431-.418zm.694-1.034l.55.242.002-.005-.552-.237zm1.002 12.069l-5.508-8.666-1.013.643 5.509 8.666 1.012-.643zm-6.014-8.944h-2.507v1.2h2.507v-1.2zm-3.107.6v8.666h1.2v-8.666h-1.2zm.6 8.066h-1.826v1.2h1.826v-1.2zm-1.226.6v-20.306h-1.2v20.306h1.2zm-.6-19.706h6.442v-1.2h-6.442v1.2zm6.442 0a4.18 4.18 0 011.7.346l.481-1.099a5.388 5.388 0 00-2.181-.447v1.2zm1.707.349c.535.226.998.537 1.395.934l.849-.849a5.543 5.543 0 00-1.777-1.19l-.467 1.105zm1.395.934c.396.395.706.862.932 1.406l1.108-.461a5.49 5.49 0 00-1.191-1.794l-.849.849zm.937 1.416c.229.525.346 1.089.346 1.7h1.2c0-.769-.148-1.498-.447-2.181l-1.099.481zm.346 1.7v1.642h1.2v-1.642h-1.2zm0 1.642c0 .61-.117 1.181-.348 1.717l1.102.475a5.484 5.484 0 00.446-2.192h-1.2zm-.349 1.721a4.344 4.344 0 01-.934 1.395l.849.848a5.521 5.521 0 001.19-1.777l-1.105-.466zm-.934 1.395a4.532 4.532 0 01-1.402.951l.481 1.099a5.714 5.714 0 001.77-1.202l-.849-.848zm-1.395.947a4.321 4.321 0 01-1.707.336v1.2c.766 0 1.492-.142 2.174-.43l-.467-1.106zm-2.213 1.257l5.508 8.666 1.013-.643-5.508-8.666-1.013.643zm6.015 7.745h-2.11v1.2h2.11v-1.2zm-1.751-14.707c0-.531-.1-1.034-.305-1.502l-1.099.482c.134.306.204.643.204 1.02h1.2zm-.303-1.497a3.865 3.865 0 00-.821-1.222l-.849.849c.237.236.426.516.567.846l1.103-.473zm-.815-1.215a3.73 3.73 0 00-1.228-.842l-.473 1.103c.326.139.604.331.839.574l.862-.835zm-1.223-.84a3.708 3.708 0 00-1.502-.305v1.2c.377 0 .714.07 1.02.204l.482-1.099zm-1.502-.305h-4.531v1.2h4.531v-1.2zm-5.131.6v8.156h1.2v-8.156h-1.2zm.6 8.756h4.531v-1.2h-4.531v1.2zm4.531 0c.531 0 1.034-.1 1.502-.306l-.482-1.098a2.507 2.507 0 01-1.02.204v1.2zm1.497-.303a3.868 3.868 0 001.222-.822l-.849-.848a2.674 2.674 0 01-.846.567l.473 1.103zm1.228-.828a4.1 4.1 0 00.813-1.21l-1.099-.483a2.888 2.888 0 01-.576.858l.862.835zm.815-1.215c.203-.475.303-.981.303-1.511h-1.2c0 .376-.07.72-.206 1.038l1.103.473zm.303-1.511v-1.642h-1.2v1.642h1.2zm5.248 13.665h-.6v.6h.6v-.6zm0-20.306v-.6h-.6v.6h.6zm1.827 0h.6v-.6h-.6v.6zm0 20.306v.6h.6v-.6h-.6zm-1.227 0v-20.306h-1.2v20.306h1.2zm-.6-19.706h1.827v-1.2h-1.827v1.2zm1.227-.6v20.306h1.2v-20.306h-1.2zm.6 19.706h-1.827v1.2h1.827v-1.2zm4.659.6h-.6v.6h.6v-.6zm0-20.306v-.6h-.6v.6h.6zm11.427 0h.6v-.6h-.6v.6zm0 1.742v.6h.6v-.6h-.6zm-9.601 0v-.6h-.6v.6h.6zm0 7.547h-.6v.6h.6v-.6zm7.774 0h.6v-.6h-.6v.6zm0 1.742v.6h.6v-.6h-.6zm-7.774 0v-.6h-.6v.6h.6zm0 7.533h-.6v.6h.6v-.6zm9.601 0h.6v-.6h-.6v.6zm0 1.742v.6h.6v-.6h-.6zm-10.827 0v-20.306h-1.2v20.306h1.2zm-.6-19.706h11.427v-1.2h-11.427v1.2zm10.827-.6v1.742h1.2v-1.742h-1.2zm.6 1.142h-9.601v1.2h9.601v-1.2zm-10.201.6v7.547h1.2v-7.547h-1.2zm.6 8.147h7.774v-1.2h-7.774v1.2zm7.174-.6v1.742h1.2v-1.742h-1.2zm.6 1.142h-7.774v1.2h7.774v-1.2zm-8.374.6v7.533h1.2v-7.533h-1.2zm.6 8.133h9.601v-1.2h-9.601v1.2zm9.001-.6v1.742h1.2v-1.742h-1.2zm.6 1.142h-11.427v1.2h11.427v-1.2zm14.231-2.162l-.55-.24-.003.007.553.233zm-2.648 2.663l.233.552.007-.003-.24-.549zm-5.338 0l-.241.549.01.005.231-.554zm-2.663-2.663l-.552.234.003.007.549-.241zm-.382-17.544v-.6h-.6v.6h.6zm1.827 0h.6v-.6h-.6v.6zm.255 16.879l-.552.236.002.005.55-.241zm.693 1.034l-.43.417.006.007.007.007.417-.431zm1.034.693l-.241.55.005.002.236-.552zm3.809 0l-.236-.551-.005.002.241.549zm1.034-.693l.424.424.007-.007-.431-.417zm.694-1.034l.549.241.002-.005-.551-.236zm.255-16.879v-.6h-.6v.6h.6zm1.826 0h.6v-.6h-.6v.6zm-.6 15.604a4.18 4.18 0 01-.346 1.7l1.1.481a5.387 5.387 0 00.446-2.181h-1.2zm-.349 1.707a4.314 4.314 0 01-.933 1.395l.848.849a5.562 5.562 0 001.191-1.777l-1.106-.467zm-.933 1.395a4.52 4.52 0 01-1.403.951l.481 1.099a5.716 5.716 0 001.77-1.201l-.848-.849zm-1.395.948a4.346 4.346 0 01-1.707.335v1.2c.765 0 1.491-.142 2.173-.43l-.466-1.105zm-1.707.335h-1.444v1.2h1.444v-1.2zm-1.444 0a4.435 4.435 0 01-1.724-.337l-.461 1.109c.69.286 1.42.428 2.185.428v-1.2zm-1.714-.332a4.515 4.515 0 01-1.402-.951l-.849.849a5.728 5.728 0 001.77 1.201l.481-1.099zm-1.402-.951a4.515 4.515 0 01-.951-1.402l-1.099.481a5.728 5.728 0 001.201 1.77l.849-.849zm-.948-1.395a4.339 4.339 0 01-.335-1.707h-1.2c0 .766.142 1.492.43 2.174l1.105-.467zm-.335-1.707v-15.604h-1.2v15.604h1.2zm-.6-15.004h1.827v-1.2h-1.827v1.2zm1.227-.6v15.604h1.2v-15.604h-1.2zm0 15.604c0 .531.1 1.036.303 1.511l1.103-.472a2.61 2.61 0 01-.206-1.039h-1.2zm.305 1.516a4.1 4.1 0 00.813 1.21l.861-.835a2.887 2.887 0 01-.575-.857l-1.099.482zm.826 1.224c.354.342.758.613 1.21.812l.482-1.099a2.9 2.9 0 01-.857-.575l-.835.862zm1.215.814c.475.203.98.303 1.511.303v-1.2c-.376 0-.72-.07-1.038-.206l-.473 1.103zm1.511.303h1.274v-1.2h-1.274v1.2zm1.274 0c.53 0 1.033-.1 1.501-.305l-.482-1.099a2.505 2.505 0 01-1.019.204v1.2zm1.497-.303a3.872 3.872 0 001.221-.821l-.848-.849a2.664 2.664 0 01-.846.567l.473 1.103zm1.228-.828c.342-.354.614-.758.812-1.21l-1.099-.482a2.868 2.868 0 01-.575.857l.862.835zm.814-1.215c.204-.475.304-.98.304-1.511h-1.2c0 .377-.07.72-.207 1.039l1.103.472zm.304-1.511v-15.604h-1.2v15.604h1.2zm-.6-15.004h1.826v-1.2h-1.826v1.2zm1.226-.6v15.604h1.2v-15.604h-1.2zm14.506 20.306l-.507.321.177.279h.33v-.6zm-5.509-8.666l.507-.322-.177-.278h-.33v.6zm-2.506 0v-.6h-.6v.6h.6zm0 8.666v.6h.6v-.6h-.6zm-1.827 0h-.6v.6h.6v-.6zm0-20.306v-.6h-.6v.6h.6zm8.383.396l-.24.55.007.003.233-.553zm2.648 2.663l-.554.23.004.01.55-.24zm0 5.536l-.551-.237-.002.004.553.233zm-2.648 2.662l.233.553.008-.003-.241-.55zm-1.94.383v-.6h-1.092l.586.921.506-.321zm5.508 8.666v.6h1.093l-.586-.922-.507.322zm-2.605-16.568l-.551.237.002.004.549-.241zm-.694-1.033l-.431.417.007.007.424-.424zm-1.034-.708l-.241.549.005.002.236-.551zm-5.791-.255v-.6h-.6v.6h.6zm0 8.156h-.6v.6h.6v-.6zm5.791-.255l-.236-.551-.005.002.241.549zm1.034-.694l.424.425.007-.007-.431-.418zm.694-1.034l.549.242.003-.005-.552-.237zm1.002 12.069l-5.508-8.666-1.013.643 5.508 8.666 1.013-.643zm-6.015-8.944h-2.506v1.2h2.506v-1.2zm-3.106.6v8.666h1.2v-8.666h-1.2zm.6 8.066h-1.827v1.2h1.827v-1.2zm-1.227.6v-20.306h-1.2v20.306h1.2zm-.6-19.706h6.443v-1.2h-6.443v1.2zm6.443 0c.61 0 1.175.116 1.7.346l.481-1.099a5.391 5.391 0 00-2.181-.447v1.2zm1.707.349c.534.226.998.537 1.395.934l.848-.849a5.521 5.521 0 00-1.777-1.19l-.466 1.105zm1.395.934c.395.395.706.862.932 1.406l1.108-.461a5.493 5.493 0 00-1.192-1.794l-.848.849zm.936 1.416c.23.525.347 1.089.347 1.7h1.2c0-.769-.148-1.498-.447-2.181l-1.1.481zm.347 1.7v1.642h1.2v-1.642h-1.2zm0 1.642c0 .61-.117 1.181-.348 1.717l1.102.475a5.484 5.484 0 00.446-2.192h-1.2zm-.35 1.721a4.325 4.325 0 01-.933 1.395l.848.848a5.508 5.508 0 001.191-1.777l-1.106-.466zm-.933 1.395a4.544 4.544 0 01-1.402.951l.481 1.099a5.71 5.71 0 001.769-1.202l-.848-.848zm-1.395.947a4.329 4.329 0 01-1.707.336v1.2c.765 0 1.492-.142 2.173-.43l-.466-1.106zm-2.213 1.257l5.508 8.666 1.013-.643-5.508-8.666-1.013.643zm6.014 7.745h-2.109v1.2h2.109v-1.2zm-1.75-14.707c0-.531-.1-1.034-.306-1.502l-1.098.482c.134.306.204.643.204 1.02h1.2zm-.303-1.497a3.868 3.868 0 00-.822-1.222l-.848.849c.236.236.425.516.567.846l1.103-.473zm-.815-1.215a3.73 3.73 0 00-1.228-.842l-.473 1.103c.325.139.603.331.839.574l.862-.835zm-1.223-.84a3.715 3.715 0 00-1.502-.305v1.2c.376 0 .714.07 1.019.204l.483-1.099zm-1.502-.305h-4.531v1.2h4.531v-1.2zm-5.131.6v8.156h1.2v-8.156h-1.2zm.6 8.756h4.531v-1.2h-4.531v1.2zm4.531 0a3.7 3.7 0 001.502-.306l-.483-1.098a2.502 2.502 0 01-1.019.204v1.2zm1.497-.303a3.863 3.863 0 001.221-.822l-.848-.848a2.686 2.686 0 01-.846.567l.473 1.103zm1.228-.828c.343-.354.614-.758.812-1.21l-1.098-.483a2.907 2.907 0 01-.576.858l.862.835zm.815-1.215c.203-.475.303-.981.303-1.511h-1.2c0 .376-.07.72-.206 1.038l1.103.473zm.303-1.511v-1.642h-1.2v1.642h1.2z"/></g></svg>