<svg width="376" height="389" viewBox="0 0 376 389" fill="none" xmlns="http://www.w3.org/2000/svg">
<g id="green-bold">
<g id="g12">
<g id="g14">
<g id="g20">
<path id="path22" d="M370 194.5C370 298.606 288.517 383 188 383C87.4834 383 6 298.606 6 194.5C6 90.3942 87.4834 6.00003 188 6.00003C288.517 6.00003 370 90.3942 370 194.5Z" fill="#5A725C" stroke="#C8B268" stroke-width="12" stroke-miterlimit="10"/>
</g>
</g>
</g>
<g id="g24">
<g id="g26">
<g id="g32">
<path id="path34" d="M95.4863 148.735L88.333 98.1028C88.333 98.1028 86.969 93.0667 90.8903 93.7622C94.8116 94.4551 147.828 102.1 147.828 102.1C147.828 102.1 152.634 102.62 152.364 106.616C152.09 110.611 150.728 143.441 129.76 149.52C121.234 151.951 113.222 144.829 112.881 141.007C112.541 137.187 146.806 131.802 158.569 164.458C168.968 197.287 169.82 212.398 169.82 212.398C169.82 212.398 170.673 215.004 167.774 214.83C164.876 214.656 153.114 206.493 169.309 201.63L178.854 201.283C178.854 201.283 187.209 201.109 187.209 207.361C187.209 213.614 182.606 214.83 180.049 214.656C177.492 214.484 178.514 211.469 178.514 211.469C178.514 211.469 181.412 137.881 180.389 135.102C180.56 131.454 181.754 130.238 184.822 130.412C188.402 130.586 222.838 134.234 223.69 134.928C224.542 135.624 228.293 135.276 226.93 139.792C225.565 144.309 216.36 169.668 189.934 157.684C185.845 155.598 195.392 151.604 197.265 151.43C199.653 150.909 210.905 148.303 224.201 154.21C237.498 160.114 235.112 159.42 235.112 159.42C235.112 159.42 238.18 160.637 239.033 154.904C239.885 149.172 243.977 121.901 243.636 118.949C243.294 115.995 245 115.301 238.693 113.043C232.385 110.785 132.828 72.0484 117.825 63.1906C114.416 61.8008 110.665 60.7588 110.665 64.0587C110.665 67.3587 112.136 97.1057 112.136 97.1057" stroke="#C7B169" stroke-width="4" stroke-miterlimit="10" stroke-linecap="round" stroke-linejoin="round"/>
</g>
<g id="g36">
<path id="path38" d="M96.0649 152.83L95.4862 148.734" stroke="#C7B169" stroke-width="4" stroke-miterlimit="10" stroke-linecap="round" stroke-linejoin="round"/>
</g>
<g id="g40">
<path id="path42" d="M96.8573 214.353L94.3653 327.931C94.3653 327.931 93.6253 331.372 92.2533 329.125C91.2253 327.439 93.4466 306.371 116.461 301.332C139.476 296.296 162.831 295.471 174.935 310.193C188.401 326.346 183.969 327.736 182.607 326.692C181.241 325.652 151.409 292.387 148.34 288.307C146.452 285.794 140.499 267.636 159.763 269.199C154.307 264.682 131.635 260.166 113.221 238.974C94.8106 217.783 78.7866 174.706 78.7866 174.706C78.7866 174.706 77.5933 172.795 79.9799 172.448C82.3666 172.1 119.359 165.499 130.44 166.889C140.839 168.801 152.26 194.507 139.987 210.314C135.384 216.047 111.176 219.347 109.131 213.094C107.445 207.942 101.079 179.882 98.8253 169.881" stroke="#C7B169" stroke-width="4" stroke-miterlimit="10" stroke-linecap="round" stroke-linejoin="round"/>
</g>
<g id="g44">
<path id="path46" d="M95.9705 153.831C98.6718 148.077 103.897 142.402 113.853 139.8" stroke="#C7B169" stroke-width="4" stroke-miterlimit="10" stroke-linecap="round" stroke-linejoin="round"/>
</g>
<g id="g48">
<path id="path50" d="M93.369 170.278C93.369 170.278 92.1477 161.975 95.9703 153.833" stroke="#C7B169" stroke-width="4" stroke-miterlimit="10" stroke-linecap="round" stroke-linejoin="round"/>
</g>
<g id="g52">
<path id="path54" d="M157.884 267.967C160.305 269.296 161.747 269.76 164.292 270.056C170.685 270.804 176.48 263.72 176.48 257.165C176.48 250.607 171.317 244.771 164.883 244.771" stroke="#C7B169" stroke-width="4" stroke-miterlimit="10" stroke-linecap="round" stroke-linejoin="round"/>
</g>
<g id="g56">
<path id="path58" d="M147.68 229.269C147.68 229.269 155.734 222.887 156.054 222.496C156.374 222.106 157.333 221.062 159.124 222.496C160.913 223.927 165.708 228.682 172.802 222.887C174.594 221.763 175.105 221.909 175.68 222.496C176.256 223.081 185.398 230.507 185.398 230.507C185.398 230.507 187.698 231.679 186.229 234.805C184.758 237.933 165.26 255.65 146.337 234.805C143.716 231.808 147.68 229.269 147.68 229.269Z" stroke="#C7B169" stroke-width="4" stroke-miterlimit="10" stroke-linecap="round" stroke-linejoin="round"/>
</g>
<g id="g60">
<path id="path62" d="M145.858 231.907L186.293 232.135" stroke="#C7B169" stroke-width="4" stroke-miterlimit="10" stroke-linecap="round" stroke-linejoin="round"/>
</g>
</g>
</g>
<g id="MAGALLO MILHEAU PRIEUR ">
<path d="M231.826 214.349V200.429L231.698 201.293L226.983 214.349H226.02L221.262 201.293L221.149 200.429V214.349H219.322V194.043H220.271L226.431 210.695L226.487 211.446L226.544 210.695L232.689 194.043H233.652V214.349H231.826ZM245.915 209.619H239.486L238.155 214.349H236.258L242.205 194.043H243.168L249.143 214.349H247.26L245.915 209.619ZM239.982 207.877H245.433L242.757 198.518L242.701 197.767L242.644 198.518L239.982 207.877ZM262.879 214.349H262.298L261.236 212.72C260.793 213.306 260.254 213.773 259.622 214.122C258.989 214.462 258.286 214.632 257.512 214.632H256.45C255.761 214.632 255.11 214.504 254.496 214.25C253.892 213.985 253.363 213.626 252.91 213.173C252.457 212.72 252.098 212.192 251.834 211.587C251.579 210.983 251.452 210.337 251.452 209.647V198.744C251.452 198.055 251.579 197.408 251.834 196.804C252.098 196.2 252.457 195.671 252.91 195.218C253.363 194.765 253.892 194.411 254.496 194.156C255.11 193.892 255.761 193.76 256.45 193.76H257.894C258.584 193.76 259.23 193.892 259.834 194.156C260.439 194.411 260.967 194.765 261.42 195.218C261.873 195.671 262.227 196.2 262.482 196.804C262.747 197.408 262.879 198.055 262.879 198.744V199.565L261.052 199.849V198.744C261.052 198.291 260.967 197.871 260.797 197.484C260.627 197.087 260.396 196.743 260.103 196.45C259.811 196.158 259.466 195.926 259.07 195.756C258.683 195.586 258.263 195.501 257.809 195.501H256.535C256.082 195.501 255.657 195.586 255.261 195.756C254.874 195.926 254.529 196.158 254.227 196.45C253.934 196.743 253.703 197.087 253.533 197.484C253.363 197.871 253.278 198.291 253.278 198.744V209.647C253.278 210.101 253.363 210.525 253.533 210.922C253.703 211.309 253.934 211.653 254.227 211.956C254.529 212.248 254.874 212.479 255.261 212.649C255.657 212.819 256.082 212.904 256.535 212.904H257.809C258.263 212.904 258.683 212.819 259.07 212.649C259.466 212.479 259.811 212.248 260.103 211.956C260.396 211.653 260.627 211.309 260.797 210.922C260.967 210.525 261.052 210.101 261.052 209.647V205.414H257.809V203.672H262.879V214.349ZM274.858 209.619H268.43L267.099 214.349H265.201L271.148 194.043H272.111L278.087 214.349H276.203L274.858 209.619ZM268.925 207.877H274.377L271.701 198.518L271.644 197.767L271.587 198.518L268.925 207.877ZM280.395 214.349V194.043H282.222V212.607H289.995V214.349H280.395ZM292.601 214.349V194.043H294.428V212.607H302.202V214.349H292.601ZM316.234 209.647C316.234 210.337 316.102 210.983 315.838 211.587C315.583 212.192 315.229 212.72 314.776 213.173C314.323 213.626 313.794 213.985 313.19 214.25C312.586 214.504 311.939 214.632 311.25 214.632H309.806C309.116 214.632 308.465 214.504 307.851 214.25C307.247 213.985 306.719 213.626 306.266 213.173C305.812 212.72 305.454 212.192 305.189 211.587C304.934 210.983 304.807 210.337 304.807 209.647V198.744C304.807 198.055 304.934 197.408 305.189 196.804C305.454 196.2 305.812 195.671 306.266 195.218C306.719 194.765 307.247 194.411 307.851 194.156C308.465 193.892 309.116 193.76 309.806 193.76H311.25C311.939 193.76 312.586 193.892 313.19 194.156C313.794 194.411 314.323 194.765 314.776 195.218C315.229 195.671 315.583 196.2 315.838 196.804C316.102 197.408 316.234 198.055 316.234 198.744V209.647ZM314.408 198.744C314.408 198.291 314.323 197.871 314.153 197.484C313.983 197.087 313.752 196.743 313.459 196.45C313.166 196.158 312.822 195.926 312.425 195.756C312.038 195.586 311.618 195.501 311.165 195.501H309.891C309.437 195.501 309.013 195.586 308.616 195.756C308.229 195.926 307.884 196.158 307.582 196.45C307.29 196.743 307.058 197.087 306.889 197.484C306.719 197.871 306.634 198.291 306.634 198.744V209.647C306.634 210.101 306.719 210.525 306.889 210.922C307.058 211.309 307.29 211.653 307.582 211.956C307.884 212.248 308.229 212.479 308.616 212.649C309.013 212.819 309.437 212.904 309.891 212.904H311.165C311.618 212.904 312.038 212.819 312.425 212.649C312.822 212.479 313.166 212.248 313.459 211.956C313.752 211.653 313.983 211.309 314.153 210.922C314.323 210.525 314.408 210.101 314.408 209.647V198.744ZM231.826 251.349V237.429L231.698 238.293L226.983 251.349H226.02L221.262 238.293L221.149 237.429V251.349H219.322V231.043H220.271L226.431 247.695L226.487 248.446L226.544 247.695L232.689 231.043H233.652V251.349H231.826ZM238.297 251.349V231.043H240.123V251.349H238.297ZM244.485 251.349V231.043H246.311V249.607H254.085V251.349H244.485ZM266.589 251.349V242.074H258.815V251.349H256.988V231.043H258.815V240.332H266.589V231.043H268.415V251.349H266.589ZM273.074 251.349V231.043H284.501V232.785H274.901V240.332H282.675V242.074H274.901V249.607H284.501V251.349H273.074ZM295.617 246.619H289.188L287.857 251.349H285.96L291.907 231.043H292.87L298.846 251.349H296.962L295.617 246.619ZM289.684 244.877H295.136L292.459 235.518L292.403 234.767L292.346 235.518L289.684 244.877ZM312.581 246.647C312.581 247.337 312.449 247.983 312.184 248.587C311.93 249.192 311.576 249.72 311.122 250.173C310.669 250.626 310.141 250.985 309.536 251.25C308.932 251.504 308.286 251.632 307.597 251.632H306.152C305.463 251.632 304.812 251.504 304.198 251.25C303.594 250.985 303.065 250.626 302.612 250.173C302.159 249.72 301.8 249.192 301.536 248.587C301.281 247.983 301.154 247.337 301.154 246.647V231.043H302.98V246.647C302.98 247.101 303.065 247.525 303.235 247.922C303.405 248.309 303.636 248.653 303.929 248.956C304.231 249.248 304.576 249.479 304.963 249.649C305.359 249.819 305.784 249.904 306.237 249.904H307.512C307.965 249.904 308.385 249.819 308.772 249.649C309.168 249.479 309.513 249.248 309.806 248.956C310.098 248.653 310.329 248.309 310.499 247.922C310.669 247.525 310.754 247.101 310.754 246.647V231.043H312.581V246.647ZM230.749 275.562C230.749 276.251 230.617 276.898 230.353 277.502C230.098 278.106 229.744 278.635 229.291 279.088C228.838 279.541 228.304 279.9 227.691 280.164C227.087 280.419 226.44 280.546 225.751 280.546H221.149V288.349H219.322V268.043H225.751C226.44 268.043 227.087 268.175 227.691 268.439C228.304 268.694 228.838 269.048 229.291 269.501C229.744 269.955 230.098 270.488 230.353 271.102C230.617 271.706 230.749 272.352 230.749 273.042V275.562ZM228.923 273.042C228.923 272.588 228.838 272.168 228.668 271.781C228.498 271.385 228.262 271.04 227.96 270.748C227.667 270.445 227.323 270.209 226.926 270.04C226.539 269.87 226.119 269.785 225.666 269.785H221.149V278.805H225.666C226.119 278.805 226.539 278.72 226.926 278.55C227.323 278.38 227.667 278.149 227.96 277.856C228.262 277.563 228.498 277.223 228.668 276.836C228.838 276.44 228.923 276.015 228.923 275.562V273.042ZM243.791 288.349L238.283 279.683H235.776V288.349H233.95V268.043H240.392C241.082 268.043 241.728 268.175 242.332 268.439C242.937 268.694 243.465 269.048 243.918 269.501C244.371 269.955 244.725 270.488 244.98 271.102C245.245 271.706 245.377 272.352 245.377 273.042V274.684C245.377 275.373 245.245 276.025 244.98 276.638C244.725 277.242 244.371 277.771 243.918 278.224C243.465 278.677 242.937 279.036 242.332 279.3C241.728 279.555 241.082 279.683 240.392 279.683L245.901 288.349H243.791ZM243.55 273.042C243.55 272.588 243.465 272.168 243.295 271.781C243.125 271.385 242.894 271.04 242.601 270.748C242.309 270.445 241.964 270.209 241.568 270.04C241.181 269.87 240.761 269.785 240.307 269.785H235.776V277.941H240.307C240.761 277.941 241.181 277.856 241.568 277.686C241.964 277.516 242.309 277.285 242.601 276.992C242.894 276.69 243.125 276.346 243.295 275.958C243.465 275.562 243.55 275.137 243.55 274.684V273.042ZM249.398 288.349V268.043H251.225V288.349H249.398ZM255.884 288.349V268.043H267.311V269.785H257.71V277.332H265.484V279.074H257.71V286.607H267.311V288.349H255.884ZM281.938 283.647C281.938 284.337 281.806 284.983 281.542 285.587C281.287 286.192 280.933 286.72 280.48 287.173C280.027 287.626 279.498 287.985 278.894 288.25C278.29 288.504 277.643 288.632 276.954 288.632H275.51C274.821 288.632 274.169 288.504 273.556 288.25C272.951 287.985 272.423 287.626 271.97 287.173C271.516 286.72 271.158 286.192 270.893 285.587C270.639 284.983 270.511 284.337 270.511 283.647V268.043H272.338V283.647C272.338 284.101 272.423 284.525 272.593 284.922C272.763 285.309 272.994 285.653 273.286 285.956C273.589 286.248 273.933 286.479 274.32 286.649C274.717 286.819 275.141 286.904 275.595 286.904H276.869C277.322 286.904 277.742 286.819 278.129 286.649C278.526 286.479 278.87 286.248 279.163 285.956C279.456 285.653 279.687 285.309 279.857 284.922C280.027 284.525 280.112 284.101 280.112 283.647V268.043H281.938V283.647ZM295.844 288.349L290.335 279.683H287.829V288.349H286.002V268.043H292.445C293.134 268.043 293.781 268.175 294.385 268.439C294.989 268.694 295.518 269.048 295.971 269.501C296.424 269.955 296.778 270.488 297.033 271.102C297.297 271.706 297.43 272.352 297.43 273.042V274.684C297.43 275.373 297.297 276.025 297.033 276.638C296.778 277.242 296.424 277.771 295.971 278.224C295.518 278.677 294.989 279.036 294.385 279.3C293.781 279.555 293.134 279.683 292.445 279.683L297.953 288.349H295.844ZM295.603 273.042C295.603 272.588 295.518 272.168 295.348 271.781C295.178 271.385 294.947 271.04 294.654 270.748C294.362 270.445 294.017 270.209 293.62 270.04C293.233 269.87 292.813 269.785 292.36 269.785H287.829V277.941H292.36C292.813 277.941 293.233 277.856 293.62 277.686C294.017 277.516 294.362 277.285 294.654 276.992C294.947 276.69 295.178 276.346 295.348 275.958C295.518 275.562 295.603 275.137 295.603 274.684V273.042Z" fill="#C8B369"/>
<path d="M231.826 214.349H231.226V214.949H231.826V214.349ZM231.826 200.429H232.426L231.232 200.342L231.826 200.429ZM231.698 201.293L232.262 201.497L232.283 201.44L232.292 201.381L231.698 201.293ZM226.983 214.349V214.949H227.404L227.547 214.552L226.983 214.349ZM226.02 214.349L225.456 214.554L225.6 214.949H226.02V214.349ZM221.262 201.293L220.667 201.371L220.676 201.436L220.698 201.498L221.262 201.293ZM221.149 200.429L221.744 200.351L220.549 200.429H221.149ZM221.149 214.349V214.949H221.749V214.349H221.149ZM219.322 214.349H218.722V214.949H219.322V214.349ZM219.322 194.043V193.443H218.722V194.043H219.322ZM220.271 194.043L220.834 193.835L220.689 193.443H220.271V194.043ZM226.431 210.695L227.029 210.65L227.023 210.566L226.993 210.487L226.431 210.695ZM226.487 211.446L225.889 211.491H227.085L226.487 211.446ZM226.544 210.695L225.981 210.488L225.952 210.566L225.946 210.65L226.544 210.695ZM232.689 194.043V193.443H232.271L232.126 193.835L232.689 194.043ZM233.652 194.043H234.252V193.443H233.652V194.043ZM233.652 214.349V214.949H234.252V214.349H233.652ZM232.426 214.349V200.429H231.226V214.349H232.426ZM231.232 200.342L231.105 201.205L232.292 201.381L232.419 200.517L231.232 200.342ZM231.134 201.089L226.418 214.145L227.547 214.552L232.262 201.497L231.134 201.089ZM226.983 213.749H226.02V214.949H226.983V213.749ZM226.584 214.143L221.826 201.088L220.698 201.498L225.456 214.554L226.584 214.143ZM221.857 201.215L221.744 200.351L220.554 200.507L220.667 201.371L221.857 201.215ZM220.549 200.429V214.349H221.749V200.429H220.549ZM221.149 213.749H219.322V214.949H221.149V213.749ZM219.922 214.349V194.043H218.722V214.349H219.922ZM219.322 194.643H220.271V193.443H219.322V194.643ZM219.708 194.251L225.868 210.903L226.993 210.487L220.834 193.835L219.708 194.251ZM225.832 210.74L225.889 211.491L227.085 211.401L227.029 210.65L225.832 210.74ZM227.085 211.491L227.142 210.74L225.946 210.65L225.889 211.401L227.085 211.491ZM227.107 210.903L233.252 194.251L232.126 193.835L225.981 210.488L227.107 210.903ZM232.689 194.643H233.652V193.443H232.689V194.643ZM233.052 194.043V214.349H234.252V194.043H233.052ZM233.652 213.749H231.826V214.949H233.652V213.749ZM245.915 209.619L246.492 209.455L246.368 209.019H245.915V209.619ZM239.486 209.619V209.019H239.032L238.909 209.457L239.486 209.619ZM238.155 214.349V214.949H238.61L238.733 214.511L238.155 214.349ZM236.258 214.349L235.682 214.18L235.457 214.949H236.258V214.349ZM242.205 194.043V193.443H241.755L241.629 193.874L242.205 194.043ZM243.168 194.043L243.743 193.874L243.617 193.443H243.168V194.043ZM249.143 214.349V214.949H249.945L249.719 214.179L249.143 214.349ZM247.26 214.349L246.683 214.513L246.807 214.949H247.26V214.349ZM239.982 207.877L239.405 207.713L239.187 208.477H239.982V207.877ZM245.433 207.877V208.477H246.229L246.01 207.712L245.433 207.877ZM242.757 198.518L242.159 198.563L242.164 198.624L242.18 198.683L242.757 198.518ZM242.701 197.767L243.299 197.722H242.102L242.701 197.767ZM242.644 198.518L243.221 198.682L243.238 198.623L243.242 198.563L242.644 198.518ZM245.915 209.019H239.486V210.219H245.915V209.019ZM238.909 209.457L237.578 214.186L238.733 214.511L240.064 209.782L238.909 209.457ZM238.155 213.749H236.258V214.949H238.155V213.749ZM236.834 214.517L242.781 194.212L241.629 193.874L235.682 214.18L236.834 214.517ZM242.205 194.643H243.168V193.443H242.205V194.643ZM242.592 194.212L248.568 214.518L249.719 214.179L243.743 193.874L242.592 194.212ZM249.143 213.749H247.26V214.949H249.143V213.749ZM247.837 214.184L246.492 209.455L245.338 209.783L246.683 214.513L247.837 214.184ZM239.982 208.477H245.433V207.277H239.982V208.477ZM246.01 207.712L243.334 198.353L242.18 198.683L244.857 208.042L246.01 207.712ZM243.356 198.472L243.299 197.722L242.102 197.812L242.159 198.563L243.356 198.472ZM242.102 197.722L242.046 198.472L243.242 198.563L243.299 197.812L242.102 197.722ZM242.067 198.353L239.405 207.713L240.559 208.042L243.221 198.682L242.067 198.353ZM262.879 214.349V214.949H263.479V214.349H262.879ZM262.298 214.349L261.796 214.676L261.973 214.949H262.298V214.349ZM261.236 212.72L261.739 212.392L261.273 211.678L260.758 212.358L261.236 212.72ZM259.622 214.122L259.906 214.651L259.912 214.647L259.622 214.122ZM254.496 214.25L254.255 214.799L254.266 214.804L254.496 214.25ZM251.834 211.587L251.281 211.821L251.284 211.828L251.834 211.587ZM251.834 196.804L251.284 196.564L251.281 196.571L251.834 196.804ZM254.496 194.156L254.729 194.709L254.733 194.707L254.496 194.156ZM259.834 194.156L259.594 194.706L259.601 194.709L259.834 194.156ZM262.482 196.804L261.929 197.037L261.933 197.045L262.482 196.804ZM262.879 199.565L262.971 200.158L263.479 200.08V199.565H262.879ZM261.052 199.849H260.452V200.549L261.144 200.442L261.052 199.849ZM260.797 197.484L260.246 197.72L260.248 197.725L260.797 197.484ZM259.07 195.756L258.828 196.306L258.833 196.308L259.07 195.756ZM255.261 195.756L255.024 195.205L255.019 195.207L255.261 195.756ZM254.227 196.45L253.809 196.019L253.803 196.026L254.227 196.45ZM253.533 197.484L254.082 197.725L254.085 197.72L253.533 197.484ZM253.533 210.922L252.982 211.158L252.984 211.163L253.533 210.922ZM254.227 211.956L253.796 212.373L253.803 212.38L253.809 212.387L254.227 211.956ZM255.261 212.649L255.019 213.199L255.024 213.201L255.261 212.649ZM259.07 212.649L258.833 212.098L258.829 212.1L259.07 212.649ZM260.103 211.956L260.528 212.38L260.534 212.373L260.103 211.956ZM260.797 210.922L261.347 211.163L261.349 211.158L260.797 210.922ZM261.052 205.414H261.652V204.814H261.052V205.414ZM257.809 205.414H257.209V206.014H257.809V205.414ZM257.809 203.672V203.072H257.209V203.672H257.809ZM262.879 203.672H263.479V203.072H262.879V203.672ZM262.879 213.749H262.298V214.949H262.879V213.749ZM262.801 214.021L261.739 212.392L260.734 213.048L261.796 214.676L262.801 214.021ZM260.758 212.358C260.364 212.877 259.89 213.289 259.332 213.597L259.912 214.647C260.619 214.257 261.221 213.734 261.714 213.083L260.758 212.358ZM259.338 213.594C258.8 213.883 258.195 214.032 257.512 214.032V215.232C258.377 215.232 259.179 215.041 259.906 214.651L259.338 213.594ZM257.512 214.032H256.45V215.232H257.512V214.032ZM256.45 214.032C255.837 214.032 255.264 213.919 254.726 213.695L254.266 214.804C254.955 215.09 255.685 215.232 256.45 215.232V214.032ZM254.736 213.7C254.199 213.465 253.733 213.148 253.334 212.749L252.486 213.598C252.993 214.105 253.585 214.506 254.255 214.799L254.736 213.7ZM253.334 212.749C252.936 212.35 252.619 211.885 252.384 211.347L251.284 211.828C251.578 212.499 251.978 213.09 252.486 213.598L253.334 212.749ZM252.387 211.354C252.165 210.828 252.052 210.261 252.052 209.647H250.852C250.852 210.413 250.993 211.139 251.281 211.821L252.387 211.354ZM252.052 209.647V198.744H250.852V209.647H252.052ZM252.052 198.744C252.052 198.131 252.165 197.564 252.387 197.037L251.281 196.571C250.993 197.253 250.852 197.979 250.852 198.744H252.052ZM252.384 197.045C252.619 196.507 252.936 196.041 253.334 195.643L252.486 194.794C251.978 195.302 251.578 195.893 251.284 196.564L252.384 197.045ZM253.334 195.643C253.731 195.245 254.195 194.935 254.729 194.709L254.263 193.603C253.589 193.888 252.995 194.285 252.486 194.794L253.334 195.643ZM254.733 194.707C255.27 194.476 255.84 194.36 256.45 194.36V193.16C255.682 193.16 254.95 193.308 254.259 193.605L254.733 194.707ZM256.45 194.36H257.894V193.16H256.45V194.36ZM257.894 194.36C258.505 194.36 259.069 194.476 259.594 194.706L260.075 193.607C259.391 193.308 258.663 193.16 257.894 193.16V194.36ZM259.601 194.709C260.136 194.935 260.599 195.245 260.996 195.643L261.845 194.794C261.335 194.285 260.741 193.888 260.068 193.603L259.601 194.709ZM260.996 195.643C261.393 196.04 261.704 196.503 261.929 197.037L263.035 196.571C262.751 195.897 262.354 195.303 261.845 194.794L260.996 195.643ZM261.933 197.045C262.162 197.57 262.279 198.134 262.279 198.744H263.479C263.479 197.976 263.331 197.247 263.032 196.564L261.933 197.045ZM262.279 198.744V199.565H263.479V198.744H262.279ZM262.787 198.973L260.96 199.256L261.144 200.442L262.971 200.158L262.787 198.973ZM261.652 199.849V198.744H260.452V199.849H261.652ZM261.652 198.744C261.652 198.214 261.552 197.711 261.347 197.243L260.248 197.725C260.382 198.031 260.452 198.368 260.452 198.744H261.652ZM261.349 197.248C261.15 196.784 260.877 196.375 260.528 196.026L259.679 196.874C259.916 197.111 260.105 197.391 260.246 197.72L261.349 197.248ZM260.528 196.026C260.179 195.677 259.77 195.404 259.306 195.205L258.833 196.308C259.163 196.449 259.443 196.638 259.679 196.874L260.528 196.026ZM259.311 195.207C258.842 195.001 258.34 194.901 257.809 194.901V196.101C258.186 196.101 258.523 196.172 258.829 196.306L259.311 195.207ZM257.809 194.901H256.535V196.101H257.809V194.901ZM256.535 194.901C256.005 194.901 255.499 195.001 255.024 195.205L255.497 196.308C255.815 196.172 256.159 196.101 256.535 196.101V194.901ZM255.019 195.207C254.567 195.405 254.163 195.677 253.809 196.019L254.644 196.881C254.895 196.638 255.18 196.447 255.502 196.306L255.019 195.207ZM253.803 196.026C253.454 196.375 253.18 196.784 252.982 197.248L254.085 197.72C254.226 197.391 254.415 197.111 254.651 196.874L253.803 196.026ZM252.984 197.243C252.778 197.711 252.678 198.214 252.678 198.744H253.878C253.878 198.368 253.948 198.031 254.082 197.725L252.984 197.243ZM252.678 198.744V209.647H253.878V198.744H252.678ZM252.678 209.647C252.678 210.178 252.778 210.683 252.982 211.158L254.085 210.686C253.948 210.367 253.878 210.024 253.878 209.647H252.678ZM252.984 211.163C253.182 211.615 253.453 212.019 253.796 212.373L254.658 211.538C254.415 211.288 254.224 211.003 254.082 210.681L252.984 211.163ZM253.809 212.387C254.163 212.729 254.567 213 255.019 213.199L255.502 212.1C255.18 211.959 254.895 211.767 254.644 211.525L253.809 212.387ZM255.024 213.201C255.499 213.404 256.005 213.504 256.535 213.504V212.304C256.159 212.304 255.815 212.234 255.497 212.098L255.024 213.201ZM256.535 213.504H257.809V212.304H256.535V213.504ZM257.809 213.504C258.34 213.504 258.842 213.404 259.311 213.199L258.829 212.1C258.523 212.234 258.186 212.304 257.809 212.304V213.504ZM259.306 213.201C259.77 213.002 260.179 212.729 260.528 212.38L259.679 211.531C259.443 211.768 259.163 211.957 258.833 212.098L259.306 213.201ZM260.534 212.373C260.877 212.019 261.148 211.615 261.347 211.163L260.248 210.681C260.106 211.003 259.915 211.288 259.672 211.538L260.534 212.373ZM261.349 211.158C261.552 210.683 261.652 210.178 261.652 209.647H260.452C260.452 210.024 260.382 210.367 260.246 210.686L261.349 211.158ZM261.652 209.647V205.414H260.452V209.647H261.652ZM261.052 204.814H257.809V206.014H261.052V204.814ZM258.409 205.414V203.672H257.209V205.414H258.409ZM257.809 204.272H262.879V203.072H257.809V204.272ZM262.279 203.672V214.349H263.479V203.672H262.279ZM274.858 209.619L275.435 209.455L275.311 209.019H274.858V209.619ZM268.43 209.619V209.019H267.975L267.852 209.457L268.43 209.619ZM267.099 214.349V214.949H267.553L267.676 214.511L267.099 214.349ZM265.201 214.349L264.625 214.18L264.4 214.949H265.201V214.349ZM271.148 194.043V193.443H270.699L270.573 193.874L271.148 194.043ZM272.111 194.043L272.687 193.874L272.56 193.443H272.111V194.043ZM278.087 214.349V214.949H278.889L278.662 214.179L278.087 214.349ZM276.203 214.349L275.626 214.513L275.75 214.949H276.203V214.349ZM268.925 207.877L268.348 207.713L268.131 208.477H268.925V207.877ZM274.377 207.877V208.477H275.172L274.954 207.712L274.377 207.877ZM271.701 198.518L271.102 198.563L271.107 198.624L271.124 198.683L271.701 198.518ZM271.644 197.767L272.242 197.722H271.046L271.644 197.767ZM271.587 198.518L272.164 198.682L272.181 198.623L272.186 198.563L271.587 198.518ZM274.858 209.019H268.43V210.219H274.858V209.019ZM267.852 209.457L266.521 214.186L267.676 214.511L269.007 209.782L267.852 209.457ZM267.099 213.749H265.201V214.949H267.099V213.749ZM265.777 214.517L271.724 194.212L270.573 193.874L264.625 214.18L265.777 214.517ZM271.148 194.643H272.111V193.443H271.148V194.643ZM271.536 194.212L277.511 214.518L278.662 214.179L272.687 193.874L271.536 194.212ZM278.087 213.749H276.203V214.949H278.087V213.749ZM276.781 214.184L275.435 209.455L274.281 209.783L275.626 214.513L276.781 214.184ZM268.925 208.477H274.377V207.277H268.925V208.477ZM274.954 207.712L272.277 198.353L271.124 198.683L273.8 208.042L274.954 207.712ZM272.299 198.472L272.242 197.722L271.046 197.812L271.102 198.563L272.299 198.472ZM271.046 197.722L270.989 198.472L272.186 198.563L272.242 197.812L271.046 197.722ZM271.01 198.353L268.348 207.713L269.502 208.042L272.164 198.682L271.01 198.353ZM280.395 214.349H279.795V214.949H280.395V214.349ZM280.395 194.043V193.443H279.795V194.043H280.395ZM282.222 194.043H282.822V193.443H282.222V194.043ZM282.222 212.607H281.622V213.207H282.222V212.607ZM289.995 212.607H290.595V212.007H289.995V212.607ZM289.995 214.349V214.949H290.595V214.349H289.995ZM280.995 214.349V194.043H279.795V214.349H280.995ZM280.395 194.643H282.222V193.443H280.395V194.643ZM281.622 194.043V212.607H282.822V194.043H281.622ZM282.222 213.207H289.995V212.007H282.222V213.207ZM289.395 212.607V214.349H290.595V212.607H289.395ZM289.995 213.749H280.395V214.949H289.995V213.749ZM292.601 214.349H292.001V214.949H292.601V214.349ZM292.601 194.043V193.443H292.001V194.043H292.601ZM294.428 194.043H295.028V193.443H294.428V194.043ZM294.428 212.607H293.828V213.207H294.428V212.607ZM302.202 212.607H302.802V212.007H302.202V212.607ZM302.202 214.349V214.949H302.802V214.349H302.202ZM293.201 214.349V194.043H292.001V214.349H293.201ZM292.601 194.643H294.428V193.443H292.601V194.643ZM293.828 194.043V212.607H295.028V194.043H293.828ZM294.428 213.207H302.202V212.007H294.428V213.207ZM301.602 212.607V214.349H302.802V212.607H301.602ZM302.202 213.749H292.601V214.949H302.202V213.749ZM315.838 211.587L315.288 211.347L315.285 211.354L315.838 211.587ZM313.19 214.25L313.423 214.802L313.43 214.799L313.19 214.25ZM307.851 214.25L307.611 214.799L307.621 214.804L307.851 214.25ZM305.189 211.587L304.636 211.821L304.64 211.828L305.189 211.587ZM305.189 196.804L304.64 196.564L304.637 196.571L305.189 196.804ZM307.851 194.156L308.085 194.709L308.089 194.707L307.851 194.156ZM313.19 194.156L312.949 194.706L312.957 194.709L313.19 194.156ZM315.838 196.804L315.285 197.037L315.288 197.045L315.838 196.804ZM314.153 197.484L313.601 197.72L313.603 197.725L314.153 197.484ZM312.425 195.756L312.184 196.306L312.189 196.308L312.425 195.756ZM308.616 195.756L308.38 195.205L308.375 195.207L308.616 195.756ZM307.582 196.45L307.165 196.019L307.158 196.026L307.582 196.45ZM306.889 197.484L307.438 197.725L307.44 197.72L306.889 197.484ZM306.889 210.922L306.337 211.158L306.339 211.163L306.889 210.922ZM307.582 211.956L307.151 212.373L307.158 212.38L307.165 212.387L307.582 211.956ZM308.616 212.649L308.375 213.199L308.38 213.201L308.616 212.649ZM312.425 212.649L312.189 212.098L312.184 212.1L312.425 212.649ZM313.459 211.956L313.883 212.38L313.89 212.373L313.459 211.956ZM314.153 210.922L314.702 211.163L314.704 211.158L314.153 210.922ZM315.634 209.647C315.634 210.258 315.518 210.822 315.288 211.347L316.387 211.828C316.686 211.144 316.834 210.416 316.834 209.647H315.634ZM315.285 211.354C315.059 211.889 314.749 212.352 314.351 212.749L315.2 213.598C315.709 213.088 316.106 212.494 316.391 211.821L315.285 211.354ZM314.351 212.749C313.953 213.148 313.487 213.465 312.949 213.7L313.43 214.799C314.101 214.506 314.692 214.105 315.2 213.598L314.351 212.749ZM312.957 213.697C312.43 213.919 311.863 214.032 311.25 214.032V215.232C312.015 215.232 312.741 215.09 313.423 214.802L312.957 213.697ZM311.25 214.032H309.806V215.232H311.25V214.032ZM309.806 214.032C309.192 214.032 308.62 213.919 308.082 213.695L307.621 214.804C308.311 215.09 309.04 215.232 309.806 215.232V214.032ZM308.092 213.7C307.554 213.465 307.088 213.148 306.69 212.749L305.841 213.598C306.349 214.105 306.94 214.506 307.611 214.799L308.092 213.7ZM306.69 212.749C306.291 212.35 305.974 211.885 305.739 211.347L304.64 211.828C304.933 212.499 305.334 213.09 305.841 213.598L306.69 212.749ZM305.742 211.354C305.52 210.828 305.407 210.261 305.407 209.647H304.207C304.207 210.413 304.349 211.139 304.637 211.821L305.742 211.354ZM305.407 209.647V198.744H304.207V209.647H305.407ZM305.407 198.744C305.407 198.131 305.52 197.564 305.742 197.037L304.637 196.571C304.349 197.253 304.207 197.979 304.207 198.744H305.407ZM305.739 197.045C305.974 196.507 306.291 196.041 306.69 195.643L305.841 194.794C305.334 195.302 304.933 195.893 304.64 196.564L305.739 197.045ZM306.69 195.643C307.087 195.245 307.55 194.935 308.085 194.709L307.618 193.603C306.944 193.888 306.35 194.285 305.841 194.794L306.69 195.643ZM308.089 194.707C308.625 194.476 309.195 194.36 309.806 194.36V193.16C309.037 193.16 308.305 193.308 307.614 193.605L308.089 194.707ZM309.806 194.36H311.25V193.16H309.806V194.36ZM311.25 194.36C311.86 194.36 312.424 194.476 312.949 194.706L313.43 193.607C312.747 193.308 312.018 193.16 311.25 193.16V194.36ZM312.957 194.709C313.491 194.935 313.954 195.245 314.351 195.643L315.2 194.794C314.691 194.285 314.097 193.888 313.423 193.603L312.957 194.709ZM314.351 195.643C314.749 196.04 315.059 196.503 315.285 197.037L316.391 196.571C316.106 195.897 315.709 195.303 315.2 194.794L314.351 195.643ZM315.288 197.045C315.518 197.57 315.634 198.134 315.634 198.744H316.834C316.834 197.976 316.686 197.247 316.387 196.564L315.288 197.045ZM315.634 198.744V209.647H316.834V198.744H315.634ZM315.008 198.744C315.008 198.214 314.908 197.711 314.702 197.243L313.603 197.725C313.738 198.031 313.808 198.368 313.808 198.744H315.008ZM314.704 197.248C314.506 196.784 314.232 196.375 313.883 196.026L313.035 196.874C313.271 197.111 313.46 197.391 313.601 197.72L314.704 197.248ZM313.883 196.026C313.534 195.677 313.125 195.404 312.662 195.205L312.189 196.308C312.518 196.449 312.798 196.638 313.035 196.874L313.883 196.026ZM312.666 195.207C312.198 195.001 311.695 194.901 311.165 194.901V196.101C311.541 196.101 311.878 196.172 312.184 196.306L312.666 195.207ZM311.165 194.901H309.891V196.101H311.165V194.901ZM309.891 194.901C309.36 194.901 308.855 195.001 308.38 195.205L308.852 196.308C309.17 196.172 309.514 196.101 309.891 196.101V194.901ZM308.375 195.207C307.923 195.405 307.519 195.677 307.165 196.019L308 196.881C308.25 196.638 308.535 196.447 308.857 196.306L308.375 195.207ZM307.158 196.026C306.809 196.375 306.536 196.784 306.337 197.248L307.44 197.72C307.581 197.391 307.77 197.111 308.007 196.874L307.158 196.026ZM306.339 197.243C306.134 197.711 306.034 198.214 306.034 198.744H307.234C307.234 198.368 307.304 198.031 307.438 197.725L306.339 197.243ZM306.034 198.744V209.647H307.234V198.744H306.034ZM306.034 209.647C306.034 210.178 306.134 210.683 306.337 211.158L307.44 210.686C307.304 210.367 307.234 210.024 307.234 209.647H306.034ZM306.339 211.163C306.538 211.615 306.809 212.019 307.151 212.373L308.013 211.538C307.771 211.288 307.579 211.003 307.438 210.681L306.339 211.163ZM307.165 212.387C307.519 212.729 307.923 213 308.375 213.199L308.857 212.1C308.535 211.959 308.25 211.767 308 211.525L307.165 212.387ZM308.38 213.201C308.855 213.404 309.36 213.504 309.891 213.504V212.304C309.514 212.304 309.17 212.234 308.852 212.098L308.38 213.201ZM309.891 213.504H311.165V212.304H309.891V213.504ZM311.165 213.504C311.695 213.504 312.198 213.404 312.666 213.199L312.184 212.1C311.878 212.234 311.541 212.304 311.165 212.304V213.504ZM312.662 213.201C313.125 213.002 313.534 212.729 313.883 212.38L313.035 211.531C312.798 211.768 312.518 211.957 312.189 212.098L312.662 213.201ZM313.89 212.373C314.232 212.019 314.504 211.615 314.702 211.163L313.603 210.681C313.462 211.003 313.271 211.288 313.028 211.538L313.89 212.373ZM314.704 211.158C314.908 210.683 315.008 210.178 315.008 209.647H313.808C313.808 210.024 313.738 210.367 313.601 210.686L314.704 211.158ZM315.008 209.647V198.744H313.808V209.647H315.008ZM231.826 251.349H231.226V251.949H231.826V251.349ZM231.826 237.429H232.426L231.232 237.342L231.826 237.429ZM231.698 238.293L232.262 238.497L232.283 238.44L232.292 238.381L231.698 238.293ZM226.983 251.349V251.949H227.404L227.547 251.552L226.983 251.349ZM226.02 251.349L225.456 251.554L225.6 251.949H226.02V251.349ZM221.262 238.293L220.667 238.371L220.676 238.436L220.698 238.498L221.262 238.293ZM221.149 237.429L221.744 237.351L220.549 237.429H221.149ZM221.149 251.349V251.949H221.749V251.349H221.149ZM219.322 251.349H218.722V251.949H219.322V251.349ZM219.322 231.043V230.443H218.722V231.043H219.322ZM220.271 231.043L220.834 230.835L220.689 230.443H220.271V231.043ZM226.431 247.695L227.029 247.65L227.023 247.566L226.993 247.487L226.431 247.695ZM226.487 248.446L225.889 248.491H227.085L226.487 248.446ZM226.544 247.695L225.981 247.488L225.952 247.566L225.946 247.65L226.544 247.695ZM232.689 231.043V230.443H232.271L232.126 230.835L232.689 231.043ZM233.652 231.043H234.252V230.443H233.652V231.043ZM233.652 251.349V251.949H234.252V251.349H233.652ZM232.426 251.349V237.429H231.226V251.349H232.426ZM231.232 237.342L231.105 238.205L232.292 238.381L232.419 237.517L231.232 237.342ZM231.134 238.089L226.418 251.145L227.547 251.552L232.262 238.497L231.134 238.089ZM226.983 250.749H226.02V251.949H226.983V250.749ZM226.584 251.143L221.826 238.088L220.698 238.498L225.456 251.554L226.584 251.143ZM221.857 238.215L221.744 237.351L220.554 237.507L220.667 238.371L221.857 238.215ZM220.549 237.429V251.349H221.749V237.429H220.549ZM221.149 250.749H219.322V251.949H221.149V250.749ZM219.922 251.349V231.043H218.722V251.349H219.922ZM219.322 231.643H220.271V230.443H219.322V231.643ZM219.708 231.251L225.868 247.903L226.993 247.487L220.834 230.835L219.708 231.251ZM225.832 247.74L225.889 248.491L227.085 248.401L227.029 247.65L225.832 247.74ZM227.085 248.491L227.142 247.74L225.946 247.65L225.889 248.401L227.085 248.491ZM227.107 247.903L233.252 231.251L232.126 230.835L225.981 247.488L227.107 247.903ZM232.689 231.643H233.652V230.443H232.689V231.643ZM233.052 231.043V251.349H234.252V231.043H233.052ZM233.652 250.749H231.826V251.949H233.652V250.749ZM238.297 251.349H237.697V251.949H238.297V251.349ZM238.297 231.043V230.443H237.697V231.043H238.297ZM240.123 231.043H240.723V230.443H240.123V231.043ZM240.123 251.349V251.949H240.723V251.349H240.123ZM238.897 251.349V231.043H237.697V251.349H238.897ZM238.297 231.643H240.123V230.443H238.297V231.643ZM239.523 231.043V251.349H240.723V231.043H239.523ZM240.123 250.749H238.297V251.949H240.123V250.749ZM244.485 251.349H243.885V251.949H244.485V251.349ZM244.485 231.043V230.443H243.885V231.043H244.485ZM246.311 231.043H246.911V230.443H246.311V231.043ZM246.311 249.607H245.711V250.207H246.311V249.607ZM254.085 249.607H254.685V249.007H254.085V249.607ZM254.085 251.349V251.949H254.685V251.349H254.085ZM245.085 251.349V231.043H243.885V251.349H245.085ZM244.485 231.643H246.311V230.443H244.485V231.643ZM245.711 231.043V249.607H246.911V231.043H245.711ZM246.311 250.207H254.085V249.007H246.311V250.207ZM253.485 249.607V251.349H254.685V249.607H253.485ZM254.085 250.749H244.485V251.949H254.085V250.749ZM266.589 251.349H265.989V251.949H266.589V251.349ZM266.589 242.074H267.189V241.474H266.589V242.074ZM258.815 242.074V241.474H258.215V242.074H258.815ZM258.815 251.349V251.949H259.415V251.349H258.815ZM256.988 251.349H256.388V251.949H256.988V251.349ZM256.988 231.043V230.443H256.388V231.043H256.988ZM258.815 231.043H259.415V230.443H258.815V231.043ZM258.815 240.332H258.215V240.932H258.815V240.332ZM266.589 240.332V240.932H267.189V240.332H266.589ZM266.589 231.043V230.443H265.989V231.043H266.589ZM268.415 231.043H269.015V230.443H268.415V231.043ZM268.415 251.349V251.949H269.015V251.349H268.415ZM267.189 251.349V242.074H265.989V251.349H267.189ZM266.589 241.474H258.815V242.674H266.589V241.474ZM258.215 242.074V251.349H259.415V242.074H258.215ZM258.815 250.749H256.988V251.949H258.815V250.749ZM257.588 251.349V231.043H256.388V251.349H257.588ZM256.988 231.643H258.815V230.443H256.988V231.643ZM258.215 231.043V240.332H259.415V231.043H258.215ZM258.815 240.932H266.589V239.732H258.815V240.932ZM267.189 240.332V231.043H265.989V240.332H267.189ZM266.589 231.643H268.415V230.443H266.589V231.643ZM267.815 231.043V251.349H269.015V231.043H267.815ZM268.415 250.749H266.589V251.949H268.415V250.749ZM273.074 251.349H272.474V251.949H273.074V251.349ZM273.074 231.043V230.443H272.474V231.043H273.074ZM284.501 231.043H285.101V230.443H284.501V231.043ZM284.501 232.785V233.385H285.101V232.785H284.501ZM274.901 232.785V232.185H274.301V232.785H274.901ZM274.901 240.332H274.301V240.932H274.901V240.332ZM282.675 240.332H283.275V239.732H282.675V240.332ZM282.675 242.074V242.674H283.275V242.074H282.675ZM274.901 242.074V241.474H274.301V242.074H274.901ZM274.901 249.607H274.301V250.207H274.901V249.607ZM284.501 249.607H285.101V249.007H284.501V249.607ZM284.501 251.349V251.949H285.101V251.349H284.501ZM273.674 251.349V231.043H272.474V251.349H273.674ZM273.074 231.643H284.501V230.443H273.074V231.643ZM283.901 231.043V232.785H285.101V231.043H283.901ZM284.501 232.185H274.901V233.385H284.501V232.185ZM274.301 232.785V240.332H275.501V232.785H274.301ZM274.901 240.932H282.675V239.732H274.901V240.932ZM282.075 240.332V242.074H283.275V240.332H282.075ZM282.675 241.474H274.901V242.674H282.675V241.474ZM274.301 242.074V249.607H275.501V242.074H274.301ZM274.901 250.207H284.501V249.007H274.901V250.207ZM283.901 249.607V251.349H285.101V249.607H283.901ZM284.501 250.749H273.074V251.949H284.501V250.749ZM295.617 246.619L296.194 246.455L296.07 246.019H295.617V246.619ZM289.188 246.619V246.019H288.734L288.611 246.457L289.188 246.619ZM287.857 251.349V251.949H288.312L288.435 251.511L287.857 251.349ZM285.96 251.349L285.384 251.18L285.159 251.949H285.96V251.349ZM291.907 231.043V230.443H291.458L291.331 230.874L291.907 231.043ZM292.87 231.043L293.446 230.874L293.319 230.443H292.87V231.043ZM298.846 251.349V251.949H299.648L299.421 251.179L298.846 251.349ZM296.962 251.349L296.385 251.513L296.509 251.949H296.962V251.349ZM289.684 244.877L289.107 244.713L288.89 245.477H289.684V244.877ZM295.136 244.877V245.477H295.931L295.713 244.712L295.136 244.877ZM292.459 235.518L291.861 235.563L291.866 235.624L291.882 235.683L292.459 235.518ZM292.403 234.767L293.001 234.722H291.804L292.403 234.767ZM292.346 235.518L292.923 235.682L292.94 235.623L292.944 235.563L292.346 235.518ZM295.617 246.019H289.188V247.219H295.617V246.019ZM288.611 246.457L287.28 251.186L288.435 251.511L289.766 246.782L288.611 246.457ZM287.857 250.749H285.96V251.949H287.857V250.749ZM286.536 251.517L292.483 231.212L291.331 230.874L285.384 251.18L286.536 251.517ZM291.907 231.643H292.87V230.443H291.907V231.643ZM292.294 231.212L298.27 251.518L299.421 251.179L293.446 230.874L292.294 231.212ZM298.846 250.749H296.962V251.949H298.846V250.749ZM297.539 251.184L296.194 246.455L295.04 246.783L296.385 251.513L297.539 251.184ZM289.684 245.477H295.136V244.277H289.684V245.477ZM295.713 244.712L293.036 235.353L291.882 235.683L294.559 245.042L295.713 244.712ZM293.058 235.472L293.001 234.722L291.804 234.812L291.861 235.563L293.058 235.472ZM291.804 234.722L291.748 235.472L292.944 235.563L293.001 234.812L291.804 234.722ZM291.769 235.353L289.107 244.713L290.261 245.042L292.923 235.682L291.769 235.353ZM312.184 248.587L311.635 248.347L311.632 248.354L312.184 248.587ZM309.536 251.25L309.77 251.802L309.777 251.799L309.536 251.25ZM304.198 251.25L303.958 251.799L303.968 251.804L304.198 251.25ZM301.536 248.587L300.983 248.821L300.986 248.828L301.536 248.587ZM301.154 231.043V230.443H300.554V231.043H301.154ZM302.98 231.043H303.58V230.443H302.98V231.043ZM303.235 247.922L302.684 248.158L302.686 248.163L303.235 247.922ZM303.929 248.956L303.498 249.373L303.505 249.38L303.512 249.387L303.929 248.956ZM304.963 249.649L304.722 250.199L304.726 250.201L304.963 249.649ZM308.772 249.649L308.535 249.098L308.531 249.1L308.772 249.649ZM309.806 248.956L310.23 249.38L310.236 249.373L309.806 248.956ZM310.499 247.922L311.049 248.163L311.051 248.158L310.499 247.922ZM310.754 231.043V230.443H310.154V231.043H310.754ZM312.581 231.043H313.181V230.443H312.581V231.043ZM311.981 246.647C311.981 247.258 311.864 247.822 311.635 248.347L312.734 248.828C313.033 248.144 313.181 247.416 313.181 246.647H311.981ZM311.632 248.354C311.406 248.889 311.095 249.352 310.698 249.749L311.547 250.598C312.056 250.088 312.453 249.494 312.737 248.821L311.632 248.354ZM310.698 249.749C310.299 250.148 309.834 250.465 309.296 250.7L309.777 251.799C310.448 251.506 311.039 251.105 311.547 250.598L310.698 249.749ZM309.303 250.697C308.777 250.919 308.21 251.032 307.597 251.032V252.232C308.362 252.232 309.088 252.09 309.77 251.802L309.303 250.697ZM307.597 251.032H306.152V252.232H307.597V251.032ZM306.152 251.032C305.539 251.032 304.966 250.919 304.428 250.695L303.968 251.804C304.657 252.09 305.387 252.232 306.152 252.232V251.032ZM304.439 250.7C303.901 250.465 303.435 250.148 303.036 249.749L302.188 250.598C302.695 251.105 303.287 251.506 303.958 251.799L304.439 250.7ZM303.036 249.749C302.638 249.35 302.321 248.885 302.086 248.347L300.986 248.828C301.28 249.499 301.68 250.09 302.188 250.598L303.036 249.749ZM302.089 248.354C301.867 247.828 301.754 247.261 301.754 246.647H300.554C300.554 247.413 300.696 248.139 300.983 248.821L302.089 248.354ZM301.754 246.647V231.043H300.554V246.647H301.754ZM301.154 231.643H302.98V230.443H301.154V231.643ZM302.38 231.043V246.647H303.58V231.043H302.38ZM302.38 246.647C302.38 247.178 302.48 247.683 302.684 248.158L303.787 247.686C303.65 247.367 303.58 247.024 303.58 246.647H302.38ZM302.686 248.163C302.884 248.615 303.156 249.019 303.498 249.373L304.36 248.538C304.117 248.288 303.926 248.003 303.785 247.681L302.686 248.163ZM303.512 249.387C303.865 249.729 304.27 250 304.722 250.199L305.204 249.1C304.882 248.959 304.597 248.767 304.347 248.525L303.512 249.387ZM304.726 250.201C305.201 250.404 305.707 250.504 306.237 250.504V249.304C305.861 249.304 305.517 249.234 305.199 249.098L304.726 250.201ZM306.237 250.504H307.512V249.304H306.237V250.504ZM307.512 250.504C308.042 250.504 308.545 250.404 309.013 250.199L308.531 249.1C308.225 249.234 307.888 249.304 307.512 249.304V250.504ZM309.008 250.201C309.472 250.002 309.881 249.729 310.23 249.38L309.381 248.531C309.145 248.768 308.865 248.957 308.535 249.098L309.008 250.201ZM310.236 249.373C310.579 249.019 310.85 248.615 311.049 248.163L309.95 247.681C309.809 248.003 309.617 248.288 309.375 248.538L310.236 249.373ZM311.051 248.158C311.254 247.683 311.354 247.178 311.354 246.647H310.154C310.154 247.024 310.084 247.367 309.948 247.686L311.051 248.158ZM311.354 246.647V231.043H310.154V246.647H311.354ZM310.754 231.643H312.581V230.443H310.754V231.643ZM311.981 231.043V246.647H313.181V231.043H311.981ZM230.353 277.502L229.803 277.261L229.8 277.269L230.353 277.502ZM227.691 280.164L227.924 280.717L227.928 280.715L227.691 280.164ZM221.149 280.546V279.946H220.549V280.546H221.149ZM221.149 288.349V288.949H221.749V288.349H221.149ZM219.322 288.349H218.722V288.949H219.322V288.349ZM219.322 268.043V267.443H218.722V268.043H219.322ZM227.691 268.439L227.45 268.989L227.461 268.994L227.691 268.439ZM230.353 271.102L229.799 271.332L229.803 271.342L230.353 271.102ZM228.668 271.781L228.116 272.018L228.118 272.022L228.668 271.781ZM227.96 270.748L227.529 271.165L227.536 271.172L227.542 271.179L227.96 270.748ZM226.926 270.04L226.685 270.589L226.69 270.591L226.926 270.04ZM221.149 269.785V269.185H220.549V269.785H221.149ZM221.149 278.805H220.549V279.405H221.149V278.805ZM226.926 278.55L226.69 277.998L226.685 278L226.926 278.55ZM227.96 277.856L227.542 277.425L227.536 277.432L227.96 277.856ZM228.668 276.836L229.217 277.078L229.219 277.073L228.668 276.836ZM230.149 275.562C230.149 276.172 230.033 276.737 229.803 277.261L230.903 277.742C231.202 277.059 231.349 276.33 231.349 275.562H230.149ZM229.8 277.269C229.575 277.803 229.264 278.267 228.867 278.664L229.715 279.512C230.224 279.003 230.621 278.409 230.906 277.735L229.8 277.269ZM228.867 278.664C228.469 279.061 228 279.377 227.453 279.613L227.928 280.715C228.609 280.422 229.206 280.021 229.715 279.512L228.867 278.664ZM227.458 279.611C226.931 279.833 226.364 279.946 225.751 279.946V281.146C226.516 281.146 227.242 281.004 227.924 280.717L227.458 279.611ZM225.751 279.946H221.149V281.146H225.751V279.946ZM220.549 280.546V288.349H221.749V280.546H220.549ZM221.149 287.749H219.322V288.949H221.149V287.749ZM219.922 288.349V268.043H218.722V288.349H219.922ZM219.322 268.643H225.751V267.443H219.322V268.643ZM225.751 268.643C226.361 268.643 226.925 268.759 227.45 268.989L227.931 267.89C227.248 267.591 226.519 267.443 225.751 267.443V268.643ZM227.461 268.994C228.004 269.219 228.471 269.53 228.867 269.926L229.715 269.077C229.204 268.566 228.604 268.169 227.921 267.885L227.461 268.994ZM228.867 269.926C229.262 270.321 229.573 270.788 229.799 271.332L230.907 270.871C230.623 270.188 230.226 269.588 229.715 269.077L228.867 269.926ZM229.803 271.342C230.033 271.867 230.149 272.431 230.149 273.042H231.349C231.349 272.273 231.202 271.544 230.903 270.861L229.803 271.342ZM230.149 273.042V275.562H231.349V273.042H230.149ZM229.523 273.042C229.523 272.511 229.423 272.008 229.217 271.54L228.118 272.022C228.253 272.328 228.323 272.665 228.323 273.042H229.523ZM229.219 271.545C229.019 271.077 228.738 270.666 228.377 270.317L227.542 271.179C227.786 271.414 227.977 271.692 228.116 272.018L229.219 271.545ZM228.391 270.33C228.041 269.969 227.63 269.688 227.162 269.488L226.69 270.591C227.015 270.73 227.293 270.922 227.529 271.165L228.391 270.33ZM227.167 269.49C226.699 269.285 226.196 269.185 225.666 269.185V270.385C226.042 270.385 226.379 270.455 226.685 270.589L227.167 269.49ZM225.666 269.185H221.149V270.385H225.666V269.185ZM220.549 269.785V278.805H221.749V269.785H220.549ZM221.149 279.405H225.666V278.205H221.149V279.405ZM225.666 279.405C226.196 279.405 226.699 279.305 227.167 279.099L226.685 278C226.379 278.135 226.042 278.205 225.666 278.205V279.405ZM227.162 279.101C227.626 278.903 228.035 278.629 228.384 278.28L227.536 277.432C227.299 277.668 227.019 277.857 226.69 277.998L227.162 279.101ZM228.377 278.287C228.736 277.94 229.016 277.535 229.217 277.078L228.118 276.595C227.98 276.911 227.788 277.187 227.542 277.425L228.377 278.287ZM229.219 277.073C229.423 276.598 229.523 276.092 229.523 275.562H228.323C228.323 275.938 228.253 276.282 228.116 276.6L229.219 277.073ZM229.523 275.562V273.042H228.323V275.562H229.523ZM243.791 288.349L243.285 288.67L243.461 288.949H243.791V288.349ZM238.283 279.683L238.789 279.361L238.612 279.083H238.283V279.683ZM235.776 279.683V279.083H235.176V279.683H235.776ZM235.776 288.349V288.949H236.376V288.349H235.776ZM233.95 288.349H233.35V288.949H233.95V288.349ZM233.95 268.043V267.443H233.35V268.043H233.95ZM242.332 268.439L242.092 268.989L242.099 268.992L242.332 268.439ZM244.98 271.102L244.426 271.332L244.431 271.342L244.98 271.102ZM244.98 276.638L244.429 276.401L244.428 276.405L244.98 276.638ZM242.332 279.3L242.566 279.853L242.573 279.85L242.332 279.3ZM240.392 279.683V279.083H239.3L239.886 280.004L240.392 279.683ZM245.901 288.349V288.949H246.993L246.407 288.027L245.901 288.349ZM243.295 271.781L242.744 272.018L242.746 272.022L243.295 271.781ZM242.601 270.748L242.17 271.165L242.177 271.172L242.601 270.748ZM241.568 270.04L241.327 270.589L241.331 270.591L241.568 270.04ZM235.776 269.785V269.185H235.176V269.785H235.776ZM235.776 277.941H235.176V278.541H235.776V277.941ZM241.568 277.686L241.331 277.135L241.327 277.137L241.568 277.686ZM242.601 276.992L243.026 277.417L243.032 277.41L242.601 276.992ZM243.295 275.958L243.845 276.2L243.847 276.195L243.295 275.958ZM244.297 288.027L238.789 279.361L237.776 280.004L243.285 288.67L244.297 288.027ZM238.283 279.083H235.776V280.283H238.283V279.083ZM235.176 279.683V288.349H236.376V279.683H235.176ZM235.776 287.749H233.95V288.949H235.776V287.749ZM234.55 288.349V268.043H233.35V288.349H234.55ZM233.95 268.643H240.392V267.443H233.95V268.643ZM240.392 268.643C241.003 268.643 241.567 268.759 242.092 268.989L242.573 267.89C241.889 267.591 241.161 267.443 240.392 267.443V268.643ZM242.099 268.992C242.634 269.218 243.097 269.529 243.494 269.926L244.343 269.077C243.833 268.568 243.239 268.171 242.566 267.887L242.099 268.992ZM243.494 269.926C243.89 270.321 244.2 270.788 244.426 271.332L245.534 270.871C245.251 270.188 244.853 269.588 244.343 269.077L243.494 269.926ZM244.431 271.342C244.66 271.867 244.777 272.431 244.777 273.042H245.977C245.977 272.273 245.829 271.544 245.53 270.861L244.431 271.342ZM244.777 273.042V274.684H245.977V273.042H244.777ZM244.777 274.684C244.777 275.294 244.66 275.865 244.429 276.401L245.531 276.876C245.829 276.185 245.977 275.452 245.977 274.684H244.777ZM244.428 276.405C244.202 276.939 243.891 277.403 243.494 277.8L244.343 278.648C244.852 278.139 245.249 277.545 245.533 276.871L244.428 276.405ZM243.494 277.8C243.095 278.199 242.63 278.515 242.092 278.751L242.573 279.85C243.244 279.557 243.835 279.156 244.343 278.648L243.494 277.8ZM242.099 278.747C241.573 278.97 241.006 279.083 240.392 279.083V280.283C241.158 280.283 241.884 280.141 242.566 279.853L242.099 278.747ZM239.886 280.004L245.394 288.67L246.407 288.027L240.899 279.361L239.886 280.004ZM245.901 287.749H243.791V288.949H245.901V287.749ZM244.15 273.042C244.15 272.511 244.05 272.008 243.845 271.54L242.746 272.022C242.88 272.328 242.95 272.665 242.95 273.042H244.15ZM243.847 271.545C243.648 271.081 243.375 270.672 243.026 270.323L242.177 271.172C242.414 271.408 242.603 271.688 242.744 272.018L243.847 271.545ZM243.032 270.33C242.683 269.969 242.272 269.688 241.804 269.488L241.331 270.591C241.657 270.73 241.935 270.922 242.17 271.165L243.032 270.33ZM241.809 269.49C241.341 269.285 240.838 269.185 240.307 269.185V270.385C240.684 270.385 241.021 270.455 241.327 270.589L241.809 269.49ZM240.307 269.185H235.776V270.385H240.307V269.185ZM235.176 269.785V277.941H236.376V269.785H235.176ZM235.776 278.541H240.307V277.341H235.776V278.541ZM240.307 278.541C240.838 278.541 241.341 278.441 241.809 278.235L241.327 277.137C241.021 277.271 240.684 277.341 240.307 277.341V278.541ZM241.804 278.238C242.268 278.039 242.677 277.765 243.026 277.416L242.177 276.568C241.941 276.804 241.661 276.993 241.331 277.135L241.804 278.238ZM243.032 277.41C243.375 277.056 243.646 276.652 243.845 276.2L242.746 275.717C242.605 276.039 242.413 276.324 242.17 276.575L243.032 277.41ZM243.847 276.195C244.05 275.72 244.15 275.214 244.15 274.684H242.95C242.95 275.06 242.88 275.404 242.744 275.722L243.847 276.195ZM244.15 274.684V273.042H242.95V274.684H244.15ZM249.398 288.349H248.798V288.949H249.398V288.349ZM249.398 268.043V267.443H248.798V268.043H249.398ZM251.225 268.043H251.825V267.443H251.225V268.043ZM251.225 288.349V288.949H251.825V288.349H251.225ZM249.998 288.349V268.043H248.798V288.349H249.998ZM249.398 268.643H251.225V267.443H249.398V268.643ZM250.625 268.043V288.349H251.825V268.043H250.625ZM251.225 287.749H249.398V288.949H251.225V287.749ZM255.884 288.349H255.284V288.949H255.884V288.349ZM255.884 268.043V267.443H255.284V268.043H255.884ZM267.311 268.043H267.911V267.443H267.311V268.043ZM267.311 269.785V270.385H267.911V269.785H267.311ZM257.71 269.785V269.185H257.11V269.785H257.71ZM257.71 277.332H257.11V277.932H257.71V277.332ZM265.484 277.332H266.084V276.732H265.484V277.332ZM265.484 279.074V279.674H266.084V279.074H265.484ZM257.71 279.074V278.474H257.11V279.074H257.71ZM257.71 286.607H257.11V287.207H257.71V286.607ZM267.311 286.607H267.911V286.007H267.311V286.607ZM267.311 288.349V288.949H267.911V288.349H267.311ZM256.484 288.349V268.043H255.284V288.349H256.484ZM255.884 268.643H267.311V267.443H255.884V268.643ZM266.711 268.043V269.785H267.911V268.043H266.711ZM267.311 269.185H257.71V270.385H267.311V269.185ZM257.11 269.785V277.332H258.31V269.785H257.11ZM257.71 277.932H265.484V276.732H257.71V277.932ZM264.884 277.332V279.074H266.084V277.332H264.884ZM265.484 278.474H257.71V279.674H265.484V278.474ZM257.11 279.074V286.607H258.31V279.074H257.11ZM257.71 287.207H267.311V286.007H257.71V287.207ZM266.711 286.607V288.349H267.911V286.607H266.711ZM267.311 287.749H255.884V288.949H267.311V287.749ZM281.542 285.587L280.992 285.347L280.989 285.354L281.542 285.587ZM278.894 288.25L279.127 288.802L279.134 288.799L278.894 288.25ZM273.556 288.25L273.315 288.799L273.325 288.804L273.556 288.25ZM270.893 285.587L270.341 285.821L270.344 285.828L270.893 285.587ZM270.511 268.043V267.443H269.911V268.043H270.511ZM272.338 268.043H272.938V267.443H272.338V268.043ZM272.593 284.922L272.041 285.158L272.043 285.163L272.593 284.922ZM273.286 285.956L272.856 286.373L272.862 286.38L272.869 286.387L273.286 285.956ZM274.32 286.649L274.079 287.199L274.084 287.201L274.32 286.649ZM278.129 286.649L277.893 286.098L277.888 286.1L278.129 286.649ZM279.163 285.956L279.587 286.38L279.594 286.373L279.163 285.956ZM279.857 284.922L280.406 285.163L280.408 285.158L279.857 284.922ZM280.112 268.043V267.443H279.512V268.043H280.112ZM281.938 268.043H282.538V267.443H281.938V268.043ZM281.338 283.647C281.338 284.258 281.222 284.822 280.992 285.347L282.092 285.828C282.391 285.144 282.538 284.416 282.538 283.647H281.338ZM280.989 285.354C280.764 285.889 280.453 286.352 280.056 286.749L280.904 287.598C281.413 287.088 281.81 286.494 282.095 285.821L280.989 285.354ZM280.056 286.749C279.657 287.148 279.191 287.465 278.653 287.7L279.134 288.799C279.805 288.506 280.397 288.105 280.904 287.598L280.056 286.749ZM278.661 287.697C278.134 287.919 277.567 288.032 276.954 288.032V289.232C277.719 289.232 278.445 289.09 279.127 288.802L278.661 287.697ZM276.954 288.032H275.51V289.232H276.954V288.032ZM275.51 288.032C274.897 288.032 274.324 287.919 273.786 287.695L273.325 288.804C274.015 289.09 274.745 289.232 275.51 289.232V288.032ZM273.796 287.7C273.258 287.465 272.793 287.148 272.394 286.749L271.545 287.598C272.053 288.105 272.644 288.506 273.315 288.799L273.796 287.7ZM272.394 286.749C271.995 286.35 271.678 285.885 271.443 285.347L270.344 285.828C270.637 286.499 271.038 287.09 271.545 287.598L272.394 286.749ZM271.446 285.354C271.224 284.828 271.111 284.261 271.111 283.647H269.911C269.911 284.413 270.053 285.139 270.341 285.821L271.446 285.354ZM271.111 283.647V268.043H269.911V283.647H271.111ZM270.511 268.643H272.338V267.443H270.511V268.643ZM271.738 268.043V283.647H272.938V268.043H271.738ZM271.738 283.647C271.738 284.178 271.838 284.683 272.041 285.158L273.144 284.686C273.008 284.367 272.938 284.024 272.938 283.647H271.738ZM272.043 285.163C272.242 285.615 272.513 286.019 272.856 286.373L273.717 285.538C273.475 285.288 273.283 285.003 273.142 284.681L272.043 285.163ZM272.869 286.387C273.223 286.729 273.627 287 274.079 287.199L274.561 286.1C274.239 285.959 273.955 285.767 273.704 285.525L272.869 286.387ZM274.084 287.201C274.559 287.404 275.064 287.504 275.595 287.504V286.304C275.219 286.304 274.875 286.234 274.557 286.098L274.084 287.201ZM275.595 287.504H276.869V286.304H275.595V287.504ZM276.869 287.504C277.399 287.504 277.902 287.404 278.37 287.199L277.888 286.1C277.582 286.234 277.245 286.304 276.869 286.304V287.504ZM278.366 287.201C278.829 287.002 279.238 286.729 279.587 286.38L278.739 285.531C278.502 285.768 278.222 285.957 277.893 286.098L278.366 287.201ZM279.594 286.373C279.936 286.019 280.208 285.615 280.406 285.163L279.307 284.681C279.166 285.003 278.975 285.288 278.732 285.538L279.594 286.373ZM280.408 285.158C280.612 284.683 280.712 284.178 280.712 283.647H279.512C279.512 284.024 279.442 284.367 279.305 284.686L280.408 285.158ZM280.712 283.647V268.043H279.512V283.647H280.712ZM280.112 268.643H281.938V267.443H280.112V268.643ZM281.338 268.043V283.647H282.538V268.043H281.338ZM295.844 288.349L295.337 288.67L295.514 288.949H295.844V288.349ZM290.335 279.683L290.842 279.361L290.665 279.083H290.335V279.683ZM287.829 279.683V279.083H287.229V279.683H287.829ZM287.829 288.349V288.949H288.429V288.349H287.829ZM286.002 288.349H285.402V288.949H286.002V288.349ZM286.002 268.043V267.443H285.402V268.043H286.002ZM294.385 268.439L294.145 268.989L294.152 268.992L294.385 268.439ZM297.033 271.102L296.479 271.332L296.483 271.342L297.033 271.102ZM297.033 276.638L296.482 276.401L296.48 276.405L297.033 276.638ZM294.385 279.3L294.618 279.853L294.626 279.85L294.385 279.3ZM292.445 279.683V279.083H291.353L291.939 280.004L292.445 279.683ZM297.953 288.349V288.949H299.046L298.46 288.027L297.953 288.349ZM295.348 271.781L294.797 272.018L294.799 272.022L295.348 271.781ZM294.654 270.748L294.223 271.165L294.23 271.172L294.654 270.748ZM293.62 270.04L293.379 270.589L293.384 270.591L293.62 270.04ZM287.829 269.785V269.185H287.229V269.785H287.829ZM287.829 277.941H287.229V278.541H287.829V277.941ZM293.62 277.686L293.384 277.135L293.379 277.137L293.62 277.686ZM294.654 276.992L295.078 277.417L295.085 277.41L294.654 276.992ZM295.348 275.958L295.897 276.2L295.9 276.195L295.348 275.958ZM296.35 288.027L290.842 279.361L289.829 280.004L295.337 288.67L296.35 288.027ZM290.335 279.083H287.829V280.283H290.335V279.083ZM287.229 279.683V288.349H288.429V279.683H287.229ZM287.829 287.749H286.002V288.949H287.829V287.749ZM286.602 288.349V268.043H285.402V288.349H286.602ZM286.002 268.643H292.445V267.443H286.002V268.643ZM292.445 268.643C293.055 268.643 293.62 268.759 294.145 268.989L294.626 267.89C293.942 267.591 293.213 267.443 292.445 267.443V268.643ZM294.152 268.992C294.686 269.218 295.15 269.529 295.547 269.926L296.395 269.077C295.886 268.568 295.292 268.171 294.618 267.887L294.152 268.992ZM295.547 269.926C295.942 270.321 296.253 270.788 296.479 271.332L297.587 270.871C297.303 270.188 296.906 269.588 296.395 269.077L295.547 269.926ZM296.483 271.342C296.713 271.867 296.83 272.431 296.83 273.042H298.03C298.03 272.273 297.882 271.544 297.583 270.861L296.483 271.342ZM296.83 273.042V274.684H298.03V273.042H296.83ZM296.83 274.684C296.83 275.294 296.713 275.865 296.482 276.401L297.584 276.876C297.882 276.185 298.03 275.452 298.03 274.684H296.83ZM296.48 276.405C296.255 276.939 295.944 277.403 295.547 277.8L296.395 278.648C296.905 278.139 297.302 277.545 297.586 276.871L296.48 276.405ZM295.547 277.8C295.148 278.199 294.682 278.515 294.145 278.751L294.626 279.85C295.296 279.557 295.888 279.156 296.395 278.648L295.547 277.8ZM294.152 278.747C293.625 278.97 293.058 279.083 292.445 279.083V280.283C293.21 280.283 293.937 280.141 294.618 279.853L294.152 278.747ZM291.939 280.004L297.447 288.67L298.46 288.027L292.952 279.361L291.939 280.004ZM297.953 287.749H295.844V288.949H297.953V287.749ZM296.203 273.042C296.203 272.511 296.103 272.008 295.897 271.54L294.799 272.022C294.933 272.328 295.003 272.665 295.003 273.042H296.203ZM295.9 271.545C295.701 271.081 295.427 270.672 295.078 270.323L294.23 271.172C294.466 271.408 294.655 271.688 294.797 272.018L295.9 271.545ZM295.085 270.33C294.736 269.969 294.325 269.688 293.857 269.488L293.384 270.591C293.709 270.73 293.987 270.922 294.223 271.165L295.085 270.33ZM293.862 269.49C293.393 269.285 292.89 269.185 292.36 269.185V270.385C292.736 270.385 293.074 270.455 293.379 270.589L293.862 269.49ZM292.36 269.185H287.829V270.385H292.36V269.185ZM287.229 269.785V277.941H288.429V269.785H287.229ZM287.829 278.541H292.36V277.341H287.829V278.541ZM292.36 278.541C292.89 278.541 293.393 278.441 293.862 278.235L293.379 277.137C293.074 277.271 292.736 277.341 292.36 277.341V278.541ZM293.857 278.238C294.32 278.039 294.73 277.765 295.078 277.416L294.23 276.568C293.994 276.804 293.713 276.993 293.384 277.135L293.857 278.238ZM295.085 277.41C295.428 277.056 295.699 276.652 295.897 276.2L294.799 275.717C294.657 276.039 294.466 276.324 294.223 276.575L295.085 277.41ZM295.9 276.195C296.103 275.72 296.203 275.214 296.203 274.684H295.003C295.003 275.06 294.933 275.404 294.797 275.722L295.9 276.195ZM296.203 274.684V273.042H295.003V274.684H296.203Z" fill="#C8B369"/>
</g>
</g>
</svg>
