<svg width="411" height="823" fill="none" xmlns="http://www.w3.org/2000/svg"><g clip-path="url(#clip0)"><path fill="#fff" d="M0 0h411v823H0z"/><path d="M159.012-.51l315.173 105.99L491.526.705 159.012-.509z" fill="#BEAC6C"/><path d="M276.803-12.51L-38.369 93.48-55.711-11.295l332.514-1.214z" fill="#173444"/><path d="M201 13L241.703-.5h-81.406L201 13z" fill="#5A725C"/><path d="M153.012 824.959l315.173-105.988 17.341 104.774-332.514 1.214z" fill="#173444"/><path d="M297.803 833.959L-17.369 727.971l-17.342 104.774 332.514 1.214z" fill="#BEAC6C"/><path d="M212 805l62.354 21H149.646L212 805z" fill="#5A725C"/><path d="M81.884 562.245c0 .697-.134 1.351-.4 1.962a4.982 4.982 0 01-1.075 1.604 5.186 5.186 0 01-1.604 1.089 4.992 4.992 0 01-1.963.386h-1.46a5.097 5.097 0 01-1.977-.386 5.184 5.184 0 01-1.604-1.089 5.18 5.18 0 01-1.089-1.604 4.995 4.995 0 01-.386-1.962v-11.029c0-.697.128-1.351.386-1.962a5.18 5.18 0 011.089-1.604 4.96 4.96 0 011.604-1.074 4.933 4.933 0 011.977-.402h1.46c.698 0 1.352.134 1.963.402a4.961 4.961 0 012.678 2.678c.267.611.401 1.265.401 1.962v.831l-1.847.286v-1.117a3.14 3.14 0 00-.258-1.275 3.297 3.297 0 00-.702-1.045 3.303 3.303 0 00-1.046-.702 3.133 3.133 0 00-1.275-.258h-1.289c-.458 0-.888.086-1.289.258a3.53 3.53 0 00-1.045.702 3.3 3.3 0 00-.702 1.045 3.14 3.14 0 00-.258 1.275v11.029c0 .458.086.888.258 1.289.172.391.406.74.702 1.045.305.296.654.53 1.045.702.401.172.831.258 1.29.258h1.288c.459 0 .884-.086 1.275-.258.401-.172.75-.406 1.046-.702a3.53 3.53 0 00.702-1.045c.172-.401.258-.831.258-1.289v-1.117l1.847.3v.817zm11.83-.029h-6.502L85.866 567h-1.92l6.016-20.539h.974L96.98 567h-1.904l-1.361-4.784zm-6-1.762h5.514l-2.707-9.467-.058-.759-.057.759-2.693 9.467zm23.46 1.504c0 .697-.133 1.351-.401 1.963a4.968 4.968 0 01-1.074 1.604 5.137 5.137 0 01-1.618 1.088 4.993 4.993 0 01-1.963.387h-6.502v-20.539h6.502c.698 0 1.352.134 1.963.401.62.258 1.16.616 1.618 1.074.459.459.817.998 1.074 1.619a4.83 4.83 0 01.401 1.962v.2c0 .487-.066.955-.2 1.404-.124.439-.306.85-.544 1.232-.239.382-.521.73-.845 1.045a4.889 4.889 0 01-1.089.774c.401.21.764.473 1.089.788.324.305.606.654.845 1.045.238.382.42.798.544 1.246.134.44.2.903.2 1.39v1.317zm-1.847-1.618c0-.458-.086-.883-.258-1.275a3.195 3.195 0 00-.716-1.045 3.306 3.306 0 00-1.046-.702 3.13 3.13 0 00-1.274-.258h-4.569v8.178h4.569a3.13 3.13 0 001.274-.258c.401-.171.75-.405 1.046-.701.305-.296.544-.64.716-1.032.172-.401.258-.83.258-1.289v-1.618zm0-8.823c0-.458-.086-.883-.258-1.275a3.195 3.195 0 00-.716-1.045 3.187 3.187 0 00-1.046-.717 3.146 3.146 0 00-1.274-.257h-4.569v7.075h4.569a3.13 3.13 0 001.274-.258c.401-.172.75-.405 1.046-.701.305-.306.544-.655.716-1.046.172-.401.258-.831.258-1.289v-.487zM114.712 567v-20.539h1.848V567h-1.848zm17.145 0l-8.565-14.953-.172-.888V567h-1.848v-20.539h.96l8.565 14.967.186.874v-15.841h1.848V567h-.974zm5.686 0v-20.539h11.559v1.762h-9.711v7.634h7.863v1.761h-7.863v7.62h9.711V567h-11.559zm20.081-18.777V567h-1.848v-18.777h-4.898v-1.762h11.644v1.762h-4.898zm26.168 13.735c0 .697-.134 1.351-.401 1.963a4.987 4.987 0 01-1.075 1.604 4.991 4.991 0 01-3.58 1.475h-6.503v-20.539h6.503c.697 0 1.351.134 1.962.401.621.258 1.16.616 1.618 1.074.459.459.817.998 1.075 1.619.267.611.401 1.265.401 1.962v10.441zm-1.848-10.441c0-.458-.086-.883-.258-1.275a3.18 3.18 0 00-.716-1.045 3.177 3.177 0 00-1.046-.717 3.146 3.146 0 00-1.274-.257h-4.569v17.015h4.569a3.13 3.13 0 001.274-.258c.402-.171.75-.405 1.046-.701.306-.296.544-.64.716-1.032.172-.401.258-.83.258-1.289v-10.441zm6.689 1.26h-.745v-6.316h2.206l-1.461 6.316zm16.543 9.468c0 .697-.134 1.351-.401 1.962a4.99 4.99 0 01-1.074 1.604 5.197 5.197 0 01-1.605 1.089 4.99 4.99 0 01-1.962.386h-1.461a5.092 5.092 0 01-1.976-.386 5.186 5.186 0 01-1.605-1.089 5.178 5.178 0 01-1.088-1.604 4.991 4.991 0 01-.387-1.962v-11.029c0-.697.129-1.351.387-1.962a5.178 5.178 0 011.088-1.604 4.962 4.962 0 011.605-1.074 4.928 4.928 0 011.976-.402h1.461a4.83 4.83 0 011.962.402 4.972 4.972 0 012.679 2.678c.267.611.401 1.265.401 1.962v11.029zm-1.848-11.029c0-.458-.086-.883-.258-1.275a3.301 3.301 0 00-.702-1.045 3.301 3.301 0 00-1.045-.702 3.138 3.138 0 00-1.275-.258h-1.289c-.458 0-.888.086-1.289.258-.391.172-.74.406-1.046.702a3.299 3.299 0 00-.701 1.045 3.138 3.138 0 00-.258 1.275v11.029c0 .458.086.888.258 1.289.172.391.405.74.701 1.045.306.296.655.53 1.046.702.401.172.831.258 1.289.258h1.289c.458 0 .883-.086 1.275-.258a3.301 3.301 0 001.045-.702 3.53 3.53 0 00.702-1.045c.172-.401.258-.831.258-1.289v-11.029zM219.241 567l-5.572-8.766h-2.535V567h-1.848v-20.539h6.517a4.85 4.85 0 011.963.401 5 5 0 011.604 1.074c.458.459.816.998 1.074 1.619.267.611.401 1.265.401 1.962v1.661c0 .697-.134 1.356-.401 1.977a4.99 4.99 0 01-1.074 1.604 5.21 5.21 0 01-1.604 1.089 5.013 5.013 0 01-1.963.386l5.572 8.766h-2.134zm-.244-15.483c0-.458-.086-.883-.257-1.275a3.301 3.301 0 00-.702-1.045 3.187 3.187 0 00-1.046-.717 3.147 3.147 0 00-1.275-.257h-4.583v8.25h4.583c.459 0 .884-.086 1.275-.258.401-.172.75-.406 1.046-.702.296-.306.53-.654.702-1.046a3.25 3.25 0 00.257-1.289v-1.661zm10.9-3.294V567h-1.848v-18.777h-4.898v-1.762h11.645v1.762h-4.899zM247.457 567v-9.382h-7.863V567h-1.848v-20.539h1.848v9.396h7.863v-9.396h1.848V567h-1.848zm17.818-4.755c0 .697-.134 1.351-.401 1.962a4.976 4.976 0 01-1.075 1.604 5.181 5.181 0 01-1.604 1.089 4.99 4.99 0 01-1.962.386h-1.461a5.092 5.092 0 01-1.976-.386 5.186 5.186 0 01-1.605-1.089 5.178 5.178 0 01-1.088-1.604 4.991 4.991 0 01-.387-1.962v-11.029c0-.697.129-1.351.387-1.962a5.178 5.178 0 011.088-1.604 4.962 4.962 0 011.605-1.074 4.928 4.928 0 011.976-.402h1.461a4.83 4.83 0 011.962.402 4.976 4.976 0 012.679 2.678c.267.611.401 1.265.401 1.962v11.029zm-1.848-11.029c0-.458-.086-.883-.258-1.275a3.301 3.301 0 00-.702-1.045 3.301 3.301 0 00-1.045-.702 3.138 3.138 0 00-1.275-.258h-1.289c-.458 0-.888.086-1.289.258-.391.172-.74.406-1.046.702-.296.296-.53.644-.701 1.045a3.138 3.138 0 00-.258 1.275v11.029c0 .458.086.888.258 1.289.171.391.405.74.701 1.045.306.296.655.53 1.046.702.401.172.831.258 1.289.258h1.289c.458 0 .883-.086 1.275-.258a3.301 3.301 0 001.045-.702 3.53 3.53 0 00.702-1.045c.172-.401.258-.831.258-1.289v-11.029zm17.818 10.742c0 .697-.134 1.351-.401 1.963a5 5 0 01-1.074 1.604 5.142 5.142 0 01-1.619 1.088 4.991 4.991 0 01-1.962.387h-6.503v-20.539h6.503c.697 0 1.351.134 1.962.401.621.258 1.16.616 1.619 1.074.458.459.816.998 1.074 1.619.267.611.401 1.265.401 1.962v10.441zm-1.848-10.441c0-.458-.086-.883-.258-1.275a3.18 3.18 0 00-.716-1.045 3.183 3.183 0 00-1.045-.717 3.154 3.154 0 00-1.275-.257h-4.569v17.015h4.569c.458 0 .883-.086 1.275-.258a3.282 3.282 0 001.045-.701c.306-.296.544-.64.716-1.032.172-.401.258-.83.258-1.289v-10.441zm17.503 10.728c0 .697-.134 1.351-.401 1.962a4.976 4.976 0 01-1.075 1.604 5.181 5.181 0 01-1.604 1.089 4.99 4.99 0 01-1.962.386h-1.461a5.092 5.092 0 01-1.976-.386 5.186 5.186 0 01-1.605-1.089 5.178 5.178 0 01-1.088-1.604 4.991 4.991 0 01-.387-1.962v-11.029c0-.697.129-1.351.387-1.962a5.178 5.178 0 011.088-1.604 4.962 4.962 0 011.605-1.074 4.928 4.928 0 011.976-.402h1.461a4.83 4.83 0 011.962.402 4.976 4.976 0 012.679 2.678c.267.611.401 1.265.401 1.962v11.029zm-1.848-11.029c0-.458-.086-.883-.258-1.275a3.301 3.301 0 00-.702-1.045 3.301 3.301 0 00-1.045-.702 3.138 3.138 0 00-1.275-.258h-1.289c-.458 0-.888.086-1.289.258-.391.172-.74.406-1.046.702-.296.296-.53.644-.701 1.045a3.138 3.138 0 00-.258 1.275v11.029c0 .458.086.888.258 1.289.171.391.405.74.701 1.045.306.296.655.53 1.046.702.401.172.831.258 1.289.258h1.289c.458 0 .883-.086 1.275-.258a3.301 3.301 0 001.045-.702 3.53 3.53 0 00.702-1.045c.172-.401.258-.831.258-1.289v-11.029zM311.896 567l-8.565-14.953-.172-.888V567h-1.848v-20.539h.96l8.565 14.967.186.874v-15.841h1.848V567h-.974zm10.67-18.777V567h-1.847v-18.777h-4.899v-1.762h11.645v1.762h-4.899zM330.415 567v-20.539h1.848V567h-1.848zm6.56 0v-20.539h11.559v1.762h-9.711v7.634h7.863v1.761h-7.863v7.62h9.711V567h-11.559zm-201.638 31.958c0 .697-.133 1.351-.401 1.963a5 5 0 01-1.074 1.604 5.13 5.13 0 01-1.619 1.088 4.991 4.991 0 01-1.962.387h-6.502v-20.539h6.502c.697 0 1.351.134 1.962.401a4.948 4.948 0 011.619 1.074c.458.459.816.998 1.074 1.619a4.83 4.83 0 01.401 1.962v10.441zm-1.847-10.441c0-.458-.086-.883-.258-1.275a3.195 3.195 0 00-.716-1.045 3.187 3.187 0 00-1.046-.717 3.147 3.147 0 00-1.275-.257h-4.569v17.015h4.569c.459 0 .884-.086 1.275-.258.401-.171.75-.405 1.046-.701.305-.296.544-.64.716-1.032.172-.401.258-.83.258-1.289v-10.441zM139.734 604v-20.539h11.559v1.762h-9.711v7.634h7.863v1.761h-7.863v7.62h9.711V604h-11.559zm34.504 0v-14.079l-.129.873L169.34 604h-.974l-4.813-13.206-.114-.873V604h-1.848v-20.539h.96l6.23 16.844.058.759.057-.759 6.216-16.844h.974V604h-1.848zm17.804-4.755c0 .697-.134 1.351-.401 1.962a4.976 4.976 0 01-1.075 1.604 5.181 5.181 0 01-1.604 1.089 4.99 4.99 0 01-1.962.386h-1.461a5.092 5.092 0 01-1.976-.386 5.186 5.186 0 01-1.605-1.089 5.178 5.178 0 01-1.088-1.604 4.991 4.991 0 01-.387-1.962v-11.029c0-.697.129-1.351.387-1.962a5.178 5.178 0 011.088-1.604 4.962 4.962 0 011.605-1.074 4.928 4.928 0 011.976-.402H187a4.83 4.83 0 011.962.402 4.976 4.976 0 012.679 2.678c.267.611.401 1.265.401 1.962v11.029zm-1.848-11.029c0-.458-.086-.883-.258-1.275a3.301 3.301 0 00-.702-1.045 3.301 3.301 0 00-1.045-.702 3.138 3.138 0 00-1.275-.258h-1.289c-.458 0-.888.086-1.289.258-.392.172-.74.406-1.046.702-.296.296-.53.644-.701 1.045a3.138 3.138 0 00-.258 1.275v11.029c0 .458.086.888.258 1.289.171.391.405.74.701 1.045.306.296.654.53 1.046.702.401.172.831.258 1.289.258h1.289c.458 0 .883-.086 1.275-.258a3.301 3.301 0 001.045-.702 3.53 3.53 0 00.702-1.045c.172-.401.258-.831.258-1.289v-11.029zM207.038 604l-8.565-14.953-.172-.888V604h-1.848v-20.539h.96l8.565 14.967.186.874v-15.841h1.848V604h-.974zm10.67-18.777V604h-1.847v-18.777h-4.899v-1.762h11.645v1.762h-4.899zm14.667 13.993h-6.503L224.526 604h-1.919l6.015-20.539h.974L235.641 604h-1.905l-1.361-4.784zm-6.001-1.762h5.514l-2.707-9.467-.057-.759-.058.759-2.692 9.467zm23.16 1.791c0 .697-.134 1.351-.401 1.962a4.99 4.99 0 01-1.074 1.604 5.186 5.186 0 01-1.605 1.089 4.99 4.99 0 01-1.962.386h-1.461a5.092 5.092 0 01-1.976-.386 5.164 5.164 0 01-2.693-2.693 4.991 4.991 0 01-.387-1.962v-15.784h1.848v15.784c0 .458.086.888.258 1.289.172.391.406.74.702 1.045.305.296.654.53 1.045.702.401.172.831.258 1.289.258h1.289c.459 0 .884-.086 1.275-.258.401-.172.75-.406 1.046-.702.296-.305.53-.654.701-1.045.172-.401.258-.831.258-1.289v-15.784h1.848v15.784zm15.97-.287c0 .697-.134 1.351-.401 1.963a5 5 0 01-1.074 1.604 5.142 5.142 0 01-1.619 1.088 4.991 4.991 0 01-1.962.387h-6.503v-20.539h6.503c.697 0 1.351.134 1.962.401.621.258 1.16.616 1.619 1.074.458.459.816.998 1.074 1.619.267.611.401 1.265.401 1.962v.2c0 .487-.067.955-.201 1.404-.124.439-.305.85-.544 1.232-.239.382-.52.73-.845 1.045a4.883 4.883 0 01-1.088.774c.401.21.763.473 1.088.788a5 5 0 01.845 1.045 4.7 4.7 0 01.544 1.246c.134.44.201.903.201 1.39v1.317zm-1.848-1.618c0-.458-.086-.883-.258-1.275a3.165 3.165 0 00-.716-1.045 3.301 3.301 0 00-1.045-.702 3.138 3.138 0 00-1.275-.258h-4.569v8.178h4.569c.458 0 .883-.086 1.275-.258a3.282 3.282 0 001.045-.701c.306-.296.545-.64.716-1.032.172-.401.258-.83.258-1.289v-1.618zm0-8.823c0-.458-.086-.883-.258-1.275a3.165 3.165 0 00-.716-1.045 3.183 3.183 0 00-1.045-.717 3.154 3.154 0 00-1.275-.257h-4.569v7.075h4.569c.458 0 .883-.086 1.275-.258a3.299 3.299 0 001.045-.701 3.39 3.39 0 00.716-1.046c.172-.401.258-.831.258-1.289v-.487zm13.091 10.699h-6.502L268.898 604h-1.919l6.016-20.539h.974L280.013 604h-1.905l-1.361-4.784zm-6.001-1.762h5.514l-2.707-9.467-.057-.759-.057.759-2.693 9.467zM293.233 604l-8.565-14.953-.172-.888V604h-1.848v-20.539h.96l8.565 14.967.186.874v-15.841h1.848V604h-.974z" fill="#C8B369"/><path d="M345 339.5c0 78.148-60.889 141.5-136 141.5-75.111 0-136-63.352-136-141.5S133.889 198 209 198c75.111 0 136 63.352 136 141.5z" stroke="#C8B268" stroke-width="3" stroke-miterlimit="10"/><path d="M140.612 304.189l-5.405-37.668s-1.03-3.747 1.932-3.229c2.963.515 43.02 6.202 43.02 6.202s3.631.387 3.427 3.36c-.207 2.973-1.236 27.396-17.079 31.919-6.441 1.809-12.495-3.49-12.752-6.333-.257-2.842 25.632-6.848 34.519 17.446 7.857 24.424 8.501 35.666 8.501 35.666s.645 1.939-1.546 1.809c-2.19-.129-11.076-6.202 1.16-9.82l7.212-.258s6.312-.13 6.312 4.522-3.477 5.556-5.409 5.427c-1.933-.128-1.16-2.371-1.16-2.371s2.189-54.746 1.417-56.814c.129-2.714 1.031-3.619 3.349-3.489 2.705.129 28.723 2.843 29.367 3.359.644.518 3.478.259 2.448 3.619-1.031 3.36-7.987 22.226-27.952 13.311-3.09-1.552 4.123-4.523 5.538-4.653 1.805-.388 10.306-2.326 20.352 2.068 10.047 4.393 8.244 3.876 8.244 3.876s2.318.906 2.962-3.359c.644-4.264 3.736-24.553 3.478-26.75-.258-2.197 1.031-2.713-3.735-4.393-4.766-1.68-79.987-30.499-91.322-37.088-2.576-1.034-5.41-1.81-5.41.645s1.111 24.586 1.111 24.586m-12.142 41.457l-.437-3.047" stroke="#C7B169" stroke-width="2.667" stroke-miterlimit="10" stroke-linecap="round" stroke-linejoin="round"/><path d="M141.648 353.006l-1.883 84.498s-.559 2.56-1.596.889c-.776-1.255.902-16.929 18.291-20.678 17.389-3.746 35.034-4.36 44.18 6.592 10.174 12.018 6.826 13.052 5.796 12.275-1.031-.774-23.571-25.521-25.89-28.556-1.427-1.87-5.925-15.379 8.63-14.216-4.122-3.361-21.252-6.72-35.164-22.486-13.911-15.765-26.018-47.813-26.018-47.813s-.901-1.422.902-1.68c1.803-.259 29.753-5.17 38.125-4.136 7.857 1.422 16.487 20.547 7.213 32.307-3.477 4.265-21.768 6.72-23.313 2.068-1.273-3.833-6.084-24.708-7.786-32.149m-2.157-11.94c2.041-4.282 5.989-8.503 13.511-10.439m-15.477 22.674s-.922-6.177 1.966-12.234" stroke="#C7B169" stroke-width="2.667" stroke-miterlimit="10" stroke-linecap="round" stroke-linejoin="round"/><path d="M187.757 392.893c1.83.989 2.919 1.334 4.842 1.555 4.83.555 9.208-4.714 9.208-9.591 0-4.879-3.9-9.221-8.762-9.221" stroke="#C7B169" stroke-width="2.667" stroke-miterlimit="10" stroke-linecap="round" stroke-linejoin="round"/><path d="M180.047 364.104s6.086-4.749 6.328-5.04c.241-.29.966-1.066 2.319 0 1.352 1.065 4.974 4.603 10.335.291 1.354-.836 1.739-.727 2.174-.291.435.436 7.343 5.96 7.343 5.96s1.737.873.627 3.198c-1.111 2.327-15.843 15.508-30.14 0-1.981-2.229 1.014-4.118 1.014-4.118zm-1.376 1.962l30.55.17" stroke="#C7B169" stroke-width="2.667" stroke-miterlimit="10" stroke-linecap="round" stroke-linejoin="round"/><path d="M243.669 354.172v-10.559l-.096.655-3.578 9.904h-.73l-3.609-9.904-.086-.655v10.559h-1.386v-15.404h.72l4.672 12.633.043.569.043-.569 4.662-12.633h.731v15.404h-1.386zm10.689-3.588h-4.877l-1.01 3.588h-1.44l4.512-15.404h.731l4.533 15.404h-1.429l-1.02-3.588zm-4.501-1.321h4.135l-2.03-7.1-.043-.57-.043.57-2.019 7.1zm17.37 4.909h-.441l-.805-1.235a3.873 3.873 0 01-1.225 1.063 3.324 3.324 0 01-1.6.387h-.806a3.836 3.836 0 01-1.483-.29 3.897 3.897 0 01-1.203-.816 3.897 3.897 0 01-.816-1.203 3.757 3.757 0 01-.29-1.472v-8.272c0-.522.097-1.013.29-1.471.2-.459.473-.86.816-1.203a3.735 3.735 0 011.203-.806c.466-.201.96-.301 1.483-.301h1.096c.522 0 1.013.1 1.471.301.459.193.86.462 1.203.806.344.343.613.744.806 1.203.201.458.301.949.301 1.471v.623l-1.386.215v-.838c0-.343-.064-.662-.193-.956a2.487 2.487 0 00-.527-.784 2.473 2.473 0 00-.784-.526 2.347 2.347 0 00-.956-.194h-.967c-.343 0-.666.065-.966.194a2.645 2.645 0 00-.785.526 2.484 2.484 0 00-.526.784 2.354 2.354 0 00-.193.956v8.272c0 .344.064.666.193.967.129.293.304.555.526.784.229.222.491.397.785.526.3.129.623.194.966.194h.967c.344 0 .663-.065.956-.194.301-.129.562-.304.784-.526.222-.229.398-.491.527-.784.129-.301.193-.623.193-.967v-3.212h-2.46v-1.321h3.846v8.099zm9.088-3.588h-4.877l-1.01 3.588h-1.439l4.511-15.404h.731l4.533 15.404h-1.429l-1.02-3.588zm-4.501-1.321h4.135l-2.03-7.1-.043-.57-.043.57-2.019 7.1zm8.701 4.909v-15.404h1.386v14.083h5.897v1.321h-7.283zm9.26 0v-15.404h1.385v14.083h5.898v1.321h-7.283zm17.928-3.566c0 .523-.1 1.013-.3 1.472a3.752 3.752 0 01-.806 1.203 3.897 3.897 0 01-1.203.816c-.459.193-.949.29-1.472.29h-1.096a3.831 3.831 0 01-1.482-.29 3.897 3.897 0 01-1.203-.816 3.9 3.9 0 01-.817-1.203 3.757 3.757 0 01-.29-1.472v-8.272c0-.522.097-1.013.29-1.471.201-.459.473-.86.817-1.203a3.735 3.735 0 011.203-.806c.465-.201.96-.301 1.482-.301h1.096c.523 0 1.013.1 1.472.301a3.735 3.735 0 012.009 2.009c.2.458.3.949.3 1.471v8.272zm-1.385-8.272a2.484 2.484 0 00-.72-1.74 2.473 2.473 0 00-1.74-.72h-.967c-.344 0-.666.065-.967.194a2.64 2.64 0 00-.784.526 2.468 2.468 0 00-.526.784 2.354 2.354 0 00-.194.956v8.272c0 .344.065.666.194.967.128.293.304.555.526.784.229.222.49.397.784.526.301.129.623.194.967.194h.967a2.473 2.473 0 001.74-.72c.222-.229.397-.491.526-.784.129-.301.194-.623.194-.967v-8.272zm-62.649 39.838v-10.559l-.096.655-3.578 9.904h-.73l-3.609-9.904-.086-.655v10.559h-1.386v-15.404h.72l4.672 12.633.043.569.043-.569 4.662-12.633h.731v15.404h-1.386zm4.909 0v-15.404h1.386v15.404h-1.386zm4.695 0v-15.404h1.385v14.083h5.898v1.321h-7.283zm16.768 0v-7.036h-5.897v7.036h-1.386v-15.404h1.386v7.047h5.897v-7.047h1.386v15.404h-1.386zm4.92 0v-15.404h8.669v1.321h-7.283v5.726h5.897v1.321h-5.897v5.715h7.283v1.321h-8.669zm17.102-3.588h-4.877l-1.01 3.588h-1.439l4.511-15.404h.731l4.533 15.404h-1.429l-1.02-3.588zm-4.501-1.321h4.136l-2.031-7.1-.043-.57-.043.57-2.019 7.1zm17.37 1.343c0 .523-.1 1.013-.301 1.472a3.735 3.735 0 01-.806 1.203 3.873 3.873 0 01-1.203.816c-.458.193-.949.29-1.471.29h-1.096a3.828 3.828 0 01-1.482-.29 3.89 3.89 0 01-1.204-.816 3.897 3.897 0 01-.816-1.203 3.757 3.757 0 01-.29-1.472v-11.838h1.386v11.838c0 .344.064.666.193.967.129.293.304.555.526.784.23.222.491.397.785.526.3.129.623.194.966.194h.967c.344 0 .663-.065.956-.194.301-.129.562-.304.784-.526.222-.229.398-.491.527-.784.129-.301.193-.623.193-.967v-11.838h1.386v11.838zm-62.079 21.866c0 .523-.1 1.013-.301 1.472a3.735 3.735 0 01-.806 1.203 3.826 3.826 0 01-1.214.816 3.73 3.73 0 01-1.471.29h-3.491v5.919h-1.386v-15.404h4.877c.523 0 1.013.1 1.471.301a3.7 3.7 0 011.214.805c.344.344.613.749.806 1.214.201.459.301.949.301 1.472v1.912zm-1.386-1.912a2.35 2.35 0 00-.193-.956 2.391 2.391 0 00-.537-.784 2.395 2.395 0 00-.785-.537 2.347 2.347 0 00-.956-.194h-3.426v6.843h3.426a2.48 2.48 0 001.741-.72 2.42 2.42 0 00.537-.773c.129-.301.193-.623.193-.967v-1.912zm11.279 11.612l-4.178-6.574h-1.902v6.574h-1.385v-15.404h4.887c.523 0 1.014.1 1.472.301.458.193.859.462 1.203.805.344.344.612.749.806 1.214.2.459.3.949.3 1.472v1.246c0 .523-.1 1.017-.3 1.483a3.752 3.752 0 01-.806 1.203 3.897 3.897 0 01-1.203.816c-.458.193-.949.29-1.472.29l4.179 6.574h-1.601zm-.182-11.612a2.35 2.35 0 00-.194-.956 2.473 2.473 0 00-.526-.784 2.391 2.391 0 00-.784-.537 2.35 2.35 0 00-.956-.194h-3.438v6.188h3.438c.344 0 .662-.065.956-.194.301-.128.562-.304.784-.526a2.64 2.64 0 00.526-.784c.129-.301.194-.623.194-.967v-1.246zM257 410.172v-15.404h1.386v15.404H257zm4.92 0v-15.404h8.669v1.321h-7.283v5.726h5.897v1.321h-5.897v5.715h7.283v1.321h-8.669zm19.766-3.566c0 .523-.1 1.013-.301 1.472a3.735 3.735 0 01-.806 1.203 3.873 3.873 0 01-1.203.816c-.458.193-.949.29-1.471.29h-1.096a3.836 3.836 0 01-1.483-.29 3.897 3.897 0 01-1.203-.816 3.897 3.897 0 01-.816-1.203 3.757 3.757 0 01-.29-1.472v-11.838h1.386v11.838c0 .344.064.666.193.967.129.293.304.555.526.784.229.222.491.397.784.526.301.129.624.194.967.194h.967c.344 0 .663-.065.956-.194.301-.129.562-.304.784-.526.222-.229.398-.491.527-.784.129-.301.193-.623.193-.967v-11.838h1.386v11.838zm10.549 3.566l-4.179-6.574h-1.901v6.574h-1.386v-15.404h4.887c.523 0 1.014.1 1.472.301a3.708 3.708 0 012.009 2.019c.2.459.301.949.301 1.472v1.246a3.72 3.72 0 01-.301 1.483 3.735 3.735 0 01-.806 1.203 3.873 3.873 0 01-1.203.816c-.458.193-.949.29-1.472.29l4.179 6.574h-1.6zm-.183-11.612a2.476 2.476 0 00-.72-1.74 2.391 2.391 0 00-.784-.537 2.35 2.35 0 00-.956-.194h-3.437v6.188h3.437c.344 0 .662-.065.956-.194.301-.128.562-.304.784-.526.222-.229.398-.49.527-.784.129-.301.193-.623.193-.967v-1.246z" fill="#C8B369"/></g><defs><clipPath id="clip0"><path fill="#fff" d="M0 0h411v823H0z"/></clipPath></defs></svg>