<svg width="411" height="823" viewBox="0 0 411 823" fill="none" xmlns="http://www.w3.org/2000/svg">
<g clip-path="url(#clip0)">
<rect width="411" height="823" fill="white"/>
<path d="M159.012 -0.509093L474.185 105.479L491.526 0.705293L159.012 -0.509093Z" fill="#BEAC6C"/>
<path d="M276.803 -12.5091L-38.3693 93.4786L-55.7109 -11.2947L276.803 -12.5091Z" fill="#173444"/>
<path d="M201 13L241.703 -0.5H160.297L201 13Z" fill="#5A725C"/>
<path d="M153.012 824.959L468.185 718.971L485.526 823.745L153.012 824.959Z" fill="#173444"/>
<path d="M297.803 833.959L-17.3693 727.971L-34.7109 832.745L297.803 833.959Z" fill="#BEAC6C"/>
<path d="M212 805L274.354 826H149.646L212 805Z" fill="#5A725C"/>
<path d="M81.8841 562.245C81.8841 562.942 81.7504 563.596 81.4831 564.207C81.2253 564.818 80.8672 565.353 80.4089 565.811C79.9505 566.27 79.4158 566.632 78.8047 566.9C78.1936 567.158 77.5395 567.286 76.8424 567.286H75.3815C74.6845 567.286 74.0256 567.158 73.4049 566.9C72.7938 566.632 72.2591 566.27 71.8008 565.811C71.3424 565.353 70.9796 564.818 70.7122 564.207C70.4544 563.596 70.3255 562.942 70.3255 562.245V551.216C70.3255 550.519 70.4544 549.865 70.7122 549.254C70.9796 548.643 71.3424 548.108 71.8008 547.65C72.2591 547.191 72.7938 546.833 73.4049 546.576C74.0256 546.308 74.6845 546.174 75.3815 546.174H76.8424C77.5395 546.174 78.1936 546.308 78.8047 546.576C79.4158 546.833 79.9505 547.191 80.4089 547.65C80.8672 548.108 81.2253 548.643 81.4831 549.254C81.7504 549.865 81.8841 550.519 81.8841 551.216V552.047L80.0365 552.333V551.216C80.0365 550.758 79.9505 550.333 79.7786 549.941C79.6068 549.54 79.3728 549.192 79.0768 548.896C78.7808 548.6 78.4323 548.366 78.0312 548.194C77.6398 548.022 77.2148 547.936 76.7565 547.936H75.4674C75.0091 547.936 74.5794 548.022 74.1784 548.194C73.7869 548.366 73.4384 548.6 73.1328 548.896C72.8368 549.192 72.6029 549.54 72.431 549.941C72.2591 550.333 72.1732 550.758 72.1732 551.216V562.245C72.1732 562.703 72.2591 563.133 72.431 563.534C72.6029 563.925 72.8368 564.274 73.1328 564.579C73.4384 564.875 73.7869 565.109 74.1784 565.281C74.5794 565.453 75.0091 565.539 75.4674 565.539H76.7565C77.2148 565.539 77.6398 565.453 78.0312 565.281C78.4323 565.109 78.7808 564.875 79.0768 564.579C79.3728 564.274 79.6068 563.925 79.7786 563.534C79.9505 563.133 80.0365 562.703 80.0365 562.245V561.128L81.8841 561.428V562.245ZM93.7148 562.216H87.2122L85.8659 567H83.9466L89.9622 546.461H90.9362L96.9805 567H95.0755L93.7148 562.216ZM87.7135 560.454H93.2279L90.5208 550.987L90.4635 550.228L90.4062 550.987L87.7135 560.454ZM111.174 561.958C111.174 562.655 111.041 563.309 110.773 563.921C110.516 564.532 110.158 565.066 109.699 565.525C109.241 565.983 108.701 566.346 108.081 566.613C107.47 566.871 106.816 567 106.118 567H99.6159V546.461H106.118C106.816 546.461 107.47 546.595 108.081 546.862C108.701 547.12 109.241 547.478 109.699 547.936C110.158 548.395 110.516 548.934 110.773 549.555C111.041 550.166 111.174 550.82 111.174 551.517V551.717C111.174 552.204 111.108 552.672 110.974 553.121C110.85 553.56 110.668 553.971 110.43 554.353C110.191 554.735 109.909 555.083 109.585 555.398C109.26 555.704 108.897 555.962 108.496 556.172C108.897 556.382 109.26 556.645 109.585 556.96C109.909 557.265 110.191 557.614 110.43 558.005C110.668 558.387 110.85 558.803 110.974 559.251C111.108 559.691 111.174 560.154 111.174 560.641V561.958ZM109.327 560.34C109.327 559.882 109.241 559.457 109.069 559.065C108.897 558.664 108.658 558.316 108.353 558.02C108.057 557.724 107.708 557.49 107.307 557.318C106.916 557.146 106.491 557.06 106.033 557.06H101.464V565.238H106.033C106.491 565.238 106.916 565.152 107.307 564.98C107.708 564.809 108.057 564.575 108.353 564.279C108.658 563.983 108.897 563.639 109.069 563.247C109.241 562.846 109.327 562.417 109.327 561.958V560.34ZM109.327 551.517C109.327 551.059 109.241 550.634 109.069 550.242C108.897 549.841 108.658 549.493 108.353 549.197C108.057 548.891 107.708 548.652 107.307 548.48C106.916 548.309 106.491 548.223 106.033 548.223H101.464V555.298H106.033C106.491 555.298 106.916 555.212 107.307 555.04C107.708 554.868 108.057 554.635 108.353 554.339C108.658 554.033 108.897 553.684 109.069 553.293C109.241 552.892 109.327 552.462 109.327 552.004V551.517ZM114.712 567V546.461H116.56V567H114.712ZM131.857 567L123.292 552.047L123.12 551.159V567H121.272V546.461H122.232L130.797 561.428L130.983 562.302V546.461H132.831V567H131.857ZM137.543 567V546.461H149.102V548.223H139.391V555.857H147.254V557.618H139.391V565.238H149.102V567H137.543ZM157.624 548.223V567H155.776V548.223H150.878V546.461H162.522V548.223H157.624ZM183.792 561.958C183.792 562.655 183.658 563.309 183.391 563.921C183.133 564.532 182.775 565.066 182.316 565.525C181.858 565.983 181.319 566.346 180.698 566.613C180.087 566.871 179.433 567 178.736 567H172.233V546.461H178.736C179.433 546.461 180.087 546.595 180.698 546.862C181.319 547.12 181.858 547.478 182.316 547.936C182.775 548.395 183.133 548.934 183.391 549.555C183.658 550.166 183.792 550.82 183.792 551.517V561.958ZM181.944 551.517C181.944 551.059 181.858 550.634 181.686 550.242C181.514 549.841 181.276 549.493 180.97 549.197C180.674 548.891 180.326 548.652 179.924 548.48C179.533 548.309 179.108 548.223 178.65 548.223H174.081V565.238H178.65C179.108 565.238 179.533 565.152 179.924 564.98C180.326 564.809 180.674 564.575 180.97 564.279C181.276 563.983 181.514 563.639 181.686 563.247C181.858 562.846 181.944 562.417 181.944 561.958V551.517ZM188.633 552.777H187.888V546.461H190.094L188.633 552.777ZM205.176 562.245C205.176 562.942 205.042 563.596 204.775 564.207C204.517 564.818 204.159 565.353 203.701 565.811C203.242 566.27 202.707 566.632 202.096 566.9C201.485 567.158 200.831 567.286 200.134 567.286H198.673C197.976 567.286 197.317 567.158 196.697 566.9C196.085 566.632 195.551 566.27 195.092 565.811C194.634 565.353 194.271 564.818 194.004 564.207C193.746 563.596 193.617 562.942 193.617 562.245V551.216C193.617 550.519 193.746 549.865 194.004 549.254C194.271 548.643 194.634 548.108 195.092 547.65C195.551 547.191 196.085 546.833 196.697 546.576C197.317 546.308 197.976 546.174 198.673 546.174H200.134C200.831 546.174 201.485 546.308 202.096 546.576C202.707 546.833 203.242 547.191 203.701 547.65C204.159 548.108 204.517 548.643 204.775 549.254C205.042 549.865 205.176 550.519 205.176 551.216V562.245ZM203.328 551.216C203.328 550.758 203.242 550.333 203.07 549.941C202.898 549.54 202.664 549.192 202.368 548.896C202.072 548.6 201.724 548.366 201.323 548.194C200.931 548.022 200.506 547.936 200.048 547.936H198.759C198.301 547.936 197.871 548.022 197.47 548.194C197.079 548.366 196.73 548.6 196.424 548.896C196.128 549.192 195.895 549.54 195.723 549.941C195.551 550.333 195.465 550.758 195.465 551.216V562.245C195.465 562.703 195.551 563.133 195.723 563.534C195.895 563.925 196.128 564.274 196.424 564.579C196.73 564.875 197.079 565.109 197.47 565.281C197.871 565.453 198.301 565.539 198.759 565.539H200.048C200.506 565.539 200.931 565.453 201.323 565.281C201.724 565.109 202.072 564.875 202.368 564.579C202.664 564.274 202.898 563.925 203.07 563.534C203.242 563.133 203.328 562.703 203.328 562.245V551.216ZM219.241 567L213.669 558.234H211.134V567H209.286V546.461H215.803C216.5 546.461 217.155 546.595 217.766 546.862C218.377 547.12 218.911 547.478 219.37 547.936C219.828 548.395 220.186 548.934 220.444 549.555C220.711 550.166 220.845 550.82 220.845 551.517V553.178C220.845 553.875 220.711 554.534 220.444 555.155C220.186 555.766 219.828 556.301 219.37 556.759C218.911 557.217 218.377 557.58 217.766 557.848C217.155 558.105 216.5 558.234 215.803 558.234L221.375 567H219.241ZM218.997 551.517C218.997 551.059 218.911 550.634 218.74 550.242C218.568 549.841 218.334 549.493 218.038 549.197C217.742 548.891 217.393 548.652 216.992 548.48C216.601 548.309 216.176 548.223 215.717 548.223H211.134V556.473H215.717C216.176 556.473 216.601 556.387 216.992 556.215C217.393 556.043 217.742 555.809 218.038 555.513C218.334 555.207 218.568 554.859 218.74 554.467C218.911 554.066 218.997 553.637 218.997 553.178V551.517ZM229.897 548.223V567H228.049V548.223H223.151V546.461H234.796V548.223H229.897ZM247.457 567V557.618H239.594V567H237.746V546.461H239.594V555.857H247.457V546.461H249.305V567H247.457ZM265.275 562.245C265.275 562.942 265.141 563.596 264.874 564.207C264.616 564.818 264.258 565.353 263.799 565.811C263.341 566.27 262.806 566.632 262.195 566.9C261.584 567.158 260.93 567.286 260.233 567.286H258.772C258.075 567.286 257.416 567.158 256.796 566.9C256.184 566.632 255.65 566.27 255.191 565.811C254.733 565.353 254.37 564.818 254.103 564.207C253.845 563.596 253.716 562.942 253.716 562.245V551.216C253.716 550.519 253.845 549.865 254.103 549.254C254.37 548.643 254.733 548.108 255.191 547.65C255.65 547.191 256.184 546.833 256.796 546.576C257.416 546.308 258.075 546.174 258.772 546.174H260.233C260.93 546.174 261.584 546.308 262.195 546.576C262.806 546.833 263.341 547.191 263.799 547.65C264.258 548.108 264.616 548.643 264.874 549.254C265.141 549.865 265.275 550.519 265.275 551.216V562.245ZM263.427 551.216C263.427 550.758 263.341 550.333 263.169 549.941C262.997 549.54 262.763 549.192 262.467 548.896C262.171 548.6 261.823 548.366 261.422 548.194C261.03 548.022 260.605 547.936 260.147 547.936H258.858C258.4 547.936 257.97 548.022 257.569 548.194C257.178 548.366 256.829 548.6 256.523 548.896C256.227 549.192 255.993 549.54 255.822 549.941C255.65 550.333 255.564 550.758 255.564 551.216V562.245C255.564 562.703 255.65 563.133 255.822 563.534C255.993 563.925 256.227 564.274 256.523 564.579C256.829 564.875 257.178 565.109 257.569 565.281C257.97 565.453 258.4 565.539 258.858 565.539H260.147C260.605 565.539 261.03 565.453 261.422 565.281C261.823 565.109 262.171 564.875 262.467 564.579C262.763 564.274 262.997 563.925 263.169 563.534C263.341 563.133 263.427 562.703 263.427 562.245V551.216ZM281.245 561.958C281.245 562.655 281.111 563.309 280.844 563.921C280.586 564.532 280.228 565.066 279.77 565.525C279.311 565.983 278.772 566.346 278.151 566.613C277.54 566.871 276.886 567 276.189 567H269.686V546.461H276.189C276.886 546.461 277.54 546.595 278.151 546.862C278.772 547.12 279.311 547.478 279.77 547.936C280.228 548.395 280.586 548.934 280.844 549.555C281.111 550.166 281.245 550.82 281.245 551.517V561.958ZM279.397 551.517C279.397 551.059 279.311 550.634 279.139 550.242C278.967 549.841 278.729 549.493 278.423 549.197C278.127 548.891 277.779 548.652 277.378 548.48C276.986 548.309 276.561 548.223 276.103 548.223H271.534V565.238H276.103C276.561 565.238 276.986 565.152 277.378 564.98C277.779 564.809 278.127 564.575 278.423 564.279C278.729 563.983 278.967 563.639 279.139 563.247C279.311 562.846 279.397 562.417 279.397 561.958V551.517ZM296.9 562.245C296.9 562.942 296.766 563.596 296.499 564.207C296.241 564.818 295.883 565.353 295.424 565.811C294.966 566.27 294.431 566.632 293.82 566.9C293.209 567.158 292.555 567.286 291.858 567.286H290.397C289.7 567.286 289.041 567.158 288.421 566.9C287.809 566.632 287.275 566.27 286.816 565.811C286.358 565.353 285.995 564.818 285.728 564.207C285.47 563.596 285.341 562.942 285.341 562.245V551.216C285.341 550.519 285.47 549.865 285.728 549.254C285.995 548.643 286.358 548.108 286.816 547.65C287.275 547.191 287.809 546.833 288.421 546.576C289.041 546.308 289.7 546.174 290.397 546.174H291.858C292.555 546.174 293.209 546.308 293.82 546.576C294.431 546.833 294.966 547.191 295.424 547.65C295.883 548.108 296.241 548.643 296.499 549.254C296.766 549.865 296.9 550.519 296.9 551.216V562.245ZM295.052 551.216C295.052 550.758 294.966 550.333 294.794 549.941C294.622 549.54 294.388 549.192 294.092 548.896C293.796 548.6 293.448 548.366 293.047 548.194C292.655 548.022 292.23 547.936 291.772 547.936H290.483C290.025 547.936 289.595 548.022 289.194 548.194C288.803 548.366 288.454 548.6 288.148 548.896C287.852 549.192 287.618 549.54 287.447 549.941C287.275 550.333 287.189 550.758 287.189 551.216V562.245C287.189 562.703 287.275 563.133 287.447 563.534C287.618 563.925 287.852 564.274 288.148 564.579C288.454 564.875 288.803 565.109 289.194 565.281C289.595 565.453 290.025 565.539 290.483 565.539H291.772C292.23 565.539 292.655 565.453 293.047 565.281C293.448 565.109 293.796 564.875 294.092 564.579C294.388 564.274 294.622 563.925 294.794 563.534C294.966 563.133 295.052 562.703 295.052 562.245V551.216ZM311.896 567L303.331 552.047L303.159 551.159V567H301.311V546.461H302.271L310.836 561.428L311.022 562.302V546.461H312.87V567H311.896ZM322.566 548.223V567H320.719V548.223H315.82V546.461H327.465V548.223H322.566ZM330.415 567V546.461H332.263V567H330.415ZM336.975 567V546.461H348.534V548.223H338.823V555.857H346.686V557.618H338.823V565.238H348.534V567H336.975ZM135.337 598.958C135.337 599.655 135.204 600.309 134.936 600.921C134.678 601.532 134.32 602.066 133.862 602.525C133.404 602.983 132.864 603.346 132.243 603.613C131.632 603.871 130.978 604 130.281 604H123.779V583.461H130.281C130.978 583.461 131.632 583.595 132.243 583.862C132.864 584.12 133.404 584.478 133.862 584.936C134.32 585.395 134.678 585.934 134.936 586.555C135.204 587.166 135.337 587.82 135.337 588.517V598.958ZM133.49 588.517C133.49 588.059 133.404 587.634 133.232 587.242C133.06 586.841 132.821 586.493 132.516 586.197C132.22 585.891 131.871 585.652 131.47 585.48C131.079 585.309 130.654 585.223 130.195 585.223H125.626V602.238H130.195C130.654 602.238 131.079 602.152 131.47 601.98C131.871 601.809 132.22 601.575 132.516 601.279C132.821 600.983 133.06 600.639 133.232 600.247C133.404 599.846 133.49 599.417 133.49 598.958V588.517ZM139.734 604V583.461H151.293V585.223H141.582V592.857H149.445V594.618H141.582V602.238H151.293V604H139.734ZM174.238 604V589.921L174.109 590.794L169.34 604H168.366L163.553 590.794L163.439 589.921V604H161.591V583.461H162.551L168.781 600.305L168.839 601.064L168.896 600.305L175.112 583.461H176.086V604H174.238ZM192.042 599.245C192.042 599.942 191.908 600.596 191.641 601.207C191.383 601.818 191.025 602.353 190.566 602.811C190.108 603.27 189.573 603.632 188.962 603.9C188.351 604.158 187.697 604.286 187 604.286H185.539C184.842 604.286 184.183 604.158 183.563 603.9C182.951 603.632 182.417 603.27 181.958 602.811C181.5 602.353 181.137 601.818 180.87 601.207C180.612 600.596 180.483 599.942 180.483 599.245V588.216C180.483 587.519 180.612 586.865 180.87 586.254C181.137 585.643 181.5 585.108 181.958 584.65C182.417 584.191 182.951 583.833 183.563 583.576C184.183 583.308 184.842 583.174 185.539 583.174H187C187.697 583.174 188.351 583.308 188.962 583.576C189.573 583.833 190.108 584.191 190.566 584.65C191.025 585.108 191.383 585.643 191.641 586.254C191.908 586.865 192.042 587.519 192.042 588.216V599.245ZM190.194 588.216C190.194 587.758 190.108 587.333 189.936 586.941C189.764 586.54 189.53 586.192 189.234 585.896C188.938 585.6 188.59 585.366 188.189 585.194C187.797 585.022 187.372 584.936 186.914 584.936H185.625C185.167 584.936 184.737 585.022 184.336 585.194C183.944 585.366 183.596 585.6 183.29 585.896C182.994 586.192 182.76 586.54 182.589 586.941C182.417 587.333 182.331 587.758 182.331 588.216V599.245C182.331 599.703 182.417 600.133 182.589 600.534C182.76 600.925 182.994 601.274 183.29 601.579C183.596 601.875 183.944 602.109 184.336 602.281C184.737 602.453 185.167 602.539 185.625 602.539H186.914C187.372 602.539 187.797 602.453 188.189 602.281C188.59 602.109 188.938 601.875 189.234 601.579C189.53 601.274 189.764 600.925 189.936 600.534C190.108 600.133 190.194 599.703 190.194 599.245V588.216ZM207.038 604L198.473 589.047L198.301 588.159V604H196.453V583.461H197.413L205.978 598.428L206.164 599.302V583.461H208.012V604H207.038ZM217.708 585.223V604H215.861V585.223H210.962V583.461H222.607V585.223H217.708ZM232.375 599.216H225.872L224.526 604H222.607L228.622 583.461H229.596L235.641 604H233.736L232.375 599.216ZM226.374 597.454H231.888L229.181 587.987L229.124 587.228L229.066 587.987L226.374 597.454ZM249.534 599.245C249.534 599.942 249.4 600.596 249.133 601.207C248.875 601.818 248.517 602.353 248.059 602.811C247.6 603.27 247.066 603.632 246.454 603.9C245.843 604.158 245.189 604.286 244.492 604.286H243.031C242.334 604.286 241.675 604.158 241.055 603.9C240.444 603.632 239.909 603.27 239.451 602.811C238.992 602.353 238.629 601.818 238.362 601.207C238.104 600.596 237.975 599.942 237.975 599.245V583.461H239.823V599.245C239.823 599.703 239.909 600.133 240.081 600.534C240.253 600.925 240.487 601.274 240.783 601.579C241.088 601.875 241.437 602.109 241.828 602.281C242.229 602.453 242.659 602.539 243.117 602.539H244.406C244.865 602.539 245.29 602.453 245.681 602.281C246.082 602.109 246.431 601.875 246.727 601.579C247.023 601.274 247.257 600.925 247.428 600.534C247.6 600.133 247.686 599.703 247.686 599.245V583.461H249.534V599.245ZM265.504 598.958C265.504 599.655 265.37 600.309 265.103 600.921C264.845 601.532 264.487 602.066 264.029 602.525C263.57 602.983 263.031 603.346 262.41 603.613C261.799 603.871 261.145 604 260.448 604H253.945V583.461H260.448C261.145 583.461 261.799 583.595 262.41 583.862C263.031 584.12 263.57 584.478 264.029 584.936C264.487 585.395 264.845 585.934 265.103 586.555C265.37 587.166 265.504 587.82 265.504 588.517V588.717C265.504 589.204 265.437 589.672 265.303 590.121C265.179 590.56 264.998 590.971 264.759 591.353C264.52 591.735 264.239 592.083 263.914 592.398C263.589 592.704 263.227 592.962 262.826 593.172C263.227 593.382 263.589 593.645 263.914 593.96C264.239 594.265 264.52 594.614 264.759 595.005C264.998 595.387 265.179 595.803 265.303 596.251C265.437 596.691 265.504 597.154 265.504 597.641V598.958ZM263.656 597.34C263.656 596.882 263.57 596.457 263.398 596.065C263.227 595.664 262.988 595.316 262.682 595.02C262.386 594.724 262.038 594.49 261.637 594.318C261.245 594.146 260.82 594.06 260.362 594.06H255.793V602.238H260.362C260.82 602.238 261.245 602.152 261.637 601.98C262.038 601.809 262.386 601.575 262.682 601.279C262.988 600.983 263.227 600.639 263.398 600.247C263.57 599.846 263.656 599.417 263.656 598.958V597.34ZM263.656 588.517C263.656 588.059 263.57 587.634 263.398 587.242C263.227 586.841 262.988 586.493 262.682 586.197C262.386 585.891 262.038 585.652 261.637 585.48C261.245 585.309 260.82 585.223 260.362 585.223H255.793V592.298H260.362C260.82 592.298 261.245 592.212 261.637 592.04C262.038 591.868 262.386 591.635 262.682 591.339C262.988 591.033 263.227 590.684 263.398 590.293C263.57 589.892 263.656 589.462 263.656 589.004V588.517ZM276.747 599.216H270.245L268.898 604H266.979L272.995 583.461H273.969L280.013 604H278.108L276.747 599.216ZM270.746 597.454H276.26L273.553 587.987L273.496 587.228L273.439 587.987L270.746 597.454ZM293.233 604L284.668 589.047L284.496 588.159V604H282.648V583.461H283.608L292.173 598.428L292.359 599.302V583.461H294.207V604H293.233Z" fill="#C8B369"/>
<path d="M345 339.5C345 417.648 284.111 481 209 481C133.889 481 73 417.648 73 339.5C73 261.352 133.889 198 209 198C284.111 198 345 261.352 345 339.5Z" stroke="#C8B268" stroke-width="3" stroke-miterlimit="10"/>
<path d="M140.612 304.189L135.207 266.521C135.207 266.521 134.177 262.774 137.139 263.292C140.102 263.807 180.159 269.494 180.159 269.494C180.159 269.494 183.79 269.881 183.586 272.854C183.379 275.827 182.35 300.25 166.507 304.773C160.066 306.582 154.012 301.283 153.755 298.44C153.498 295.598 179.387 291.592 188.274 315.886C196.131 340.31 196.775 351.552 196.775 351.552C196.775 351.552 197.42 353.491 195.229 353.361C193.039 353.232 184.153 347.159 196.389 343.541L203.601 343.283C203.601 343.283 209.913 343.153 209.913 347.805C209.913 352.457 206.436 353.361 204.504 353.232C202.571 353.104 203.344 350.861 203.344 350.861C203.344 350.861 205.533 296.115 204.761 294.047C204.89 291.333 205.792 290.428 208.11 290.558C210.815 290.687 236.833 293.401 237.477 293.917C238.121 294.435 240.955 294.176 239.925 297.536C238.894 300.896 231.938 319.762 211.973 310.847C208.883 309.295 216.096 306.324 217.511 306.194C219.316 305.806 227.817 303.868 237.863 308.262C247.91 312.655 246.107 312.138 246.107 312.138C246.107 312.138 248.425 313.044 249.069 308.779C249.713 304.515 252.805 284.226 252.547 282.029C252.289 279.832 253.578 279.316 248.812 277.636C244.046 275.956 168.825 247.137 157.49 240.548C154.914 239.514 152.08 238.738 152.08 241.193C152.08 243.648 153.191 265.779 153.191 265.779" stroke="#C7B169" stroke-width="2.66667" stroke-miterlimit="10" stroke-linecap="round" stroke-linejoin="round"/>
<path d="M141.049 307.236L140.612 304.189" stroke="#C7B169" stroke-width="2.66667" stroke-miterlimit="10" stroke-linecap="round" stroke-linejoin="round"/>
<path d="M141.648 353.006L139.765 437.504C139.765 437.504 139.206 440.064 138.169 438.393C137.393 437.138 139.071 421.464 156.46 417.715C173.849 413.969 191.494 413.355 200.64 424.307C210.814 436.325 207.466 437.359 206.436 436.582C205.405 435.808 182.865 411.061 180.546 408.026C179.119 406.156 174.621 392.647 189.176 393.81C185.054 390.449 167.924 387.09 154.012 371.324C140.101 355.559 127.994 323.511 127.994 323.511C127.994 323.511 127.093 322.089 128.896 321.831C130.699 321.572 158.649 316.661 167.021 317.695C174.878 319.117 183.508 338.242 174.234 350.002C170.757 354.267 152.466 356.722 150.921 352.07C149.648 348.237 144.837 327.362 143.135 319.921" stroke="#C7B169" stroke-width="2.66667" stroke-miterlimit="10" stroke-linecap="round" stroke-linejoin="round"/>
<path d="M140.978 307.981C143.019 303.699 146.967 299.478 154.489 297.542" stroke="#C7B169" stroke-width="2.66667" stroke-miterlimit="10" stroke-linecap="round" stroke-linejoin="round"/>
<path d="M139.012 320.216C139.012 320.216 138.09 314.039 140.978 307.982" stroke="#C7B169" stroke-width="2.66667" stroke-miterlimit="10" stroke-linecap="round" stroke-linejoin="round"/>
<path d="M187.757 392.893C189.587 393.882 190.676 394.227 192.599 394.448C197.429 395.003 201.807 389.734 201.807 384.857C201.807 379.978 197.907 375.636 193.045 375.636" stroke="#C7B169" stroke-width="2.66667" stroke-miterlimit="10" stroke-linecap="round" stroke-linejoin="round"/>
<path d="M180.047 364.104C180.047 364.104 186.133 359.355 186.375 359.064C186.616 358.774 187.341 357.998 188.694 359.064C190.046 360.129 193.668 363.667 199.029 359.355C200.383 358.519 200.768 358.628 201.203 359.064C201.638 359.5 208.546 365.024 208.546 365.024C208.546 365.024 210.283 365.897 209.173 368.222C208.062 370.549 193.33 383.73 179.033 368.222C177.052 365.993 180.047 364.104 180.047 364.104Z" stroke="#C7B169" stroke-width="2.66667" stroke-miterlimit="10" stroke-linecap="round" stroke-linejoin="round"/>
<path d="M178.671 366.066L209.221 366.236" stroke="#C7B169" stroke-width="2.66667" stroke-miterlimit="10" stroke-linecap="round" stroke-linejoin="round"/>
<path d="M243.669 354.172V343.613L243.573 344.268L239.995 354.172H239.265L235.656 344.268L235.57 343.613V354.172H234.184V338.768H234.904L239.576 351.401L239.619 351.97L239.662 351.401L244.324 338.768H245.055V354.172H243.669ZM254.358 350.584H249.481L248.471 354.172H247.031L251.543 338.768H252.274L256.807 354.172H255.378L254.358 350.584ZM249.857 349.263H253.992L251.962 342.163L251.919 341.593L251.876 342.163L249.857 349.263ZM267.227 354.172H266.786L265.981 352.937C265.644 353.381 265.236 353.735 264.756 354C264.276 354.258 263.743 354.387 263.156 354.387H262.35C261.827 354.387 261.333 354.29 260.867 354.097C260.409 353.897 260.008 353.624 259.664 353.281C259.321 352.937 259.048 352.536 258.848 352.078C258.655 351.619 258.558 351.129 258.558 350.606V342.334C258.558 341.812 258.655 341.321 258.848 340.863C259.048 340.404 259.321 340.003 259.664 339.66C260.008 339.316 260.409 339.047 260.867 338.854C261.333 338.653 261.827 338.553 262.35 338.553H263.446C263.968 338.553 264.459 338.653 264.917 338.854C265.376 339.047 265.777 339.316 266.12 339.66C266.464 340.003 266.733 340.404 266.926 340.863C267.127 341.321 267.227 341.812 267.227 342.334V342.957L265.841 343.172V342.334C265.841 341.991 265.777 341.672 265.648 341.378C265.519 341.078 265.343 340.816 265.121 340.594C264.899 340.372 264.638 340.197 264.337 340.068C264.044 339.939 263.725 339.874 263.381 339.874H262.414C262.071 339.874 261.748 339.939 261.448 340.068C261.154 340.197 260.892 340.372 260.663 340.594C260.441 340.816 260.266 341.078 260.137 341.378C260.008 341.672 259.944 341.991 259.944 342.334V350.606C259.944 350.95 260.008 351.272 260.137 351.573C260.266 351.866 260.441 352.128 260.663 352.357C260.892 352.579 261.154 352.754 261.448 352.883C261.748 353.012 262.071 353.077 262.414 353.077H263.381C263.725 353.077 264.044 353.012 264.337 352.883C264.638 352.754 264.899 352.579 265.121 352.357C265.343 352.128 265.519 351.866 265.648 351.573C265.777 351.272 265.841 350.95 265.841 350.606V347.394H263.381V346.073H267.227V354.172ZM276.315 350.584H271.438L270.428 354.172H268.989L273.5 338.768H274.231L278.764 354.172H277.335L276.315 350.584ZM271.814 349.263H275.949L273.919 342.163L273.876 341.593L273.833 342.163L271.814 349.263ZM280.515 354.172V338.768H281.901V352.851H287.798V354.172H280.515ZM289.775 354.172V338.768H291.16V352.851H297.058V354.172H289.775ZM307.703 350.606C307.703 351.129 307.603 351.619 307.403 352.078C307.209 352.536 306.941 352.937 306.597 353.281C306.253 353.624 305.852 353.897 305.394 354.097C304.935 354.29 304.445 354.387 303.922 354.387H302.826C302.304 354.387 301.809 354.29 301.344 354.097C300.886 353.897 300.485 353.624 300.141 353.281C299.797 352.937 299.525 352.536 299.324 352.078C299.131 351.619 299.034 351.129 299.034 350.606V342.334C299.034 341.812 299.131 341.321 299.324 340.863C299.525 340.404 299.797 340.003 300.141 339.66C300.485 339.316 300.886 339.047 301.344 338.854C301.809 338.653 302.304 338.553 302.826 338.553H303.922C304.445 338.553 304.935 338.653 305.394 338.854C305.852 339.047 306.253 339.316 306.597 339.66C306.941 340.003 307.209 340.404 307.403 340.863C307.603 341.321 307.703 341.812 307.703 342.334V350.606ZM306.318 342.334C306.318 341.991 306.253 341.672 306.124 341.378C305.995 341.078 305.82 340.816 305.598 340.594C305.376 340.372 305.115 340.197 304.814 340.068C304.52 339.939 304.201 339.874 303.858 339.874H302.891C302.547 339.874 302.225 339.939 301.924 340.068C301.63 340.197 301.369 340.372 301.14 340.594C300.918 340.816 300.742 341.078 300.614 341.378C300.485 341.672 300.42 341.991 300.42 342.334V350.606C300.42 350.95 300.485 351.272 300.614 351.573C300.742 351.866 300.918 352.128 301.14 352.357C301.369 352.579 301.63 352.754 301.924 352.883C302.225 353.012 302.547 353.077 302.891 353.077H303.858C304.201 353.077 304.52 353.012 304.814 352.883C305.115 352.754 305.376 352.579 305.598 352.357C305.82 352.128 305.995 351.866 306.124 351.573C306.253 351.272 306.318 350.95 306.318 350.606V342.334ZM243.669 382.172V371.613L243.573 372.268L239.995 382.172H239.265L235.656 372.268L235.57 371.613V382.172H234.184V366.768H234.904L239.576 379.401L239.619 379.97L239.662 379.401L244.324 366.768H245.055V382.172H243.669ZM248.578 382.172V366.768H249.964V382.172H248.578ZM253.273 382.172V366.768H254.658V380.851H260.556V382.172H253.273ZM270.041 382.172V375.136H264.144V382.172H262.758V366.768H264.144V373.815H270.041V366.768H271.427V382.172H270.041ZM274.961 382.172V366.768H283.63V368.089H276.347V373.815H282.244V375.136H276.347V380.851H283.63V382.172H274.961ZM292.063 378.584H287.186L286.176 382.172H284.737L289.248 366.768H289.979L294.512 382.172H293.083L292.063 378.584ZM287.562 377.263H291.698L289.667 370.163L289.624 369.593L289.581 370.163L287.562 377.263ZM304.932 378.606C304.932 379.129 304.832 379.619 304.631 380.078C304.438 380.536 304.169 380.937 303.825 381.281C303.482 381.624 303.081 381.897 302.622 382.097C302.164 382.29 301.673 382.387 301.151 382.387H300.055C299.532 382.387 299.038 382.29 298.573 382.097C298.114 381.897 297.713 381.624 297.369 381.281C297.026 380.937 296.753 380.536 296.553 380.078C296.36 379.619 296.263 379.129 296.263 378.606V366.768H297.649V378.606C297.649 378.95 297.713 379.272 297.842 379.573C297.971 379.866 298.146 380.128 298.368 380.357C298.598 380.579 298.859 380.754 299.153 380.883C299.453 381.012 299.776 381.077 300.119 381.077H301.086C301.43 381.077 301.749 381.012 302.042 380.883C302.343 380.754 302.604 380.579 302.826 380.357C303.048 380.128 303.224 379.866 303.353 379.573C303.482 379.272 303.546 378.95 303.546 378.606V366.768H304.932V378.606ZM242.853 400.472C242.853 400.995 242.753 401.485 242.552 401.944C242.359 402.402 242.09 402.803 241.746 403.147C241.403 403.491 240.998 403.763 240.532 403.963C240.074 404.157 239.584 404.253 239.061 404.253H235.57V410.172H234.184V394.768H239.061C239.584 394.768 240.074 394.868 240.532 395.069C240.998 395.262 241.403 395.531 241.746 395.874C242.09 396.218 242.359 396.623 242.552 397.088C242.753 397.547 242.853 398.037 242.853 398.56V400.472ZM241.467 398.56C241.467 398.216 241.403 397.898 241.274 397.604C241.145 397.303 240.966 397.042 240.737 396.82C240.515 396.591 240.253 396.412 239.952 396.283C239.659 396.154 239.34 396.089 238.996 396.089H235.57V402.932H238.996C239.34 402.932 239.659 402.868 239.952 402.739C240.253 402.61 240.515 402.434 240.737 402.212C240.966 401.99 241.145 401.733 241.274 401.439C241.403 401.138 241.467 400.816 241.467 400.472V398.56ZM252.746 410.172L248.568 403.598H246.666V410.172H245.281V394.768H250.168C250.691 394.768 251.182 394.868 251.64 395.069C252.098 395.262 252.499 395.531 252.843 395.874C253.187 396.218 253.455 396.623 253.649 397.088C253.849 397.547 253.949 398.037 253.949 398.56V399.806C253.949 400.329 253.849 400.823 253.649 401.289C253.455 401.747 253.187 402.148 252.843 402.492C252.499 402.835 252.098 403.108 251.64 403.308C251.182 403.501 250.691 403.598 250.168 403.598L254.347 410.172H252.746ZM252.564 398.56C252.564 398.216 252.499 397.898 252.37 397.604C252.241 397.303 252.066 397.042 251.844 396.82C251.622 396.591 251.361 396.412 251.06 396.283C250.766 396.154 250.448 396.089 250.104 396.089H246.666V402.277H250.104C250.448 402.277 250.766 402.212 251.06 402.083C251.361 401.955 251.622 401.779 251.844 401.557C252.066 401.328 252.241 401.067 252.37 400.773C252.499 400.472 252.564 400.15 252.564 399.806V398.56ZM257 410.172V394.768H258.386V410.172H257ZM261.92 410.172V394.768H270.589V396.089H263.306V401.815H269.203V403.136H263.306V408.851H270.589V410.172H261.92ZM281.686 406.606C281.686 407.129 281.586 407.619 281.385 408.078C281.192 408.536 280.923 408.937 280.579 409.281C280.236 409.624 279.835 409.897 279.376 410.097C278.918 410.29 278.427 410.387 277.905 410.387H276.809C276.286 410.387 275.792 410.29 275.326 410.097C274.868 409.897 274.467 409.624 274.123 409.281C273.78 408.937 273.507 408.536 273.307 408.078C273.114 407.619 273.017 407.129 273.017 406.606V394.768H274.403V406.606C274.403 406.95 274.467 407.272 274.596 407.573C274.725 407.866 274.9 408.128 275.122 408.357C275.351 408.579 275.613 408.754 275.906 408.883C276.207 409.012 276.53 409.077 276.873 409.077H277.84C278.184 409.077 278.503 409.012 278.796 408.883C279.097 408.754 279.358 408.579 279.58 408.357C279.802 408.128 279.978 407.866 280.107 407.573C280.236 407.272 280.3 406.95 280.3 406.606V394.768H281.686V406.606ZM292.235 410.172L288.056 403.598H286.155V410.172H284.769V394.768H289.656C290.179 394.768 290.67 394.868 291.128 395.069C291.587 395.262 291.988 395.531 292.331 395.874C292.675 396.218 292.944 396.623 293.137 397.088C293.337 397.547 293.438 398.037 293.438 398.56V399.806C293.438 400.329 293.337 400.823 293.137 401.289C292.944 401.747 292.675 402.148 292.331 402.492C291.988 402.835 291.587 403.108 291.128 403.308C290.67 403.501 290.179 403.598 289.656 403.598L293.835 410.172H292.235ZM292.052 398.56C292.052 398.216 291.988 397.898 291.859 397.604C291.73 397.303 291.554 397.042 291.332 396.82C291.11 396.591 290.849 396.412 290.548 396.283C290.254 396.154 289.936 396.089 289.592 396.089H286.155V402.277H289.592C289.936 402.277 290.254 402.212 290.548 402.083C290.849 401.955 291.11 401.779 291.332 401.557C291.554 401.328 291.73 401.067 291.859 400.773C291.988 400.472 292.052 400.15 292.052 399.806V398.56Z" fill="#C8B369"/>
</g>
<defs>
<clipPath id="clip0">
<rect width="411" height="823" fill="white"/>
</clipPath>
</defs>
</svg>
