<svg width="370" height="383" viewBox="0 0 370 383" fill="none" xmlns="http://www.w3.org/2000/svg">
<g id="natural-bold">
<g id="g12">
<g id="g14">
<g id="g20">
<path id="path22" d="M367 191.5C367 295.606 285.517 380 185 380C84.4834 380 3 295.606 3 191.5C3 87.3942 84.4834 3.00002 185 3.00002C285.517 3.00002 367 87.3942 367 191.5Z" stroke="#C8B268" stroke-width="5" stroke-miterlimit="10"/>
</g>
</g>
</g>
<g id="g24">
<g id="g26">
<g id="g32">
<path id="path34" d="M92.4863 145.735L85.333 95.1028C85.333 95.1028 83.969 90.0667 87.8903 90.7622C91.8116 91.4551 144.828 99.0997 144.828 99.0997C144.828 99.0997 149.634 99.62 149.364 103.616C149.09 107.611 147.728 140.441 126.76 146.52C118.234 148.951 110.222 141.829 109.881 138.007C109.541 134.187 143.806 128.802 155.569 161.458C165.968 194.287 166.82 209.398 166.82 209.398C166.82 209.398 167.673 212.004 164.774 211.83C161.876 211.656 150.114 203.493 166.309 198.63L175.854 198.283C175.854 198.283 184.209 198.109 184.209 204.361C184.209 210.614 179.606 211.83 177.049 211.656C174.492 211.484 175.514 208.469 175.514 208.469C175.514 208.469 178.412 134.881 177.389 132.102C177.56 128.454 178.754 127.238 181.822 127.412C185.402 127.586 219.838 131.234 220.69 131.928C221.542 132.624 225.293 132.276 223.93 136.792C222.565 141.309 213.36 166.668 186.934 154.684C182.845 152.598 192.392 148.604 194.265 148.43C196.653 147.909 207.905 145.303 221.201 151.21C234.498 157.114 232.112 156.42 232.112 156.42C232.112 156.42 235.18 157.637 236.033 151.904C236.885 146.172 240.977 118.901 240.636 115.949C240.294 112.995 242 112.301 235.693 110.043C229.385 107.785 129.828 69.0484 114.825 60.1906C111.416 58.8008 107.665 57.7588 107.665 61.0587C107.665 64.3587 109.136 94.1057 109.136 94.1057" stroke="#C7B169" stroke-width="4" stroke-miterlimit="10" stroke-linecap="round" stroke-linejoin="round"/>
</g>
<g id="g36">
<path id="path38" d="M93.0649 149.83L92.4862 145.734" stroke="#C7B169" stroke-width="4" stroke-miterlimit="10" stroke-linecap="round" stroke-linejoin="round"/>
</g>
<g id="g40">
<path id="path42" d="M93.8573 211.353L91.3653 324.931C91.3653 324.931 90.6253 328.372 89.2533 326.125C88.2253 324.439 90.4466 303.371 113.461 298.332C136.476 293.296 159.831 292.471 171.935 307.193C185.401 323.346 180.969 324.736 179.607 323.692C178.241 322.652 148.409 289.387 145.34 285.307C143.452 282.794 137.499 264.636 156.763 266.199C151.307 261.682 128.635 257.166 110.221 235.974C91.8106 214.783 75.7866 171.706 75.7866 171.706C75.7866 171.706 74.5933 169.795 76.9799 169.448C79.3666 169.1 116.359 162.499 127.44 163.889C137.839 165.801 149.26 191.507 136.987 207.314C132.384 213.047 108.176 216.347 106.131 210.094C104.445 204.942 98.0786 176.882 95.8253 166.881" stroke="#C7B169" stroke-width="4" stroke-miterlimit="10" stroke-linecap="round" stroke-linejoin="round"/>
</g>
<g id="g44">
<path id="path46" d="M92.9705 150.831C95.6718 145.077 100.897 139.402 110.853 136.8" stroke="#C7B169" stroke-width="4" stroke-miterlimit="10" stroke-linecap="round" stroke-linejoin="round"/>
</g>
<g id="g48">
<path id="path50" d="M90.369 167.278C90.369 167.278 89.1477 158.975 92.9703 150.833" stroke="#C7B169" stroke-width="4" stroke-miterlimit="10" stroke-linecap="round" stroke-linejoin="round"/>
</g>
<g id="g52">
<path id="path54" d="M154.884 264.967C157.305 266.296 158.747 266.76 161.292 267.056C167.685 267.804 173.48 260.72 173.48 254.165C173.48 247.607 168.317 241.771 161.883 241.771" stroke="#C7B169" stroke-width="4" stroke-miterlimit="10" stroke-linecap="round" stroke-linejoin="round"/>
</g>
<g id="g56">
<path id="path58" d="M144.68 226.269C144.68 226.269 152.734 219.887 153.054 219.496C153.374 219.106 154.333 218.062 156.124 219.496C157.913 220.927 162.708 225.682 169.802 219.887C171.594 218.763 172.105 218.909 172.68 219.496C173.256 220.081 182.398 227.507 182.398 227.507C182.398 227.507 184.698 228.679 183.229 231.805C181.758 234.933 162.26 252.65 143.337 231.805C140.716 228.808 144.68 226.269 144.68 226.269Z" stroke="#C7B169" stroke-width="4" stroke-miterlimit="10" stroke-linecap="round" stroke-linejoin="round"/>
</g>
<g id="g60">
<path id="path62" d="M142.858 228.907L183.293 229.135" stroke="#C7B169" stroke-width="4" stroke-miterlimit="10" stroke-linecap="round" stroke-linejoin="round"/>
</g>
</g>
</g>
<g id="MAGALLO MILHEAU PRIEUR ">
<path d="M228.826 211.349V197.429L228.698 198.293L223.983 211.349H223.02L218.262 198.293L218.149 197.429V211.349H216.322V191.043H217.271L223.431 207.695L223.487 208.446L223.544 207.695L229.689 191.043H230.652V211.349H228.826ZM242.915 206.619H236.486L235.155 211.349H233.258L239.205 191.043H240.168L246.143 211.349H244.26L242.915 206.619ZM236.982 204.877H242.433L239.757 195.518L239.701 194.767L239.644 195.518L236.982 204.877ZM259.879 211.349H259.298L258.236 209.72C257.793 210.306 257.254 210.773 256.622 211.122C255.989 211.462 255.286 211.632 254.512 211.632H253.45C252.761 211.632 252.11 211.504 251.496 211.25C250.892 210.985 250.363 210.626 249.91 210.173C249.457 209.72 249.098 209.192 248.834 208.587C248.579 207.983 248.452 207.337 248.452 206.647V195.744C248.452 195.055 248.579 194.408 248.834 193.804C249.098 193.2 249.457 192.671 249.91 192.218C250.363 191.765 250.892 191.411 251.496 191.156C252.11 190.892 252.761 190.76 253.45 190.76H254.894C255.584 190.76 256.23 190.892 256.834 191.156C257.439 191.411 257.967 191.765 258.42 192.218C258.873 192.671 259.227 193.2 259.482 193.804C259.747 194.408 259.879 195.055 259.879 195.744V196.565L258.052 196.849V195.744C258.052 195.291 257.967 194.871 257.797 194.484C257.627 194.087 257.396 193.743 257.103 193.45C256.811 193.158 256.466 192.926 256.07 192.756C255.683 192.586 255.263 192.501 254.809 192.501H253.535C253.082 192.501 252.657 192.586 252.261 192.756C251.874 192.926 251.529 193.158 251.227 193.45C250.934 193.743 250.703 194.087 250.533 194.484C250.363 194.871 250.278 195.291 250.278 195.744V206.647C250.278 207.101 250.363 207.525 250.533 207.922C250.703 208.309 250.934 208.653 251.227 208.956C251.529 209.248 251.874 209.479 252.261 209.649C252.657 209.819 253.082 209.904 253.535 209.904H254.809C255.263 209.904 255.683 209.819 256.07 209.649C256.466 209.479 256.811 209.248 257.103 208.956C257.396 208.653 257.627 208.309 257.797 207.922C257.967 207.525 258.052 207.101 258.052 206.647V202.414H254.809V200.672H259.879V211.349ZM271.858 206.619H265.43L264.099 211.349H262.201L268.148 191.043H269.111L275.087 211.349H273.203L271.858 206.619ZM265.925 204.877H271.377L268.701 195.518L268.644 194.767L268.587 195.518L265.925 204.877ZM277.395 211.349V191.043H279.222V209.607H286.995V211.349H277.395ZM289.601 211.349V191.043H291.428V209.607H299.202V211.349H289.601ZM313.234 206.647C313.234 207.337 313.102 207.983 312.838 208.587C312.583 209.192 312.229 209.72 311.776 210.173C311.323 210.626 310.794 210.985 310.19 211.25C309.586 211.504 308.939 211.632 308.25 211.632H306.806C306.116 211.632 305.465 211.504 304.851 211.25C304.247 210.985 303.719 210.626 303.266 210.173C302.812 209.72 302.454 209.192 302.189 208.587C301.934 207.983 301.807 207.337 301.807 206.647V195.744C301.807 195.055 301.934 194.408 302.189 193.804C302.454 193.2 302.812 192.671 303.266 192.218C303.719 191.765 304.247 191.411 304.851 191.156C305.465 190.892 306.116 190.76 306.806 190.76H308.25C308.939 190.76 309.586 190.892 310.19 191.156C310.794 191.411 311.323 191.765 311.776 192.218C312.229 192.671 312.583 193.2 312.838 193.804C313.102 194.408 313.234 195.055 313.234 195.744V206.647ZM311.408 195.744C311.408 195.291 311.323 194.871 311.153 194.484C310.983 194.087 310.752 193.743 310.459 193.45C310.166 193.158 309.822 192.926 309.425 192.756C309.038 192.586 308.618 192.501 308.165 192.501H306.891C306.437 192.501 306.013 192.586 305.616 192.756C305.229 192.926 304.884 193.158 304.582 193.45C304.29 193.743 304.058 194.087 303.889 194.484C303.719 194.871 303.634 195.291 303.634 195.744V206.647C303.634 207.101 303.719 207.525 303.889 207.922C304.058 208.309 304.29 208.653 304.582 208.956C304.884 209.248 305.229 209.479 305.616 209.649C306.013 209.819 306.437 209.904 306.891 209.904H308.165C308.618 209.904 309.038 209.819 309.425 209.649C309.822 209.479 310.166 209.248 310.459 208.956C310.752 208.653 310.983 208.309 311.153 207.922C311.323 207.525 311.408 207.101 311.408 206.647V195.744ZM228.826 248.349V234.429L228.698 235.293L223.983 248.349H223.02L218.262 235.293L218.149 234.429V248.349H216.322V228.043H217.271L223.431 244.695L223.487 245.446L223.544 244.695L229.689 228.043H230.652V248.349H228.826ZM235.297 248.349V228.043H237.123V248.349H235.297ZM241.485 248.349V228.043H243.311V246.607H251.085V248.349H241.485ZM263.589 248.349V239.074H255.815V248.349H253.988V228.043H255.815V237.332H263.589V228.043H265.415V248.349H263.589ZM270.074 248.349V228.043H281.501V229.785H271.901V237.332H279.675V239.074H271.901V246.607H281.501V248.349H270.074ZM292.617 243.619H286.188L284.857 248.349H282.96L288.907 228.043H289.87L295.846 248.349H293.962L292.617 243.619ZM286.684 241.877H292.136L289.459 232.518L289.403 231.767L289.346 232.518L286.684 241.877ZM309.581 243.647C309.581 244.337 309.449 244.983 309.184 245.587C308.93 246.192 308.576 246.72 308.122 247.173C307.669 247.626 307.141 247.985 306.536 248.25C305.932 248.504 305.286 248.632 304.597 248.632H303.152C302.463 248.632 301.812 248.504 301.198 248.25C300.594 247.985 300.065 247.626 299.612 247.173C299.159 246.72 298.8 246.192 298.536 245.587C298.281 244.983 298.154 244.337 298.154 243.647V228.043H299.98V243.647C299.98 244.101 300.065 244.525 300.235 244.922C300.405 245.309 300.636 245.653 300.929 245.956C301.231 246.248 301.576 246.479 301.963 246.649C302.359 246.819 302.784 246.904 303.237 246.904H304.512C304.965 246.904 305.385 246.819 305.772 246.649C306.168 246.479 306.513 246.248 306.806 245.956C307.098 245.653 307.329 245.309 307.499 244.922C307.669 244.525 307.754 244.101 307.754 243.647V228.043H309.581V243.647ZM227.749 272.562C227.749 273.251 227.617 273.898 227.353 274.502C227.098 275.106 226.744 275.635 226.291 276.088C225.838 276.541 225.304 276.9 224.691 277.164C224.087 277.419 223.44 277.546 222.751 277.546H218.149V285.349H216.322V265.043H222.751C223.44 265.043 224.087 265.175 224.691 265.439C225.304 265.694 225.838 266.048 226.291 266.501C226.744 266.955 227.098 267.488 227.353 268.102C227.617 268.706 227.749 269.352 227.749 270.042V272.562ZM225.923 270.042C225.923 269.588 225.838 269.168 225.668 268.781C225.498 268.385 225.262 268.04 224.96 267.748C224.667 267.445 224.323 267.209 223.926 267.04C223.539 266.87 223.119 266.785 222.666 266.785H218.149V275.805H222.666C223.119 275.805 223.539 275.72 223.926 275.55C224.323 275.38 224.667 275.149 224.96 274.856C225.262 274.563 225.498 274.223 225.668 273.836C225.838 273.44 225.923 273.015 225.923 272.562V270.042ZM240.791 285.349L235.283 276.683H232.776V285.349H230.95V265.043H237.392C238.082 265.043 238.728 265.175 239.332 265.439C239.937 265.694 240.465 266.048 240.918 266.501C241.371 266.955 241.725 267.488 241.98 268.102C242.245 268.706 242.377 269.352 242.377 270.042V271.684C242.377 272.373 242.245 273.025 241.98 273.638C241.725 274.242 241.371 274.771 240.918 275.224C240.465 275.677 239.937 276.036 239.332 276.3C238.728 276.555 238.082 276.683 237.392 276.683L242.901 285.349H240.791ZM240.55 270.042C240.55 269.588 240.465 269.168 240.295 268.781C240.125 268.385 239.894 268.04 239.601 267.748C239.309 267.445 238.964 267.209 238.568 267.04C238.181 266.87 237.761 266.785 237.307 266.785H232.776V274.941H237.307C237.761 274.941 238.181 274.856 238.568 274.686C238.964 274.516 239.309 274.285 239.601 273.992C239.894 273.69 240.125 273.346 240.295 272.958C240.465 272.562 240.55 272.137 240.55 271.684V270.042ZM246.398 285.349V265.043H248.225V285.349H246.398ZM252.884 285.349V265.043H264.311V266.785H254.71V274.332H262.484V276.074H254.71V283.607H264.311V285.349H252.884ZM278.938 280.647C278.938 281.337 278.806 281.983 278.542 282.587C278.287 283.192 277.933 283.72 277.48 284.173C277.027 284.626 276.498 284.985 275.894 285.25C275.29 285.504 274.643 285.632 273.954 285.632H272.51C271.821 285.632 271.169 285.504 270.556 285.25C269.951 284.985 269.423 284.626 268.97 284.173C268.516 283.72 268.158 283.192 267.893 282.587C267.639 281.983 267.511 281.337 267.511 280.647V265.043H269.338V280.647C269.338 281.101 269.423 281.525 269.593 281.922C269.763 282.309 269.994 282.653 270.286 282.956C270.589 283.248 270.933 283.479 271.32 283.649C271.717 283.819 272.141 283.904 272.595 283.904H273.869C274.322 283.904 274.742 283.819 275.129 283.649C275.526 283.479 275.87 283.248 276.163 282.956C276.456 282.653 276.687 282.309 276.857 281.922C277.027 281.525 277.112 281.101 277.112 280.647V265.043H278.938V280.647ZM292.844 285.349L287.335 276.683H284.829V285.349H283.002V265.043H289.445C290.134 265.043 290.781 265.175 291.385 265.439C291.989 265.694 292.518 266.048 292.971 266.501C293.424 266.955 293.778 267.488 294.033 268.102C294.297 268.706 294.43 269.352 294.43 270.042V271.684C294.43 272.373 294.297 273.025 294.033 273.638C293.778 274.242 293.424 274.771 292.971 275.224C292.518 275.677 291.989 276.036 291.385 276.3C290.781 276.555 290.134 276.683 289.445 276.683L294.953 285.349H292.844ZM292.603 270.042C292.603 269.588 292.518 269.168 292.348 268.781C292.178 268.385 291.947 268.04 291.654 267.748C291.362 267.445 291.017 267.209 290.62 267.04C290.233 266.87 289.813 266.785 289.36 266.785H284.829V274.941H289.36C289.813 274.941 290.233 274.856 290.62 274.686C291.017 274.516 291.362 274.285 291.654 273.992C291.947 273.69 292.178 273.346 292.348 272.958C292.518 272.562 292.603 272.137 292.603 271.684V270.042Z" fill="#C8B369"/>
<path d="M228.826 211.349H228.226V211.949H228.826V211.349ZM228.826 197.429H229.426L228.232 197.342L228.826 197.429ZM228.698 198.293L229.262 198.497L229.283 198.44L229.292 198.381L228.698 198.293ZM223.983 211.349V211.949H224.404L224.547 211.552L223.983 211.349ZM223.02 211.349L222.456 211.554L222.6 211.949H223.02V211.349ZM218.262 198.293L217.667 198.371L217.676 198.436L217.698 198.498L218.262 198.293ZM218.149 197.429L218.744 197.351L217.549 197.429H218.149ZM218.149 211.349V211.949H218.749V211.349H218.149ZM216.322 211.349H215.722V211.949H216.322V211.349ZM216.322 191.043V190.443H215.722V191.043H216.322ZM217.271 191.043L217.834 190.835L217.689 190.443H217.271V191.043ZM223.431 207.695L224.029 207.65L224.023 207.566L223.993 207.487L223.431 207.695ZM223.487 208.446L222.889 208.491H224.085L223.487 208.446ZM223.544 207.695L222.981 207.488L222.952 207.566L222.946 207.65L223.544 207.695ZM229.689 191.043V190.443H229.271L229.126 190.835L229.689 191.043ZM230.652 191.043H231.252V190.443H230.652V191.043ZM230.652 211.349V211.949H231.252V211.349H230.652ZM229.426 211.349V197.429H228.226V211.349H229.426ZM228.232 197.342L228.105 198.205L229.292 198.381L229.419 197.517L228.232 197.342ZM228.134 198.089L223.418 211.145L224.547 211.552L229.262 198.497L228.134 198.089ZM223.983 210.749H223.02V211.949H223.983V210.749ZM223.584 211.143L218.826 198.088L217.698 198.498L222.456 211.554L223.584 211.143ZM218.857 198.215L218.744 197.351L217.554 197.507L217.667 198.371L218.857 198.215ZM217.549 197.429V211.349H218.749V197.429H217.549ZM218.149 210.749H216.322V211.949H218.149V210.749ZM216.922 211.349V191.043H215.722V211.349H216.922ZM216.322 191.643H217.271V190.443H216.322V191.643ZM216.708 191.251L222.868 207.903L223.993 207.487L217.834 190.835L216.708 191.251ZM222.832 207.74L222.889 208.491L224.085 208.401L224.029 207.65L222.832 207.74ZM224.085 208.491L224.142 207.74L222.946 207.65L222.889 208.401L224.085 208.491ZM224.107 207.903L230.252 191.251L229.126 190.835L222.981 207.488L224.107 207.903ZM229.689 191.643H230.652V190.443H229.689V191.643ZM230.052 191.043V211.349H231.252V191.043H230.052ZM230.652 210.749H228.826V211.949H230.652V210.749ZM242.915 206.619L243.492 206.455L243.368 206.019H242.915V206.619ZM236.486 206.619V206.019H236.032L235.909 206.457L236.486 206.619ZM235.155 211.349V211.949H235.61L235.733 211.511L235.155 211.349ZM233.258 211.349L232.682 211.18L232.457 211.949H233.258V211.349ZM239.205 191.043V190.443H238.755L238.629 190.874L239.205 191.043ZM240.168 191.043L240.743 190.874L240.617 190.443H240.168V191.043ZM246.143 211.349V211.949H246.945L246.719 211.179L246.143 211.349ZM244.26 211.349L243.683 211.513L243.807 211.949H244.26V211.349ZM236.982 204.877L236.405 204.713L236.187 205.477H236.982V204.877ZM242.433 204.877V205.477H243.229L243.01 204.712L242.433 204.877ZM239.757 195.518L239.159 195.563L239.164 195.624L239.18 195.683L239.757 195.518ZM239.701 194.767L240.299 194.722H239.102L239.701 194.767ZM239.644 195.518L240.221 195.682L240.238 195.623L240.242 195.563L239.644 195.518ZM242.915 206.019H236.486V207.219H242.915V206.019ZM235.909 206.457L234.578 211.186L235.733 211.511L237.064 206.782L235.909 206.457ZM235.155 210.749H233.258V211.949H235.155V210.749ZM233.834 211.517L239.781 191.212L238.629 190.874L232.682 211.18L233.834 211.517ZM239.205 191.643H240.168V190.443H239.205V191.643ZM239.592 191.212L245.568 211.518L246.719 211.179L240.743 190.874L239.592 191.212ZM246.143 210.749H244.26V211.949H246.143V210.749ZM244.837 211.184L243.492 206.455L242.338 206.783L243.683 211.513L244.837 211.184ZM236.982 205.477H242.433V204.277H236.982V205.477ZM243.01 204.712L240.334 195.353L239.18 195.683L241.857 205.042L243.01 204.712ZM240.356 195.472L240.299 194.722L239.102 194.812L239.159 195.563L240.356 195.472ZM239.102 194.722L239.046 195.472L240.242 195.563L240.299 194.812L239.102 194.722ZM239.067 195.353L236.405 204.713L237.559 205.042L240.221 195.682L239.067 195.353ZM259.879 211.349V211.949H260.479V211.349H259.879ZM259.298 211.349L258.796 211.676L258.973 211.949H259.298V211.349ZM258.236 209.72L258.739 209.392L258.273 208.678L257.758 209.358L258.236 209.72ZM256.622 211.122L256.906 211.651L256.912 211.647L256.622 211.122ZM251.496 211.25L251.255 211.799L251.266 211.804L251.496 211.25ZM248.834 208.587L248.281 208.821L248.284 208.828L248.834 208.587ZM248.834 193.804L248.284 193.564L248.281 193.571L248.834 193.804ZM251.496 191.156L251.729 191.709L251.733 191.707L251.496 191.156ZM256.834 191.156L256.594 191.706L256.601 191.709L256.834 191.156ZM259.482 193.804L258.929 194.037L258.933 194.045L259.482 193.804ZM259.879 196.565L259.971 197.158L260.479 197.08V196.565H259.879ZM258.052 196.849H257.452V197.549L258.144 197.442L258.052 196.849ZM257.797 194.484L257.246 194.72L257.248 194.725L257.797 194.484ZM256.07 192.756L255.828 193.306L255.833 193.308L256.07 192.756ZM252.261 192.756L252.024 192.205L252.019 192.207L252.261 192.756ZM251.227 193.45L250.809 193.019L250.803 193.026L251.227 193.45ZM250.533 194.484L251.082 194.725L251.085 194.72L250.533 194.484ZM250.533 207.922L249.982 208.158L249.984 208.163L250.533 207.922ZM251.227 208.956L250.796 209.373L250.803 209.38L250.809 209.387L251.227 208.956ZM252.261 209.649L252.019 210.199L252.024 210.201L252.261 209.649ZM256.07 209.649L255.833 209.098L255.829 209.1L256.07 209.649ZM257.103 208.956L257.528 209.38L257.534 209.373L257.103 208.956ZM257.797 207.922L258.347 208.163L258.349 208.158L257.797 207.922ZM258.052 202.414H258.652V201.814H258.052V202.414ZM254.809 202.414H254.209V203.014H254.809V202.414ZM254.809 200.672V200.072H254.209V200.672H254.809ZM259.879 200.672H260.479V200.072H259.879V200.672ZM259.879 210.749H259.298V211.949H259.879V210.749ZM259.801 211.021L258.739 209.392L257.734 210.048L258.796 211.676L259.801 211.021ZM257.758 209.358C257.364 209.877 256.89 210.289 256.332 210.597L256.912 211.647C257.619 211.257 258.221 210.734 258.714 210.083L257.758 209.358ZM256.338 210.594C255.8 210.883 255.195 211.032 254.512 211.032V212.232C255.377 212.232 256.179 212.041 256.906 211.651L256.338 210.594ZM254.512 211.032H253.45V212.232H254.512V211.032ZM253.45 211.032C252.837 211.032 252.264 210.919 251.726 210.695L251.266 211.804C251.955 212.09 252.685 212.232 253.45 212.232V211.032ZM251.736 210.7C251.199 210.465 250.733 210.148 250.334 209.749L249.486 210.598C249.993 211.105 250.585 211.506 251.255 211.799L251.736 210.7ZM250.334 209.749C249.936 209.35 249.619 208.885 249.384 208.347L248.284 208.828C248.578 209.499 248.978 210.09 249.486 210.598L250.334 209.749ZM249.387 208.354C249.165 207.828 249.052 207.261 249.052 206.647H247.852C247.852 207.413 247.993 208.139 248.281 208.821L249.387 208.354ZM249.052 206.647V195.744H247.852V206.647H249.052ZM249.052 195.744C249.052 195.131 249.165 194.564 249.387 194.037L248.281 193.571C247.993 194.253 247.852 194.979 247.852 195.744H249.052ZM249.384 194.045C249.619 193.507 249.936 193.041 250.334 192.643L249.486 191.794C248.978 192.302 248.578 192.893 248.284 193.564L249.384 194.045ZM250.334 192.643C250.731 192.245 251.195 191.935 251.729 191.709L251.263 190.603C250.589 190.888 249.995 191.285 249.486 191.794L250.334 192.643ZM251.733 191.707C252.27 191.476 252.84 191.36 253.45 191.36V190.16C252.682 190.16 251.95 190.308 251.259 190.605L251.733 191.707ZM253.45 191.36H254.894V190.16H253.45V191.36ZM254.894 191.36C255.505 191.36 256.069 191.476 256.594 191.706L257.075 190.607C256.391 190.308 255.663 190.16 254.894 190.16V191.36ZM256.601 191.709C257.136 191.935 257.599 192.245 257.996 192.643L258.845 191.794C258.335 191.285 257.741 190.888 257.068 190.603L256.601 191.709ZM257.996 192.643C258.393 193.04 258.704 193.503 258.929 194.037L260.035 193.571C259.751 192.897 259.354 192.303 258.845 191.794L257.996 192.643ZM258.933 194.045C259.162 194.57 259.279 195.134 259.279 195.744H260.479C260.479 194.976 260.331 194.247 260.032 193.564L258.933 194.045ZM259.279 195.744V196.565H260.479V195.744H259.279ZM259.787 195.973L257.96 196.256L258.144 197.442L259.971 197.158L259.787 195.973ZM258.652 196.849V195.744H257.452V196.849H258.652ZM258.652 195.744C258.652 195.214 258.552 194.711 258.347 194.243L257.248 194.725C257.382 195.031 257.452 195.368 257.452 195.744H258.652ZM258.349 194.248C258.15 193.784 257.877 193.375 257.528 193.026L256.679 193.874C256.916 194.111 257.105 194.391 257.246 194.72L258.349 194.248ZM257.528 193.026C257.179 192.677 256.77 192.404 256.306 192.205L255.833 193.308C256.163 193.449 256.443 193.638 256.679 193.874L257.528 193.026ZM256.311 192.207C255.842 192.001 255.34 191.901 254.809 191.901V193.101C255.186 193.101 255.523 193.172 255.829 193.306L256.311 192.207ZM254.809 191.901H253.535V193.101H254.809V191.901ZM253.535 191.901C253.005 191.901 252.499 192.001 252.024 192.205L252.497 193.308C252.815 193.172 253.159 193.101 253.535 193.101V191.901ZM252.019 192.207C251.567 192.405 251.163 192.677 250.809 193.019L251.644 193.881C251.895 193.638 252.18 193.447 252.502 193.306L252.019 192.207ZM250.803 193.026C250.454 193.375 250.18 193.784 249.982 194.248L251.085 194.72C251.226 194.391 251.415 194.111 251.651 193.874L250.803 193.026ZM249.984 194.243C249.778 194.711 249.678 195.214 249.678 195.744H250.878C250.878 195.368 250.948 195.031 251.082 194.725L249.984 194.243ZM249.678 195.744V206.647H250.878V195.744H249.678ZM249.678 206.647C249.678 207.178 249.778 207.683 249.982 208.158L251.085 207.686C250.948 207.367 250.878 207.024 250.878 206.647H249.678ZM249.984 208.163C250.182 208.615 250.453 209.019 250.796 209.373L251.658 208.538C251.415 208.288 251.224 208.003 251.082 207.681L249.984 208.163ZM250.809 209.387C251.163 209.729 251.567 210 252.019 210.199L252.502 209.1C252.18 208.959 251.895 208.767 251.644 208.525L250.809 209.387ZM252.024 210.201C252.499 210.404 253.005 210.504 253.535 210.504V209.304C253.159 209.304 252.815 209.234 252.497 209.098L252.024 210.201ZM253.535 210.504H254.809V209.304H253.535V210.504ZM254.809 210.504C255.34 210.504 255.842 210.404 256.311 210.199L255.829 209.1C255.523 209.234 255.186 209.304 254.809 209.304V210.504ZM256.306 210.201C256.77 210.002 257.179 209.729 257.528 209.38L256.679 208.531C256.443 208.768 256.163 208.957 255.833 209.098L256.306 210.201ZM257.534 209.373C257.877 209.019 258.148 208.615 258.347 208.163L257.248 207.681C257.106 208.003 256.915 208.288 256.672 208.538L257.534 209.373ZM258.349 208.158C258.552 207.683 258.652 207.178 258.652 206.647H257.452C257.452 207.024 257.382 207.367 257.246 207.686L258.349 208.158ZM258.652 206.647V202.414H257.452V206.647H258.652ZM258.052 201.814H254.809V203.014H258.052V201.814ZM255.409 202.414V200.672H254.209V202.414H255.409ZM254.809 201.272H259.879V200.072H254.809V201.272ZM259.279 200.672V211.349H260.479V200.672H259.279ZM271.858 206.619L272.435 206.455L272.311 206.019H271.858V206.619ZM265.43 206.619V206.019H264.975L264.852 206.457L265.43 206.619ZM264.099 211.349V211.949H264.553L264.676 211.511L264.099 211.349ZM262.201 211.349L261.625 211.18L261.4 211.949H262.201V211.349ZM268.148 191.043V190.443H267.699L267.573 190.874L268.148 191.043ZM269.111 191.043L269.687 190.874L269.56 190.443H269.111V191.043ZM275.087 211.349V211.949H275.889L275.662 211.179L275.087 211.349ZM273.203 211.349L272.626 211.513L272.75 211.949H273.203V211.349ZM265.925 204.877L265.348 204.713L265.131 205.477H265.925V204.877ZM271.377 204.877V205.477H272.172L271.954 204.712L271.377 204.877ZM268.701 195.518L268.102 195.563L268.107 195.624L268.124 195.683L268.701 195.518ZM268.644 194.767L269.242 194.722H268.046L268.644 194.767ZM268.587 195.518L269.164 195.682L269.181 195.623L269.186 195.563L268.587 195.518ZM271.858 206.019H265.43V207.219H271.858V206.019ZM264.852 206.457L263.521 211.186L264.676 211.511L266.007 206.782L264.852 206.457ZM264.099 210.749H262.201V211.949H264.099V210.749ZM262.777 211.517L268.724 191.212L267.573 190.874L261.625 211.18L262.777 211.517ZM268.148 191.643H269.111V190.443H268.148V191.643ZM268.536 191.212L274.511 211.518L275.662 211.179L269.687 190.874L268.536 191.212ZM275.087 210.749H273.203V211.949H275.087V210.749ZM273.781 211.184L272.435 206.455L271.281 206.783L272.626 211.513L273.781 211.184ZM265.925 205.477H271.377V204.277H265.925V205.477ZM271.954 204.712L269.277 195.353L268.124 195.683L270.8 205.042L271.954 204.712ZM269.299 195.472L269.242 194.722L268.046 194.812L268.102 195.563L269.299 195.472ZM268.046 194.722L267.989 195.472L269.186 195.563L269.242 194.812L268.046 194.722ZM268.01 195.353L265.348 204.713L266.502 205.042L269.164 195.682L268.01 195.353ZM277.395 211.349H276.795V211.949H277.395V211.349ZM277.395 191.043V190.443H276.795V191.043H277.395ZM279.222 191.043H279.822V190.443H279.222V191.043ZM279.222 209.607H278.622V210.207H279.222V209.607ZM286.995 209.607H287.595V209.007H286.995V209.607ZM286.995 211.349V211.949H287.595V211.349H286.995ZM277.995 211.349V191.043H276.795V211.349H277.995ZM277.395 191.643H279.222V190.443H277.395V191.643ZM278.622 191.043V209.607H279.822V191.043H278.622ZM279.222 210.207H286.995V209.007H279.222V210.207ZM286.395 209.607V211.349H287.595V209.607H286.395ZM286.995 210.749H277.395V211.949H286.995V210.749ZM289.601 211.349H289.001V211.949H289.601V211.349ZM289.601 191.043V190.443H289.001V191.043H289.601ZM291.428 191.043H292.028V190.443H291.428V191.043ZM291.428 209.607H290.828V210.207H291.428V209.607ZM299.202 209.607H299.802V209.007H299.202V209.607ZM299.202 211.349V211.949H299.802V211.349H299.202ZM290.201 211.349V191.043H289.001V211.349H290.201ZM289.601 191.643H291.428V190.443H289.601V191.643ZM290.828 191.043V209.607H292.028V191.043H290.828ZM291.428 210.207H299.202V209.007H291.428V210.207ZM298.602 209.607V211.349H299.802V209.607H298.602ZM299.202 210.749H289.601V211.949H299.202V210.749ZM312.838 208.587L312.288 208.347L312.285 208.354L312.838 208.587ZM310.19 211.25L310.423 211.802L310.43 211.799L310.19 211.25ZM304.851 211.25L304.611 211.799L304.621 211.804L304.851 211.25ZM302.189 208.587L301.636 208.821L301.64 208.828L302.189 208.587ZM302.189 193.804L301.64 193.564L301.637 193.571L302.189 193.804ZM304.851 191.156L305.085 191.709L305.089 191.707L304.851 191.156ZM310.19 191.156L309.949 191.706L309.957 191.709L310.19 191.156ZM312.838 193.804L312.285 194.037L312.288 194.045L312.838 193.804ZM311.153 194.484L310.601 194.72L310.603 194.725L311.153 194.484ZM309.425 192.756L309.184 193.306L309.189 193.308L309.425 192.756ZM305.616 192.756L305.38 192.205L305.375 192.207L305.616 192.756ZM304.582 193.45L304.165 193.019L304.158 193.026L304.582 193.45ZM303.889 194.484L304.438 194.725L304.44 194.72L303.889 194.484ZM303.889 207.922L303.337 208.158L303.339 208.163L303.889 207.922ZM304.582 208.956L304.151 209.373L304.158 209.38L304.165 209.387L304.582 208.956ZM305.616 209.649L305.375 210.199L305.38 210.201L305.616 209.649ZM309.425 209.649L309.189 209.098L309.184 209.1L309.425 209.649ZM310.459 208.956L310.883 209.38L310.89 209.373L310.459 208.956ZM311.153 207.922L311.702 208.163L311.704 208.158L311.153 207.922ZM312.634 206.647C312.634 207.258 312.518 207.822 312.288 208.347L313.387 208.828C313.686 208.144 313.834 207.416 313.834 206.647H312.634ZM312.285 208.354C312.059 208.889 311.749 209.352 311.351 209.749L312.2 210.598C312.709 210.088 313.106 209.494 313.391 208.821L312.285 208.354ZM311.351 209.749C310.953 210.148 310.487 210.465 309.949 210.7L310.43 211.799C311.101 211.506 311.692 211.105 312.2 210.598L311.351 209.749ZM309.957 210.697C309.43 210.919 308.863 211.032 308.25 211.032V212.232C309.015 212.232 309.741 212.09 310.423 211.802L309.957 210.697ZM308.25 211.032H306.806V212.232H308.25V211.032ZM306.806 211.032C306.192 211.032 305.62 210.919 305.082 210.695L304.621 211.804C305.311 212.09 306.04 212.232 306.806 212.232V211.032ZM305.092 210.7C304.554 210.465 304.088 210.148 303.69 209.749L302.841 210.598C303.349 211.105 303.94 211.506 304.611 211.799L305.092 210.7ZM303.69 209.749C303.291 209.35 302.974 208.885 302.739 208.347L301.64 208.828C301.933 209.499 302.334 210.09 302.841 210.598L303.69 209.749ZM302.742 208.354C302.52 207.828 302.407 207.261 302.407 206.647H301.207C301.207 207.413 301.349 208.139 301.637 208.821L302.742 208.354ZM302.407 206.647V195.744H301.207V206.647H302.407ZM302.407 195.744C302.407 195.131 302.52 194.564 302.742 194.037L301.637 193.571C301.349 194.253 301.207 194.979 301.207 195.744H302.407ZM302.739 194.045C302.974 193.507 303.291 193.041 303.69 192.643L302.841 191.794C302.334 192.302 301.933 192.893 301.64 193.564L302.739 194.045ZM303.69 192.643C304.087 192.245 304.55 191.935 305.085 191.709L304.618 190.603C303.944 190.888 303.35 191.285 302.841 191.794L303.69 192.643ZM305.089 191.707C305.625 191.476 306.195 191.36 306.806 191.36V190.16C306.037 190.16 305.305 190.308 304.614 190.605L305.089 191.707ZM306.806 191.36H308.25V190.16H306.806V191.36ZM308.25 191.36C308.86 191.36 309.424 191.476 309.949 191.706L310.43 190.607C309.747 190.308 309.018 190.16 308.25 190.16V191.36ZM309.957 191.709C310.491 191.935 310.954 192.245 311.351 192.643L312.2 191.794C311.691 191.285 311.097 190.888 310.423 190.603L309.957 191.709ZM311.351 192.643C311.749 193.04 312.059 193.503 312.285 194.037L313.391 193.571C313.106 192.897 312.709 192.303 312.2 191.794L311.351 192.643ZM312.288 194.045C312.518 194.57 312.634 195.134 312.634 195.744H313.834C313.834 194.976 313.686 194.247 313.387 193.564L312.288 194.045ZM312.634 195.744V206.647H313.834V195.744H312.634ZM312.008 195.744C312.008 195.214 311.908 194.711 311.702 194.243L310.603 194.725C310.738 195.031 310.808 195.368 310.808 195.744H312.008ZM311.704 194.248C311.506 193.784 311.232 193.375 310.883 193.026L310.035 193.874C310.271 194.111 310.46 194.391 310.601 194.72L311.704 194.248ZM310.883 193.026C310.534 192.677 310.125 192.404 309.662 192.205L309.189 193.308C309.518 193.449 309.798 193.638 310.035 193.874L310.883 193.026ZM309.666 192.207C309.198 192.001 308.695 191.901 308.165 191.901V193.101C308.541 193.101 308.878 193.172 309.184 193.306L309.666 192.207ZM308.165 191.901H306.891V193.101H308.165V191.901ZM306.891 191.901C306.36 191.901 305.855 192.001 305.38 192.205L305.852 193.308C306.17 193.172 306.514 193.101 306.891 193.101V191.901ZM305.375 192.207C304.923 192.405 304.519 192.677 304.165 193.019L305 193.881C305.25 193.638 305.535 193.447 305.857 193.306L305.375 192.207ZM304.158 193.026C303.809 193.375 303.536 193.784 303.337 194.248L304.44 194.72C304.581 194.391 304.77 194.111 305.007 193.874L304.158 193.026ZM303.339 194.243C303.134 194.711 303.034 195.214 303.034 195.744H304.234C304.234 195.368 304.304 195.031 304.438 194.725L303.339 194.243ZM303.034 195.744V206.647H304.234V195.744H303.034ZM303.034 206.647C303.034 207.178 303.134 207.683 303.337 208.158L304.44 207.686C304.304 207.367 304.234 207.024 304.234 206.647H303.034ZM303.339 208.163C303.538 208.615 303.809 209.019 304.151 209.373L305.013 208.538C304.771 208.288 304.579 208.003 304.438 207.681L303.339 208.163ZM304.165 209.387C304.519 209.729 304.923 210 305.375 210.199L305.857 209.1C305.535 208.959 305.25 208.767 305 208.525L304.165 209.387ZM305.38 210.201C305.855 210.404 306.36 210.504 306.891 210.504V209.304C306.514 209.304 306.17 209.234 305.852 209.098L305.38 210.201ZM306.891 210.504H308.165V209.304H306.891V210.504ZM308.165 210.504C308.695 210.504 309.198 210.404 309.666 210.199L309.184 209.1C308.878 209.234 308.541 209.304 308.165 209.304V210.504ZM309.662 210.201C310.125 210.002 310.534 209.729 310.883 209.38L310.035 208.531C309.798 208.768 309.518 208.957 309.189 209.098L309.662 210.201ZM310.89 209.373C311.232 209.019 311.504 208.615 311.702 208.163L310.603 207.681C310.462 208.003 310.271 208.288 310.028 208.538L310.89 209.373ZM311.704 208.158C311.908 207.683 312.008 207.178 312.008 206.647H310.808C310.808 207.024 310.738 207.367 310.601 207.686L311.704 208.158ZM312.008 206.647V195.744H310.808V206.647H312.008ZM228.826 248.349H228.226V248.949H228.826V248.349ZM228.826 234.429H229.426L228.232 234.342L228.826 234.429ZM228.698 235.293L229.262 235.497L229.283 235.44L229.292 235.381L228.698 235.293ZM223.983 248.349V248.949H224.404L224.547 248.552L223.983 248.349ZM223.02 248.349L222.456 248.554L222.6 248.949H223.02V248.349ZM218.262 235.293L217.667 235.371L217.676 235.436L217.698 235.498L218.262 235.293ZM218.149 234.429L218.744 234.351L217.549 234.429H218.149ZM218.149 248.349V248.949H218.749V248.349H218.149ZM216.322 248.349H215.722V248.949H216.322V248.349ZM216.322 228.043V227.443H215.722V228.043H216.322ZM217.271 228.043L217.834 227.835L217.689 227.443H217.271V228.043ZM223.431 244.695L224.029 244.65L224.023 244.566L223.993 244.487L223.431 244.695ZM223.487 245.446L222.889 245.491H224.085L223.487 245.446ZM223.544 244.695L222.981 244.488L222.952 244.566L222.946 244.65L223.544 244.695ZM229.689 228.043V227.443H229.271L229.126 227.835L229.689 228.043ZM230.652 228.043H231.252V227.443H230.652V228.043ZM230.652 248.349V248.949H231.252V248.349H230.652ZM229.426 248.349V234.429H228.226V248.349H229.426ZM228.232 234.342L228.105 235.205L229.292 235.381L229.419 234.517L228.232 234.342ZM228.134 235.089L223.418 248.145L224.547 248.552L229.262 235.497L228.134 235.089ZM223.983 247.749H223.02V248.949H223.983V247.749ZM223.584 248.143L218.826 235.088L217.698 235.498L222.456 248.554L223.584 248.143ZM218.857 235.215L218.744 234.351L217.554 234.507L217.667 235.371L218.857 235.215ZM217.549 234.429V248.349H218.749V234.429H217.549ZM218.149 247.749H216.322V248.949H218.149V247.749ZM216.922 248.349V228.043H215.722V248.349H216.922ZM216.322 228.643H217.271V227.443H216.322V228.643ZM216.708 228.251L222.868 244.903L223.993 244.487L217.834 227.835L216.708 228.251ZM222.832 244.74L222.889 245.491L224.085 245.401L224.029 244.65L222.832 244.74ZM224.085 245.491L224.142 244.74L222.946 244.65L222.889 245.401L224.085 245.491ZM224.107 244.903L230.252 228.251L229.126 227.835L222.981 244.488L224.107 244.903ZM229.689 228.643H230.652V227.443H229.689V228.643ZM230.052 228.043V248.349H231.252V228.043H230.052ZM230.652 247.749H228.826V248.949H230.652V247.749ZM235.297 248.349H234.697V248.949H235.297V248.349ZM235.297 228.043V227.443H234.697V228.043H235.297ZM237.123 228.043H237.723V227.443H237.123V228.043ZM237.123 248.349V248.949H237.723V248.349H237.123ZM235.897 248.349V228.043H234.697V248.349H235.897ZM235.297 228.643H237.123V227.443H235.297V228.643ZM236.523 228.043V248.349H237.723V228.043H236.523ZM237.123 247.749H235.297V248.949H237.123V247.749ZM241.485 248.349H240.885V248.949H241.485V248.349ZM241.485 228.043V227.443H240.885V228.043H241.485ZM243.311 228.043H243.911V227.443H243.311V228.043ZM243.311 246.607H242.711V247.207H243.311V246.607ZM251.085 246.607H251.685V246.007H251.085V246.607ZM251.085 248.349V248.949H251.685V248.349H251.085ZM242.085 248.349V228.043H240.885V248.349H242.085ZM241.485 228.643H243.311V227.443H241.485V228.643ZM242.711 228.043V246.607H243.911V228.043H242.711ZM243.311 247.207H251.085V246.007H243.311V247.207ZM250.485 246.607V248.349H251.685V246.607H250.485ZM251.085 247.749H241.485V248.949H251.085V247.749ZM263.589 248.349H262.989V248.949H263.589V248.349ZM263.589 239.074H264.189V238.474H263.589V239.074ZM255.815 239.074V238.474H255.215V239.074H255.815ZM255.815 248.349V248.949H256.415V248.349H255.815ZM253.988 248.349H253.388V248.949H253.988V248.349ZM253.988 228.043V227.443H253.388V228.043H253.988ZM255.815 228.043H256.415V227.443H255.815V228.043ZM255.815 237.332H255.215V237.932H255.815V237.332ZM263.589 237.332V237.932H264.189V237.332H263.589ZM263.589 228.043V227.443H262.989V228.043H263.589ZM265.415 228.043H266.015V227.443H265.415V228.043ZM265.415 248.349V248.949H266.015V248.349H265.415ZM264.189 248.349V239.074H262.989V248.349H264.189ZM263.589 238.474H255.815V239.674H263.589V238.474ZM255.215 239.074V248.349H256.415V239.074H255.215ZM255.815 247.749H253.988V248.949H255.815V247.749ZM254.588 248.349V228.043H253.388V248.349H254.588ZM253.988 228.643H255.815V227.443H253.988V228.643ZM255.215 228.043V237.332H256.415V228.043H255.215ZM255.815 237.932H263.589V236.732H255.815V237.932ZM264.189 237.332V228.043H262.989V237.332H264.189ZM263.589 228.643H265.415V227.443H263.589V228.643ZM264.815 228.043V248.349H266.015V228.043H264.815ZM265.415 247.749H263.589V248.949H265.415V247.749ZM270.074 248.349H269.474V248.949H270.074V248.349ZM270.074 228.043V227.443H269.474V228.043H270.074ZM281.501 228.043H282.101V227.443H281.501V228.043ZM281.501 229.785V230.385H282.101V229.785H281.501ZM271.901 229.785V229.185H271.301V229.785H271.901ZM271.901 237.332H271.301V237.932H271.901V237.332ZM279.675 237.332H280.275V236.732H279.675V237.332ZM279.675 239.074V239.674H280.275V239.074H279.675ZM271.901 239.074V238.474H271.301V239.074H271.901ZM271.901 246.607H271.301V247.207H271.901V246.607ZM281.501 246.607H282.101V246.007H281.501V246.607ZM281.501 248.349V248.949H282.101V248.349H281.501ZM270.674 248.349V228.043H269.474V248.349H270.674ZM270.074 228.643H281.501V227.443H270.074V228.643ZM280.901 228.043V229.785H282.101V228.043H280.901ZM281.501 229.185H271.901V230.385H281.501V229.185ZM271.301 229.785V237.332H272.501V229.785H271.301ZM271.901 237.932H279.675V236.732H271.901V237.932ZM279.075 237.332V239.074H280.275V237.332H279.075ZM279.675 238.474H271.901V239.674H279.675V238.474ZM271.301 239.074V246.607H272.501V239.074H271.301ZM271.901 247.207H281.501V246.007H271.901V247.207ZM280.901 246.607V248.349H282.101V246.607H280.901ZM281.501 247.749H270.074V248.949H281.501V247.749ZM292.617 243.619L293.194 243.455L293.07 243.019H292.617V243.619ZM286.188 243.619V243.019H285.734L285.611 243.457L286.188 243.619ZM284.857 248.349V248.949H285.312L285.435 248.511L284.857 248.349ZM282.96 248.349L282.384 248.18L282.159 248.949H282.96V248.349ZM288.907 228.043V227.443H288.458L288.331 227.874L288.907 228.043ZM289.87 228.043L290.446 227.874L290.319 227.443H289.87V228.043ZM295.846 248.349V248.949H296.648L296.421 248.179L295.846 248.349ZM293.962 248.349L293.385 248.513L293.509 248.949H293.962V248.349ZM286.684 241.877L286.107 241.713L285.89 242.477H286.684V241.877ZM292.136 241.877V242.477H292.931L292.713 241.712L292.136 241.877ZM289.459 232.518L288.861 232.563L288.866 232.624L288.882 232.683L289.459 232.518ZM289.403 231.767L290.001 231.722H288.804L289.403 231.767ZM289.346 232.518L289.923 232.682L289.94 232.623L289.944 232.563L289.346 232.518ZM292.617 243.019H286.188V244.219H292.617V243.019ZM285.611 243.457L284.28 248.186L285.435 248.511L286.766 243.782L285.611 243.457ZM284.857 247.749H282.96V248.949H284.857V247.749ZM283.536 248.517L289.483 228.212L288.331 227.874L282.384 248.18L283.536 248.517ZM288.907 228.643H289.87V227.443H288.907V228.643ZM289.294 228.212L295.27 248.518L296.421 248.179L290.446 227.874L289.294 228.212ZM295.846 247.749H293.962V248.949H295.846V247.749ZM294.539 248.184L293.194 243.455L292.04 243.783L293.385 248.513L294.539 248.184ZM286.684 242.477H292.136V241.277H286.684V242.477ZM292.713 241.712L290.036 232.353L288.882 232.683L291.559 242.042L292.713 241.712ZM290.058 232.472L290.001 231.722L288.804 231.812L288.861 232.563L290.058 232.472ZM288.804 231.722L288.748 232.472L289.944 232.563L290.001 231.812L288.804 231.722ZM288.769 232.353L286.107 241.713L287.261 242.042L289.923 232.682L288.769 232.353ZM309.184 245.587L308.635 245.347L308.632 245.354L309.184 245.587ZM306.536 248.25L306.77 248.802L306.777 248.799L306.536 248.25ZM301.198 248.25L300.958 248.799L300.968 248.804L301.198 248.25ZM298.536 245.587L297.983 245.821L297.986 245.828L298.536 245.587ZM298.154 228.043V227.443H297.554V228.043H298.154ZM299.98 228.043H300.58V227.443H299.98V228.043ZM300.235 244.922L299.684 245.158L299.686 245.163L300.235 244.922ZM300.929 245.956L300.498 246.373L300.505 246.38L300.512 246.387L300.929 245.956ZM301.963 246.649L301.722 247.199L301.726 247.201L301.963 246.649ZM305.772 246.649L305.535 246.098L305.531 246.1L305.772 246.649ZM306.806 245.956L307.23 246.38L307.236 246.373L306.806 245.956ZM307.499 244.922L308.049 245.163L308.051 245.158L307.499 244.922ZM307.754 228.043V227.443H307.154V228.043H307.754ZM309.581 228.043H310.181V227.443H309.581V228.043ZM308.981 243.647C308.981 244.258 308.864 244.822 308.635 245.347L309.734 245.828C310.033 245.144 310.181 244.416 310.181 243.647H308.981ZM308.632 245.354C308.406 245.889 308.095 246.352 307.698 246.749L308.547 247.598C309.056 247.088 309.453 246.494 309.737 245.821L308.632 245.354ZM307.698 246.749C307.299 247.148 306.834 247.465 306.296 247.7L306.777 248.799C307.448 248.506 308.039 248.105 308.547 247.598L307.698 246.749ZM306.303 247.697C305.777 247.919 305.21 248.032 304.597 248.032V249.232C305.362 249.232 306.088 249.09 306.77 248.802L306.303 247.697ZM304.597 248.032H303.152V249.232H304.597V248.032ZM303.152 248.032C302.539 248.032 301.966 247.919 301.428 247.695L300.968 248.804C301.657 249.09 302.387 249.232 303.152 249.232V248.032ZM301.439 247.7C300.901 247.465 300.435 247.148 300.036 246.749L299.188 247.598C299.695 248.105 300.287 248.506 300.958 248.799L301.439 247.7ZM300.036 246.749C299.638 246.35 299.321 245.885 299.086 245.347L297.986 245.828C298.28 246.499 298.68 247.09 299.188 247.598L300.036 246.749ZM299.089 245.354C298.867 244.828 298.754 244.261 298.754 243.647H297.554C297.554 244.413 297.696 245.139 297.983 245.821L299.089 245.354ZM298.754 243.647V228.043H297.554V243.647H298.754ZM298.154 228.643H299.98V227.443H298.154V228.643ZM299.38 228.043V243.647H300.58V228.043H299.38ZM299.38 243.647C299.38 244.178 299.48 244.683 299.684 245.158L300.787 244.686C300.65 244.367 300.58 244.024 300.58 243.647H299.38ZM299.686 245.163C299.884 245.615 300.156 246.019 300.498 246.373L301.36 245.538C301.117 245.288 300.926 245.003 300.785 244.681L299.686 245.163ZM300.512 246.387C300.865 246.729 301.27 247 301.722 247.199L302.204 246.1C301.882 245.959 301.597 245.767 301.347 245.525L300.512 246.387ZM301.726 247.201C302.201 247.404 302.707 247.504 303.237 247.504V246.304C302.861 246.304 302.517 246.234 302.199 246.098L301.726 247.201ZM303.237 247.504H304.512V246.304H303.237V247.504ZM304.512 247.504C305.042 247.504 305.545 247.404 306.013 247.199L305.531 246.1C305.225 246.234 304.888 246.304 304.512 246.304V247.504ZM306.008 247.201C306.472 247.002 306.881 246.729 307.23 246.38L306.381 245.531C306.145 245.768 305.865 245.957 305.535 246.098L306.008 247.201ZM307.236 246.373C307.579 246.019 307.85 245.615 308.049 245.163L306.95 244.681C306.809 245.003 306.617 245.288 306.375 245.538L307.236 246.373ZM308.051 245.158C308.254 244.683 308.354 244.178 308.354 243.647H307.154C307.154 244.024 307.084 244.367 306.948 244.686L308.051 245.158ZM308.354 243.647V228.043H307.154V243.647H308.354ZM307.754 228.643H309.581V227.443H307.754V228.643ZM308.981 228.043V243.647H310.181V228.043H308.981ZM227.353 274.502L226.803 274.261L226.8 274.269L227.353 274.502ZM224.691 277.164L224.924 277.717L224.928 277.715L224.691 277.164ZM218.149 277.546V276.946H217.549V277.546H218.149ZM218.149 285.349V285.949H218.749V285.349H218.149ZM216.322 285.349H215.722V285.949H216.322V285.349ZM216.322 265.043V264.443H215.722V265.043H216.322ZM224.691 265.439L224.45 265.989L224.461 265.994L224.691 265.439ZM227.353 268.102L226.799 268.332L226.803 268.342L227.353 268.102ZM225.668 268.781L225.116 269.018L225.118 269.022L225.668 268.781ZM224.96 267.748L224.529 268.165L224.536 268.172L224.542 268.179L224.96 267.748ZM223.926 267.04L223.685 267.589L223.69 267.591L223.926 267.04ZM218.149 266.785V266.185H217.549V266.785H218.149ZM218.149 275.805H217.549V276.405H218.149V275.805ZM223.926 275.55L223.69 274.998L223.685 275L223.926 275.55ZM224.96 274.856L224.542 274.425L224.536 274.432L224.96 274.856ZM225.668 273.836L226.217 274.078L226.219 274.073L225.668 273.836ZM227.149 272.562C227.149 273.172 227.033 273.737 226.803 274.261L227.903 274.742C228.202 274.059 228.349 273.33 228.349 272.562H227.149ZM226.8 274.269C226.575 274.803 226.264 275.267 225.867 275.664L226.715 276.512C227.224 276.003 227.621 275.409 227.906 274.735L226.8 274.269ZM225.867 275.664C225.469 276.061 225 276.377 224.453 276.613L224.928 277.715C225.609 277.422 226.206 277.021 226.715 276.512L225.867 275.664ZM224.458 276.611C223.931 276.833 223.364 276.946 222.751 276.946V278.146C223.516 278.146 224.242 278.004 224.924 277.717L224.458 276.611ZM222.751 276.946H218.149V278.146H222.751V276.946ZM217.549 277.546V285.349H218.749V277.546H217.549ZM218.149 284.749H216.322V285.949H218.149V284.749ZM216.922 285.349V265.043H215.722V285.349H216.922ZM216.322 265.643H222.751V264.443H216.322V265.643ZM222.751 265.643C223.361 265.643 223.925 265.759 224.45 265.989L224.931 264.89C224.248 264.591 223.519 264.443 222.751 264.443V265.643ZM224.461 265.994C225.004 266.219 225.471 266.53 225.867 266.926L226.715 266.077C226.204 265.566 225.604 265.169 224.921 264.885L224.461 265.994ZM225.867 266.926C226.262 267.321 226.573 267.788 226.799 268.332L227.907 267.871C227.623 267.188 227.226 266.588 226.715 266.077L225.867 266.926ZM226.803 268.342C227.033 268.867 227.149 269.431 227.149 270.042H228.349C228.349 269.273 228.202 268.544 227.903 267.861L226.803 268.342ZM227.149 270.042V272.562H228.349V270.042H227.149ZM226.523 270.042C226.523 269.511 226.423 269.008 226.217 268.54L225.118 269.022C225.253 269.328 225.323 269.665 225.323 270.042H226.523ZM226.219 268.545C226.019 268.077 225.738 267.666 225.377 267.317L224.542 268.179C224.786 268.414 224.977 268.692 225.116 269.018L226.219 268.545ZM225.391 267.33C225.041 266.969 224.63 266.688 224.162 266.488L223.69 267.591C224.015 267.73 224.293 267.922 224.529 268.165L225.391 267.33ZM224.167 266.49C223.699 266.285 223.196 266.185 222.666 266.185V267.385C223.042 267.385 223.379 267.455 223.685 267.589L224.167 266.49ZM222.666 266.185H218.149V267.385H222.666V266.185ZM217.549 266.785V275.805H218.749V266.785H217.549ZM218.149 276.405H222.666V275.205H218.149V276.405ZM222.666 276.405C223.196 276.405 223.699 276.305 224.167 276.099L223.685 275C223.379 275.135 223.042 275.205 222.666 275.205V276.405ZM224.162 276.101C224.626 275.903 225.035 275.629 225.384 275.28L224.536 274.432C224.299 274.668 224.019 274.857 223.69 274.998L224.162 276.101ZM225.377 275.287C225.736 274.94 226.016 274.535 226.217 274.078L225.118 273.595C224.98 273.911 224.788 274.187 224.542 274.425L225.377 275.287ZM226.219 274.073C226.423 273.598 226.523 273.092 226.523 272.562H225.323C225.323 272.938 225.253 273.282 225.116 273.6L226.219 274.073ZM226.523 272.562V270.042H225.323V272.562H226.523ZM240.791 285.349L240.285 285.67L240.461 285.949H240.791V285.349ZM235.283 276.683L235.789 276.361L235.612 276.083H235.283V276.683ZM232.776 276.683V276.083H232.176V276.683H232.776ZM232.776 285.349V285.949H233.376V285.349H232.776ZM230.95 285.349H230.35V285.949H230.95V285.349ZM230.95 265.043V264.443H230.35V265.043H230.95ZM239.332 265.439L239.092 265.989L239.099 265.992L239.332 265.439ZM241.98 268.102L241.426 268.332L241.431 268.342L241.98 268.102ZM241.98 273.638L241.429 273.401L241.428 273.405L241.98 273.638ZM239.332 276.3L239.566 276.853L239.573 276.85L239.332 276.3ZM237.392 276.683V276.083H236.3L236.886 277.004L237.392 276.683ZM242.901 285.349V285.949H243.993L243.407 285.027L242.901 285.349ZM240.295 268.781L239.744 269.018L239.746 269.022L240.295 268.781ZM239.601 267.748L239.17 268.165L239.177 268.172L239.601 267.748ZM238.568 267.04L238.327 267.589L238.331 267.591L238.568 267.04ZM232.776 266.785V266.185H232.176V266.785H232.776ZM232.776 274.941H232.176V275.541H232.776V274.941ZM238.568 274.686L238.331 274.135L238.327 274.137L238.568 274.686ZM239.601 273.992L240.026 274.417L240.032 274.41L239.601 273.992ZM240.295 272.958L240.845 273.2L240.847 273.195L240.295 272.958ZM241.297 285.027L235.789 276.361L234.776 277.004L240.285 285.67L241.297 285.027ZM235.283 276.083H232.776V277.283H235.283V276.083ZM232.176 276.683V285.349H233.376V276.683H232.176ZM232.776 284.749H230.95V285.949H232.776V284.749ZM231.55 285.349V265.043H230.35V285.349H231.55ZM230.95 265.643H237.392V264.443H230.95V265.643ZM237.392 265.643C238.003 265.643 238.567 265.759 239.092 265.989L239.573 264.89C238.889 264.591 238.161 264.443 237.392 264.443V265.643ZM239.099 265.992C239.634 266.218 240.097 266.529 240.494 266.926L241.343 266.077C240.833 265.568 240.239 265.171 239.566 264.887L239.099 265.992ZM240.494 266.926C240.89 267.321 241.2 267.788 241.426 268.332L242.534 267.871C242.251 267.188 241.853 266.588 241.343 266.077L240.494 266.926ZM241.431 268.342C241.66 268.867 241.777 269.431 241.777 270.042H242.977C242.977 269.273 242.829 268.544 242.53 267.861L241.431 268.342ZM241.777 270.042V271.684H242.977V270.042H241.777ZM241.777 271.684C241.777 272.294 241.66 272.865 241.429 273.401L242.531 273.876C242.829 273.185 242.977 272.452 242.977 271.684H241.777ZM241.428 273.405C241.202 273.939 240.891 274.403 240.494 274.8L241.343 275.648C241.852 275.139 242.249 274.545 242.533 273.871L241.428 273.405ZM240.494 274.8C240.095 275.199 239.63 275.515 239.092 275.751L239.573 276.85C240.244 276.557 240.835 276.156 241.343 275.648L240.494 274.8ZM239.099 275.747C238.573 275.97 238.006 276.083 237.392 276.083V277.283C238.158 277.283 238.884 277.141 239.566 276.853L239.099 275.747ZM236.886 277.004L242.394 285.67L243.407 285.027L237.899 276.361L236.886 277.004ZM242.901 284.749H240.791V285.949H242.901V284.749ZM241.15 270.042C241.15 269.511 241.05 269.008 240.845 268.54L239.746 269.022C239.88 269.328 239.95 269.665 239.95 270.042H241.15ZM240.847 268.545C240.648 268.081 240.375 267.672 240.026 267.323L239.177 268.172C239.414 268.408 239.603 268.688 239.744 269.018L240.847 268.545ZM240.032 267.33C239.683 266.969 239.272 266.688 238.804 266.488L238.331 267.591C238.657 267.73 238.935 267.922 239.17 268.165L240.032 267.33ZM238.809 266.49C238.341 266.285 237.838 266.185 237.307 266.185V267.385C237.684 267.385 238.021 267.455 238.327 267.589L238.809 266.49ZM237.307 266.185H232.776V267.385H237.307V266.185ZM232.176 266.785V274.941H233.376V266.785H232.176ZM232.776 275.541H237.307V274.341H232.776V275.541ZM237.307 275.541C237.838 275.541 238.341 275.441 238.809 275.235L238.327 274.137C238.021 274.271 237.684 274.341 237.307 274.341V275.541ZM238.804 275.238C239.268 275.039 239.677 274.765 240.026 274.416L239.177 273.568C238.941 273.804 238.661 273.993 238.331 274.135L238.804 275.238ZM240.032 274.41C240.375 274.056 240.646 273.652 240.845 273.2L239.746 272.717C239.605 273.039 239.413 273.324 239.17 273.575L240.032 274.41ZM240.847 273.195C241.05 272.72 241.15 272.214 241.15 271.684H239.95C239.95 272.06 239.88 272.404 239.744 272.722L240.847 273.195ZM241.15 271.684V270.042H239.95V271.684H241.15ZM246.398 285.349H245.798V285.949H246.398V285.349ZM246.398 265.043V264.443H245.798V265.043H246.398ZM248.225 265.043H248.825V264.443H248.225V265.043ZM248.225 285.349V285.949H248.825V285.349H248.225ZM246.998 285.349V265.043H245.798V285.349H246.998ZM246.398 265.643H248.225V264.443H246.398V265.643ZM247.625 265.043V285.349H248.825V265.043H247.625ZM248.225 284.749H246.398V285.949H248.225V284.749ZM252.884 285.349H252.284V285.949H252.884V285.349ZM252.884 265.043V264.443H252.284V265.043H252.884ZM264.311 265.043H264.911V264.443H264.311V265.043ZM264.311 266.785V267.385H264.911V266.785H264.311ZM254.71 266.785V266.185H254.11V266.785H254.71ZM254.71 274.332H254.11V274.932H254.71V274.332ZM262.484 274.332H263.084V273.732H262.484V274.332ZM262.484 276.074V276.674H263.084V276.074H262.484ZM254.71 276.074V275.474H254.11V276.074H254.71ZM254.71 283.607H254.11V284.207H254.71V283.607ZM264.311 283.607H264.911V283.007H264.311V283.607ZM264.311 285.349V285.949H264.911V285.349H264.311ZM253.484 285.349V265.043H252.284V285.349H253.484ZM252.884 265.643H264.311V264.443H252.884V265.643ZM263.711 265.043V266.785H264.911V265.043H263.711ZM264.311 266.185H254.71V267.385H264.311V266.185ZM254.11 266.785V274.332H255.31V266.785H254.11ZM254.71 274.932H262.484V273.732H254.71V274.932ZM261.884 274.332V276.074H263.084V274.332H261.884ZM262.484 275.474H254.71V276.674H262.484V275.474ZM254.11 276.074V283.607H255.31V276.074H254.11ZM254.71 284.207H264.311V283.007H254.71V284.207ZM263.711 283.607V285.349H264.911V283.607H263.711ZM264.311 284.749H252.884V285.949H264.311V284.749ZM278.542 282.587L277.992 282.347L277.989 282.354L278.542 282.587ZM275.894 285.25L276.127 285.802L276.134 285.799L275.894 285.25ZM270.556 285.25L270.315 285.799L270.325 285.804L270.556 285.25ZM267.893 282.587L267.341 282.821L267.344 282.828L267.893 282.587ZM267.511 265.043V264.443H266.911V265.043H267.511ZM269.338 265.043H269.938V264.443H269.338V265.043ZM269.593 281.922L269.041 282.158L269.043 282.163L269.593 281.922ZM270.286 282.956L269.856 283.373L269.862 283.38L269.869 283.387L270.286 282.956ZM271.32 283.649L271.079 284.199L271.084 284.201L271.32 283.649ZM275.129 283.649L274.893 283.098L274.888 283.1L275.129 283.649ZM276.163 282.956L276.587 283.38L276.594 283.373L276.163 282.956ZM276.857 281.922L277.406 282.163L277.408 282.158L276.857 281.922ZM277.112 265.043V264.443H276.512V265.043H277.112ZM278.938 265.043H279.538V264.443H278.938V265.043ZM278.338 280.647C278.338 281.258 278.222 281.822 277.992 282.347L279.092 282.828C279.391 282.144 279.538 281.416 279.538 280.647H278.338ZM277.989 282.354C277.764 282.889 277.453 283.352 277.056 283.749L277.904 284.598C278.413 284.088 278.81 283.494 279.095 282.821L277.989 282.354ZM277.056 283.749C276.657 284.148 276.191 284.465 275.653 284.7L276.134 285.799C276.805 285.506 277.397 285.105 277.904 284.598L277.056 283.749ZM275.661 284.697C275.134 284.919 274.567 285.032 273.954 285.032V286.232C274.719 286.232 275.445 286.09 276.127 285.802L275.661 284.697ZM273.954 285.032H272.51V286.232H273.954V285.032ZM272.51 285.032C271.897 285.032 271.324 284.919 270.786 284.695L270.325 285.804C271.015 286.09 271.745 286.232 272.51 286.232V285.032ZM270.796 284.7C270.258 284.465 269.793 284.148 269.394 283.749L268.545 284.598C269.053 285.105 269.644 285.506 270.315 285.799L270.796 284.7ZM269.394 283.749C268.995 283.35 268.678 282.885 268.443 282.347L267.344 282.828C267.637 283.499 268.038 284.09 268.545 284.598L269.394 283.749ZM268.446 282.354C268.224 281.828 268.111 281.261 268.111 280.647H266.911C266.911 281.413 267.053 282.139 267.341 282.821L268.446 282.354ZM268.111 280.647V265.043H266.911V280.647H268.111ZM267.511 265.643H269.338V264.443H267.511V265.643ZM268.738 265.043V280.647H269.938V265.043H268.738ZM268.738 280.647C268.738 281.178 268.838 281.683 269.041 282.158L270.144 281.686C270.008 281.367 269.938 281.024 269.938 280.647H268.738ZM269.043 282.163C269.242 282.615 269.513 283.019 269.856 283.373L270.717 282.538C270.475 282.288 270.283 282.003 270.142 281.681L269.043 282.163ZM269.869 283.387C270.223 283.729 270.627 284 271.079 284.199L271.561 283.1C271.239 282.959 270.955 282.767 270.704 282.525L269.869 283.387ZM271.084 284.201C271.559 284.404 272.064 284.504 272.595 284.504V283.304C272.219 283.304 271.875 283.234 271.557 283.098L271.084 284.201ZM272.595 284.504H273.869V283.304H272.595V284.504ZM273.869 284.504C274.399 284.504 274.902 284.404 275.37 284.199L274.888 283.1C274.582 283.234 274.245 283.304 273.869 283.304V284.504ZM275.366 284.201C275.829 284.002 276.238 283.729 276.587 283.38L275.739 282.531C275.502 282.768 275.222 282.957 274.893 283.098L275.366 284.201ZM276.594 283.373C276.936 283.019 277.208 282.615 277.406 282.163L276.307 281.681C276.166 282.003 275.975 282.288 275.732 282.538L276.594 283.373ZM277.408 282.158C277.612 281.683 277.712 281.178 277.712 280.647H276.512C276.512 281.024 276.442 281.367 276.305 281.686L277.408 282.158ZM277.712 280.647V265.043H276.512V280.647H277.712ZM277.112 265.643H278.938V264.443H277.112V265.643ZM278.338 265.043V280.647H279.538V265.043H278.338ZM292.844 285.349L292.337 285.67L292.514 285.949H292.844V285.349ZM287.335 276.683L287.842 276.361L287.665 276.083H287.335V276.683ZM284.829 276.683V276.083H284.229V276.683H284.829ZM284.829 285.349V285.949H285.429V285.349H284.829ZM283.002 285.349H282.402V285.949H283.002V285.349ZM283.002 265.043V264.443H282.402V265.043H283.002ZM291.385 265.439L291.145 265.989L291.152 265.992L291.385 265.439ZM294.033 268.102L293.479 268.332L293.483 268.342L294.033 268.102ZM294.033 273.638L293.482 273.401L293.48 273.405L294.033 273.638ZM291.385 276.3L291.618 276.853L291.626 276.85L291.385 276.3ZM289.445 276.683V276.083H288.353L288.939 277.004L289.445 276.683ZM294.953 285.349V285.949H296.046L295.46 285.027L294.953 285.349ZM292.348 268.781L291.797 269.018L291.799 269.022L292.348 268.781ZM291.654 267.748L291.223 268.165L291.23 268.172L291.654 267.748ZM290.62 267.04L290.379 267.589L290.384 267.591L290.62 267.04ZM284.829 266.785V266.185H284.229V266.785H284.829ZM284.829 274.941H284.229V275.541H284.829V274.941ZM290.62 274.686L290.384 274.135L290.379 274.137L290.62 274.686ZM291.654 273.992L292.078 274.417L292.085 274.41L291.654 273.992ZM292.348 272.958L292.897 273.2L292.9 273.195L292.348 272.958ZM293.35 285.027L287.842 276.361L286.829 277.004L292.337 285.67L293.35 285.027ZM287.335 276.083H284.829V277.283H287.335V276.083ZM284.229 276.683V285.349H285.429V276.683H284.229ZM284.829 284.749H283.002V285.949H284.829V284.749ZM283.602 285.349V265.043H282.402V285.349H283.602ZM283.002 265.643H289.445V264.443H283.002V265.643ZM289.445 265.643C290.055 265.643 290.62 265.759 291.145 265.989L291.626 264.89C290.942 264.591 290.213 264.443 289.445 264.443V265.643ZM291.152 265.992C291.686 266.218 292.15 266.529 292.547 266.926L293.395 266.077C292.886 265.568 292.292 265.171 291.618 264.887L291.152 265.992ZM292.547 266.926C292.942 267.321 293.253 267.788 293.479 268.332L294.587 267.871C294.303 267.188 293.906 266.588 293.395 266.077L292.547 266.926ZM293.483 268.342C293.713 268.867 293.83 269.431 293.83 270.042H295.03C295.03 269.273 294.882 268.544 294.583 267.861L293.483 268.342ZM293.83 270.042V271.684H295.03V270.042H293.83ZM293.83 271.684C293.83 272.294 293.713 272.865 293.482 273.401L294.584 273.876C294.882 273.185 295.03 272.452 295.03 271.684H293.83ZM293.48 273.405C293.255 273.939 292.944 274.403 292.547 274.8L293.395 275.648C293.905 275.139 294.302 274.545 294.586 273.871L293.48 273.405ZM292.547 274.8C292.148 275.199 291.682 275.515 291.145 275.751L291.626 276.85C292.296 276.557 292.888 276.156 293.395 275.648L292.547 274.8ZM291.152 275.747C290.625 275.97 290.058 276.083 289.445 276.083V277.283C290.21 277.283 290.937 277.141 291.618 276.853L291.152 275.747ZM288.939 277.004L294.447 285.67L295.46 285.027L289.952 276.361L288.939 277.004ZM294.953 284.749H292.844V285.949H294.953V284.749ZM293.203 270.042C293.203 269.511 293.103 269.008 292.897 268.54L291.799 269.022C291.933 269.328 292.003 269.665 292.003 270.042H293.203ZM292.9 268.545C292.701 268.081 292.427 267.672 292.078 267.323L291.23 268.172C291.466 268.408 291.655 268.688 291.797 269.018L292.9 268.545ZM292.085 267.33C291.736 266.969 291.325 266.688 290.857 266.488L290.384 267.591C290.709 267.73 290.987 267.922 291.223 268.165L292.085 267.33ZM290.862 266.49C290.393 266.285 289.89 266.185 289.36 266.185V267.385C289.736 267.385 290.074 267.455 290.379 267.589L290.862 266.49ZM289.36 266.185H284.829V267.385H289.36V266.185ZM284.229 266.785V274.941H285.429V266.785H284.229ZM284.829 275.541H289.36V274.341H284.829V275.541ZM289.36 275.541C289.89 275.541 290.393 275.441 290.862 275.235L290.379 274.137C290.074 274.271 289.736 274.341 289.36 274.341V275.541ZM290.857 275.238C291.32 275.039 291.73 274.765 292.078 274.416L291.23 273.568C290.994 273.804 290.713 273.993 290.384 274.135L290.857 275.238ZM292.085 274.41C292.428 274.056 292.699 273.652 292.897 273.2L291.799 272.717C291.657 273.039 291.466 273.324 291.223 273.575L292.085 274.41ZM292.9 273.195C293.103 272.72 293.203 272.214 293.203 271.684H292.003C292.003 272.06 291.933 272.404 291.797 272.722L292.9 273.195ZM293.203 271.684V270.042H292.003V271.684H293.203Z" fill="#C8B369"/>
</g>
</g>
</svg>
