<svg width="364" height="377" fill="none" xmlns="http://www.w3.org/2000/svg"><path d="M362 188.667c0 103.093-80.588 186.666-180 186.666S2 291.76 2 188.667C2 85.573 82.588 2 182 2s180 83.573 180 186.667z" stroke="#C8B268" stroke-width="3" stroke-miterlimit="10"/><path d="M125.998 142.257l-7.154-49.692s-1.364-4.943 2.558-4.26c3.921.68 56.937 8.182 56.937 8.182s4.807.51 4.536 4.432c-.273 3.922-1.636 36.142-22.604 42.108-8.525 2.386-16.537-4.604-16.879-8.354-.34-3.75 33.926-9.035 45.688 23.014 10.399 32.22 11.251 47.051 11.251 47.051s.853 2.557-2.045 2.387c-2.899-.171-14.66-8.183 1.534-12.955l9.546-.341s8.354-.171 8.354 5.965c0 6.137-4.602 7.331-7.16 7.16-2.557-.169-1.534-3.128-1.534-3.128s2.897-72.221 1.874-74.949c.171-3.58 1.366-4.774 4.434-4.603 3.58.171 38.016 3.751 38.868 4.432.852.683 4.602.341 3.24 4.773-1.366 4.434-10.571 29.322-36.996 17.56-4.09-2.046 5.457-5.966 7.33-6.137 2.388-.512 13.64-3.069 26.936 2.728 13.298 5.795 10.911 5.113 10.911 5.113s3.068 1.195 3.921-4.432c.852-5.625 4.944-32.39 4.603-35.288-.341-2.898 1.364-3.58-4.943-5.796-6.308-2.216-105.865-40.233-120.868-48.926-3.409-1.364-7.16-2.387-7.16.852 0 3.238 1.471 32.433 1.471 32.433m-16.07 54.69l-.579-4.02" stroke="#C7B169" stroke-width="2.667" stroke-miterlimit="10" stroke-linecap="round" stroke-linejoin="round"/><path d="M127.369 206.656l-2.492 111.47s-.74 3.377-2.112 1.172c-1.028-1.655 1.193-22.332 24.208-27.278 23.015-4.942 46.369-5.752 58.473 8.696 13.467 15.854 9.035 17.218 7.672 16.194-1.365-1.022-31.197-33.668-34.266-37.672-1.888-2.467-7.842-20.288 11.422-18.754-5.456-4.433-28.128-8.865-46.541-29.664-18.411-20.797-34.435-63.074-34.435-63.074s-1.193-1.876 1.194-2.216c2.386-.342 39.378-6.82 50.46-5.456 10.398 1.876 21.82 27.105 9.546 42.618-4.602 5.627-28.81 8.866-30.856 2.728-1.685-5.056-8.052-32.594-10.305-42.41m-2.855-15.752c2.702-5.648 7.927-11.217 17.883-13.77M123.881 163.4s-1.222-8.15 2.601-16.14" stroke="#C7B169" stroke-width="2.667" stroke-miterlimit="10" stroke-linecap="round" stroke-linejoin="round"/><path d="M188.396 259.275c2.421 1.304 3.862 1.76 6.408 2.05 6.393.734 12.188-6.218 12.188-12.652 0-6.436-5.163-12.164-11.598-12.164" stroke="#C7B169" stroke-width="2.667" stroke-miterlimit="10" stroke-linecap="round" stroke-linejoin="round"/><path d="M178.191 221.296s8.055-6.264 8.375-6.648c.32-.383 1.279-1.407 3.069 0 1.79 1.405 6.584 6.072 13.679.384 1.792-1.103 2.303-.96 2.877-.384.576.574 9.719 7.862 9.719 7.862s2.3 1.151.831 4.219c-1.471 3.069-20.97 20.457-39.892 0-2.622-2.941 1.342-5.433 1.342-5.433zm-1.821 2.588l40.434.224" stroke="#C7B169" stroke-width="2.667" stroke-miterlimit="10" stroke-linecap="round" stroke-linejoin="round"/></svg>