<svg width="170" height="273" fill="none" xmlns="http://www.w3.org/2000/svg"><path d="M18.998 88.87l-7.153-50.633s-1.364-5.036 2.557-4.34c3.921.693 56.937 8.337 56.937 8.337s4.807.52 4.536 4.516c-.273 3.996-1.636 36.825-22.604 42.905-8.525 2.43-16.537-4.691-16.878-8.513-.34-3.82 33.925-9.206 45.688 23.45 10.398 32.83 11.25 47.941 11.25 47.941s.854 2.606-2.045 2.432c-2.899-.174-14.66-8.338 1.535-13.2l9.545-.348s8.355-.174 8.355 6.078c0 6.254-4.603 7.47-7.16 7.296-2.558-.173-1.535-3.187-1.535-3.187s2.897-73.588 1.875-76.368c.17-3.647 1.365-4.863 4.433-4.69 3.58.174 38.016 3.822 38.868 4.516.852.696 4.603.348 3.24 4.864-1.365 4.517-10.571 29.876-36.996 17.892-4.089-2.085 5.457-6.08 7.331-6.253 2.388-.522 13.64-3.127 26.936 2.78 13.297 5.904 10.91 5.21 10.91 5.21s3.068 1.217 3.922-4.516c.852-5.732 4.944-33.004 4.602-35.956-.341-2.953 1.364-3.648-4.942-5.905C155.897 50.92 56.339 12.183 41.337 3.325c-3.41-1.39-7.16-2.432-7.16.868s1.47 33.047 1.47 33.047m-16.07 55.725l-.58-4.096" stroke="#C7B169" stroke-width="4" stroke-miterlimit="10" stroke-linecap="round" stroke-linejoin="round"/><path d="M20.369 154.488l-2.492 113.578s-.74 3.441-2.112 1.194c-1.028-1.686 1.193-22.754 24.208-27.793 23.015-5.037 46.37-5.861 58.473 8.86 13.467 16.153 9.035 17.543 7.672 16.5-1.365-1.041-31.197-34.305-34.266-38.385-1.888-2.513-7.842-20.672 11.422-19.108-5.456-4.517-28.128-9.033-46.541-30.225-18.41-21.191-34.435-64.268-34.435-64.268s-1.193-1.912 1.194-2.258c2.386-.348 39.378-6.949 50.46-5.559 10.398 1.911 21.82 27.618 9.546 43.425-4.602 5.733-28.81 9.033-30.856 2.779-1.685-5.151-8.052-33.211-10.305-43.213m-2.855-16.049c2.701-5.755 7.927-11.43 17.883-14.031M16.88 110.413s-1.22-8.304 2.602-16.446" stroke="#C7B169" stroke-width="4" stroke-miterlimit="10" stroke-linecap="round" stroke-linejoin="round"/><path d="M81.396 208.101c2.421 1.329 3.862 1.794 6.408 2.09 6.393.747 12.188-6.336 12.188-12.891 0-6.558-5.163-12.395-11.598-12.395" stroke="#C7B169" stroke-width="4" stroke-miterlimit="10" stroke-linecap="round" stroke-linejoin="round"/><path d="M71.192 169.404s8.054-6.383 8.374-6.774c.32-.39 1.279-1.433 3.07 0 1.789 1.432 6.584 6.187 13.678.391 1.792-1.123 2.303-.978 2.878-.391.576.586 9.718 8.012 9.718 8.012s2.3 1.172.831 4.298c-1.471 3.127-20.97 20.844-39.892 0-2.621-2.997 1.343-5.536 1.343-5.536zm-1.822 2.638l40.434.228" stroke="#C7B169" stroke-width="4" stroke-miterlimit="10" stroke-linecap="round" stroke-linejoin="round"/></svg>