<svg width="364" height="377" fill="none" xmlns="http://www.w3.org/2000/svg"><path d="M362 188.667c0 103.093-80.588 186.666-180 186.666S2 291.76 2 188.667C2 85.573 82.588 2 182 2s180 83.573 180 186.667z" stroke="#C8B268" stroke-width="3" stroke-miterlimit="10"/><path d="M362 188.667c0 103.093-80.588 186.666-180 186.666S2 291.76 2 188.667C2 85.573 82.588 2 182 2s180 83.573 180 186.667z" stroke="url(#paint0_diamond)" stroke-width="3" stroke-miterlimit="10"/><path d="M91.486 142.085l-7.153-49.692s-1.364-4.943 2.557-4.26c3.921.68 56.938 8.182 56.938 8.182s4.806.511 4.536 4.432c-.274 3.922-1.636 36.142-22.604 42.108-8.526 2.386-16.538-4.604-16.879-8.354-.34-3.75 33.925-9.035 45.688 23.014 10.399 32.22 11.251 47.051 11.251 47.051s.853 2.557-2.046 2.387c-2.898-.171-14.66-8.183 1.535-12.955l9.545-.341s8.355-.171 8.355 5.965c0 6.137-4.603 7.331-7.16 7.16-2.557-.169-1.535-3.128-1.535-3.128s2.898-72.221 1.875-74.949c.171-3.58 1.365-4.774 4.433-4.603 3.58.171 38.016 3.751 38.868 4.432.852.683 4.603.341 3.24 4.773-1.365 4.434-10.57 29.322-36.996 17.56-4.089-2.046 5.458-5.966 7.331-6.137 2.388-.512 13.64-3.069 26.936 2.728 13.297 5.795 10.911 5.113 10.911 5.113s3.068 1.195 3.921-4.432c.852-5.625 4.944-32.39 4.603-35.288-.342-2.898 1.364-3.58-4.943-5.796-6.308-2.216-105.865-40.233-120.868-48.926-3.409-1.364-7.16-2.387-7.16.852 0 3.238 1.471 32.433 1.471 32.433" stroke="#C8B268" stroke-width="2.667" stroke-miterlimit="10" stroke-linecap="round" stroke-linejoin="round"/><path d="M91.486 142.085l-7.153-49.692s-1.364-4.943 2.557-4.26c3.921.68 56.938 8.182 56.938 8.182s4.806.511 4.536 4.432c-.274 3.922-1.636 36.142-22.604 42.108-8.526 2.386-16.538-4.604-16.879-8.354-.34-3.75 33.925-9.035 45.688 23.014 10.399 32.22 11.251 47.051 11.251 47.051s.853 2.557-2.046 2.387c-2.898-.171-14.66-8.183 1.535-12.955l9.545-.341s8.355-.171 8.355 5.965c0 6.137-4.603 7.331-7.16 7.16-2.557-.169-1.535-3.128-1.535-3.128s2.898-72.221 1.875-74.949c.171-3.58 1.365-4.774 4.433-4.603 3.58.171 38.016 3.751 38.868 4.432.852.683 4.603.341 3.24 4.773-1.365 4.434-10.57 29.322-36.996 17.56-4.089-2.046 5.458-5.966 7.331-6.137 2.388-.512 13.64-3.069 26.936 2.728 13.297 5.795 10.911 5.113 10.911 5.113s3.068 1.195 3.921-4.432c.852-5.625 4.944-32.39 4.603-35.288-.342-2.898 1.364-3.58-4.943-5.796-6.308-2.216-105.865-40.233-120.868-48.926-3.409-1.364-7.16-2.387-7.16.852 0 3.238 1.471 32.433 1.471 32.433" stroke="url(#paint1_diamond)" stroke-width="2.667" stroke-miterlimit="10" stroke-linecap="round" stroke-linejoin="round"/><path d="M92.065 146.104l-.579-4.02" stroke="#C8B268" stroke-width="2.667" stroke-miterlimit="10" stroke-linecap="round" stroke-linejoin="round"/><path d="M92.065 146.104l-.579-4.02" stroke="url(#paint2_diamond)" stroke-width="2.667" stroke-miterlimit="10" stroke-linecap="round" stroke-linejoin="round"/><path d="M92.857 206.484l-2.492 111.47s-.74 3.377-2.112 1.172c-1.028-1.655 1.194-22.332 24.208-27.278 23.015-4.942 46.37-5.752 58.474 8.696 13.466 15.854 9.034 17.218 7.672 16.194-1.366-1.022-31.198-33.668-34.267-37.672-1.888-2.467-7.841-20.288 11.423-18.754-5.456-4.433-28.128-8.865-46.542-29.664-18.41-20.797-34.434-63.074-34.434-63.074s-1.194-1.876 1.193-2.216c2.387-.342 39.379-6.82 50.46-5.456 10.399 1.876 21.82 27.105 9.547 42.618-4.603 5.627-28.811 8.866-30.856 2.728-1.686-5.056-8.052-32.594-10.306-42.41" stroke="#C8B268" stroke-width="2.667" stroke-miterlimit="10" stroke-linecap="round" stroke-linejoin="round"/><path d="M92.857 206.484l-2.492 111.47s-.74 3.377-2.112 1.172c-1.028-1.655 1.194-22.332 24.208-27.278 23.015-4.942 46.37-5.752 58.474 8.696 13.466 15.854 9.034 17.218 7.672 16.194-1.366-1.022-31.198-33.668-34.267-37.672-1.888-2.467-7.841-20.288 11.423-18.754-5.456-4.433-28.128-8.865-46.542-29.664-18.41-20.797-34.434-63.074-34.434-63.074s-1.194-1.876 1.193-2.216c2.387-.342 39.379-6.82 50.46-5.456 10.399 1.876 21.82 27.105 9.547 42.618-4.603 5.627-28.811 8.866-30.856 2.728-1.686-5.056-8.052-32.594-10.306-42.41" stroke="url(#paint3_diamond)" stroke-width="2.667" stroke-miterlimit="10" stroke-linecap="round" stroke-linejoin="round"/><path d="M91.97 147.087c2.702-5.648 7.927-11.218 17.883-13.771" stroke="#C8B268" stroke-width="2.667" stroke-miterlimit="10" stroke-linecap="round" stroke-linejoin="round"/><path d="M91.97 147.087c2.702-5.648 7.927-11.218 17.883-13.771" stroke="url(#paint4_diamond)" stroke-width="2.667" stroke-miterlimit="10" stroke-linecap="round" stroke-linejoin="round"/><path d="M89.37 163.228s-1.222-8.149 2.6-16.14" stroke="#C8B268" stroke-width="2.667" stroke-miterlimit="10" stroke-linecap="round" stroke-linejoin="round"/><path d="M89.37 163.228s-1.222-8.149 2.6-16.14" stroke="url(#paint5_diamond)" stroke-width="2.667" stroke-miterlimit="10" stroke-linecap="round" stroke-linejoin="round"/><path d="M153.884 259.103c2.421 1.304 3.863 1.76 6.408 2.05 6.393.734 12.188-6.218 12.188-12.652 0-6.436-5.163-12.164-11.597-12.164" stroke="#C8B268" stroke-width="2.667" stroke-miterlimit="10" stroke-linecap="round" stroke-linejoin="round"/><path d="M153.884 259.103c2.421 1.304 3.863 1.76 6.408 2.05 6.393.734 12.188-6.218 12.188-12.652 0-6.436-5.163-12.164-11.597-12.164" stroke="url(#paint6_diamond)" stroke-width="2.667" stroke-miterlimit="10" stroke-linecap="round" stroke-linejoin="round"/><path d="M143.68 221.124s8.054-6.264 8.374-6.648c.32-.383 1.279-1.407 3.07 0 1.789 1.405 6.584 6.072 13.678.384 1.792-1.103 2.303-.96 2.878-.384.576.574 9.718 7.862 9.718 7.862s2.3 1.151.831 4.219c-1.471 3.069-20.969 20.457-39.892 0-2.621-2.941 1.343-5.433 1.343-5.433z" stroke="#C8B268" stroke-width="2.667" stroke-miterlimit="10" stroke-linecap="round" stroke-linejoin="round"/><path d="M143.68 221.124s8.054-6.264 8.374-6.648c.32-.383 1.279-1.407 3.07 0 1.789 1.405 6.584 6.072 13.678.384 1.792-1.103 2.303-.96 2.878-.384.576.574 9.718 7.862 9.718 7.862s2.3 1.151.831 4.219c-1.471 3.069-20.969 20.457-39.892 0-2.621-2.941 1.343-5.433 1.343-5.433z" stroke="url(#paint7_diamond)" stroke-width="2.667" stroke-miterlimit="10" stroke-linecap="round" stroke-linejoin="round"/><path d="M141.858 223.712l40.435.224" stroke="#C8B268" stroke-width="2.667" stroke-miterlimit="10" stroke-linecap="round" stroke-linejoin="round"/><path d="M141.858 223.712l40.435.224" stroke="url(#paint8_diamond)" stroke-width="2.667" stroke-miterlimit="10" stroke-linecap="round" stroke-linejoin="round"/><path d="M227.996 208v-14.079l-.129.873L223.098 208h-.974l-4.813-13.206-.114-.873V208h-1.848v-20.539h.96l6.23 16.844.057.759.058-.759 6.216-16.844h.974V208h-1.848zm14.251-4.784h-6.502L234.398 208h-1.919l6.016-20.539h.974L245.513 208h-1.905l-1.361-4.784zm-6.001-1.762h5.514l-2.707-9.467-.057-.759-.057.759-2.693 9.467zm23.16 6.546h-.587l-1.074-1.647a5.158 5.158 0 01-1.633 1.418c-.64.344-1.351.515-2.134.515h-1.074a5.1 5.1 0 01-1.977-.386 5.181 5.181 0 01-1.604-1.089 5.198 5.198 0 01-1.089-1.604 5.009 5.009 0 01-.386-1.962v-11.029c0-.697.129-1.351.386-1.962a5.198 5.198 0 011.089-1.604 4.957 4.957 0 011.604-1.074 4.936 4.936 0 011.977-.402h1.461a4.83 4.83 0 011.962.402 4.957 4.957 0 012.678 2.678 4.83 4.83 0 01.401 1.962v.831l-1.847.286v-1.117c0-.458-.086-.883-.258-1.275a3.301 3.301 0 00-.702-1.045 3.306 3.306 0 00-1.046-.702 3.13 3.13 0 00-1.274-.258h-1.289c-.459 0-.888.086-1.289.258-.392.172-.74.406-1.046.702-.296.296-.53.644-.702 1.045a3.138 3.138 0 00-.258 1.275v11.029c0 .458.086.888.258 1.289.172.391.406.74.702 1.045.306.296.654.53 1.046.702.401.172.83.258 1.289.258h1.289a3.13 3.13 0 001.274-.258c.401-.172.75-.406 1.046-.702a3.53 3.53 0 00.702-1.045c.172-.401.258-.831.258-1.289v-4.283h-3.28v-1.761h5.127V208zm12.117-4.784h-6.502L263.674 208h-1.919l6.016-20.539h.974L274.789 208h-1.905l-1.361-4.784zm-6.001-1.762h5.514l-2.707-9.467-.057-.759-.057.759-2.693 9.467zM277.124 208v-20.539h1.847v18.777h7.864V208h-9.711zm12.346 0v-20.539h1.848v18.777h7.863V208h-9.711zm23.905-4.755c0 .697-.134 1.351-.401 1.962a4.99 4.99 0 01-1.074 1.604 5.193 5.193 0 01-1.604 1.089 5 5 0 01-1.963.386h-1.461a5.092 5.092 0 01-1.976-.386 5.164 5.164 0 01-2.693-2.693 4.991 4.991 0 01-.387-1.962v-11.029c0-.697.129-1.351.387-1.962a5.164 5.164 0 011.089-1.604 4.957 4.957 0 011.604-1.074 4.928 4.928 0 011.976-.402h1.461c.697 0 1.351.134 1.963.402a4.968 4.968 0 012.678 2.678c.267.611.401 1.265.401 1.962v11.029zm-1.848-11.029c0-.458-.086-.883-.257-1.275a3.301 3.301 0 00-.702-1.045 3.306 3.306 0 00-1.046-.702 3.131 3.131 0 00-1.275-.258h-1.289c-.458 0-.888.086-1.289.258a3.53 3.53 0 00-1.045.702c-.296.296-.53.644-.702 1.045a3.138 3.138 0 00-.258 1.275v11.029c0 .458.086.888.258 1.289.172.391.406.74.702 1.045.305.296.654.53 1.045.702.401.172.831.258 1.289.258h1.289c.459 0 .884-.086 1.275-.258.401-.172.75-.406 1.046-.702a3.53 3.53 0 00.702-1.045c.171-.401.257-.831.257-1.289v-11.029zM227.996 245v-14.079l-.129.873L223.098 245h-.974l-4.813-13.206-.114-.873V245h-1.848v-20.539h.96l6.23 16.844.057.759.058-.759 6.216-16.844h.974V245h-1.848zm6.546 0v-20.539h1.847V245h-1.847zm6.259 0v-20.539h1.847v18.777h7.864V245h-9.711zm22.358 0v-9.382h-7.863V245h-1.848v-20.539h1.848v9.396h7.863v-9.396h1.848V245h-1.848zm6.56 0v-20.539h11.558v1.762h-9.711v7.634h7.864v1.761h-7.864v7.62h9.711V245h-11.558zm22.802-4.784h-6.503L284.672 245h-1.919l6.015-20.539h.974L295.786 245h-1.904l-1.361-4.784zm-6.001-1.762h5.514l-2.707-9.467-.057-.759-.058.759-2.692 9.467zm23.16 1.791c0 .697-.134 1.351-.401 1.962a4.976 4.976 0 01-1.075 1.604 5.181 5.181 0 01-1.604 1.089 4.99 4.99 0 01-1.962.386h-1.461a5.092 5.092 0 01-1.976-.386 5.186 5.186 0 01-1.605-1.089 5.178 5.178 0 01-1.088-1.604 4.991 4.991 0 01-.387-1.962v-15.784h1.848v15.784c0 .458.086.888.258 1.289.171.391.405.74.701 1.045.306.296.654.53 1.046.702.401.172.831.258 1.289.258h1.289c.458 0 .883-.086 1.275-.258a3.301 3.301 0 001.045-.702 3.53 3.53 0 00.702-1.045c.172-.401.258-.831.258-1.289v-15.784h1.848v15.784zm-82.772 28.821a4.85 4.85 0 01-.401 1.963 4.987 4.987 0 01-1.075 1.604 5.137 5.137 0 01-1.618 1.088 4.991 4.991 0 01-1.962.387h-4.655V282h-1.848v-20.539h6.503c.697 0 1.351.134 1.962.401.62.258 1.16.616 1.618 1.074.459.459.817.998 1.075 1.619.267.611.401 1.265.401 1.962v2.549zm-1.848-2.549c0-.458-.086-.883-.258-1.275a3.195 3.195 0 00-.716-1.045 3.187 3.187 0 00-1.046-.717 3.146 3.146 0 00-1.274-.257h-4.569v9.123h4.569c.458 0 .883-.086 1.274-.257.401-.172.75-.406 1.046-.702.305-.296.544-.64.716-1.032.172-.401.258-.83.258-1.289v-2.549zM240.099 282l-5.572-8.766h-2.535V282h-1.847v-20.539h6.516c.698 0 1.352.134 1.963.401a4.99 4.99 0 011.604 1.074c.458.459.816.998 1.074 1.619.267.611.401 1.265.401 1.962v1.661c0 .697-.134 1.356-.401 1.977a4.99 4.99 0 01-1.074 1.604 5.198 5.198 0 01-1.604 1.089 5.01 5.01 0 01-1.963.386l5.572 8.766h-2.134zm-.244-15.483c0-.458-.085-.883-.257-1.275a3.301 3.301 0 00-.702-1.045 3.187 3.187 0 00-1.046-.717 3.146 3.146 0 00-1.274-.257h-4.584v8.25h4.584a3.13 3.13 0 001.274-.258c.401-.172.75-.406 1.046-.702.296-.306.53-.654.702-1.046.172-.401.257-.83.257-1.289v-1.661zM245.771 282v-20.539h1.847V282h-1.847zm6.56 0v-20.539h11.558v1.762h-9.711v7.634h7.864v1.761h-7.864v7.62h9.711V282h-11.558zm26.354-4.755c0 .697-.134 1.351-.401 1.962a4.99 4.99 0 01-1.074 1.604 5.186 5.186 0 01-1.605 1.089 4.99 4.99 0 01-1.962.386h-1.461a5.092 5.092 0 01-1.976-.386 5.164 5.164 0 01-2.693-2.693 4.991 4.991 0 01-.387-1.962v-15.784h1.848v15.784c0 .458.086.888.258 1.289.172.391.406.74.702 1.045.305.296.654.53 1.045.702.401.172.831.258 1.289.258h1.289c.459 0 .884-.086 1.275-.258.401-.172.75-.406 1.046-.702.296-.305.53-.654.701-1.045.172-.401.258-.831.258-1.289v-15.784h1.848v15.784zM292.75 282l-5.572-8.766h-2.535V282h-1.847v-20.539h6.516c.698 0 1.352.134 1.963.401a4.99 4.99 0 011.604 1.074c.458.459.816.998 1.074 1.619.267.611.401 1.265.401 1.962v1.661c0 .697-.134 1.356-.401 1.977a4.99 4.99 0 01-1.074 1.604 5.198 5.198 0 01-1.604 1.089 5.01 5.01 0 01-1.963.386l5.572 8.766h-2.134zm-.243-15.483c0-.458-.086-.883-.258-1.275a3.301 3.301 0 00-.702-1.045 3.187 3.187 0 00-1.046-.717 3.146 3.146 0 00-1.274-.257h-4.584v8.25h4.584a3.13 3.13 0 001.274-.258c.401-.172.75-.406 1.046-.702.296-.306.53-.654.702-1.046.172-.401.258-.83.258-1.289v-1.661z" fill="#C8B369"/><path d="M227.996 208h-.667v.667h.667V208zm0-14.079h.667l-1.326-.098.659.098zm-.129.873l.627.227.023-.063.01-.066-.66-.098zM223.098 208v.667h.468l.159-.441-.627-.226zm-.974 0l-.627.228.16.439h.467V208zm-4.813-13.206l-.661.087.01.073.025.069.626-.229zm-.114-.873l.661-.087-1.328.087h.667zm0 14.079v.667h.666V208h-.666zm-1.848 0h-.667v.667h.667V208zm0-20.539v-.667h-.667v.667h.667zm.96 0l.625-.231-.161-.436h-.464v.667zm6.23 16.844l.665-.05-.007-.094-.033-.088-.625.232zm.057.759l-.664.05h1.329l-.665-.05zm.058-.759l-.626-.231-.032.087-.007.094.665.05zm6.216-16.844v-.667h-.465l-.161.436.626.231zm.974 0h.666v-.667h-.666v.667zm0 20.539v.667h.666V208h-.666zm-1.181 0v-14.079h-1.334V208h1.334zm-1.326-14.177l-.129.874 1.319.195.129-.874-1.319-.195zm-.097.745l-4.769 13.206 1.254.452 4.769-13.205-1.254-.453zm-4.142 12.765h-.974v1.334h.974v-1.334zm-.348.439l-4.812-13.206-1.253.457 4.812 13.205 1.253-.456zm-4.778-13.064l-.114-.874-1.322.173.114.874 1.322-.173zm-1.442-.787V208h1.333v-14.079h-1.333zm.667 13.412h-1.848v1.334h1.848v-1.334zm-1.181.667v-20.539h-1.334V208h1.334zm-.667-19.872h.96v-1.334h-.96v1.334zm.334-.436l6.231 16.844 1.25-.463-6.23-16.843-1.251.462zm6.191 16.663l.058.759 1.329-.1-.057-.759-1.33.1zm1.387.759l.057-.759-1.329-.1-.057.759 1.329.1zm.018-.578l6.216-16.844-1.251-.462-6.216 16.844 1.251.462zm5.591-16.408h.974v-1.334h-.974v1.334zm.307-.667V208h1.333v-20.539h-1.333zm.667 19.872h-1.848v1.334h1.848v-1.334zm12.403-4.117l.642-.182-.138-.485h-.504v.667zm-6.502 0v-.667h-.505l-.137.487.642.18zM234.398 208v.667h.505l.137-.486-.642-.181zm-1.919 0l-.64-.187-.25.854h.89V208zm6.016-20.539v-.667h-.5l-.14.48.64.187zm.974 0l.639-.188-.141-.479h-.498v.667zM245.513 208v.667h.891l-.251-.855-.64.188zm-1.905 0l-.641.182.138.485h.503V208zm-7.362-6.546l-.641-.182-.242.849h.883v-.667zm5.514 0v.667h.884l-.243-.85-.641.183zm-2.707-9.467l-.664.05.005.068.018.065.641-.183zm-.057-.759l.665-.05h-1.33l.665.05zm-.057.759l.641.182.018-.065.006-.067-.665-.05zm3.308 10.562h-6.502v1.334h6.502v-1.334zm-7.144.487l-1.346 4.783 1.283.362 1.347-4.784-1.284-.361zm-.705 4.297h-1.919v1.334h1.919v-1.334zm-1.279.854l6.016-20.539-1.28-.374-6.016 20.539 1.28.374zm5.376-20.059h.974v-1.334h-.974v1.334zm.334-.479l6.044 20.539 1.28-.376-6.045-20.539-1.279.376zm6.684 19.684h-1.905v1.334h1.905v-1.334zm-1.264.485l-1.36-4.784-1.283.365 1.361 4.783 1.282-.364zm-8.003-5.697h5.514v-1.333h-5.514v1.333zm6.155-.85l-2.707-9.467-1.282.366 2.707 9.468 1.282-.367zm-2.683-9.334l-.057-.759-1.33.1.058.759 1.329-.1zm-1.387-.759l-.057.759 1.33.1.057-.759-1.33-.1zm-.033.627l-2.693 9.467 1.282.365 2.693-9.468-1.282-.364zM259.406 208v.667h.667V208h-.667zm-.587 0l-.558.364.197.303h.361V208zm-1.074-1.647l.558-.364-.517-.794-.572.755.531.403zm-1.633 1.418l.316.587.006-.004-.322-.583zm-5.185.129l-.267.611.011.004.256-.615zm-2.693-2.693l-.614.259.004.008.61-.267zm0-14.953l-.61-.267-.004.008.614.259zm2.693-2.678l.259.614.005-.002-.264-.612zm5.4 0l-.267.61.008.004.259-.614zm2.678 2.678l-.614.259.003.008.611-.267zm.401 2.793l.102.659.565-.088v-.571h-.667zm-1.847.286h-.667v.778l.769-.119-.102-.659zm-.258-2.392l-.613.263.002.005.611-.268zm-1.748-1.747l-.268.61.006.003.262-.613zm-3.852 0l-.263-.613-.005.003.268.61zm-1.046.702l-.464-.479-.007.007.471.472zm-.702 1.045l.611.268.002-.005-.613-.263zm0 13.593l-.613.262.003.006.61-.268zm.702 1.045l-.479.464.007.008.008.007.464-.479zm1.046.702l-.268.611.005.002.263-.613zm3.852 0l-.262-.613-.006.003.268.61zm1.046-.702l.471.472.008-.008-.479-.464zm.702-1.045l.61.268.003-.006-.613-.262zm.258-5.572h.666v-.666h-.666v.666zm-3.28 0h-.667v.667h.667v-.667zm0-1.761v-.667h-.667v.667h.667zm5.127 0h.667v-.667h-.667v.667zm0 10.132h-.587v1.334h.587v-1.334zm-.029.303l-1.074-1.647-1.117.728 1.075 1.647 1.116-.728zm-2.163-1.686c-.394.519-.867.93-1.424 1.237l.644 1.167a5.82 5.82 0 001.842-1.598l-1.062-.806zm-1.418 1.234a3.773 3.773 0 01-1.818.436v1.333c.884 0 1.705-.195 2.45-.595l-.632-1.174zm-1.818.436h-1.074v1.333h1.074v-1.333zm-1.074 0a4.43 4.43 0 01-1.721-.336l-.512 1.231a5.765 5.765 0 002.233.438v-1.333zm-1.71-.331a4.518 4.518 0 01-1.4-.949l-.942.943a5.859 5.859 0 001.808 1.228l.534-1.222zm-1.4-.949a4.518 4.518 0 01-.949-1.4l-1.221.534a5.84 5.84 0 001.228 1.809l.942-.943zm-.945-1.392a4.322 4.322 0 01-.335-1.703h-1.333c0 .781.145 1.524.439 2.221l1.229-.518zm-.335-1.703v-11.029h-1.333v11.029h1.333zm0-11.029c0-.613.113-1.178.335-1.703l-1.229-.518a5.664 5.664 0 00-.439 2.221h1.333zm.331-1.695a4.518 4.518 0 01.949-1.4l-.942-.943a5.84 5.84 0 00-1.228 1.809l1.221.534zm.949-1.4a4.323 4.323 0 011.392-.931l-.518-1.229a5.656 5.656 0 00-1.816 1.217l.942.943zm1.397-.933a4.265 4.265 0 011.713-.347v-1.333a5.62 5.62 0 00-2.241.455l.528 1.225zm1.713-.347h1.461v-1.333h-1.461v1.333zm1.461 0c.609 0 1.172.116 1.695.345l.534-1.221a5.506 5.506 0 00-2.229-.457v1.333zm1.703.349c.533.225.996.535 1.392.931l.942-.943a5.667 5.667 0 00-1.816-1.217l-.518 1.229zm1.392.931c.396.396.706.858.931 1.392l1.228-.518a5.639 5.639 0 00-1.217-1.817l-.942.943zm.934 1.4c.229.523.346 1.086.346 1.695h1.333c0-.785-.151-1.53-.457-2.229l-1.222.534zm.346 1.695v.831h1.333v-.831h-1.333zm.564.172l-1.848.287.205 1.317 1.847-.286-.204-1.318zm-1.079.945v-1.117h-1.333v1.117h1.333zm0-1.117c0-.544-.102-1.061-.314-1.543l-1.221.536c.133.301.202.634.202 1.007h1.333zm-.311-1.537a3.968 3.968 0 00-.844-1.255l-.942.943c.233.234.42.511.56.837l1.226-.525zm-.844-1.255a3.966 3.966 0 00-1.254-.843l-.525 1.226c.326.14.603.327.837.56l.942-.943zm-1.249-.84a3.791 3.791 0 00-1.542-.314v1.333c.372 0 .705.069 1.006.201l.536-1.22zm-1.542-.314h-1.289v1.333h1.289v-1.333zm-1.289 0c-.544 0-1.064.102-1.552.311l.525 1.226a2.565 2.565 0 011.027-.204v-1.333zm-1.557.314a4.194 4.194 0 00-1.242.833l.928.958c.248-.241.53-.43.85-.571l-.536-1.22zm-1.249.84c-.359.359-.64.779-.844 1.255l1.226.525c.14-.326.327-.603.56-.837l-.942-.943zm-.841 1.249a3.796 3.796 0 00-.314 1.543h1.333c0-.373.069-.706.202-1.007l-1.221-.536zm-.314 1.543v11.029h1.333v-11.029h-1.333zm0 11.029c0 .544.102 1.063.311 1.551l1.226-.525a2.564 2.564 0 01-.204-1.026h-1.333zm.314 1.557c.203.464.482.878.833 1.241l.958-.927a2.864 2.864 0 01-.57-.85l-1.221.536zm.848 1.256c.363.352.778.63 1.242.834l.536-1.221c-.32-.14-.602-.33-.85-.57l-.928.957zm1.247.836a3.909 3.909 0 001.552.312v-1.334c-.373 0-.713-.069-1.027-.204l-.525 1.226zm1.552.312h1.289v-1.334h-1.289v1.334zm1.289 0c.544 0 1.06-.103 1.542-.314l-.536-1.221a2.472 2.472 0 01-1.006.201v1.334zm1.537-.312a3.966 3.966 0 001.254-.843l-.942-.943a2.622 2.622 0 01-.837.56l.525 1.226zm1.262-.851a4.19 4.19 0 00.833-1.241l-1.221-.536c-.14.319-.329.601-.57.85l.958.927zm.836-1.247a3.903 3.903 0 00.311-1.551h-1.333c0 .372-.069.712-.204 1.026l1.226.525zm.311-1.551v-4.283h-1.333v4.283h1.333zm-.666-4.949h-3.28v1.333h3.28v-1.333zm-2.614.666v-1.761h-1.333v1.761h1.333zm-.666-1.095h5.127v-1.333h-5.127v1.333zm4.461-.666V208h1.333v-10.799h-1.333zm12.783 6.015l.642-.182-.138-.485h-.504v.667zm-6.502 0v-.667h-.505l-.137.487.642.18zM263.674 208v.667h.505l.137-.486-.642-.181zm-1.919 0l-.64-.187-.25.854h.89V208zm6.016-20.539v-.667h-.5l-.14.48.64.187zm.974 0l.639-.188-.14-.479h-.499v.667zM274.789 208v.667h.891l-.251-.855-.64.188zm-1.905 0l-.641.182.138.485h.503V208zm-7.362-6.546l-.641-.182-.242.849h.883v-.667zm5.514 0v.667h.884l-.243-.85-.641.183zm-2.707-9.467l-.664.05.005.068.018.065.641-.183zm-.057-.759l.665-.05h-1.33l.665.05zm-.057.759l.641.182.019-.065.005-.067-.665-.05zm3.308 10.562h-6.502v1.334h6.502v-1.334zm-7.144.487l-1.346 4.783 1.283.362 1.347-4.784-1.284-.361zm-.705 4.297h-1.919v1.334h1.919v-1.334zm-1.279.854l6.016-20.539-1.28-.374-6.016 20.539 1.28.374zm5.376-20.059h.974v-1.334h-.974v1.334zm.334-.479l6.045 20.539 1.279-.376-6.045-20.539-1.279.376zm6.684 19.684h-1.905v1.334h1.905v-1.334zm-1.264.485l-1.36-4.784-1.283.365 1.361 4.783 1.282-.364zm-8.003-5.697h5.514v-1.333h-5.514v1.333zm6.155-.85l-2.707-9.467-1.282.366 2.707 9.468 1.282-.367zm-2.683-9.334l-.057-.759-1.33.1.058.759 1.329-.1zm-1.387-.759l-.057.759 1.33.1.057-.759-1.33-.1zm-.033.627l-2.693 9.467 1.282.365 2.693-9.468-1.282-.364zm9.55 16.195h-.667v.667h.667V208zm0-20.539v-.667h-.667v.667h.667zm1.847 0h.667v-.667h-.667v.667zm0 18.777h-.666v.667h.666v-.667zm7.864 0h.666v-.666h-.666v.666zm0 1.762v.667h.666V208h-.666zm-9.045 0v-20.539h-1.333V208h1.333zm-.666-19.872h1.847v-1.334h-1.847v1.334zm1.181-.667v18.777h1.333v-18.777h-1.333zm.666 19.444h7.864v-1.333h-7.864v1.333zm7.197-.667V208h1.333v-1.762h-1.333zm.667 1.095h-9.711v1.334h9.711v-1.334zm2.635.667h-.667v.667h.667V208zm0-20.539v-.667h-.667v.667h.667zm1.848 0h.666v-.667h-.666v.667zm0 18.777h-.667v.667h.667v-.667zm7.863 0h.667v-.666h-.667v.666zm0 1.762v.667h.667V208h-.667zm-9.044 0v-20.539h-1.334V208h1.334zm-.667-19.872h1.848v-1.334h-1.848v1.334zm1.181-.667v18.777h1.333v-18.777h-1.333zm.667 19.444h7.863v-1.333h-7.863v1.333zm7.196-.667V208h1.334v-1.762h-1.334zm.667 1.095h-9.711v1.334h9.711v-1.334zm13.793-2.126l-.611-.267-.003.008.614.259zm-2.678 2.693l.259.614.008-.003-.267-.611zm-5.4 0l-.267.611.011.004.256-.615zm-2.693-2.693l-.614.259.003.008.611-.267zm0-14.953l-.611-.267-.003.008.614.259zm2.693-2.678l.259.614.005-.002-.264-.612zm5.4 0l-.268.61.008.004.26-.614zm2.678 2.678l-.614.259.003.008.611-.267zm-1.704.687l-.613.263.002.005.611-.268zm-1.748-1.747l-.268.61.006.003.262-.613zm-3.853 0l-.262-.613-.006.003.268.61zm-1.045.702l-.464-.479-.008.007.472.472zm-.702 1.045l.61.268.003-.005-.613-.263zm0 13.593l-.613.262.002.006.611-.268zm.702 1.045l-.479.464.007.008.008.007.464-.479zm1.045.702l-.268.611.006.002.262-.613zm3.853 0l-.262-.613-.006.003.268.61zm1.046-.702l.471.472.008-.008-.479-.464zm.702-1.045l.61.268.002-.006-.612-.262zm1.438-1.289c0 .609-.116 1.172-.345 1.695l1.222.534a5.503 5.503 0 00.457-2.229h-1.334zm-.348 1.703a4.315 4.315 0 01-.932 1.392l.943.943a5.639 5.639 0 001.217-1.817l-1.228-.518zm-.932 1.392a4.506 4.506 0 01-1.4.949l.535 1.222a5.87 5.87 0 001.808-1.228l-.943-.943zm-1.392.945a4.319 4.319 0 01-1.703.335v1.333c.782 0 1.524-.145 2.222-.439l-.519-1.229zm-1.703.335h-1.461v1.333h1.461v-1.333zm-1.461 0a4.429 4.429 0 01-1.72-.336l-.512 1.231a5.764 5.764 0 002.232.438v-1.333zm-1.709-.331a4.518 4.518 0 01-1.4-.949l-.943.943a5.875 5.875 0 001.809 1.228l.534-1.222zm-1.4-.949a4.518 4.518 0 01-.949-1.4l-1.222.534c.3.685.709 1.29 1.228 1.809l.943-.943zm-.946-1.392a4.34 4.34 0 01-.334-1.703h-1.333c0 .781.145 1.524.439 2.221l1.228-.518zm-.334-1.703v-11.029h-1.333v11.029h1.333zm0-11.029c0-.613.113-1.178.334-1.703l-1.228-.518a5.664 5.664 0 00-.439 2.221h1.333zm.331-1.695a4.518 4.518 0 01.949-1.4l-.943-.943a5.858 5.858 0 00-1.228 1.809l1.222.534zm.949-1.4a4.312 4.312 0 011.392-.931l-.518-1.229a5.671 5.671 0 00-1.817 1.217l.943.943zm1.397-.933a4.26 4.26 0 011.712-.347v-1.333c-.784 0-1.533.151-2.24.455l.528 1.225zm1.712-.347h1.461v-1.333h-1.461v1.333zm1.461 0c.61 0 1.172.116 1.695.345l.535-1.221a5.507 5.507 0 00-2.23-.457v1.333zm1.703.349c.534.225.996.535 1.392.931l.943-.943a5.667 5.667 0 00-1.816-1.217l-.519 1.229zm1.392.931c.396.396.707.858.932 1.392l1.228-.518a5.639 5.639 0 00-1.217-1.817l-.943.943zm.935 1.4c.229.523.345 1.086.345 1.695h1.334c0-.785-.151-1.53-.457-2.229l-1.222.534zm.345 1.695v11.029h1.334v-11.029h-1.334zm-.514 0c0-.544-.102-1.061-.314-1.543l-1.221.536c.132.301.202.634.202 1.007h1.333zm-.312-1.537a3.965 3.965 0 00-.843-1.255l-.943.943c.234.234.421.511.561.837l1.225-.525zm-.843-1.255a3.978 3.978 0 00-1.254-.843l-.525 1.226c.326.14.603.327.836.56l.943-.943zm-1.249-.84a3.796 3.796 0 00-1.543-.314v1.333c.373 0 .706.069 1.007.201l.536-1.22zm-1.543-.314h-1.289v1.333h1.289v-1.333zm-1.289 0c-.544 0-1.063.102-1.551.311l.525 1.226a2.564 2.564 0 011.026-.204v-1.333zm-1.557.314a4.203 4.203 0 00-1.241.833l.928.958c.248-.241.53-.43.849-.571l-.536-1.22zm-1.249.84a3.982 3.982 0 00-.843 1.255l1.226.525c.14-.326.327-.603.56-.837l-.943-.943zm-.841 1.249a3.813 3.813 0 00-.314 1.543h1.334c0-.373.069-.706.201-1.007l-1.221-.536zm-.314 1.543v11.029h1.334v-11.029h-1.334zm0 11.029c0 .544.103 1.063.312 1.551l1.226-.525a2.564 2.564 0 01-.204-1.026h-1.334zm.314 1.557c.204.464.482.878.834 1.241l.958-.927a2.868 2.868 0 01-.571-.85l-1.221.536zm.849 1.256c.363.352.778.63 1.241.834l.536-1.221a2.866 2.866 0 01-.849-.57l-.928.957zm1.247.836a3.904 3.904 0 001.551.312v-1.334c-.372 0-.712-.069-1.026-.204l-.525 1.226zm1.551.312h1.289v-1.334h-1.289v1.334zm1.289 0c.544 0 1.061-.103 1.543-.314l-.536-1.221a2.473 2.473 0 01-1.007.201v1.334zm1.538-.312a3.978 3.978 0 001.254-.843l-.943-.943c-.233.234-.51.421-.836.56l.525 1.226zm1.262-.851c.351-.363.629-.777.833-1.241l-1.221-.536c-.14.319-.33.601-.57.85l.958.927zm.835-1.247c.21-.488.312-1.007.312-1.551h-1.333c0 .372-.07.712-.204 1.026l1.225.525zm.312-1.551v-11.029h-1.333v11.029h1.333zM227.996 245h-.667v.667h.667V245zm0-14.079h.667l-1.326-.098.659.098zm-.129.873l.627.227.023-.063.01-.066-.66-.098zM223.098 245v.667h.468l.159-.441-.627-.226zm-.974 0l-.627.228.16.439h.467V245zm-4.813-13.206l-.661.087.01.073.025.069.626-.229zm-.114-.873l.661-.087-1.328.087h.667zm0 14.079v.667h.666V245h-.666zm-1.848 0h-.667v.667h.667V245zm0-20.539v-.667h-.667v.667h.667zm.96 0l.625-.231-.161-.436h-.464v.667zm6.23 16.844l.665-.05-.007-.094-.033-.088-.625.232zm.057.759l-.664.05h1.329l-.665-.05zm.058-.759l-.626-.231-.032.087-.007.094.665.05zm6.216-16.844v-.667h-.465l-.161.436.626.231zm.974 0h.666v-.667h-.666v.667zm0 20.539v.667h.666V245h-.666zm-1.181 0v-14.079h-1.334V245h1.334zm-1.326-14.177l-.129.874 1.319.195.129-.874-1.319-.195zm-.097.745l-4.769 13.206 1.254.452 4.769-13.205-1.254-.453zm-4.142 12.765h-.974v1.334h.974v-1.334zm-.348.439l-4.812-13.206-1.253.457 4.812 13.205 1.253-.456zm-4.778-13.064l-.114-.874-1.322.173.114.874 1.322-.173zm-1.442-.787V245h1.333v-14.079h-1.333zm.667 13.412h-1.848v1.334h1.848v-1.334zm-1.181.667v-20.539h-1.334V245h1.334zm-.667-19.872h.96v-1.334h-.96v1.334zm.334-.436l6.231 16.844 1.25-.463-6.23-16.843-1.251.462zm6.191 16.663l.058.759 1.329-.1-.057-.759-1.33.1zm1.387.759l.057-.759-1.329-.1-.057.759 1.329.1zm.018-.578l6.216-16.844-1.251-.462-6.216 16.844 1.251.462zm5.591-16.408h.974v-1.334h-.974v1.334zm.307-.667V245h1.333v-20.539h-1.333zm.667 19.872h-1.848v1.334h1.848v-1.334zm4.698.667h-.667v.667h.667V245zm0-20.539v-.667h-.667v.667h.667zm1.847 0h.667v-.667h-.667v.667zm0 20.539v.667h.667V245h-.667zm-1.181 0v-20.539h-1.333V245h1.333zm-.666-19.872h1.847v-1.334h-1.847v1.334zm1.181-.667V245h1.333v-20.539h-1.333zm.666 19.872h-1.847v1.334h1.847v-1.334zm4.412.667h-.667v.667h.667V245zm0-20.539v-.667h-.667v.667h.667zm1.847 0h.667v-.667h-.667v.667zm0 18.777h-.666v.667h.666v-.667zm7.864 0h.666v-.666h-.666v.666zm0 1.762v.667h.666V245h-.666zm-9.045 0v-20.539h-1.333V245h1.333zm-.666-19.872h1.847v-1.334h-1.847v1.334zm1.181-.667v18.777h1.333v-18.777h-1.333zm.666 19.444h7.864v-1.333h-7.864v1.333zm7.197-.667V245h1.333v-1.762h-1.333zm.667 1.095h-9.711v1.334h9.711v-1.334zm12.647.667h-.667v.667h.667V245zm0-9.382h.667v-.666h-.667v.666zm-7.863 0v-.666h-.667v.666h.667zm0 9.382v.667h.666V245h-.666zm-1.848 0h-.667v.667h.667V245zm0-20.539v-.667h-.667v.667h.667zm1.848 0h.666v-.667h-.666v.667zm0 9.396h-.667v.666h.667v-.666zm7.863 0v.666h.667v-.666h-.667zm0-9.396v-.667h-.667v.667h.667zm1.848 0h.666v-.667h-.666v.667zm0 20.539v.667h.666V245h-.666zm-1.181 0v-9.382h-1.334V245h1.334zm-.667-10.048h-7.863v1.333h7.863v-1.333zm-8.53.666V245h1.333v-9.382h-1.333zm.667 8.715h-1.848v1.334h1.848v-1.334zm-1.181.667v-20.539h-1.334V245h1.334zm-.667-19.872h1.848v-1.334h-1.848v1.334zm1.181-.667v9.396h1.333v-9.396h-1.333zm.667 10.062h7.863v-1.333h-7.863v1.333zm8.53-.666v-9.396h-1.334v9.396h1.334zm-.667-8.729h1.848v-1.334h-1.848v1.334zm1.181-.667V245h1.333v-20.539h-1.333zm.667 19.872h-1.848v1.334h1.848v-1.334zm4.712.667h-.667v.667h.667V245zm0-20.539v-.667h-.667v.667h.667zm11.558 0h.667v-.667h-.667v.667zm0 1.762v.666h.667v-.666h-.667zm-9.711 0v-.667h-.666v.667h.666zm0 7.634h-.666v.666h.666v-.666zm7.864 0h.666v-.667h-.666v.667zm0 1.761v.667h.666v-.667h-.666zm-7.864 0v-.666h-.666v.666h.666zm0 7.62h-.666v.667h.666v-.667zm9.711 0h.667v-.666h-.667v.666zm0 1.762v.667h.667V245h-.667zm-10.892 0v-20.539h-1.333V245h1.333zm-.666-19.872h11.558v-1.334h-11.558v1.334zm10.892-.667v1.762h1.333v-1.762h-1.333zm.666 1.095h-9.711v1.333h9.711v-1.333zm-10.377.667v7.634h1.333v-7.634H270.9zm.666 8.3h7.864v-1.333h-7.864v1.333zm7.197-.666v1.761h1.333v-1.761h-1.333zm.667 1.095h-7.864v1.333h7.864v-1.333zm-8.53.666v7.62h1.333v-7.62H270.9zm.666 8.287h9.711v-1.333h-9.711v1.333zm9.045-.667V245h1.333v-1.762h-1.333zm.666 1.095h-11.558v1.334h11.558v-1.334zm11.244-4.117l.641-.182-.138-.485h-.503v.667zm-6.503 0v-.667h-.505l-.137.487.642.18zM284.672 245v.667h.505l.137-.486-.642-.181zm-1.919 0l-.64-.187-.25.854h.89V245zm6.015-20.539v-.667h-.499l-.141.48.64.187zm.974 0l.64-.188-.141-.479h-.499v.667zM295.786 245v.667h.892l-.252-.855-.64.188zm-1.904 0l-.642.182.138.485h.504V245zm-7.362-6.546l-.642-.182-.241.849h.883v-.667zm5.514 0v.667h.884l-.243-.85-.641.183zm-2.707-9.467l-.665.05.005.068.019.065.641-.183zm-.057-.759l.664-.05h-1.329l.665.05zm-.058.759l.641.182.019-.065.005-.067-.665-.05zm3.309 10.562h-6.503v1.334h6.503v-1.334zm-7.145.487l-1.346 4.783 1.284.362 1.346-4.784-1.284-.361zm-.704 4.297h-1.919v1.334h1.919v-1.334zm-1.28.854l6.016-20.539-1.28-.374-6.015 20.539 1.279.374zm5.376-20.059h.974v-1.334h-.974v1.334zm.335-.479l6.044 20.539 1.279-.376-6.044-20.539-1.279.376zm6.683 19.684h-1.904v1.334h1.904v-1.334zm-1.263.485l-1.361-4.784-1.282.365 1.36 4.783 1.283-.364zm-8.003-5.697h5.514v-1.333h-5.514v1.333zm6.155-.85l-2.707-9.467-1.282.366 2.707 9.468 1.282-.367zm-2.683-9.334l-.058-.759-1.329.1.057.759 1.33-.1zm-1.387-.759l-.058.759 1.33.1.057-.759-1.329-.1zm-.034.627l-2.693 9.467 1.283.365 2.692-9.468-1.282-.364zm20.708 13.402l-.611-.267-.004.008.615.259zM306.6 244.9l.259.614.008-.003-.267-.611zm-5.399 0l-.268.611.012.004.256-.615zm-2.693-2.693l-.614.259.003.008.611-.267zm-.387-17.746v-.667h-.667v.667h.667zm1.848 0h.666v-.667h-.666v.667zm.258 17.073l-.613.262.002.006.611-.268zm.701 1.045l-.478.464.007.008.008.007.463-.479zm1.046.702l-.268.611.005.002.263-.613zm3.853 0l-.263-.613-.005.003.268.61zm1.045-.702l.472.472.007-.008-.479-.464zm.702-1.045l.611.268.002-.006-.613-.262zm.258-17.073v-.667h-.667v.667h.667zm1.848 0h.666v-.667h-.666v.667zm-.667 15.784c0 .609-.116 1.172-.345 1.695l1.221.534a5.503 5.503 0 00.457-2.229h-1.333zm-.349 1.703a4.312 4.312 0 01-.931 1.392l.943.943a5.671 5.671 0 001.217-1.817l-1.229-.518zm-.931 1.392a4.518 4.518 0 01-1.4.949l.534 1.222c.685-.3 1.29-.71 1.809-1.228l-.943-.943zm-1.392.945a4.319 4.319 0 01-1.703.335v1.333c.781 0 1.524-.145 2.221-.439l-.518-1.229zm-1.703.335h-1.461v1.333h1.461v-1.333zm-1.461 0a4.434 4.434 0 01-1.721-.336l-.511 1.231a5.764 5.764 0 002.232.438v-1.333zm-1.709-.331a4.518 4.518 0 01-1.4-.949l-.943.943a5.87 5.87 0 001.808 1.228l.535-1.222zm-1.4-.949a4.518 4.518 0 01-.949-1.4l-1.222.534c.3.685.709 1.29 1.228 1.809l.943-.943zm-.946-1.392a4.34 4.34 0 01-.334-1.703h-1.334c0 .781.145 1.524.44 2.221l1.228-.518zm-.334-1.703v-15.784h-1.334v15.784h1.334zm-.667-15.117h1.848v-1.334h-1.848v1.334zm1.181-.667v15.784h1.333v-15.784h-1.333zm0 15.784c0 .544.103 1.063.312 1.551l1.225-.525a2.581 2.581 0 01-.204-1.026h-1.333zm.314 1.557c.204.464.482.878.834 1.241l.957-.927a2.884 2.884 0 01-.57-.85l-1.221.536zm.849 1.256c.362.352.777.63 1.241.834l.536-1.221a2.884 2.884 0 01-.85-.57l-.927.957zm1.246.836a3.912 3.912 0 001.552.312v-1.334c-.373 0-.713-.069-1.026-.204l-.526 1.226zm1.552.312h1.289v-1.334h-1.289v1.334zm1.289 0c.544 0 1.061-.103 1.543-.314l-.536-1.221a2.473 2.473 0 01-1.007.201v1.334zm1.537-.312a3.982 3.982 0 001.255-.843l-.943-.943a2.61 2.61 0 01-.837.56l.525 1.226zm1.262-.851c.352-.363.63-.777.834-1.241l-1.221-.536c-.14.319-.33.601-.57.85l.957.927zm.836-1.247a3.904 3.904 0 00.312-1.551h-1.334c0 .372-.069.712-.204 1.026l1.226.525zm.312-1.551v-15.784h-1.334v15.784h1.334zm-.667-15.117h1.848v-1.334h-1.848v1.334zm1.181-.667v15.784h1.333v-15.784h-1.333zm-82.506 46.568l-.611-.268-.004.009.615.259zm-2.693 2.692l.259.615.005-.002-.264-.613zm-6.617.387v-.667h-.667v.667h.667zm0 7.892v.667h.666V282h-.666zm-1.848 0h-.667v.667h.667V282zm0-20.539v-.667h-.667v.667h.667zm8.465.401l-.267.611.011.005.256-.616zm2.693 2.693l-.616.255.005.012.611-.267zm-1.705.687l-.613.263.003.005.61-.268zm-.716-1.045l-.479.463.007.008.008.007.464-.478zm-1.046-.717l-.268.611.006.002.262-.613zm-5.843-.257v-.667h-.667v.667h.667zm0 9.123h-.667v.667h.667v-.667zm5.843-.257l-.262-.613-.006.002.268.611zm1.046-.702l-.464-.479-.007.007.471.472zm.716-1.032l.611.268.002-.005-.613-.263zm1.439-1.289a4.17 4.17 0 01-.345 1.695l1.221.535a5.507 5.507 0 00.457-2.23h-1.333zm-.349 1.704a4.318 4.318 0 01-.931 1.391l.943.943c.52-.52.926-1.128 1.217-1.816l-1.229-.518zm-.931 1.391a4.445 4.445 0 01-1.411.948l.528 1.225a5.824 5.824 0 001.826-1.23l-.943-.943zm-1.406.946a4.322 4.322 0 01-1.703.334v1.334c.781 0 1.524-.145 2.221-.439l-.518-1.229zm-1.703.334h-4.655v1.334h4.655v-1.334zm-5.322.667V282h1.333v-7.892h-1.333zm.667 7.225h-1.848v1.334h1.848v-1.334zm-1.181.667v-20.539h-1.334V282h1.334zm-.667-19.872h6.503v-1.334h-6.503v1.334zm6.503 0c.609 0 1.172.116 1.695.345l.534-1.222a5.506 5.506 0 00-2.229-.457v1.334zm1.706.35a4.257 4.257 0 011.403.93l.943-.943a5.611 5.611 0 00-1.834-1.219l-.512 1.232zm1.403.93c.394.394.704.859.93 1.402l1.231-.511a5.614 5.614 0 00-1.218-1.834l-.943.943zm.935 1.414c.229.523.345 1.086.345 1.695h1.333a5.51 5.51 0 00-.457-2.23l-1.221.535zm.345 1.695v2.549h1.333v-2.549h-1.333zm-.514 0c0-.544-.103-1.061-.314-1.543l-1.221.536c.132.301.201.634.201 1.007h1.334zm-.312-1.537a3.859 3.859 0 00-.865-1.262l-.928.957c.241.233.429.508.567.83l1.226-.525zm-.85-1.247a3.839 3.839 0 00-1.262-.865l-.525 1.225c.322.138.596.327.829.567l.958-.927zm-1.257-.863a3.795 3.795 0 00-1.542-.314v1.333c.372 0 .705.07 1.006.202l.536-1.221zm-1.542-.314h-4.569v1.333h4.569v-1.333zm-5.236.667v9.123h1.333v-9.123h-1.333zm.667 9.79h4.569v-1.333h-4.569v1.333zm4.569 0c.543 0 1.06-.102 1.542-.314l-.536-1.221a2.472 2.472 0 01-1.006.202v1.333zm1.537-.312a3.95 3.95 0 001.254-.843l-.942-.943a2.64 2.64 0 01-.837.561l.525 1.225zm1.247-.835c.368-.357.656-.772.863-1.243l-1.221-.536a2.583 2.583 0 01-.57.821l.928.958zm.865-1.248a3.909 3.909 0 00.312-1.552h-1.334c0 .373-.069.713-.204 1.027l1.226.525zm.312-1.552v-2.549h-1.334v2.549h1.334zM240.099 282l-.563.358.197.309h.366V282zm-5.572-8.766l.563-.357-.196-.309h-.367v.666zm-2.535 0v-.666h-.666v.666h.666zm0 8.766v.667h.667V282h-.667zm-1.847 0h-.667v.667h.667V282zm0-20.539v-.667h-.667v.667h.667zm8.479.401l-.268.611.009.003.259-.614zm2.678 2.693l-.616.255.005.012.611-.267zm0 5.6l-.612-.264-.002.005.614.259zm-2.678 2.693l.259.614.008-.004-.267-.61zm-1.963.386v-.666h-1.213l.651 1.024.562-.358zm5.572 8.766v.667h1.214l-.651-1.025-.563.358zm-2.635-16.758l-.613.263.002.005.611-.268zm-.702-1.045l-.479.464.007.007.472-.471zm-1.046-.717l-.268.611.006.002.262-.613zm-5.858-.257v-.667h-.666v.667h.666zm0 8.25h-.666v.666h.666v-.666zm5.858-.258l-.262-.613-.006.002.268.611zm1.046-.702l.471.471.008-.007-.479-.464zm.702-1.046l.61.268.002-.005-.612-.263zm1.064 12.175l-5.572-8.765-1.125.715 5.571 8.766 1.126-.716zm-6.135-9.074h-2.535v1.333h2.535v-1.333zm-3.201.666V282h1.333v-8.766h-1.333zm.666 8.099h-1.847v1.334h1.847v-1.334zm-1.181.667v-20.539h-1.333V282h1.333zm-.666-19.872h6.516v-1.334h-6.516v1.334zm6.516 0c.61 0 1.172.116 1.695.345l.535-1.222a5.507 5.507 0 00-2.23-.457v1.334zm1.704.348c.533.225.995.536 1.391.932l.943-.943a5.635 5.635 0 00-1.816-1.217l-.518 1.228zm1.391.932c.395.394.705.859.93 1.402l1.232-.511a5.6 5.6 0 00-1.219-1.834l-.943.943zm.935 1.414c.229.523.345 1.086.345 1.695h1.334a5.51 5.51 0 00-.457-2.23l-1.222.535zm.345 1.695v1.661h1.334v-1.661h-1.334zm0 1.661c0 .61-.116 1.178-.346 1.713l1.224.528a5.603 5.603 0 00.456-2.241h-1.334zm-.348 1.718a4.325 4.325 0 01-.932 1.392l.943.943a5.639 5.639 0 001.217-1.817l-1.228-.518zm-.932 1.392a4.495 4.495 0 01-1.4.949l.535 1.221a5.85 5.85 0 001.808-1.227l-.943-.943zm-1.391.945a4.324 4.324 0 01-1.704.335v1.333c.782 0 1.525-.145 2.222-.439l-.518-1.229zm-2.266 1.359l5.571 8.766 1.126-.716-5.572-8.765-1.125.715zm6.134 7.741h-2.134v1.334h2.134v-1.334zm-1.711-14.816c0-.544-.102-1.061-.314-1.543l-1.221.536c.132.301.202.634.202 1.007h1.333zm-.312-1.537a3.949 3.949 0 00-.843-1.255l-.943.943c.234.234.421.51.561.837l1.225-.525zm-.835-1.247a3.839 3.839 0 00-1.262-.865l-.525 1.225c.322.138.596.327.829.567l.958-.927zm-1.257-.863a3.795 3.795 0 00-1.542-.314v1.333c.372 0 .705.07 1.006.202l.536-1.221zm-1.542-.314h-4.584v1.333h4.584v-1.333zm-5.25.667v8.25h1.333v-8.25h-1.333zm.666 8.916h4.584v-1.333h-4.584v1.333zm4.584 0c.543 0 1.06-.102 1.542-.314l-.536-1.221a2.455 2.455 0 01-1.006.202v1.333zm1.537-.311a3.953 3.953 0 001.254-.844l-.943-.942c-.233.233-.51.42-.836.56l.525 1.226zm1.262-.851c.351-.363.63-.778.833-1.242l-1.221-.536a2.84 2.84 0 01-.57.85l.958.928zm.835-1.247c.21-.488.312-1.008.312-1.552h-1.333c0 .373-.07.713-.204 1.027l1.225.525zm.312-1.552v-1.661h-1.333v1.661h1.333zM245.771 282h-.667v.667h.667V282zm0-20.539v-.667h-.667v.667h.667zm1.847 0h.667v-.667h-.667v.667zm0 20.539v.667h.667V282h-.667zm-1.181 0v-20.539h-1.333V282h1.333zm-.666-19.872h1.847v-1.334h-1.847v1.334zm1.181-.667V282h1.333v-20.539h-1.333zm.666 19.872h-1.847v1.334h1.847v-1.334zm4.713.667h-.667v.667h.667V282zm0-20.539v-.667h-.667v.667h.667zm11.558 0h.667v-.667h-.667v.667zm0 1.762v.666h.667v-.666h-.667zm-9.711 0v-.667h-.666v.667h.666zm0 7.634h-.666v.666h.666v-.666zm7.864 0h.666v-.667h-.666v.667zm0 1.761v.667h.666v-.667h-.666zm-7.864 0v-.666h-.666v.666h.666zm0 7.62h-.666v.667h.666v-.667zm9.711 0h.667v-.666h-.667v.666zm0 1.762v.667h.667V282h-.667zm-10.892 0v-20.539h-1.333V282h1.333zm-.666-19.872h11.558v-1.334h-11.558v1.334zm10.892-.667v1.762h1.333v-1.762h-1.333zm.666 1.095h-9.711v1.333h9.711v-1.333zm-10.377.667v7.634h1.333v-7.634h-1.333zm.666 8.3h7.864v-1.333h-7.864v1.333zm7.197-.666v1.761h1.333v-1.761h-1.333zm.667 1.095h-7.864v1.333h7.864v-1.333zm-8.53.666v7.62h1.333v-7.62h-1.333zm.666 8.287h9.711v-1.333h-9.711v1.333zm9.045-.667V282h1.333v-1.762h-1.333zm.666 1.095h-11.558v1.334h11.558v-1.334zm14.395-2.126l-.611-.267-.003.008.614.259zm-2.679 2.693l.26.614.008-.003-.268-.611zm-5.399 0l-.268.611.012.004.256-.615zm-2.693-2.693l-.614.259.003.008.611-.267zm-.387-17.746v-.667h-.666v.667h.666zm1.848 0h.667v-.667h-.667v.667zm.258 17.073l-.613.262.002.006.611-.268zm.702 1.045l-.479.464.007.008.008.007.464-.479zm1.045.702l-.268.611.006.002.262-.613zm3.853 0l-.263-.613-.005.003.268.61zm1.046-.702l.471.472.007-.008-.478-.464zm.701-1.045l.611.268.002-.006-.613-.262zm.258-17.073v-.667h-.666v.667h.666zm1.848 0h.667v-.667h-.667v.667zm-.667 15.784c0 .609-.116 1.172-.345 1.695l1.222.534a5.503 5.503 0 00.457-2.229h-1.334zm-.348 1.703a4.33 4.33 0 01-.932 1.392l.943.943a5.639 5.639 0 001.217-1.817l-1.228-.518zm-.932 1.392a4.518 4.518 0 01-1.4.949l.535 1.222a5.87 5.87 0 001.808-1.228l-.943-.943zm-1.392.945a4.319 4.319 0 01-1.703.335v1.333c.782 0 1.524-.145 2.222-.439l-.519-1.229zm-1.703.335h-1.461v1.333h1.461v-1.333zm-1.461 0a4.437 4.437 0 01-1.721-.336l-.511 1.231a5.764 5.764 0 002.232.438v-1.333zm-1.709-.331a4.518 4.518 0 01-1.4-.949l-.943.943a5.875 5.875 0 001.809 1.228l.534-1.222zm-1.4-.949a4.518 4.518 0 01-.949-1.4l-1.222.534c.3.685.709 1.29 1.228 1.809l.943-.943zm-.946-1.392a4.34 4.34 0 01-.334-1.703h-1.333c0 .781.145 1.524.439 2.221l1.228-.518zm-.334-1.703v-15.784h-1.333v15.784h1.333zm-.667-15.117h1.848v-1.334h-1.848v1.334zm1.181-.667v15.784h1.334v-15.784h-1.334zm0 15.784c0 .544.103 1.063.312 1.551l1.226-.525a2.564 2.564 0 01-.204-1.026h-1.334zm.314 1.557c.204.464.482.878.834 1.241l.957-.927a2.884 2.884 0 01-.57-.85l-1.221.536zm.849 1.256c.363.352.777.63 1.241.834l.536-1.221a2.884 2.884 0 01-.85-.57l-.927.957zm1.247.836a3.904 3.904 0 001.551.312v-1.334c-.372 0-.712-.069-1.026-.204l-.525 1.226zm1.551.312h1.289v-1.334h-1.289v1.334zm1.289 0c.544 0 1.061-.103 1.543-.314l-.536-1.221a2.473 2.473 0 01-1.007.201v1.334zm1.538-.312a3.978 3.978 0 001.254-.843l-.943-.943a2.6 2.6 0 01-.837.56l.526 1.226zm1.261-.851c.352-.363.63-.777.834-1.241l-1.221-.536c-.14.319-.33.601-.57.85l.957.927zm.836-1.247a3.904 3.904 0 00.312-1.551h-1.333c0 .372-.07.712-.204 1.026l1.225.525zm.312-1.551v-15.784h-1.333v15.784h1.333zm-.667-15.117h1.848v-1.334h-1.848v1.334zm1.181-.667v15.784h1.334v-15.784h-1.334zM292.75 282l-.563.358.197.309h.366V282zm-5.572-8.766l.563-.357-.196-.309h-.367v.666zm-2.535 0v-.666h-.666v.666h.666zm0 8.766v.667h.667V282h-.667zm-1.847 0h-.667v.667h.667V282zm0-20.539v-.667h-.667v.667h.667zm8.479.401l-.268.611.009.003.259-.614zm2.678 2.693l-.616.255.005.012.611-.267zm0 5.6l-.612-.264-.002.005.614.259zm-2.678 2.693l.259.614.008-.004-.267-.61zm-1.963.386v-.666h-1.213l.651 1.024.562-.358zm5.572 8.766v.667h1.214l-.651-1.025-.563.358zm-2.635-16.758l-.613.263.002.005.611-.268zm-.702-1.045l-.479.464.007.007.472-.471zm-1.046-.717l-.268.611.006.002.262-.613zm-5.858-.257v-.667h-.666v.667h.666zm0 8.25h-.666v.666h.666v-.666zm5.858-.258l-.262-.613-.006.002.268.611zm1.046-.702l.471.471.008-.007-.479-.464zm.702-1.046l.61.268.002-.005-.612-.263zm1.064 12.175l-5.572-8.765-1.125.715 5.571 8.766 1.126-.716zm-6.135-9.074h-2.535v1.333h2.535v-1.333zm-3.201.666V282h1.333v-8.766h-1.333zm.666 8.099h-1.847v1.334h1.847v-1.334zm-1.181.667v-20.539h-1.333V282h1.333zm-.666-19.872h6.516v-1.334h-6.516v1.334zm6.516 0c.61 0 1.172.116 1.696.345l.534-1.222a5.507 5.507 0 00-2.23-.457v1.334zm1.704.348c.533.225.995.536 1.391.932l.943-.943a5.635 5.635 0 00-1.816-1.217l-.518 1.228zm1.391.932c.395.394.705.859.93 1.402l1.232-.511a5.6 5.6 0 00-1.219-1.834l-.943.943zm.935 1.414c.229.523.345 1.086.345 1.695h1.334a5.51 5.51 0 00-.457-2.23l-1.222.535zm.345 1.695v1.661h1.334v-1.661h-1.334zm0 1.661c0 .61-.116 1.178-.346 1.713l1.224.528a5.603 5.603 0 00.456-2.241h-1.334zm-.348 1.718a4.31 4.31 0 01-.932 1.392l.943.943a5.639 5.639 0 001.217-1.817l-1.228-.518zm-.932 1.392a4.502 4.502 0 01-1.399.949l.534 1.221a5.85 5.85 0 001.808-1.227l-.943-.943zm-1.391.945a4.324 4.324 0 01-1.704.335v1.333c.782 0 1.525-.145 2.222-.439l-.518-1.229zm-2.266 1.359l5.571 8.766 1.126-.716-5.572-8.765-1.125.715zm6.134 7.741h-2.134v1.334h2.134v-1.334zm-1.711-14.816c0-.544-.102-1.061-.314-1.543l-1.221.536c.132.301.202.634.202 1.007h1.333zm-.312-1.537a3.949 3.949 0 00-.843-1.255l-.943.943c.234.234.421.51.561.837l1.225-.525zm-.835-1.247a3.839 3.839 0 00-1.262-.865l-.525 1.225c.322.138.596.327.829.567l.958-.927zm-1.257-.863a3.795 3.795 0 00-1.542-.314v1.333c.372 0 .705.07 1.006.202l.536-1.221zm-1.542-.314h-4.584v1.333h4.584v-1.333zm-5.25.667v8.25h1.333v-8.25h-1.333zm.666 8.916h4.584v-1.333h-4.584v1.333zm4.584 0c.543 0 1.06-.102 1.542-.314l-.536-1.221a2.455 2.455 0 01-1.006.202v1.333zm1.537-.311a3.953 3.953 0 001.254-.844l-.943-.942c-.233.233-.51.42-.836.56l.525 1.226zm1.262-.851c.351-.363.63-.778.833-1.242l-1.221-.536a2.84 2.84 0 01-.57.85l.958.928zm.835-1.247c.21-.488.312-1.008.312-1.552h-1.333c0 .373-.07.713-.204 1.027l1.225.525zm.312-1.552v-1.661h-1.333v1.661h1.333z" fill="#C8B268"/><path d="M227.996 208h-.667v.667h.667V208zm0-14.079h.667l-1.326-.098.659.098zm-.129.873l.627.227.023-.063.01-.066-.66-.098zM223.098 208v.667h.468l.159-.441-.627-.226zm-.974 0l-.627.228.16.439h.467V208zm-4.813-13.206l-.661.087.01.073.025.069.626-.229zm-.114-.873l.661-.087-1.328.087h.667zm0 14.079v.667h.666V208h-.666zm-1.848 0h-.667v.667h.667V208zm0-20.539v-.667h-.667v.667h.667zm.96 0l.625-.231-.161-.436h-.464v.667zm6.23 16.844l.665-.05-.007-.094-.033-.088-.625.232zm.057.759l-.664.05h1.329l-.665-.05zm.058-.759l-.626-.231-.032.087-.007.094.665.05zm6.216-16.844v-.667h-.465l-.161.436.626.231zm.974 0h.666v-.667h-.666v.667zm0 20.539v.667h.666V208h-.666zm-1.181 0v-14.079h-1.334V208h1.334zm-1.326-14.177l-.129.874 1.319.195.129-.874-1.319-.195zm-.097.745l-4.769 13.206 1.254.452 4.769-13.205-1.254-.453zm-4.142 12.765h-.974v1.334h.974v-1.334zm-.348.439l-4.812-13.206-1.253.457 4.812 13.205 1.253-.456zm-4.778-13.064l-.114-.874-1.322.173.114.874 1.322-.173zm-1.442-.787V208h1.333v-14.079h-1.333zm.667 13.412h-1.848v1.334h1.848v-1.334zm-1.181.667v-20.539h-1.334V208h1.334zm-.667-19.872h.96v-1.334h-.96v1.334zm.334-.436l6.231 16.844 1.25-.463-6.23-16.843-1.251.462zm6.191 16.663l.058.759 1.329-.1-.057-.759-1.33.1zm1.387.759l.057-.759-1.329-.1-.057.759 1.329.1zm.018-.578l6.216-16.844-1.251-.462-6.216 16.844 1.251.462zm5.591-16.408h.974v-1.334h-.974v1.334zm.307-.667V208h1.333v-20.539h-1.333zm.667 19.872h-1.848v1.334h1.848v-1.334zm12.403-4.117l.642-.182-.138-.485h-.504v.667zm-6.502 0v-.667h-.505l-.137.487.642.18zM234.398 208v.667h.505l.137-.486-.642-.181zm-1.919 0l-.64-.187-.25.854h.89V208zm6.016-20.539v-.667h-.5l-.14.48.64.187zm.974 0l.639-.188-.141-.479h-.498v.667zM245.513 208v.667h.891l-.251-.855-.64.188zm-1.905 0l-.641.182.138.485h.503V208zm-7.362-6.546l-.641-.182-.242.849h.883v-.667zm5.514 0v.667h.884l-.243-.85-.641.183zm-2.707-9.467l-.664.05.005.068.018.065.641-.183zm-.057-.759l.665-.05h-1.33l.665.05zm-.057.759l.641.182.018-.065.006-.067-.665-.05zm3.308 10.562h-6.502v1.334h6.502v-1.334zm-7.144.487l-1.346 4.783 1.283.362 1.347-4.784-1.284-.361zm-.705 4.297h-1.919v1.334h1.919v-1.334zm-1.279.854l6.016-20.539-1.28-.374-6.016 20.539 1.28.374zm5.376-20.059h.974v-1.334h-.974v1.334zm.334-.479l6.044 20.539 1.28-.376-6.045-20.539-1.279.376zm6.684 19.684h-1.905v1.334h1.905v-1.334zm-1.264.485l-1.36-4.784-1.283.365 1.361 4.783 1.282-.364zm-8.003-5.697h5.514v-1.333h-5.514v1.333zm6.155-.85l-2.707-9.467-1.282.366 2.707 9.468 1.282-.367zm-2.683-9.334l-.057-.759-1.33.1.058.759 1.329-.1zm-1.387-.759l-.057.759 1.33.1.057-.759-1.33-.1zm-.033.627l-2.693 9.467 1.282.365 2.693-9.468-1.282-.364zM259.406 208v.667h.667V208h-.667zm-.587 0l-.558.364.197.303h.361V208zm-1.074-1.647l.558-.364-.517-.794-.572.755.531.403zm-1.633 1.418l.316.587.006-.004-.322-.583zm-5.185.129l-.267.611.011.004.256-.615zm-2.693-2.693l-.614.259.004.008.61-.267zm0-14.953l-.61-.267-.004.008.614.259zm2.693-2.678l.259.614.005-.002-.264-.612zm5.4 0l-.267.61.008.004.259-.614zm2.678 2.678l-.614.259.003.008.611-.267zm.401 2.793l.102.659.565-.088v-.571h-.667zm-1.847.286h-.667v.778l.769-.119-.102-.659zm-.258-2.392l-.613.263.002.005.611-.268zm-1.748-1.747l-.268.61.006.003.262-.613zm-3.852 0l-.263-.613-.005.003.268.61zm-1.046.702l-.464-.479-.007.007.471.472zm-.702 1.045l.611.268.002-.005-.613-.263zm0 13.593l-.613.262.003.006.61-.268zm.702 1.045l-.479.464.007.008.008.007.464-.479zm1.046.702l-.268.611.005.002.263-.613zm3.852 0l-.262-.613-.006.003.268.61zm1.046-.702l.471.472.008-.008-.479-.464zm.702-1.045l.61.268.003-.006-.613-.262zm.258-5.572h.666v-.666h-.666v.666zm-3.28 0h-.667v.667h.667v-.667zm0-1.761v-.667h-.667v.667h.667zm5.127 0h.667v-.667h-.667v.667zm0 10.132h-.587v1.334h.587v-1.334zm-.029.303l-1.074-1.647-1.117.728 1.075 1.647 1.116-.728zm-2.163-1.686c-.394.519-.867.93-1.424 1.237l.644 1.167a5.82 5.82 0 001.842-1.598l-1.062-.806zm-1.418 1.234a3.773 3.773 0 01-1.818.436v1.333c.884 0 1.705-.195 2.45-.595l-.632-1.174zm-1.818.436h-1.074v1.333h1.074v-1.333zm-1.074 0a4.43 4.43 0 01-1.721-.336l-.512 1.231a5.765 5.765 0 002.233.438v-1.333zm-1.71-.331a4.518 4.518 0 01-1.4-.949l-.942.943a5.859 5.859 0 001.808 1.228l.534-1.222zm-1.4-.949a4.518 4.518 0 01-.949-1.4l-1.221.534a5.84 5.84 0 001.228 1.809l.942-.943zm-.945-1.392a4.322 4.322 0 01-.335-1.703h-1.333c0 .781.145 1.524.439 2.221l1.229-.518zm-.335-1.703v-11.029h-1.333v11.029h1.333zm0-11.029c0-.613.113-1.178.335-1.703l-1.229-.518a5.664 5.664 0 00-.439 2.221h1.333zm.331-1.695a4.518 4.518 0 01.949-1.4l-.942-.943a5.84 5.84 0 00-1.228 1.809l1.221.534zm.949-1.4a4.323 4.323 0 011.392-.931l-.518-1.229a5.656 5.656 0 00-1.816 1.217l.942.943zm1.397-.933a4.265 4.265 0 011.713-.347v-1.333a5.62 5.62 0 00-2.241.455l.528 1.225zm1.713-.347h1.461v-1.333h-1.461v1.333zm1.461 0c.609 0 1.172.116 1.695.345l.534-1.221a5.506 5.506 0 00-2.229-.457v1.333zm1.703.349c.533.225.996.535 1.392.931l.942-.943a5.667 5.667 0 00-1.816-1.217l-.518 1.229zm1.392.931c.396.396.706.858.931 1.392l1.228-.518a5.639 5.639 0 00-1.217-1.817l-.942.943zm.934 1.4c.229.523.346 1.086.346 1.695h1.333c0-.785-.151-1.53-.457-2.229l-1.222.534zm.346 1.695v.831h1.333v-.831h-1.333zm.564.172l-1.848.287.205 1.317 1.847-.286-.204-1.318zm-1.079.945v-1.117h-1.333v1.117h1.333zm0-1.117c0-.544-.102-1.061-.314-1.543l-1.221.536c.133.301.202.634.202 1.007h1.333zm-.311-1.537a3.968 3.968 0 00-.844-1.255l-.942.943c.233.234.42.511.56.837l1.226-.525zm-.844-1.255a3.966 3.966 0 00-1.254-.843l-.525 1.226c.326.14.603.327.837.56l.942-.943zm-1.249-.84a3.791 3.791 0 00-1.542-.314v1.333c.372 0 .705.069 1.006.201l.536-1.22zm-1.542-.314h-1.289v1.333h1.289v-1.333zm-1.289 0c-.544 0-1.064.102-1.552.311l.525 1.226a2.565 2.565 0 011.027-.204v-1.333zm-1.557.314a4.194 4.194 0 00-1.242.833l.928.958c.248-.241.53-.43.85-.571l-.536-1.22zm-1.249.84c-.359.359-.64.779-.844 1.255l1.226.525c.14-.326.327-.603.56-.837l-.942-.943zm-.841 1.249a3.796 3.796 0 00-.314 1.543h1.333c0-.373.069-.706.202-1.007l-1.221-.536zm-.314 1.543v11.029h1.333v-11.029h-1.333zm0 11.029c0 .544.102 1.063.311 1.551l1.226-.525a2.564 2.564 0 01-.204-1.026h-1.333zm.314 1.557c.203.464.482.878.833 1.241l.958-.927a2.864 2.864 0 01-.57-.85l-1.221.536zm.848 1.256c.363.352.778.63 1.242.834l.536-1.221c-.32-.14-.602-.33-.85-.57l-.928.957zm1.247.836a3.909 3.909 0 001.552.312v-1.334c-.373 0-.713-.069-1.027-.204l-.525 1.226zm1.552.312h1.289v-1.334h-1.289v1.334zm1.289 0c.544 0 1.06-.103 1.542-.314l-.536-1.221a2.472 2.472 0 01-1.006.201v1.334zm1.537-.312a3.966 3.966 0 001.254-.843l-.942-.943a2.622 2.622 0 01-.837.56l.525 1.226zm1.262-.851a4.19 4.19 0 00.833-1.241l-1.221-.536c-.14.319-.329.601-.57.85l.958.927zm.836-1.247a3.903 3.903 0 00.311-1.551h-1.333c0 .372-.069.712-.204 1.026l1.226.525zm.311-1.551v-4.283h-1.333v4.283h1.333zm-.666-4.949h-3.28v1.333h3.28v-1.333zm-2.614.666v-1.761h-1.333v1.761h1.333zm-.666-1.095h5.127v-1.333h-5.127v1.333zm4.461-.666V208h1.333v-10.799h-1.333zm12.783 6.015l.642-.182-.138-.485h-.504v.667zm-6.502 0v-.667h-.505l-.137.487.642.18zM263.674 208v.667h.505l.137-.486-.642-.181zm-1.919 0l-.64-.187-.25.854h.89V208zm6.016-20.539v-.667h-.5l-.14.48.64.187zm.974 0l.639-.188-.14-.479h-.499v.667zM274.789 208v.667h.891l-.251-.855-.64.188zm-1.905 0l-.641.182.138.485h.503V208zm-7.362-6.546l-.641-.182-.242.849h.883v-.667zm5.514 0v.667h.884l-.243-.85-.641.183zm-2.707-9.467l-.664.05.005.068.018.065.641-.183zm-.057-.759l.665-.05h-1.33l.665.05zm-.057.759l.641.182.019-.065.005-.067-.665-.05zm3.308 10.562h-6.502v1.334h6.502v-1.334zm-7.144.487l-1.346 4.783 1.283.362 1.347-4.784-1.284-.361zm-.705 4.297h-1.919v1.334h1.919v-1.334zm-1.279.854l6.016-20.539-1.28-.374-6.016 20.539 1.28.374zm5.376-20.059h.974v-1.334h-.974v1.334zm.334-.479l6.045 20.539 1.279-.376-6.045-20.539-1.279.376zm6.684 19.684h-1.905v1.334h1.905v-1.334zm-1.264.485l-1.36-4.784-1.283.365 1.361 4.783 1.282-.364zm-8.003-5.697h5.514v-1.333h-5.514v1.333zm6.155-.85l-2.707-9.467-1.282.366 2.707 9.468 1.282-.367zm-2.683-9.334l-.057-.759-1.33.1.058.759 1.329-.1zm-1.387-.759l-.057.759 1.33.1.057-.759-1.33-.1zm-.033.627l-2.693 9.467 1.282.365 2.693-9.468-1.282-.364zm9.55 16.195h-.667v.667h.667V208zm0-20.539v-.667h-.667v.667h.667zm1.847 0h.667v-.667h-.667v.667zm0 18.777h-.666v.667h.666v-.667zm7.864 0h.666v-.666h-.666v.666zm0 1.762v.667h.666V208h-.666zm-9.045 0v-20.539h-1.333V208h1.333zm-.666-19.872h1.847v-1.334h-1.847v1.334zm1.181-.667v18.777h1.333v-18.777h-1.333zm.666 19.444h7.864v-1.333h-7.864v1.333zm7.197-.667V208h1.333v-1.762h-1.333zm.667 1.095h-9.711v1.334h9.711v-1.334zm2.635.667h-.667v.667h.667V208zm0-20.539v-.667h-.667v.667h.667zm1.848 0h.666v-.667h-.666v.667zm0 18.777h-.667v.667h.667v-.667zm7.863 0h.667v-.666h-.667v.666zm0 1.762v.667h.667V208h-.667zm-9.044 0v-20.539h-1.334V208h1.334zm-.667-19.872h1.848v-1.334h-1.848v1.334zm1.181-.667v18.777h1.333v-18.777h-1.333zm.667 19.444h7.863v-1.333h-7.863v1.333zm7.196-.667V208h1.334v-1.762h-1.334zm.667 1.095h-9.711v1.334h9.711v-1.334zm13.793-2.126l-.611-.267-.003.008.614.259zm-2.678 2.693l.259.614.008-.003-.267-.611zm-5.4 0l-.267.611.011.004.256-.615zm-2.693-2.693l-.614.259.003.008.611-.267zm0-14.953l-.611-.267-.003.008.614.259zm2.693-2.678l.259.614.005-.002-.264-.612zm5.4 0l-.268.61.008.004.26-.614zm2.678 2.678l-.614.259.003.008.611-.267zm-1.704.687l-.613.263.002.005.611-.268zm-1.748-1.747l-.268.61.006.003.262-.613zm-3.853 0l-.262-.613-.006.003.268.61zm-1.045.702l-.464-.479-.008.007.472.472zm-.702 1.045l.61.268.003-.005-.613-.263zm0 13.593l-.613.262.002.006.611-.268zm.702 1.045l-.479.464.007.008.008.007.464-.479zm1.045.702l-.268.611.006.002.262-.613zm3.853 0l-.262-.613-.006.003.268.61zm1.046-.702l.471.472.008-.008-.479-.464zm.702-1.045l.61.268.002-.006-.612-.262zm1.438-1.289c0 .609-.116 1.172-.345 1.695l1.222.534a5.503 5.503 0 00.457-2.229h-1.334zm-.348 1.703a4.315 4.315 0 01-.932 1.392l.943.943a5.639 5.639 0 001.217-1.817l-1.228-.518zm-.932 1.392a4.506 4.506 0 01-1.4.949l.535 1.222a5.87 5.87 0 001.808-1.228l-.943-.943zm-1.392.945a4.319 4.319 0 01-1.703.335v1.333c.782 0 1.524-.145 2.222-.439l-.519-1.229zm-1.703.335h-1.461v1.333h1.461v-1.333zm-1.461 0a4.429 4.429 0 01-1.72-.336l-.512 1.231a5.764 5.764 0 002.232.438v-1.333zm-1.709-.331a4.518 4.518 0 01-1.4-.949l-.943.943a5.875 5.875 0 001.809 1.228l.534-1.222zm-1.4-.949a4.518 4.518 0 01-.949-1.4l-1.222.534c.3.685.709 1.29 1.228 1.809l.943-.943zm-.946-1.392a4.34 4.34 0 01-.334-1.703h-1.333c0 .781.145 1.524.439 2.221l1.228-.518zm-.334-1.703v-11.029h-1.333v11.029h1.333zm0-11.029c0-.613.113-1.178.334-1.703l-1.228-.518a5.664 5.664 0 00-.439 2.221h1.333zm.331-1.695a4.518 4.518 0 01.949-1.4l-.943-.943a5.858 5.858 0 00-1.228 1.809l1.222.534zm.949-1.4a4.312 4.312 0 011.392-.931l-.518-1.229a5.671 5.671 0 00-1.817 1.217l.943.943zm1.397-.933a4.26 4.26 0 011.712-.347v-1.333c-.784 0-1.533.151-2.24.455l.528 1.225zm1.712-.347h1.461v-1.333h-1.461v1.333zm1.461 0c.61 0 1.172.116 1.695.345l.535-1.221a5.507 5.507 0 00-2.23-.457v1.333zm1.703.349c.534.225.996.535 1.392.931l.943-.943a5.667 5.667 0 00-1.816-1.217l-.519 1.229zm1.392.931c.396.396.707.858.932 1.392l1.228-.518a5.639 5.639 0 00-1.217-1.817l-.943.943zm.935 1.4c.229.523.345 1.086.345 1.695h1.334c0-.785-.151-1.53-.457-2.229l-1.222.534zm.345 1.695v11.029h1.334v-11.029h-1.334zm-.514 0c0-.544-.102-1.061-.314-1.543l-1.221.536c.132.301.202.634.202 1.007h1.333zm-.312-1.537a3.965 3.965 0 00-.843-1.255l-.943.943c.234.234.421.511.561.837l1.225-.525zm-.843-1.255a3.978 3.978 0 00-1.254-.843l-.525 1.226c.326.14.603.327.836.56l.943-.943zm-1.249-.84a3.796 3.796 0 00-1.543-.314v1.333c.373 0 .706.069 1.007.201l.536-1.22zm-1.543-.314h-1.289v1.333h1.289v-1.333zm-1.289 0c-.544 0-1.063.102-1.551.311l.525 1.226a2.564 2.564 0 011.026-.204v-1.333zm-1.557.314a4.203 4.203 0 00-1.241.833l.928.958c.248-.241.53-.43.849-.571l-.536-1.22zm-1.249.84a3.982 3.982 0 00-.843 1.255l1.226.525c.14-.326.327-.603.56-.837l-.943-.943zm-.841 1.249a3.813 3.813 0 00-.314 1.543h1.334c0-.373.069-.706.201-1.007l-1.221-.536zm-.314 1.543v11.029h1.334v-11.029h-1.334zm0 11.029c0 .544.103 1.063.312 1.551l1.226-.525a2.564 2.564 0 01-.204-1.026h-1.334zm.314 1.557c.204.464.482.878.834 1.241l.958-.927a2.868 2.868 0 01-.571-.85l-1.221.536zm.849 1.256c.363.352.778.63 1.241.834l.536-1.221a2.866 2.866 0 01-.849-.57l-.928.957zm1.247.836a3.904 3.904 0 001.551.312v-1.334c-.372 0-.712-.069-1.026-.204l-.525 1.226zm1.551.312h1.289v-1.334h-1.289v1.334zm1.289 0c.544 0 1.061-.103 1.543-.314l-.536-1.221a2.473 2.473 0 01-1.007.201v1.334zm1.538-.312a3.978 3.978 0 001.254-.843l-.943-.943c-.233.234-.51.421-.836.56l.525 1.226zm1.262-.851c.351-.363.629-.777.833-1.241l-1.221-.536c-.14.319-.33.601-.57.85l.958.927zm.835-1.247c.21-.488.312-1.007.312-1.551h-1.333c0 .372-.07.712-.204 1.026l1.225.525zm.312-1.551v-11.029h-1.333v11.029h1.333zM227.996 245h-.667v.667h.667V245zm0-14.079h.667l-1.326-.098.659.098zm-.129.873l.627.227.023-.063.01-.066-.66-.098zM223.098 245v.667h.468l.159-.441-.627-.226zm-.974 0l-.627.228.16.439h.467V245zm-4.813-13.206l-.661.087.01.073.025.069.626-.229zm-.114-.873l.661-.087-1.328.087h.667zm0 14.079v.667h.666V245h-.666zm-1.848 0h-.667v.667h.667V245zm0-20.539v-.667h-.667v.667h.667zm.96 0l.625-.231-.161-.436h-.464v.667zm6.23 16.844l.665-.05-.007-.094-.033-.088-.625.232zm.057.759l-.664.05h1.329l-.665-.05zm.058-.759l-.626-.231-.032.087-.007.094.665.05zm6.216-16.844v-.667h-.465l-.161.436.626.231zm.974 0h.666v-.667h-.666v.667zm0 20.539v.667h.666V245h-.666zm-1.181 0v-14.079h-1.334V245h1.334zm-1.326-14.177l-.129.874 1.319.195.129-.874-1.319-.195zm-.097.745l-4.769 13.206 1.254.452 4.769-13.205-1.254-.453zm-4.142 12.765h-.974v1.334h.974v-1.334zm-.348.439l-4.812-13.206-1.253.457 4.812 13.205 1.253-.456zm-4.778-13.064l-.114-.874-1.322.173.114.874 1.322-.173zm-1.442-.787V245h1.333v-14.079h-1.333zm.667 13.412h-1.848v1.334h1.848v-1.334zm-1.181.667v-20.539h-1.334V245h1.334zm-.667-19.872h.96v-1.334h-.96v1.334zm.334-.436l6.231 16.844 1.25-.463-6.23-16.843-1.251.462zm6.191 16.663l.058.759 1.329-.1-.057-.759-1.33.1zm1.387.759l.057-.759-1.329-.1-.057.759 1.329.1zm.018-.578l6.216-16.844-1.251-.462-6.216 16.844 1.251.462zm5.591-16.408h.974v-1.334h-.974v1.334zm.307-.667V245h1.333v-20.539h-1.333zm.667 19.872h-1.848v1.334h1.848v-1.334zm4.698.667h-.667v.667h.667V245zm0-20.539v-.667h-.667v.667h.667zm1.847 0h.667v-.667h-.667v.667zm0 20.539v.667h.667V245h-.667zm-1.181 0v-20.539h-1.333V245h1.333zm-.666-19.872h1.847v-1.334h-1.847v1.334zm1.181-.667V245h1.333v-20.539h-1.333zm.666 19.872h-1.847v1.334h1.847v-1.334zm4.412.667h-.667v.667h.667V245zm0-20.539v-.667h-.667v.667h.667zm1.847 0h.667v-.667h-.667v.667zm0 18.777h-.666v.667h.666v-.667zm7.864 0h.666v-.666h-.666v.666zm0 1.762v.667h.666V245h-.666zm-9.045 0v-20.539h-1.333V245h1.333zm-.666-19.872h1.847v-1.334h-1.847v1.334zm1.181-.667v18.777h1.333v-18.777h-1.333zm.666 19.444h7.864v-1.333h-7.864v1.333zm7.197-.667V245h1.333v-1.762h-1.333zm.667 1.095h-9.711v1.334h9.711v-1.334zm12.647.667h-.667v.667h.667V245zm0-9.382h.667v-.666h-.667v.666zm-7.863 0v-.666h-.667v.666h.667zm0 9.382v.667h.666V245h-.666zm-1.848 0h-.667v.667h.667V245zm0-20.539v-.667h-.667v.667h.667zm1.848 0h.666v-.667h-.666v.667zm0 9.396h-.667v.666h.667v-.666zm7.863 0v.666h.667v-.666h-.667zm0-9.396v-.667h-.667v.667h.667zm1.848 0h.666v-.667h-.666v.667zm0 20.539v.667h.666V245h-.666zm-1.181 0v-9.382h-1.334V245h1.334zm-.667-10.048h-7.863v1.333h7.863v-1.333zm-8.53.666V245h1.333v-9.382h-1.333zm.667 8.715h-1.848v1.334h1.848v-1.334zm-1.181.667v-20.539h-1.334V245h1.334zm-.667-19.872h1.848v-1.334h-1.848v1.334zm1.181-.667v9.396h1.333v-9.396h-1.333zm.667 10.062h7.863v-1.333h-7.863v1.333zm8.53-.666v-9.396h-1.334v9.396h1.334zm-.667-8.729h1.848v-1.334h-1.848v1.334zm1.181-.667V245h1.333v-20.539h-1.333zm.667 19.872h-1.848v1.334h1.848v-1.334zm4.712.667h-.667v.667h.667V245zm0-20.539v-.667h-.667v.667h.667zm11.558 0h.667v-.667h-.667v.667zm0 1.762v.666h.667v-.666h-.667zm-9.711 0v-.667h-.666v.667h.666zm0 7.634h-.666v.666h.666v-.666zm7.864 0h.666v-.667h-.666v.667zm0 1.761v.667h.666v-.667h-.666zm-7.864 0v-.666h-.666v.666h.666zm0 7.62h-.666v.667h.666v-.667zm9.711 0h.667v-.666h-.667v.666zm0 1.762v.667h.667V245h-.667zm-10.892 0v-20.539h-1.333V245h1.333zm-.666-19.872h11.558v-1.334h-11.558v1.334zm10.892-.667v1.762h1.333v-1.762h-1.333zm.666 1.095h-9.711v1.333h9.711v-1.333zm-10.377.667v7.634h1.333v-7.634H270.9zm.666 8.3h7.864v-1.333h-7.864v1.333zm7.197-.666v1.761h1.333v-1.761h-1.333zm.667 1.095h-7.864v1.333h7.864v-1.333zm-8.53.666v7.62h1.333v-7.62H270.9zm.666 8.287h9.711v-1.333h-9.711v1.333zm9.045-.667V245h1.333v-1.762h-1.333zm.666 1.095h-11.558v1.334h11.558v-1.334zm11.244-4.117l.641-.182-.138-.485h-.503v.667zm-6.503 0v-.667h-.505l-.137.487.642.18zM284.672 245v.667h.505l.137-.486-.642-.181zm-1.919 0l-.64-.187-.25.854h.89V245zm6.015-20.539v-.667h-.499l-.141.48.64.187zm.974 0l.64-.188-.141-.479h-.499v.667zM295.786 245v.667h.892l-.252-.855-.64.188zm-1.904 0l-.642.182.138.485h.504V245zm-7.362-6.546l-.642-.182-.241.849h.883v-.667zm5.514 0v.667h.884l-.243-.85-.641.183zm-2.707-9.467l-.665.05.005.068.019.065.641-.183zm-.057-.759l.664-.05h-1.329l.665.05zm-.058.759l.641.182.019-.065.005-.067-.665-.05zm3.309 10.562h-6.503v1.334h6.503v-1.334zm-7.145.487l-1.346 4.783 1.284.362 1.346-4.784-1.284-.361zm-.704 4.297h-1.919v1.334h1.919v-1.334zm-1.28.854l6.016-20.539-1.28-.374-6.015 20.539 1.279.374zm5.376-20.059h.974v-1.334h-.974v1.334zm.335-.479l6.044 20.539 1.279-.376-6.044-20.539-1.279.376zm6.683 19.684h-1.904v1.334h1.904v-1.334zm-1.263.485l-1.361-4.784-1.282.365 1.36 4.783 1.283-.364zm-8.003-5.697h5.514v-1.333h-5.514v1.333zm6.155-.85l-2.707-9.467-1.282.366 2.707 9.468 1.282-.367zm-2.683-9.334l-.058-.759-1.329.1.057.759 1.33-.1zm-1.387-.759l-.058.759 1.33.1.057-.759-1.329-.1zm-.034.627l-2.693 9.467 1.283.365 2.692-9.468-1.282-.364zm20.708 13.402l-.611-.267-.004.008.615.259zM306.6 244.9l.259.614.008-.003-.267-.611zm-5.399 0l-.268.611.012.004.256-.615zm-2.693-2.693l-.614.259.003.008.611-.267zm-.387-17.746v-.667h-.667v.667h.667zm1.848 0h.666v-.667h-.666v.667zm.258 17.073l-.613.262.002.006.611-.268zm.701 1.045l-.478.464.007.008.008.007.463-.479zm1.046.702l-.268.611.005.002.263-.613zm3.853 0l-.263-.613-.005.003.268.61zm1.045-.702l.472.472.007-.008-.479-.464zm.702-1.045l.611.268.002-.006-.613-.262zm.258-17.073v-.667h-.667v.667h.667zm1.848 0h.666v-.667h-.666v.667zm-.667 15.784c0 .609-.116 1.172-.345 1.695l1.221.534a5.503 5.503 0 00.457-2.229h-1.333zm-.349 1.703a4.312 4.312 0 01-.931 1.392l.943.943a5.671 5.671 0 001.217-1.817l-1.229-.518zm-.931 1.392a4.518 4.518 0 01-1.4.949l.534 1.222c.685-.3 1.29-.71 1.809-1.228l-.943-.943zm-1.392.945a4.319 4.319 0 01-1.703.335v1.333c.781 0 1.524-.145 2.221-.439l-.518-1.229zm-1.703.335h-1.461v1.333h1.461v-1.333zm-1.461 0a4.434 4.434 0 01-1.721-.336l-.511 1.231a5.764 5.764 0 002.232.438v-1.333zm-1.709-.331a4.518 4.518 0 01-1.4-.949l-.943.943a5.87 5.87 0 001.808 1.228l.535-1.222zm-1.4-.949a4.518 4.518 0 01-.949-1.4l-1.222.534c.3.685.709 1.29 1.228 1.809l.943-.943zm-.946-1.392a4.34 4.34 0 01-.334-1.703h-1.334c0 .781.145 1.524.44 2.221l1.228-.518zm-.334-1.703v-15.784h-1.334v15.784h1.334zm-.667-15.117h1.848v-1.334h-1.848v1.334zm1.181-.667v15.784h1.333v-15.784h-1.333zm0 15.784c0 .544.103 1.063.312 1.551l1.225-.525a2.581 2.581 0 01-.204-1.026h-1.333zm.314 1.557c.204.464.482.878.834 1.241l.957-.927a2.884 2.884 0 01-.57-.85l-1.221.536zm.849 1.256c.362.352.777.63 1.241.834l.536-1.221a2.884 2.884 0 01-.85-.57l-.927.957zm1.246.836a3.912 3.912 0 001.552.312v-1.334c-.373 0-.713-.069-1.026-.204l-.526 1.226zm1.552.312h1.289v-1.334h-1.289v1.334zm1.289 0c.544 0 1.061-.103 1.543-.314l-.536-1.221a2.473 2.473 0 01-1.007.201v1.334zm1.537-.312a3.982 3.982 0 001.255-.843l-.943-.943a2.61 2.61 0 01-.837.56l.525 1.226zm1.262-.851c.352-.363.63-.777.834-1.241l-1.221-.536c-.14.319-.33.601-.57.85l.957.927zm.836-1.247a3.904 3.904 0 00.312-1.551h-1.334c0 .372-.069.712-.204 1.026l1.226.525zm.312-1.551v-15.784h-1.334v15.784h1.334zm-.667-15.117h1.848v-1.334h-1.848v1.334zm1.181-.667v15.784h1.333v-15.784h-1.333zm-82.506 46.568l-.611-.268-.004.009.615.259zm-2.693 2.692l.259.615.005-.002-.264-.613zm-6.617.387v-.667h-.667v.667h.667zm0 7.892v.667h.666V282h-.666zm-1.848 0h-.667v.667h.667V282zm0-20.539v-.667h-.667v.667h.667zm8.465.401l-.267.611.011.005.256-.616zm2.693 2.693l-.616.255.005.012.611-.267zm-1.705.687l-.613.263.003.005.61-.268zm-.716-1.045l-.479.463.007.008.008.007.464-.478zm-1.046-.717l-.268.611.006.002.262-.613zm-5.843-.257v-.667h-.667v.667h.667zm0 9.123h-.667v.667h.667v-.667zm5.843-.257l-.262-.613-.006.002.268.611zm1.046-.702l-.464-.479-.007.007.471.472zm.716-1.032l.611.268.002-.005-.613-.263zm1.439-1.289a4.17 4.17 0 01-.345 1.695l1.221.535a5.507 5.507 0 00.457-2.23h-1.333zm-.349 1.704a4.318 4.318 0 01-.931 1.391l.943.943c.52-.52.926-1.128 1.217-1.816l-1.229-.518zm-.931 1.391a4.445 4.445 0 01-1.411.948l.528 1.225a5.824 5.824 0 001.826-1.23l-.943-.943zm-1.406.946a4.322 4.322 0 01-1.703.334v1.334c.781 0 1.524-.145 2.221-.439l-.518-1.229zm-1.703.334h-4.655v1.334h4.655v-1.334zm-5.322.667V282h1.333v-7.892h-1.333zm.667 7.225h-1.848v1.334h1.848v-1.334zm-1.181.667v-20.539h-1.334V282h1.334zm-.667-19.872h6.503v-1.334h-6.503v1.334zm6.503 0c.609 0 1.172.116 1.695.345l.534-1.222a5.506 5.506 0 00-2.229-.457v1.334zm1.706.35a4.257 4.257 0 011.403.93l.943-.943a5.611 5.611 0 00-1.834-1.219l-.512 1.232zm1.403.93c.394.394.704.859.93 1.402l1.231-.511a5.614 5.614 0 00-1.218-1.834l-.943.943zm.935 1.414c.229.523.345 1.086.345 1.695h1.333a5.51 5.51 0 00-.457-2.23l-1.221.535zm.345 1.695v2.549h1.333v-2.549h-1.333zm-.514 0c0-.544-.103-1.061-.314-1.543l-1.221.536c.132.301.201.634.201 1.007h1.334zm-.312-1.537a3.859 3.859 0 00-.865-1.262l-.928.957c.241.233.429.508.567.83l1.226-.525zm-.85-1.247a3.839 3.839 0 00-1.262-.865l-.525 1.225c.322.138.596.327.829.567l.958-.927zm-1.257-.863a3.795 3.795 0 00-1.542-.314v1.333c.372 0 .705.07 1.006.202l.536-1.221zm-1.542-.314h-4.569v1.333h4.569v-1.333zm-5.236.667v9.123h1.333v-9.123h-1.333zm.667 9.79h4.569v-1.333h-4.569v1.333zm4.569 0c.543 0 1.06-.102 1.542-.314l-.536-1.221a2.472 2.472 0 01-1.006.202v1.333zm1.537-.312a3.95 3.95 0 001.254-.843l-.942-.943a2.64 2.64 0 01-.837.561l.525 1.225zm1.247-.835c.368-.357.656-.772.863-1.243l-1.221-.536a2.583 2.583 0 01-.57.821l.928.958zm.865-1.248a3.909 3.909 0 00.312-1.552h-1.334c0 .373-.069.713-.204 1.027l1.226.525zm.312-1.552v-2.549h-1.334v2.549h1.334zM240.099 282l-.563.358.197.309h.366V282zm-5.572-8.766l.563-.357-.196-.309h-.367v.666zm-2.535 0v-.666h-.666v.666h.666zm0 8.766v.667h.667V282h-.667zm-1.847 0h-.667v.667h.667V282zm0-20.539v-.667h-.667v.667h.667zm8.479.401l-.268.611.009.003.259-.614zm2.678 2.693l-.616.255.005.012.611-.267zm0 5.6l-.612-.264-.002.005.614.259zm-2.678 2.693l.259.614.008-.004-.267-.61zm-1.963.386v-.666h-1.213l.651 1.024.562-.358zm5.572 8.766v.667h1.214l-.651-1.025-.563.358zm-2.635-16.758l-.613.263.002.005.611-.268zm-.702-1.045l-.479.464.007.007.472-.471zm-1.046-.717l-.268.611.006.002.262-.613zm-5.858-.257v-.667h-.666v.667h.666zm0 8.25h-.666v.666h.666v-.666zm5.858-.258l-.262-.613-.006.002.268.611zm1.046-.702l.471.471.008-.007-.479-.464zm.702-1.046l.61.268.002-.005-.612-.263zm1.064 12.175l-5.572-8.765-1.125.715 5.571 8.766 1.126-.716zm-6.135-9.074h-2.535v1.333h2.535v-1.333zm-3.201.666V282h1.333v-8.766h-1.333zm.666 8.099h-1.847v1.334h1.847v-1.334zm-1.181.667v-20.539h-1.333V282h1.333zm-.666-19.872h6.516v-1.334h-6.516v1.334zm6.516 0c.61 0 1.172.116 1.695.345l.535-1.222a5.507 5.507 0 00-2.23-.457v1.334zm1.704.348c.533.225.995.536 1.391.932l.943-.943a5.635 5.635 0 00-1.816-1.217l-.518 1.228zm1.391.932c.395.394.705.859.93 1.402l1.232-.511a5.6 5.6 0 00-1.219-1.834l-.943.943zm.935 1.414c.229.523.345 1.086.345 1.695h1.334a5.51 5.51 0 00-.457-2.23l-1.222.535zm.345 1.695v1.661h1.334v-1.661h-1.334zm0 1.661c0 .61-.116 1.178-.346 1.713l1.224.528a5.603 5.603 0 00.456-2.241h-1.334zm-.348 1.718a4.325 4.325 0 01-.932 1.392l.943.943a5.639 5.639 0 001.217-1.817l-1.228-.518zm-.932 1.392a4.495 4.495 0 01-1.4.949l.535 1.221a5.85 5.85 0 001.808-1.227l-.943-.943zm-1.391.945a4.324 4.324 0 01-1.704.335v1.333c.782 0 1.525-.145 2.222-.439l-.518-1.229zm-2.266 1.359l5.571 8.766 1.126-.716-5.572-8.765-1.125.715zm6.134 7.741h-2.134v1.334h2.134v-1.334zm-1.711-14.816c0-.544-.102-1.061-.314-1.543l-1.221.536c.132.301.202.634.202 1.007h1.333zm-.312-1.537a3.949 3.949 0 00-.843-1.255l-.943.943c.234.234.421.51.561.837l1.225-.525zm-.835-1.247a3.839 3.839 0 00-1.262-.865l-.525 1.225c.322.138.596.327.829.567l.958-.927zm-1.257-.863a3.795 3.795 0 00-1.542-.314v1.333c.372 0 .705.07 1.006.202l.536-1.221zm-1.542-.314h-4.584v1.333h4.584v-1.333zm-5.25.667v8.25h1.333v-8.25h-1.333zm.666 8.916h4.584v-1.333h-4.584v1.333zm4.584 0c.543 0 1.06-.102 1.542-.314l-.536-1.221a2.455 2.455 0 01-1.006.202v1.333zm1.537-.311a3.953 3.953 0 001.254-.844l-.943-.942c-.233.233-.51.42-.836.56l.525 1.226zm1.262-.851c.351-.363.63-.778.833-1.242l-1.221-.536a2.84 2.84 0 01-.57.85l.958.928zm.835-1.247c.21-.488.312-1.008.312-1.552h-1.333c0 .373-.07.713-.204 1.027l1.225.525zm.312-1.552v-1.661h-1.333v1.661h1.333zM245.771 282h-.667v.667h.667V282zm0-20.539v-.667h-.667v.667h.667zm1.847 0h.667v-.667h-.667v.667zm0 20.539v.667h.667V282h-.667zm-1.181 0v-20.539h-1.333V282h1.333zm-.666-19.872h1.847v-1.334h-1.847v1.334zm1.181-.667V282h1.333v-20.539h-1.333zm.666 19.872h-1.847v1.334h1.847v-1.334zm4.713.667h-.667v.667h.667V282zm0-20.539v-.667h-.667v.667h.667zm11.558 0h.667v-.667h-.667v.667zm0 1.762v.666h.667v-.666h-.667zm-9.711 0v-.667h-.666v.667h.666zm0 7.634h-.666v.666h.666v-.666zm7.864 0h.666v-.667h-.666v.667zm0 1.761v.667h.666v-.667h-.666zm-7.864 0v-.666h-.666v.666h.666zm0 7.62h-.666v.667h.666v-.667zm9.711 0h.667v-.666h-.667v.666zm0 1.762v.667h.667V282h-.667zm-10.892 0v-20.539h-1.333V282h1.333zm-.666-19.872h11.558v-1.334h-11.558v1.334zm10.892-.667v1.762h1.333v-1.762h-1.333zm.666 1.095h-9.711v1.333h9.711v-1.333zm-10.377.667v7.634h1.333v-7.634h-1.333zm.666 8.3h7.864v-1.333h-7.864v1.333zm7.197-.666v1.761h1.333v-1.761h-1.333zm.667 1.095h-7.864v1.333h7.864v-1.333zm-8.53.666v7.62h1.333v-7.62h-1.333zm.666 8.287h9.711v-1.333h-9.711v1.333zm9.045-.667V282h1.333v-1.762h-1.333zm.666 1.095h-11.558v1.334h11.558v-1.334zm14.395-2.126l-.611-.267-.003.008.614.259zm-2.679 2.693l.26.614.008-.003-.268-.611zm-5.399 0l-.268.611.012.004.256-.615zm-2.693-2.693l-.614.259.003.008.611-.267zm-.387-17.746v-.667h-.666v.667h.666zm1.848 0h.667v-.667h-.667v.667zm.258 17.073l-.613.262.002.006.611-.268zm.702 1.045l-.479.464.007.008.008.007.464-.479zm1.045.702l-.268.611.006.002.262-.613zm3.853 0l-.263-.613-.005.003.268.61zm1.046-.702l.471.472.007-.008-.478-.464zm.701-1.045l.611.268.002-.006-.613-.262zm.258-17.073v-.667h-.666v.667h.666zm1.848 0h.667v-.667h-.667v.667zm-.667 15.784c0 .609-.116 1.172-.345 1.695l1.222.534a5.503 5.503 0 00.457-2.229h-1.334zm-.348 1.703a4.33 4.33 0 01-.932 1.392l.943.943a5.639 5.639 0 001.217-1.817l-1.228-.518zm-.932 1.392a4.518 4.518 0 01-1.4.949l.535 1.222a5.87 5.87 0 001.808-1.228l-.943-.943zm-1.392.945a4.319 4.319 0 01-1.703.335v1.333c.782 0 1.524-.145 2.222-.439l-.519-1.229zm-1.703.335h-1.461v1.333h1.461v-1.333zm-1.461 0a4.437 4.437 0 01-1.721-.336l-.511 1.231a5.764 5.764 0 002.232.438v-1.333zm-1.709-.331a4.518 4.518 0 01-1.4-.949l-.943.943a5.875 5.875 0 001.809 1.228l.534-1.222zm-1.4-.949a4.518 4.518 0 01-.949-1.4l-1.222.534c.3.685.709 1.29 1.228 1.809l.943-.943zm-.946-1.392a4.34 4.34 0 01-.334-1.703h-1.333c0 .781.145 1.524.439 2.221l1.228-.518zm-.334-1.703v-15.784h-1.333v15.784h1.333zm-.667-15.117h1.848v-1.334h-1.848v1.334zm1.181-.667v15.784h1.334v-15.784h-1.334zm0 15.784c0 .544.103 1.063.312 1.551l1.226-.525a2.564 2.564 0 01-.204-1.026h-1.334zm.314 1.557c.204.464.482.878.834 1.241l.957-.927a2.884 2.884 0 01-.57-.85l-1.221.536zm.849 1.256c.363.352.777.63 1.241.834l.536-1.221a2.884 2.884 0 01-.85-.57l-.927.957zm1.247.836a3.904 3.904 0 001.551.312v-1.334c-.372 0-.712-.069-1.026-.204l-.525 1.226zm1.551.312h1.289v-1.334h-1.289v1.334zm1.289 0c.544 0 1.061-.103 1.543-.314l-.536-1.221a2.473 2.473 0 01-1.007.201v1.334zm1.538-.312a3.978 3.978 0 001.254-.843l-.943-.943a2.6 2.6 0 01-.837.56l.526 1.226zm1.261-.851c.352-.363.63-.777.834-1.241l-1.221-.536c-.14.319-.33.601-.57.85l.957.927zm.836-1.247a3.904 3.904 0 00.312-1.551h-1.333c0 .372-.07.712-.204 1.026l1.225.525zm.312-1.551v-15.784h-1.333v15.784h1.333zm-.667-15.117h1.848v-1.334h-1.848v1.334zm1.181-.667v15.784h1.334v-15.784h-1.334zM292.75 282l-.563.358.197.309h.366V282zm-5.572-8.766l.563-.357-.196-.309h-.367v.666zm-2.535 0v-.666h-.666v.666h.666zm0 8.766v.667h.667V282h-.667zm-1.847 0h-.667v.667h.667V282zm0-20.539v-.667h-.667v.667h.667zm8.479.401l-.268.611.009.003.259-.614zm2.678 2.693l-.616.255.005.012.611-.267zm0 5.6l-.612-.264-.002.005.614.259zm-2.678 2.693l.259.614.008-.004-.267-.61zm-1.963.386v-.666h-1.213l.651 1.024.562-.358zm5.572 8.766v.667h1.214l-.651-1.025-.563.358zm-2.635-16.758l-.613.263.002.005.611-.268zm-.702-1.045l-.479.464.007.007.472-.471zm-1.046-.717l-.268.611.006.002.262-.613zm-5.858-.257v-.667h-.666v.667h.666zm0 8.25h-.666v.666h.666v-.666zm5.858-.258l-.262-.613-.006.002.268.611zm1.046-.702l.471.471.008-.007-.479-.464zm.702-1.046l.61.268.002-.005-.612-.263zm1.064 12.175l-5.572-8.765-1.125.715 5.571 8.766 1.126-.716zm-6.135-9.074h-2.535v1.333h2.535v-1.333zm-3.201.666V282h1.333v-8.766h-1.333zm.666 8.099h-1.847v1.334h1.847v-1.334zm-1.181.667v-20.539h-1.333V282h1.333zm-.666-19.872h6.516v-1.334h-6.516v1.334zm6.516 0c.61 0 1.172.116 1.696.345l.534-1.222a5.507 5.507 0 00-2.23-.457v1.334zm1.704.348c.533.225.995.536 1.391.932l.943-.943a5.635 5.635 0 00-1.816-1.217l-.518 1.228zm1.391.932c.395.394.705.859.93 1.402l1.232-.511a5.6 5.6 0 00-1.219-1.834l-.943.943zm.935 1.414c.229.523.345 1.086.345 1.695h1.334a5.51 5.51 0 00-.457-2.23l-1.222.535zm.345 1.695v1.661h1.334v-1.661h-1.334zm0 1.661c0 .61-.116 1.178-.346 1.713l1.224.528a5.603 5.603 0 00.456-2.241h-1.334zm-.348 1.718a4.31 4.31 0 01-.932 1.392l.943.943a5.639 5.639 0 001.217-1.817l-1.228-.518zm-.932 1.392a4.502 4.502 0 01-1.399.949l.534 1.221a5.85 5.85 0 001.808-1.227l-.943-.943zm-1.391.945a4.324 4.324 0 01-1.704.335v1.333c.782 0 1.525-.145 2.222-.439l-.518-1.229zm-2.266 1.359l5.571 8.766 1.126-.716-5.572-8.765-1.125.715zm6.134 7.741h-2.134v1.334h2.134v-1.334zm-1.711-14.816c0-.544-.102-1.061-.314-1.543l-1.221.536c.132.301.202.634.202 1.007h1.333zm-.312-1.537a3.949 3.949 0 00-.843-1.255l-.943.943c.234.234.421.51.561.837l1.225-.525zm-.835-1.247a3.839 3.839 0 00-1.262-.865l-.525 1.225c.322.138.596.327.829.567l.958-.927zm-1.257-.863a3.795 3.795 0 00-1.542-.314v1.333c.372 0 .705.07 1.006.202l.536-1.221zm-1.542-.314h-4.584v1.333h4.584v-1.333zm-5.25.667v8.25h1.333v-8.25h-1.333zm.666 8.916h4.584v-1.333h-4.584v1.333zm4.584 0c.543 0 1.06-.102 1.542-.314l-.536-1.221a2.455 2.455 0 01-1.006.202v1.333zm1.537-.311a3.953 3.953 0 001.254-.844l-.943-.942c-.233.233-.51.42-.836.56l.525 1.226zm1.262-.851c.351-.363.63-.778.833-1.242l-1.221-.536a2.84 2.84 0 01-.57.85l.958.928zm.835-1.247c.21-.488.312-1.008.312-1.552h-1.333c0 .373-.07.713-.204 1.027l1.225.525zm.312-1.552v-1.661h-1.333v1.661h1.333z" fill="url(#paint9_diamond)"/><defs><radialGradient id="paint0_diamond" cx="0" cy="0" r="1" gradientUnits="userSpaceOnUse" gradientTransform="matrix(0 -186.667 180 0 182 188.667)"><stop stop-color="#F9DA95"/><stop offset="1" stop-color="#fff" stop-opacity="0"/></radialGradient><radialGradient id="paint1_diamond" cx="0" cy="0" r="1" gradientUnits="userSpaceOnUse" gradientTransform="matrix(0 -75.0664 77.7762 0 161.879 131.894)"><stop stop-color="#F9DA95"/><stop offset="1" stop-color="#fff" stop-opacity="0"/></radialGradient><radialGradient id="paint2_diamond" cx="0" cy="0" r="1" gradientUnits="userSpaceOnUse" gradientTransform="matrix(0 -2.01 .28933 0 91.776 144.094)"><stop stop-color="#F9DA95"/><stop offset="1" stop-color="#fff" stop-opacity="0"/></radialGradient><radialGradient id="paint3_diamond" cx="0" cy="0" r="1" gradientUnits="userSpaceOnUse" gradientTransform="scale(52.9568 80.0799) rotate(-90 2.7 .294)"><stop stop-color="#F9DA95"/><stop offset="1" stop-color="#fff" stop-opacity="0"/></radialGradient><radialGradient id="paint4_diamond" cx="0" cy="0" r="1" gradientUnits="userSpaceOnUse" gradientTransform="matrix(0 -6.88533 8.94133 0 100.912 140.201)"><stop stop-color="#F9DA95"/><stop offset="1" stop-color="#fff" stop-opacity="0"/></radialGradient><radialGradient id="paint5_diamond" cx="0" cy="0" r="1" gradientUnits="userSpaceOnUse" gradientTransform="matrix(0 -8.07 1.39349 0 90.577 155.158)"><stop stop-color="#F9DA95"/><stop offset="1" stop-color="#fff" stop-opacity="0"/></radialGradient><radialGradient id="paint6_diamond" cx="0" cy="0" r="1" gradientUnits="userSpaceOnUse" gradientTransform="matrix(0 -12.4347 9.298 0 163.182 248.772)"><stop stop-color="#F9DA95"/><stop offset="1" stop-color="#fff" stop-opacity="0"/></radialGradient><radialGradient id="paint7_diamond" cx="0" cy="0" r="1" gradientUnits="userSpaceOnUse" gradientTransform="matrix(0 -11.307 20.6393 0 162.08 225.064)"><stop stop-color="#F9DA95"/><stop offset="1" stop-color="#fff" stop-opacity="0"/></radialGradient><radialGradient id="paint8_diamond" cx="0" cy="0" r="1" gradientUnits="userSpaceOnUse" gradientTransform="matrix(0 -.112 20.2173 0 162.075 223.824)"><stop stop-color="#F9DA95"/><stop offset="1" stop-color="#fff" stop-opacity="0"/></radialGradient><radialGradient id="paint9_diamond" cx="0" cy="0" r="1" gradientUnits="userSpaceOnUse" gradientTransform="matrix(0 60.5 -51.5 0 264.5 239.5)"><stop stop-color="#F9DA95"/><stop offset="1" stop-color="#fff" stop-opacity="0"/></radialGradient></defs></svg>